<?xml version="1.0" encoding="UTF-8"?>
<svg width="27.83mm" height="7.21mm" version="1.1" viewBox="0 0 27.83 7.21" xmlns="http://www.w3.org/2000/svg"><g transform="translate(5.821 -129.6)" stroke-width=".635"><path class="write-flat-pen" d="m-2.606 132 0.04498-0.0706 0.06773-0.0775 0.08625-0.1252 0.1183-0.1733 0.1072-0.1873 0.08149-0.1828 0.06588-0.1794 0.04577-0.1918-0.02646-0.1976-0.0725-0.1683-0.1492-0.1312-0.1794-0.0651-0.1738-0.0378-0.2096-0.0175-0.2416 0.0336-0.2479 0.0984-0.2715 0.1572-0.2786 0.2384-0.2868 0.2974-0.2831 0.3694-0.2932 0.4572-0.3061 0.5316-0.2966 0.5871-0.2675 0.5972-0.1852 0.594-0.06297 0.5464 0.07408 0.4895 0.1947 0.4257 0.281 0.3524 0.3313 0.2786 0.3448 0.223 0.3794 0.1722 0.3977 0.1196 0.4011 0.0699 0.3987 2e-3 0.3948-0.073 0.3479-0.1389 0.3204-0.1932 0.2947-0.2199 0.2641-0.2 0.2408-0.1961 0.1794-0.2032 0.1389-0.1878 0.1042-0.1783 0.05239-0.1714 0.0418-0.1558-0.01005-0.1754-0.06879-0.1619-0.1431-0.1392-0.186-0.0852-0.2159-0.0484-0.2334-0.0291-0.2439 0.018-0.2506 0.063-0.2453 0.1503-0.1791 0.2397-0.1019 0.299-0.03016 0.3241 0.06747 0.3389 0.1455 0.3199 0.2408 0.2709 0.3217 0.1852 0.3363 0.0939 0.3559 0.0291 0.344-0.0429 0.3249-0.0947 0.2998-0.1307 0.2614-0.1648 0.1926-0.1894 0.1249-0.1992 0.0635-0.2209-0.00979-0.2103-0.05794-0.2024-0.1251-0.1958-0.1749-0.1662-0.2133-0.1397-0.2297-0.1154-0.2598-0.0984-0.2884-0.0603-0.245-0.0323-0.2514-0.0145-0.241 0.0474-0.2619 0.2058 0.1527 0.2998 0.2061 0.0905 0.367 0.0325 0.06853-0.2738-0.2802-0.1294 0.00318-0.0336 0.1064 0.19-0.1532 0.1278 0.0553 1e-3 0.1693 0.0164 0.2066 0.0302 0.2257 0.0487 0.1918 0.0728 0.1754 0.0878 0.145 0.0931 0.08996 0.0831 0.04604 0.069 0.01984 0.0622 0.005556 0.0553-0.01349 0.0593-0.04736 0.0807-0.1029 0.1069-0.1746 0.1154-0.2297 0.1032-0.2516 0.0765-0.2479 0.0349-0.2514-0.018-0.2249-0.0619-0.1921-0.1103-0.1328-0.1498-0.08837-0.1942-0.04128-0.2069 0.01588-0.19 0.05398-0.168 0.07012-0.1032 0.09737-0.0683 0.1394-0.0458 0.1603-0.0283 0.1717 2e-3 0.1585 0.0143 0.09419 0.0235 0.059 0.032 0.04075 0.0405 0.03598 0.0738 0.01085 0.1087-0.01005 0.1402-0.0672 0.149-0.1257 0.1701-0.1632 0.1857-0.2273 0.1783-0.2654 0.1736-0.3127 0.1381-0.3188 0.0881-0.3056 0.0479-0.3223 5e-3 -0.3175-0.0294-0.3313-0.0699-0.3339-0.0987-0.3059-0.1386-0.2789-0.1823-0.2609-0.2199-0.2013-0.2551-0.1326-0.2905-0.05106-0.3363 0.04657-0.4191 0.1574-0.512 0.2466-0.5562 0.2799-0.5652 0.2858-0.512 0.2672-0.4313 0.2466-0.3315 0.2434-0.2638 0.2193-0.1979 0.1963-0.123 0.1572-0.073 0.1318-0.0288 0.1331-2e-3 0.1228 9e-3 0.0852 0.0127 0.03757 0.01 0.03625 0.0339 0.03598 0.0825-0.00132 0.1199-0.02752 0.1632-0.04286 0.1754-0.06429 0.1863-0.08493 0.1857-0.05345 0.1394-0.0418 0.0939-0.03122 0.0828" __comx="580.726" __comy="339.56" __timestamp="0x1963b016196"/><path class="write-flat-pen" d="m1.507 135.2-0.04075-0.0431-0.03519-0.0249-0.03069-0.0452-0.03731-0.055-0.01588-0.0503 0.00132-0.0609-2.646e-4 -0.0704 0.00106-0.0852 0.00212-0.0971-0.00635-0.1061-0.00767-0.1072-0.01561-0.1082-0.01588-0.0953-0.01482-0.1016-0.01244-0.0976-0.00344-0.1042-0.00688-0.1098-0.00582-0.1172-0.00635-0.113-7.937e-4 -0.0976-0.00291-0.0966-0.00529-0.0947-0.01482-0.0614-7.937e-4 -0.0246-0.421 0.0519-0.003175 8e-3 -0.001852 0.0616 0.006615 0.1302 0.02117 0.2037 0.03625 0.2715 0.05133 0.3159 0.05794 0.3516 0.05768 0.3522 0.06032 0.3424 0.06906 0.3066 0.07144 0.2715 0.07726 0.2188 0.0971 0.1963 0.1328 0.1585 0.1897 0.1135 0.2143 2e-3 0.1889-0.0773 0.1463-0.1445 0.09922-0.1659 0.09446-0.1794 0.08784-0.2074 0.06588-0.2056 0.06773-0.2106 0.0418-0.2236 0.03731-0.1749 0.04048-0.1413 0.02646-0.0664-0.1206 0.1484-0.2442-0.1929-0.00106-7.9e-4 0.04339 0.1566 0.06376 0.1995 0.06879 0.2146 0.1072 0.214 0.1188 0.1966 0.172 0.1609 0.1868 0.0939 0.2159 0.0505 0.2209-0.0376 0.1828-0.0847 0.1622-0.1394 0.1214-0.1704 0.08943-0.1601 0.07514-0.1558 0.05953-0.1265 0.04313-0.0804 0.05371-0.0585 0.03836-0.0344-0.06535 0.0373-0.1323-0.0328-0.0127-0.0156 0.04789 0.0966 0.08202 0.1717 0.08493 0.2003 0.09446 0.2069 0.1021 0.2207 0.1347 0.2056 0.1347 0.1709 0.1484 0.149 0.1598 0.1024 0.1746 0.0606 0.1884 2e-3 0.1921-0.0661 0.1344-0.1093 0.1135-0.1294 0.1778-0.2476-0.1609-0.1714-0.2429 0.1471-0.1204 0.0421-0.08387 0.0151-0.05636-4e-3 -0.03016-0.0138-0.04392-0.0175-0.05768-0.0381-0.08546-0.0841-0.09922-0.1257-0.09842-0.1527-0.08546-0.1847-0.09208-0.1982-0.08652-0.204-0.08943-0.1865-0.0762-0.1527-0.1378-0.1714-0.2566-0.0646-0.1752 0.1-0.1011 0.0908-0.1177 0.1283-0.08202 0.1534-0.06482 0.1381-0.06535 0.1397-0.06641 0.1201-0.06509 0.0942-0.0553 0.0481-0.05106 0.0241-0.04392 9e-3 -0.04868-0.0111-0.06244-0.031-0.06218-0.0566-0.068-0.1154-0.07964-0.1595-0.05636-0.1752-0.06059-0.1894-0.03466-0.1244-0.03281-0.172-0.3223-0.2545-0.2603 0.3196-0.06668 0.1667-0.05292 0.186-0.04075 0.1995-0.03625 0.1963-0.05741 0.1794-0.05847 0.1844-0.06826 0.1662-0.07699 0.1479-0.05662 0.0987-0.02514 0.027 0.00212 5.3e-4 0.02752 2e-3 0.00291 5e-3 -0.03863-0.0447-0.059-0.1148-0.06324-0.1709-0.06906-0.2426-0.07064-0.2855-0.06482-0.3276-0.06668-0.3487-0.0672-0.3492-0.05742-0.3077-0.04154-0.2582-0.02514-0.1852-9e-3 -0.1037-0.00185-0.0471-0.00317-8e-3 -0.421 0.0519 0.01455 0.037 0.01588 0.032 0.01005 0.0458 0.0127 0.09 0.01561 0.1056 0.02461 0.1201 0.02487 0.1167 0.02461 0.1087 0.02752 0.1132 0.03466 0.1053 0.03122 0.1005 0.03122 0.0915 0.03069 0.0939 0.02408 0.0961 0.02461 0.0963 0.01746 0.0897 0.0164 0.0862 0.01614 0.0701 0.01693 0.0796 0.04577 0.0738 0.05688 0.054 0.0463 0.0482 0.04286 0.0222 0.03836 0.0339" __comx="604.075" __comy="339.56" __timestamp="0x1963b0165b0"/><path class="write-flat-pen" d="m6.731 134.7-0.01376-0.0823-0.00423-0.0966-0.01482-0.1246-0.03757-0.1765-0.04657-0.1572-0.04075-0.1527-0.04128-0.1085-0.02858-0.1077-0.09128-0.1042-0.2238-0.0672-0.108 0.2008-0.03969 0.1352-0.02222 0.1765-0.02937 0.245-0.0209 0.2961-0.01244 0.3461 0.01402 0.344 0.03969 0.3376 0.07541 0.2699 0.06985 0.2233 0.1085 0.1849 0.1495 0.1378 0.19 0.0606 0.2016-0.0487 0.1527-0.1072 0.1183-0.1511 0.0799-0.1762 0.06509-0.19 0.0344-0.1796 0.03122-0.1617 0.03175-0.154 0.02672-0.1283 0.04418-0.1162 0.0291-0.1027 7.938e-4 -2e-3 -0.1707 0.1426-0.1537-0.1532 0.01693 0.0278 0.02461 0.0646 0.03572 0.1283 0.04366 0.1574 0.07012 0.1601 0.09208 0.1389 0.1302 0.1148 0.1479 0.054 0.131 0.0259 0.1712-0.014 0.1378-0.0627 0.1289-0.0767 0.09313-0.1154 0.06615-0.0873 0.04339-0.0974 0.0217-0.0497-0.02355 0.0474-0.2188 0.0537-0.07435-0.0743 0.03413 0.0392 0.04154 0.0693 0.04075 0.1455 0.0799 0.1926 0.09313 0.1886 0.1228 0.2058 0.1929 0.149 0.2154 0.099 0.2413 0.0339 0.2437-0.0299 0.2305-0.0741 0.2392-0.1053 0.2529-0.1564 0.232-0.1802 0.2222-0.2127 0.1905-0.2225 0.1585-0.236 0.1095-0.2164 0.07541-0.2127 0.04472-0.2212-0.0217-0.2133-0.07408-0.2016-0.155-0.1818-0.1863-0.1058-0.2043-0.0722-0.2167-0.0299h-0.2365l-0.2305 0.0526-0.2299 0.1106-0.1691 0.2093-0.08599 0.2487-0.03916 0.2709 0.01746 0.3069 0.05186 0.304 0.1005 0.3299 0.1786 0.2916 0.2273 0.2551 0.2863 0.1873 0.3223 0.1042 0.3416 0.046 0.3268-0.0275 0.326-0.0783 0.313-0.1267 0.2963-0.159 0.2648-0.1714 0.2379-0.1963 0.2233-0.2228-0.06588-0.0955-0.2773 0.1233-0.2762 0.0839-0.281 0.0942-0.2947 0.0902-0.2789 0.0754-0.2662 0.046-0.2344 0.0198-0.235-0.0317-0.2072-0.0672-0.1654-0.1082-0.1471-0.1656-0.1169-0.1916-0.07091-0.2312-0.04154-0.2408-0.01429-0.2225 0.02355-0.1651 0.03916-0.1095 0.03307-0.0402 0.06562-0.0299 0.1122-0.0254h0.1381l0.1259 0.0172 0.1077 0.0365 0.06218 0.0347 0.03254 0.036 0.01931 0.0476 0.0093 0.0667-0.01773 0.1061-0.04895 0.1455-0.07726 0.158-0.1228 0.1844-0.1524 0.1818-0.182 0.1773-0.1886 0.1468-0.1995 0.1236-0.1812 0.0815-0.1582 0.0511-0.1299 0.0164-0.1021-0.0124-0.09578-0.0415-0.0717-0.0532-0.06403-0.1061-0.07805-0.154-0.06059-0.15-0.05265-0.1818-0.09895-0.1646-0.07461-0.0852-0.1371-0.1368-0.2815 0.0693-0.0852 0.1725-0.0254 0.059-0.01905 0.0434-0.02725 0.0368-0.03096 0.0407-0.02725 0.0164-0.0336 0.0153-0.01561 1e-3 -0.02514-5e-3 -0.02328-8e-3 -0.01032-9e-3 -0.03202-0.0487-0.03863-0.0884-0.03413-0.1236-0.04233-0.1519-0.05318-0.1376-0.07646-0.113-0.2008-0.2003-0.2638 0.2204-0.06191 0.1389-0.03254 0.1159-0.05027 0.1323-0.03492 0.1683-0.03069 0.158-0.03122 0.1646-0.02752 0.1476-0.04445 0.1373-0.04418 0.1037-0.03757 0.0519-0.01878 0.0169 0.01482-2e-3 0.03413 0.0132-0.02196-0.018-0.04736-0.0799-0.0545-0.1656-0.06509-0.2289-0.03836-0.2852-0.01667-0.3106 0.00291-0.3238 0.01005-0.2805 0.01773-0.2373 0.00873-0.1508 0.00767-0.068-0.06165 0.1074-0.1611-0.0511-0.01323-0.0273 0.03413 0.0481 0.06747 0.0947 0.068 0.1275 0.07858 0.1384 0.07117 0.1508 0.04762 0.1093 0.04207 0.0902 0.04048 0.0775" __comx="626.278" __comy="339.56" __timestamp="0x1963b0168f3"/><path class="write-flat-pen" d="m12.67 134.3-0.05503-0.0696-0.05503-0.0839-0.06668-0.1373-0.07117-0.1596-0.03731-0.1458-0.0077-0.096 0.0053-0.0532-0.3056-0.0222-0.04075 0.0468-0.01349 0.1228-0.01826 0.132-0.0254 0.2016-0.02249 0.2511-0.02249 0.2873-0.0037 0.308 0.01349 0.3241 0.04815 0.2998 0.08096 0.2873 0.1521 0.2458 0.1894 0.1696 0.2439 0.0987 0.2619-0.0103 0.2344-0.0833 0.2204-0.1431 0.2027-0.1836 0.191-0.2056 0.1894-0.2225 0.1812-0.2548 0.1593-0.2469 0.141-0.2201 0.1201-0.1453 0.09631-0.0746 0.04789-0.0222h-0.01614l-0.0058-3e-3 0.03837 0.0577 0.07355 0.163 0.09234 0.2318 0.1169 0.2678 0.1617 0.2709 0.1765 0.2492 0.2252 0.1736 0.254 0.113 0.2675 0.0172 0.2508-0.1056 0.2238-0.173 0.195-0.2508 0.1812-0.2971 0.1699-0.3416 0.1214-0.3633 0.08917-0.3738 0.05662-0.3773 0.03942-0.3847 0.04683-0.4061 0.03942-0.4262 0.02328-0.4617 0.03281-0.4977 0.03466-0.5138 0.03704-0.4826 0.02884-0.3974 0.04868-0.2588 0.03413-0.1183-0.3963 0.0722-5.3e-4 0.01 0.0254 0.1384 0.02567 0.3162 0.0426 0.4511 0.04022 0.5273 0.04048 0.6109 0.06562 0.6284 0.068 0.6236 0.1021 0.5794 0.1042 0.5146 0.1336 0.4254 0.1543 0.3347 0.1643 0.2561 0.1606 0.1606 0.1185 0.1 0.1323 0.0778 0.08414-1e-3 0.1812-0.4379-0.04498-0.0423-0.0934-0.0786-0.1278-0.0902-0.1635-0.1384-0.2204-0.146-0.2516-0.1609-0.2672-0.1797-0.2577-0.1966-0.2421-0.1953-0.1865-0.1707-0.1455-0.1437-0.05927-0.0548-0.0024 3e-3 -0.154 0.2812 0.01164-5e-3 0.07249 0.0167 0.1738 0.0566 0.2244 0.0847 0.2778 0.0979 0.3154 0.0749 0.3257 0.0503 0.3416 5e-3 0.3175-0.0614 0.2969-0.0902 0.2879-0.123 0.2752-0.1389 0.2466-0.1397 0.2257-0.1442 0.1921-0.1363 0.1561-0.1357 0.1151-0.1209 0.1029-0.1042 0.07673-0.095 0.05794-0.0812 0.04842-0.1535-0.1757-0.1241-0.1508 0.0145-0.1484 0.0299-0.15 0.0892-0.1535 0.1003-0.1453 0.1109-0.1508 0.1291-0.1408 0.1381-0.1389 0.1458-0.1103 0.1564-0.08731 0.1627-0.03069 0.2051 0.08943 0.199 0.1966 0.1069 0.1945 0.0405 0.2178 0.0172 0.2204 0.0148 0.2125 0.0439 0.2135 0.0566 0.1892 0.0918 0.1767 0.1244 0.1503 0.1323 0.1191 0.1619 0.1029 0.1693 0.06059 0.1714 0.03625 0.1527-0.0064 0.1151-0.03096 0.1064-0.04392 0.0849-0.07488 0.0759-0.1217 0.0894-0.1693 0.0894-0.2323 0.0865-0.2614 0.0966-0.2617 0.073-0.2839 0.0619-0.2532 0.0656-0.1839 0.0537-0.08281 0.0349-0.2133 5.3e-4 -0.07752 0.3405 0.267 0.1098 0.1828 3e-3 0.2204-0.0243 0.2609-0.0587 0.2926-0.0632 0.2995-0.082 0.5495-0.2069 0.236-0.1281 0.1892-0.1445 0.159-0.1733 0.09657-0.2117 0.04683-0.2201-0.0064-0.244-0.07329-0.2363-0.09446-0.2339-0.1463-0.2196-0.1619-0.2125-0.2077-0.1789-0.2283-0.1566-0.2622-0.1257-0.2696-0.0683-0.2545-0.0495-0.2474-0.0161-0.1865-0.0145-0.1021-0.0212-0.0056-3e-3 0.02672 0.0593v2e-3l0.03784-0.0704 0.07646-0.1085 0.1106-0.1198 0.1241-0.1267 0.1294-0.1204 0.1204-0.1066 0.1267-0.1019 0.08387-0.0667 0.06932-0.0325 5e-3 -0.0164-0.09763-0.0778 0.03307-0.0754-0.0048 0.0593-0.03201 0.0918-0.06853 0.1132-0.08811 0.1283-0.1394 0.1288-0.1823 0.1294-0.2257 0.1206-0.2519 0.0931-0.2852 0.0643-0.2887 0.0481-0.2799 0.0341-0.2744 0.0167-0.2813-0.0101-0.2818-0.0431-0.2765-0.0656-0.2516-0.0889-0.2278-0.0865-0.1998-0.0675-0.1924-0.046-0.1135 0.0262-0.154 0.2812 0.02937 0.0966 0.1275 0.1318 0.15 0.1527 0.2032 0.1873 0.2564 0.2101 0.2717 0.2085 0.2775 0.1939 0.2469 0.1664 0.1849 0.1341 0.1484 0.1416 0.1214 0.0974 0.06165 0.0611 0.03281 0.0357 0.1812-0.4379 0.05344-1e-3 0.02355 0.0151-0.068-0.055-0.105-0.105-0.1156-0.1799-0.1259-0.2728-0.1156-0.3688-0.0979-0.4826-0.1008-0.5575-0.0725-0.6064-0.07408-0.6183-0.05265-0.604-0.05318-0.5323-0.05054-0.4519-0.03678-0.3384-0.05239-0.2352-0.04763-0.0685-0.3963 0.0722-0.01217 0.131-0.02937 0.2863-0.01826 0.413-0.02461 0.4829-0.02778 0.5144-0.02963 0.4995-0.02275 0.4567-0.03836 0.4151-0.04657 0.4046-0.03863 0.3786-0.05318 0.3543-0.08229 0.3434-0.1117 0.322-0.1574 0.2969-0.177 0.2476-0.164 0.1699-0.1498 0.0765-0.1072 0.0196-0.07514-0.0145-0.1204-0.0585-0.1175-0.091-0.1191-0.1714-0.1349-0.2268-0.1005-0.2307-0.09446-0.236-0.09763-0.2106-0.1177-0.1762-0.1926-0.1278-0.25-0.0153-0.217 0.1021-0.1849 0.1439-0.1754 0.213-0.1553 0.2466-0.1516 0.2363-0.1617 0.2276-0.1688 0.1982-0.168 0.1842-0.1553 0.1437-0.1378 0.0908-0.1085 0.0407-0.08096 5e-3 -0.068-0.0254-0.07541-0.0643-0.08176-0.1278-0.05847-0.1958-0.04524-0.245-0.01799-0.2842-0.0037-0.2831 0.0093-0.2738 0.0082-0.2476 0.0053-0.2037-0.0019-0.1482-0.01349-0.0484-0.0254 0.0159-0.3056-0.0222 0.03598 0.0402 0.05477 0.0905 0.08705 0.1498 0.1154 0.1524 0.1045 0.1275 0.08546 0.0722 0.07117 0.0566" __comx="654.867" __comy="339.56" __timestamp="0x1963b016da3"/></g></svg>
