<?xml version="1.0" encoding="UTF-8"?>
<svg width="27.48mm" height="7.144mm" version="1.1" viewBox="0 0 27.48 7.144" xmlns="http://www.w3.org/2000/svg"><g transform="translate(-11.38 -158.5)" stroke-width=".635"><path class="write-flat-pen" d="m14.07 160.1 0.03439-0.0648 0.04498-0.0513 0.07964-0.0844 0.08758-0.0989 0.09869-0.0945 0.08652-0.1066 0.07699-0.0963 0.07223-0.1013 0.08017-0.1056 0.06324-0.0942 0.07117-0.0873 0.06667-0.0929 0.04313-0.1135 0.0172-0.1863-0.1646-0.1265-0.1334-0.0519-0.1643-0.0206-0.2 0.0265-0.2215 0.0741-0.235 0.1246-0.2593 0.1799-0.2773 0.2434-0.2932 0.3074-0.3233 0.3675-0.3418 0.4434-0.3289 0.5202-0.281 0.572-0.2072 0.6011-0.1244 0.5985-0.05874 0.5368 0.0079 0.4977 0.09737 0.4382 0.1839 0.4043 0.2929 0.3471 0.3672 0.2881 0.408 0.2294 0.4159 0.1699 0.4281 0.109 0.4215 0.0651 0.4355-6e-3 0.413-0.0712 0.3847-0.109 0.353-0.1498 0.3059-0.1709 0.2516-0.1757 0.2088-0.1585 0.1492-0.1588 0.09975-0.155 0.07911-0.1479 0.02408-0.1355-0.01138-0.1312-0.05503-0.1106-0.08626-0.0762-0.1037-0.0815-0.1397-0.0651-0.1685-0.059-0.1625-0.0434-0.1625-0.0167-0.1924 0.022-0.1601 0.1246-0.0979 0.1664-0.03519 0.2249 0.02064 0.2358 0.08943 0.2503 0.1717 0.2482 0.2267 0.2101 0.2789 0.1804 0.3156 0.1191 0.3133 0.0564 0.3241 2e-3 0.3133-0.0405 0.281-0.0735 0.2781-0.1101 0.2334-0.1424 0.1987-0.1706 0.1458-0.2056 0.07091-0.2254 0.01508-0.2222-0.05556-0.2209-0.1087-0.2093-0.1601-0.1728-0.2066-0.1492-0.2461-0.1146-0.2789-0.0788-0.2746-0.0582-0.2773-0.0407-0.2725-0.0328-0.2593-8e-3 -0.2352 0.045-0.1897 0.0878-0.1352 0.1582-0.0381 0.2331 0.182 0.3143 0.34-0.1548-0.0508-0.1971 9e-3 0.0617-0.01085 0.0341 0.04418-6e-3 0.1228-0.0177 0.177 7e-3 0.2416 0.0296 0.2529 0.0373 0.2394 0.0505 0.2188 0.0616 0.159 0.0722 0.1206 0.0847 0.07382 0.0765 0.04736 0.0863 0.02249 0.0757-0.0013 0.0733-0.02249 0.0865-0.05636 0.09-0.1132 0.1095-0.1553 0.1072-0.2053 0.0931-0.2178 0.0661-0.2479 0.0376-0.2516 2e-3 -0.2326-0.037-0.2294-0.0831-0.2043-0.1312-0.1622-0.1479-0.1093-0.1572-0.05001-0.1386-0.01111-0.1233 0.01217-0.086 0.01111-0.0204-0.0042-5.3e-4 0.02619-9e-3 0.08599-1e-3 0.1185 0.019 0.1423 0.0344 0.09419 0.028 0.08308 0.0426 0.05424 0.0172 0.02302-1e-3 0.03572 0.04 0.02408 0.0667-0.03043 0.117-0.07144 0.1413-0.1307 0.1371-0.1963 0.1378-0.2622 0.1045-0.317 0.063-0.3477 0.0524-0.363 0.0315-0.3659 0.0222-0.3596-0.0212-0.3575-0.0601-0.3659-0.0931-0.3474-0.1421-0.34-0.1913-0.2873-0.226-0.2048-0.245-0.1278-0.2812-0.07382-0.3252-0.0074-0.4054 0.05001-0.4757 0.1095-0.5384 0.1818-0.5366 0.2484-0.5175 0.295-0.477 0.3117-0.4133 0.3006-0.3495 0.267-0.2836 0.2368-0.209 0.2085-0.1474 0.1704-0.0931 0.1365-0.0511 0.09552-0.0198 0.05397-5e-3 0.02249-5e-3 -0.07117-0.0648 0.0172-0.0929 0.01138 0.027-0.01032 0.0476-0.05398 0.0995-0.04551 0.108-0.06033 0.113-0.05212 0.1162-0.04815 0.1069-0.05292 0.1111-0.07276 0.1085-0.06826 0.1185-0.06112 0.1024-0.03307 0.0738-0.02222 0.078" __comx="578.905" __comy="410.18" __timestamp="0x1963b01734b"/><path class="write-flat-pen" d="m19.55 163.4-0.0079-0.0767-0.0066-0.0696-0.0299-0.1032-0.04418-0.1259-0.04181-0.1072-0.03598-0.1111-0.04127-0.0873-0.01482-0.0722-0.01534-0.0905-0.02011-0.0733-0.0042-0.0738v-0.0802l-5.29e-4 -0.0786 0.0066-0.0468 0.0069-0.0466 0.0069-0.0312 0.0174-0.016h-0.4147l-0.0056 0.0429 0.0034 0.0765 0.0042 0.1334 0.01958 0.2064 0.01905 0.263 0.02725 0.3257 0.04313 0.3424 0.02725 0.3448 0.0463 0.3212 0.04763 0.2873 0.07091 0.2588 0.09234 0.2006 0.09763 0.1484 0.1363 0.0971 0.2201 0.0971 0.1886-0.1553 0.09181-0.1162 0.068-0.1516 0.0807-0.177 0.07726-0.2016 0.1003-0.2148 0.09498-0.2294 0.08969-0.2072 0.09128-0.1746 0.06112-0.1288 0.03254-0.0429-0.03625 0.0278-0.1728 1e-3 -0.05054-0.0611 0.01032 0.014 0.01588 0.0701 0.05477 0.1281 0.04524 0.114 0.05556 0.1394 0.07832 0.1236 0.0934 0.1069 0.1466 0.0916 0.1439 0.0161 0.1246 2.6e-4 0.132-0.0482 0.105-0.0654 0.1135-0.1021 0.08758-0.114 0.1061-0.122 0.09419-0.1371 0.08864-0.1286 0.04974-0.077 0.03678-0.0458-4e-3 3e-3 -0.01402 6e-3 -0.1119 0.0161-0.06403-0.0635 0.02699 0.0405 0.0418 0.0902 0.05874 0.1426 0.06985 0.1714 0.0725 0.1757 0.06059 0.1979 0.07646 0.2027 0.08731 0.1921 0.1193 0.1553 0.1696 0.1246 0.2143 0.0352 0.1892-0.0619 0.1394-0.1058 0.2249-0.2389-0.1924-0.2408-0.2498 0.1402-0.07805 3e-3 -0.02937-0.0148 0.01217-0.0122-0.01799-0.0159-0.03572-0.0468-0.05318-0.1199-0.06429-0.1709-0.0635-0.2072-0.08361-0.1979-0.07064-0.1714-0.06562-0.1537-0.06694-0.1426-0.08255-0.1156-0.1572-0.1569-0.2209 0.0315-0.1228 0.0524-0.09737 0.0812-0.08837 0.1103-0.059 0.0945-0.08281 0.1206-0.07699 0.1124-0.09684 0.1119-0.06747 0.0884-0.0426 0.0384-0.02011 0.0124 0.0077-2e-3 -5.29e-4 2.7e-4 0.0042 5.2e-4 0.02143 0.0135-0.01535-0.0175-0.03043-0.0479-0.03784-0.0945-0.04921-0.1199-0.03863-0.0894-0.03043-0.1328-0.08308-0.1101-0.1132-0.1389-0.2508 1e-3 -0.1606 0.1212-0.108 0.1437-0.07937 0.1678-0.09552 0.1834-0.0971 0.2289-0.09181 0.222-0.1029 0.2212-0.07779 0.2037-0.07514 0.1656-0.0418 0.0979-0.01693 0.0243 0.09525-0.0775 0.1114 0.05-0.01958-0.0116-0.02752-0.0381-0.06271-0.1267-0.05424-0.1937-0.04551-0.2577-0.0471-0.3016-0.03545-0.3405-0.05027-0.3432-0.03519-0.3135-0.02725-0.2664-0.02752-0.199-0.01111-0.1315-0.01191-0.0632-0.0056-0.0196h-0.4146l0.0174 0.016 0.0069 0.0312 0.0069 0.0466 0.0066 0.0619 0.01508 0.0926 0.01535 0.091 0.02752 0.1138 0.04154 0.0818 0.03175 0.081 0.04789 0.099 0.06747 0.0841 0.05741 0.0918 0.0672 0.095 0.06562 0.108 0.04815 0.0836 0.02434 0.0545 0.02143 0.072" __comx="602.224" __comy="410.18" __timestamp="0x1963b017796"/><path class="write-flat-pen" d="m24.16 162.8-0.0069-0.0825-0.02196-0.059-0.01799-0.0775-0.0079-0.087 0.0011-0.0646 0.01032-0.0524 0.0034-0.0606-0.0254-0.086-0.1535-0.109-0.1852 0.05-0.0844 0.1257-0.04313 0.1347-0.01535 0.1775-0.0048 0.208-0.0037 0.2492-0.0021 0.2789 0.01323 0.3024 0.03175 0.285 0.06006 0.2749 0.08811 0.2143 0.08705 0.1752 0.1897 0.126 0.2103 0.0402 0.1672-0.0746 0.1617-0.0923 0.1273-0.163 0.07779-0.1744 0.06271-0.1664 0.04048-0.1516 0.04445-0.1302 0.04683-0.1326 0.03889-0.1159 0.03148-0.0884 0.0299-0.0548 0.0034-5e-3 -0.07117 0.0479-0.1244-0.0172-0.03334-0.0318 0.01535 0.0265 0.01984 0.086 0.02963 0.1601 0.04154 0.2006 0.05953 0.1968 0.07937 0.2172 0.1402 0.1752 0.1707 0.1275 0.2199 0.0344 0.2-0.0574 0.1545-0.0998 0.1267-0.1066 0.1024-0.1101 0.07303-0.0889 0.05794-0.0675-0.03439 0.0175-0.02725 5e-3 0.0024 2.7e-4 0.02805 0.0106 0.09287 0.0384 0.123 0.0474 0.132 0.0286 0.1519 0.0281h0.1701l0.168-8e-3 0.1889-0.0177 0.1897-0.0474 0.1974-0.0741 0.1778-0.1027 0.1535-0.1111 0.1455-0.1109 0.1479-0.1386 0.1056-0.1304 0.1114-0.1378 0.07885-0.1553 0.0426-0.1463 0.03016-0.1738-0.05927-0.1828-0.1336-0.1558-0.1725-0.0627-0.164-0.0304-0.1651-0.0175-0.2077-0.0101-0.2476 0.0413-0.2286 0.0984-0.1942 0.1598-0.1386 0.2138-0.09022 0.2291-0.0471 0.2553-0.02858 0.2815 0.01614 0.3027 0.09313 0.3125 0.1498 0.2929 0.213 0.2516 0.2895 0.2125 0.3403 0.1323 0.358 0.064 0.3818-0.01 0.3781-0.0614 0.3815-0.1148 0.3818-0.1812 0.3731-0.217 0.3477-0.2455 0.4284-0.2942-0.1302-0.2328-0.4744 0.2103-0.3839 0.1588-0.3746 0.1574-0.3508 0.1296-0.3194 0.0881-0.3074 0.0474-0.2884 6e-3 -0.2495-0.0447-0.2209-0.0863-0.1773-0.1302-0.1296-0.1527-0.09948-0.1905-0.06271-0.2013-0.01455-0.1958 0.01773-0.217 0.03069-0.1807 0.05027-0.1291 0.0635-0.0982 0.07064-0.0577 0.09869-0.0421 0.1267-0.0212 0.1349 6e-3 0.1304 0.0135 0.1005 0.0169-0.0013-1e-3 -0.02487-0.0307-0.01217-0.0431-7.94e-4 0.014-0.01984 0.0712-0.03016 0.063-0.0762 0.095-0.08123 0.1034-0.1013 0.0953-0.1191 0.0913-0.1267 0.0918-0.1185 0.0685-0.1291 0.05-0.1222 0.0307-0.1384 0.0132-0.1439 7e-3h-0.1101l-0.09763-0.0183-0.08573-0.0185-0.08017-0.0307-0.09393-0.0386-0.09631-0.0365-0.1381-0.0151-0.1206 0.0198-0.1278 0.0646-0.1289 0.15-0.06747 0.0825-0.06906 0.0767-0.07647 0.0648-0.06297 0.041-0.01826 5e-3 0.01746 3e-3 -0.01614-0.0122-0.04657-0.0587-0.04577-0.1254-0.04921-0.1611-0.03651-0.1738-0.03307-0.1662-0.0426-0.1797-0.0934-0.1447-0.1267-0.1252-0.2331-0.0328-0.1646 0.1103-0.07461 0.104-0.0635 0.1167-0.0463 0.1302-0.03916 0.1169-0.04657 0.1331-0.04895 0.15-0.03757 0.1439-0.04683 0.1299-0.04657 0.1056-0.02884 0.0392-0.05583 0.0325-4e-3 3e-3 0.03889 8e-3 0.0019 2e-3 -0.02169-0.0434-0.06773-0.1593-0.04868-0.2085-0.03096-0.2445-0.01746-0.2741-0.0021-0.2662-0.0037-0.2492-0.0048-0.1963v-0.1188l0.0042-0.0365-0.0381 0.0479-0.1381 0.0347-0.07541-0.0619-0.01005-0.055 0.01879 2e-3 0.02593 0.0564 0.04815 0.0759 0.05371 0.0844 0.06006 0.0775 0.04048 0.0344 0.02805 0.0579" __comx="625.444" __comy="410.18" __timestamp="0x1963b017ada"/><path class="write-flat-pen" d="m31.03 163-0.0635-0.0696-0.02011-0.0415-0.04313-0.0505-0.08255-0.0672-0.06985-0.0318-0.141-0.0167-0.1175 0.15-0.0254 0.1368-0.02963 0.167-0.0024 0.2299 0.01561 0.2823 0.03307 0.3344 0.06879 0.3527 0.0934 0.3604 0.1106 0.3114 0.1524 0.2609 0.2175 0.2043 0.2828 0.0341 0.2476-0.1167 0.214-0.2024 0.1717-0.2614 0.1439-0.2839 0.127-0.2963 0.0762-0.2818 0.06456-0.2379 0.05001-0.2204 0.03307-0.1768 0.02408-0.1341 0.01614-0.0984-0.02222 0.163-0.3355 2e-3 -0.06085-0.0717 0.03096 0.0672 0.05927 0.1413 0.07514 0.1884 0.07752 0.2191 0.08996 0.2212 0.1027 0.222 0.1191 0.1908 0.1394 0.1709 0.1963 0.1156 0.2238 0.0474 0.2344-0.0998 0.1474-0.1908 0.07991-0.2458 0.06879-0.2932 0.08414-0.3172 0.09869-0.3535 0.09419-0.3691 0.08572-0.3736 0.1048-0.3987 0.09657-0.4482 0.07937-0.4633 0.06323-0.4874 0.03572-0.476 0.0034-0.4403 0.01085-0.3831 0.02725-0.3204 0.02725-0.2273 0.02249-0.1019 0.02011-0.022-0.4122 2.6e-4 0.01111 0.036 0.03519 0.1151 0.05847 0.2093 0.05556 0.3164 0.05662 0.4191 0.0508 0.5077 0.05186 0.5874 0.07726 0.6141 0.08573 0.6093 0.1109 0.5474 0.1045 0.4651 0.1175 0.3781 0.14 0.2969 0.1521 0.2363 0.1773 0.1664 0.1595 0.095 0.2064 0.0812 0.2733-0.1384 0.03387-0.2545-0.06694-0.1709-0.1058-0.1561-0.1513-0.1326-0.1675-0.1241-0.2024-0.1265-0.249-0.1458-0.2723-0.1614-0.2947-0.1855-0.2865-0.1778-0.2524-0.1643-0.191-0.1114-0.1331-0.078-0.07964-0.0312-0.2963 0.2045-5.29e-4 0.1291 0.1484 0.1069 0.09816 0.0661 0.1617 0.1016 0.2212 0.1058 0.2826 0.0847 0.3167 0.0669 0.3241 0.0328 0.3119 8e-3 0.281-0.0495 0.2667-0.0868 0.2265-0.132 0.2799-0.2138-0.09631-0.163-0.3037 0.1307-0.2096 0.0394-0.2318 0.023-0.2331 0.0122-0.2635-7e-3 -0.2844-0.0288-0.2752-0.0582-0.2315-0.0712-0.1677-0.0807-0.1347-0.0852-0.08863-0.059 0.03969 0.0299-5.29e-4 0.0974-0.2963 0.2045 0.04445 0.0159 0.1008 0.0614 0.1826 0.1072 0.2463 0.163 0.29 0.1802 0.2971 0.1881 0.2725 0.1659 0.2342 0.1506 0.172 0.122 0.1281 0.1098 0.08255 0.086 0.03387 0.0616-0.0042 2.7e-4 0.01826-0.1447 0.1799-0.0921 0.05053 0.0188-0.07435-0.0447-0.08731-0.0828-0.0971-0.1535-0.1093-0.2326-0.1-0.3228-0.09869-0.4389-0.1069-0.5268-0.08546-0.59-0.07885-0.6009-0.05715-0.5813-0.05874-0.5202-0.06747-0.4376-0.06959-0.3535-0.08123-0.2421-0.05821-0.1495-0.03625-0.0574-0.4122 2.7e-4 -0.04233 0.1021-0.0082 0.1937-0.0037 0.2405-0.0045 0.3342 0.01085 0.3956 0.01984 0.4318-0.01138 0.4588-0.0299 0.4781-0.04551 0.4559-0.07461 0.4392-0.09737 0.3966-0.08572 0.3736-0.0926 0.3633-0.1042 0.3474-0.1027 0.3056-0.118 0.2527-0.1069 0.1431-0.07117 0.0278-0.01482-0.0217-0.0093-0.0151-0.05292-0.0402-0.0635-0.0786-0.08308-0.1363-0.08414-0.1826-0.08123-0.1995-0.07858-0.217-0.0807-0.2013-0.06509-0.1543-0.0635-0.136-0.1381-0.1651-0.3519 2e-3 -0.03757 0.2717-0.01455 0.0894-0.02302 0.1304-0.02857 0.1662-0.04419 0.2003-0.05953 0.2291-0.06456 0.2476-0.1058 0.2492-0.1217 0.2455-0.1238 0.1902-0.1132 0.1095-0.04789 0.023 0.01826 3e-3 -0.04816-0.0452-0.09604-0.1598-0.09234-0.2487-0.0934-0.3252-0.0717-0.3172-0.04471-0.3048-0.03069-0.2625-0.01773-0.1908 0.0011-0.145-0.01005-0.05-0.05477 0.0566-0.06297-0.0167 0.0082-0.0164 0.05715 0.0108 0.05107 0.0119 0.04154 6e-3 0.08599 0.041" __comx="648.479" __comy="410.18" __timestamp="0x1963b017e6f"/><path class="write-flat-pen" d="m37.67 161.7 0.01588-0.1188 0.02513-0.1122-0.1281-0.0651-0.1005-0.032-0.1222 0.0312-0.109 0.0376-0.1244 0.0508-0.1289 0.0672-0.1392 0.0693-0.1654 0.1008-0.1521 0.1159-0.149 0.123-0.1238 0.1431-0.08599 0.1371-0.06562 0.1513 0.05001 0.2204 0.1601 0.1132 0.164 0.0325 0.1757 0.0331 0.2043 0.0317 0.2228 0.037 0.2199 0.0582 0.2185 0.0849 0.1804 0.0952 0.158 0.1257 0.1402 0.1492 0.1289 0.1527 0.1048 0.1492 0.07752 0.1336 0.03757 0.1188 0.0048 0.0897-0.01244 0.0812-0.02408 0.0553-0.04868 0.0638-0.1064 0.0921-0.1638 0.1143-0.2082 0.1146-0.2402 0.1201-0.2561 0.1172-0.2604 0.0894-0.2384 0.0863-0.1942 0.0661-0.1389 0.0558 0.05001 0.0236-0.06985-0.0225-0.214 0.214 0.1916 0.2386 0.1741-0.0236 0.1257-7e-3 0.2265-0.0429 0.2601-0.0849 0.2855-0.0971 0.2887-0.132 0.2582-0.1291 0.2434-0.1347 0.2106-0.1506 0.1738-0.1572 0.1228-0.1855 0.05398-0.1939 0.0032-0.199-0.04127-0.1905-0.08758-0.1932-0.1093-0.1775-0.1291-0.1778-0.1513-0.1746-0.1717-0.1781-0.2156-0.1699-0.2402-0.1233-0.2646-0.1019-0.2635-0.0669-0.2442-0.04-0.2008-0.0307-0.1672-0.0294-0.06985-0.0138 0.05133 0.0352 0.01905 0.0799-0.0029 0.0108 0.05345-0.0804 0.07937-0.0907 0.1156-0.0955 0.1281-0.1019 0.1302-0.086 0.1265-0.0712 0.1196-0.0733 0.09393-0.058 0.07779-0.0405 0.01826-0.0151-0.0071-0.0167-0.08096-0.0495 0.02514-0.0968 0.01587 0.1188" __comx="663.943" __comy="410.18" __timestamp="0x1963b018010"/></g></svg>
