<?xml version="1.0" encoding="UTF-8"?>
<svg width="29.91mm" height="8.396mm" version="1.1" viewBox="0 0 29.91 8.396" xmlns="http://www.w3.org/2000/svg"><g transform="translate(-82.02 -114.6)" stroke-width=".635"><path class="write-flat-pen" d="m84.87 118.8 0.07779-0.0844 0.1032-0.108 0.1445-0.1545 0.1744-0.2024 0.1614-0.1842 0.1315-0.1968 0.1132-0.1857 0.1061-0.1913 0.08255-0.1913 0.08758-0.2066 0.06615-0.2048 0.04948-0.2019 0.04339-0.2032-0.0069-0.2249-0.07514-0.2042-0.1328-0.1926-0.2143-0.1336-0.2328-0.0741-0.2717-0.0444-0.3051 0.0352-0.3522 0.0963-0.3773 0.195-0.3971 0.3164-0.3966 0.4276-0.3717 0.5575-0.3408 0.6297-0.2913 0.6845-0.2267 0.6779-0.1479 0.649-0.0508 0.6154 0.06059 0.5726 0.1699 0.5003 0.2707 0.4133 0.3392 0.3384 0.4143 0.2643 0.4622 0.1876 0.485 0.1254 0.5009 0.0704 0.4776-2e-3 0.4268-0.0635 0.3961-0.0995 0.3373-0.1664 0.3069-0.1794 0.2582-0.1849 0.1953-0.2164 0.1386-0.2236 0.08467-0.2357 0.06138-0.2236 0.03254-0.2077 0.02725-0.1878-0.02223-0.1884-0.07541-0.173-0.1357-0.1466-0.1794-0.1029-0.2048-0.0706-0.2376-0.0214-0.2495 0.0622-0.2051 0.1516-0.1786 0.2154-0.1154 0.2889-0.03016 0.3212 0.0381 0.3175 0.1244 0.3151 0.1966 0.29 0.2566 0.2379 0.3085 0.2011 0.3527 0.1288 0.3979 0.0743 0.4117-6e-3 0.4125-0.0656 0.4014-0.1008 0.3461-0.1545 0.2958-0.1678 0.214-0.1926 0.155-0.2035 0.1024-0.2386-0.01111-0.2566-0.07117-0.2326-0.1648-0.2135-0.2244-0.1646-0.2712-0.1315-0.3093-0.0886-0.3125-0.059-0.3194-0.0344-0.3082 0.0106-0.2611 0.0426-0.2297 0.091-0.2024 0.2088 0.06615 0.3093 0.2627 0.0794 0.3643-6e-3 0.03493-0.235-0.291-0.1032 0.04419-0.0294 0.05053 0.1842-0.04657 0.0691 0.08123-0.0188 0.1757-0.0191 0.2368-6e-3 0.2572 0.0283 0.2641 0.0498 0.2357 0.0675 0.1802 0.0868 0.1183 0.0849 0.05371 0.0667 0.02196 0.063 0.0045 0.0553-0.0217 0.0577-0.07911 0.1074-0.1286 0.1191-0.218 0.1278-0.2768 0.1265-0.331 0.086-0.3508 0.0587-0.3209 0.01-0.3029-0.0497-0.2548-0.0897-0.2212-0.1416-0.1797-0.1664-0.1307-0.1931-0.07858-0.199-0.02355-0.1963 0.01587-0.1929 0.05609-0.1471 0.08625-0.1119 0.07594-0.0662 0.07673-0.032 0.1061-5e-3 0.1217 0.0228 0.1016 0.0368 0.06641 0.0413 0.04974 0.0598 0.03942 0.0926 0.01191 0.1386-0.01349 0.1823-0.04842 0.1971-0.07144 0.2006-0.1106 0.1815-0.163 0.1725-0.2241 0.1424-0.3016 0.1008-0.3162 0.0675-0.3519 0.0257-0.3836 0.0135-0.4101-0.0175-0.4339-0.0691-0.4191-0.1085-0.3784-0.155-0.3183-0.2035-0.2527-0.2527-0.1971-0.3037-0.1257-0.3717-0.04815-0.4556 0.0426-0.5212 0.1323-0.5821 0.2093-0.6302 0.2699-0.64 0.3138-0.585 0.3289-0.5014 0.3352-0.3664 0.3199-0.2601 0.2765-0.1476 0.2564-0.0751 0.1926-0.0272 0.1651 0.0183 0.1408 0.0347 0.08123 0.0378 0.05477 0.0569 0.04895 0.0759 0.02408 0.1024-0.0029 0.155-0.01296 0.1881-0.02725 0.1842-0.05292 0.1984-0.05715 0.182-0.0807 0.1831-0.08969 0.1879-0.1024 0.1931-0.1341 0.1894-0.1529 0.2183-0.1204 0.1728-0.08361 0.1259-0.06033 0.0992" __comx="586.867" __comy="198.639" __timestamp="0x1963b013819"/><path class="write-flat-pen" d="m90.75 121.4-0.0164-0.0434v-0.0397l-0.0069-0.0429-0.0037-0.0569 0.0024-0.0667 0.0019-0.0733-4e-3 -0.1008 0.0063-0.1021 0.01217-0.1209 0.01138-0.1434 0.0042-0.1558-0.0056-0.1598-0.0061-0.1619-0.01693-0.1537-0.02487-0.1294-0.0087-0.0868-0.01535-0.073-0.03016-0.0773-0.0291-0.0386-0.0058-0.0145-0.3633 0.1069-0.02064 0.0564-0.0066 0.1048-0.0056 0.1598 0.0021 0.2482 0.0127 0.3082 0.02011 0.3445 0.02064 0.3585 0.0217 0.344 0.04075 0.3101 0.06535 0.2696 0.1132 0.2167 0.2273 0.1574 0.2582-0.0167 0.1939-0.0958 0.1508-0.149 0.1236-0.1892 0.09763-0.1847 0.1164-0.2014 0.1185-0.2214 0.1177-0.2193 0.1109-0.2114 0.09737-0.1873 0.08017-0.1339 0.07276-0.0913-0.01349 0.0138-0.1476 0.0175-0.0635-0.0627 0.03043 0.059 0.06165 0.14 0.07038 0.1897 0.09737 0.2069 0.1312 0.2011 0.186 0.1643 0.2106 0.1066 0.2508 0.0357 0.2371-0.0423 0.2125-0.0765 0.2146-0.1159 0.186-0.1574 0.1569-0.1553 0.1204-0.1667 0.09604-0.155 0.06033-0.1122 0.05212-0.0783-0.0079 0.0124-0.1143 0.0497-0.1154-0.0389-0.01826-0.0169 0.02937 0.0521 0.04683 0.1405 0.06906 0.195 0.07832 0.235 0.1323 0.2252 0.1545 0.2058 0.2252 0.1537 0.2532 0.0648 0.2421-0.0206 0.2286-0.0939 0.1714-0.1688 0.09551-0.2117 0.07567-0.1942 0.09419-0.2016 0.07832-0.1831 0.0553-0.1826 0.03254-0.1683 0.0013-0.1596-0.0026-0.158-0.0064-0.1598-0.01826-0.1762-0.01535-0.1617-0.01905-0.164-0.03307-0.1405-0.02513-0.1267-0.1236-0.1146-0.1781-0.0201-0.1347 0.1344-0.07064 0.1593-0.0016 0.1924-0.0013 0.1815 0.0087 0.2291 0.01032 0.2476 0.01217 0.2765 0.0217 0.2736 0.03307 0.2805 0.07885 0.2358 0.1093 0.1953 0.1942 0.1455 0.2458 0.0328 0.2204-0.0722 0.1659-0.132 0.1516-0.1503 0.132-0.1839 0.1206-0.177 0.1222-0.1902 0.09022-0.1976 0.05292-0.1434 0.04022-0.0807 0.01561-0.0233-0.0725 0.0619-0.1331-0.0161-0.0471-0.0392 0.02355 0.0389 0.04577 0.0913 0.04048 0.1349 0.05742 0.181 0.0762 0.1995 0.1225 0.1836 0.1511 0.1622 0.1961 0.1151 0.1876 0.0553 0.2011 0.0212 0.1913-0.0315 0.1585-0.0442 0.1484-0.046 0.1344-0.0373 0.1011-0.027 0.06588-0.01h0.03625l0.02593 3e-3 0.05689 0.0228 0.118 0.0317 0.1675 0.0228 0.2082-0.0235 0.2127-0.0815 0.1961-0.1069 0.2185-0.14 0.1831-0.1572 0.172-0.1619 0.1511-0.1778 0.1196-0.1746 0.0852-0.1693 0.0611-0.1603 0.037-0.1921-0.0286-0.213-0.1082-0.1728-0.173-0.1463-0.226-0.0799-0.2336-0.0392h-0.2619l-0.285 0.059-0.2609 0.1212-0.2447 0.1924-0.1611 0.2686-0.08572 0.2902-0.0381 0.3133 0.03625 0.3133 0.06932 0.2961 0.1148 0.3138 0.218 0.2768 0.2683 0.2175 0.3543 0.1378 0.3993 0.0452 0.4204-0.0177 0.4368-0.0736 0.4712-0.114 0.4792-0.1556 0.481-0.1855 0.4284-0.2082 0.3535-0.2019 0.3056-0.2222-0.0558-0.1032-0.3424 0.1291-0.3792 0.0945-0.4437 0.1191-0.4845 0.1101-0.471 0.109-0.4479 0.0889-0.3889 0.0661-0.3432 0.014-0.286-0.0326-0.2069-0.0807-0.1524-0.1254-0.1249-0.1593-0.07197-0.2003-0.05477-0.2336-0.02619-0.2162 0.02434-0.2008 0.05397-0.1775 0.07276-0.1204 0.1135-0.0886 0.1445-0.0656 0.1667-0.0344h0.1588l0.1408 0.0233 0.0849 0.0288 0.0302 0.0249 5.3e-4 -1e-3 2e-3 6e-3 -9e-3 0.0572-0.0323 0.0889-0.0553 0.1109-0.0825 0.1209-0.1135 0.1339-0.14 0.1336-0.1442 0.1238-0.1704 0.1093-0.1466 0.0799-0.1146 0.0426-0.07276 8e-3 -0.06562-9e-3 -0.05318-0.0146-0.09895-0.0397-0.1299-0.0127h-0.1042l-0.1363 0.0209-0.1328 0.0354-0.1458 0.0408-0.1479 0.0474-0.1214 0.0339-0.0889 0.0145-0.07911-0.01-0.07726-0.0228-0.06959-0.041-0.06668-0.0717-0.06429-0.0966-0.04868-0.1278-0.05133-0.1619-0.05292-0.1759-0.07938-0.158-0.08519-0.1326-0.1405-0.1169-0.2582-0.0315-0.1659 0.1397-0.07779 0.1164-0.06853 0.1378-0.05583 0.1524-0.06588 0.145-0.09631 0.1524-0.1122 0.1656-0.1021 0.1434-0.0979 0.0992-0.068 0.0548-0.01349 6e-3 0.01296 2e-3 0.0063 5e-3 -0.03016-0.054-0.0463-0.1378-0.02858-0.2183-0.0254-0.2558-0.01879-0.2694-0.02143-0.25-0.02196-0.2233-0.01667-0.1767-0.01693-0.1032-0.0087-0.0122-0.05662 0.041-0.1154-0.0201-0.01482-0.0376 0.03757 0.0291 0.07567 0.1087 0.059 0.1323 0.0471 0.1492 0.04445 0.1664 0.02461 0.1521 0.01296 0.154 0.0013 0.1516-0.03016 0.159-0.05345 0.1757-0.07752 0.1752-0.1233 0.1728-0.1582 0.1167-0.1537 0.0847-0.1241 0.018-0.114-5.3e-4 -0.1005-0.0206-0.08943-0.0286-0.07144-0.0484-0.07937-0.1061-0.08546-0.1482-0.06218-0.1857-0.07064-0.1947-0.06271-0.1868-0.09472-0.1654-0.1281-0.1257-0.2088-0.0706-0.223 0.0968-0.08599 0.1212-0.07197 0.1085-0.06482 0.1217-0.07541 0.1249-0.08176 0.1143-0.108 0.1095-0.1257 0.1072-0.1281 0.0709-0.1304 0.0476-0.1056 0.0204-0.07646-0.0106-0.06959-0.0339-0.07885-0.0696-0.07197-0.1098-0.07382-0.1521-0.06932-0.1839-0.07884-0.172-0.07832-0.1431-0.1722-0.1714-0.2881 0.0328-0.1386 0.1378-0.1138 0.1426-0.1066 0.1781-0.1048 0.2016-0.1077 0.2093-0.1162 0.2167-0.1143 0.2146-0.1175 0.204-0.08916 0.1733-0.07937 0.1228-0.05133 0.0532-0.02461 0.014 0.02513-1e-3 0.02408 0.0167-0.02619-0.0482-0.04445-0.1818-0.03731-0.2667-0.02461-0.3262-0.02646-0.3577-0.02619-0.3408-0.01905-0.2992-0.01323-0.2352-0.0056-0.1521-0.0066-0.05-0.0053-6e-3 -0.3633 0.1069 0.01058 7.9e-4 -0.01376-0.0233 5.3e-4 -0.0148 0.01535 0.0204 0.02302 0.0693 0.03784 0.1198 0.02937 0.1262 0.02461 0.1498 0.02619 0.1511 0.01958 0.1405 0.01138 0.1365 0.01217 0.1286 0.02196 0.1162 0.02778 0.1013 0.0172 0.0672 0.01773 0.073 0.02699 0.0683 0.02487 0.0349 0.01535 0.0376 0.02805 0.0482" __comx="628.847" __comy="198.639" __timestamp="0x1963b013ebf"/><path class="write-flat-pen" d="m103.7 120-0.0685-0.0786-0.064-0.0852-0.1029-0.1151-0.1246-0.1458-0.1167-0.1339-0.1172-0.1148-0.0998-0.0778-0.1487-0.0699-0.199 0.0537-0.0984 0.1357-0.0619 0.1685-0.0259 0.2376 2e-3 0.2728 0.0365 0.3066 0.0542 0.2948 0.0741 0.286 0.0968 0.2479 0.1222 0.2103 0.1561 0.1685 0.1868 0.1132 0.2365 0.0307 0.2199-0.0894 0.1762-0.1323 0.1791-0.1963 0.1532-0.2511 0.1193-0.2688 0.1066-0.2757 0.0913-0.2805 0.0569-0.2394 0.0556-0.2035 0.036-0.1598 1e-3 -4e-3 -0.0526 0.0566-0.4286-0.1532 5e-3 0.0722 7e-3 0.1535 0.032 0.2392 0.0484 0.3082 0.0817 0.3429 0.0984 0.3371 0.1281 0.3236 0.1601 0.2818 0.204 0.1931 0.2358 0.1405 0.2942 0.0116 0.2725-0.127 0.2045-0.2222 0.1736-0.2916 0.1365-0.3416 0.1146-0.3641 0.1148-0.3723 0.1172-0.3731 0.1037-0.4 0.0796-0.4294 0.0714-0.4675 0.0476-0.5141 0.0312-0.5514 0.0617-0.5567 0.0632-0.581 0.0765-0.5331 0.1191-0.4554 0.095-0.3172 0.0474-0.0688-0.159 0.0233 5.3e-4 0.0222 0.0622 0.2977 0.0521 0.4397 0.0561 0.5355 0.0646 0.6011 0.0738 0.6366 0.0987 0.6432 0.0931 0.6035 0.1019 0.5429 0.0939 0.4744 0.1048 0.4254 0.1209 0.3879 0.1307 0.3487 0.1373 0.3069 0.1553 0.2304 0.1072 0.1439 0.1058 0.1127 0.0593 0.0259 0.2889-0.3741-0.0672-0.0735-0.1294-0.1045-0.1865-0.1381-0.2386-0.1524-0.2569-0.1553-0.2625-0.1714-0.259-0.1995-0.2434-0.2212-0.2178-0.2328-0.1886-0.2111-0.145-0.1826-0.0921-0.1119-8e-3 -0.013-0.0169 0.1304-0.0511 0.0267 0.086-0.0204 0.1651-7e-3 0.2135-8e-3h0.9096l0.3918-0.0161 0.404-0.0249 0.4178-0.0815 0.5133-0.1143-0.0217-0.196-0.5234 1e-3 -0.4082-3e-3 -0.39-0.01-0.3879-7.9e-4h-0.9128l-0.2225 7e-3 -0.2093 8e-3 -0.1789 0.0423-0.2061 0.1048-0.0331 0.2556 0.1019 0.1738 0.1101 0.1373 0.1513 0.191 0.2003 0.2249 0.2336 0.2503 0.2704 0.2458 0.2868 0.2212 0.2823 0.1868 0.2569 0.1564 0.2138 0.1431 0.1564 0.1275 0.0884 0.082 0.0415 0.0508 0.2889-0.3741 0.0283 0.0106-0.0183-0.0278-0.0807-0.1209-0.1249-0.1902-0.1122-0.2535-0.1185-0.3215-0.1122-0.3598-0.0984-0.3995-0.0929-0.4601-0.1003-0.5323-0.0944-0.5958-0.1035-0.6342-0.082-0.6252-0.0751-0.5982-0.0691-0.539-0.072-0.4641-0.0937-0.3561-0.1553-0.3204-0.3458 0.0386-0.1556 0.3048-0.0915 0.368-0.1148 0.4794-0.0783 0.5575-0.0619 0.5866-0.0624 0.5657-0.0312 0.5546-0.0458 0.4977-0.0691 0.4519-0.0765 0.412-0.0984 0.3786-0.1167 0.3596-0.1347 0.3593-0.1347 0.3368-0.1437 0.2823-0.1537 0.2061-0.1228 0.105-0.0857 0.0291-0.0484-4e-3 -0.0762-0.0463-0.1069-0.1032-0.1048-0.1852-0.1058-0.2686-0.0881-0.3022-0.0744-0.3109-0.045-0.2836-0.0307-0.2125-9e-3 -0.1431-0.0101-0.0836-0.4286-0.1532-0.068 0.072-0.0153 0.1519-0.0257 0.1212-0.054 0.2008-0.0519 0.2283-0.0802 0.249-0.0955 0.2537-0.0992 0.2297-0.1117 0.1849-0.1164 0.131-0.0894 0.0699-0.0447 0.0204-0.0127-1e-3 -0.0463-0.0262-0.0778-0.0807-0.0799-0.1323-0.0746-0.1881-0.0664-0.2442-0.0545-0.2656-0.0415-0.2699-0.014-0.2257 6e-3 -0.1678 0.0161-0.0799-0.0204 0.0106-0.0593 7e-3 7e-3 -8e-3 0.0717 0.032 0.1167 0.072 0.1326 0.1 0.1556 0.1191 0.131 0.087 0.0918 0.0553 0.0913 0.0548" __comx="663.328" __comy="198.639" __timestamp="0x1963b014210"/><path class="write-flat-pen" d="m111.3 118.6 0.0116-0.0481 0.0209-0.0153 0.0236-0.0204 0.0407-0.0601-0.0368-0.105-0.0542-0.0847-0.1013-0.0722-0.1643-0.0452-0.1839 0.0283-0.1767 0.0601-0.2106 0.1003-0.199 0.146-0.1894 0.1378-0.1924 0.1503-0.1765 0.1442-0.1365 0.1222-0.1434 0.1331-0.059 0.2762 0.1926 0.1918 0.159 0.0778 0.2037 0.1061 0.2381 0.0952 0.236 0.1109 0.2305 0.1273 0.2191 0.1318 0.191 0.1421 0.1527 0.14 0.1159 0.131 0.0511 0.0937 0.0111 0.0672-9e-3 0.0492-0.0254 0.0548-0.0526 0.0733-0.0984 0.0894-0.155 0.1064-0.1847 0.108-0.2289 0.0931-0.2498 0.0982-0.2667 0.0915-0.2424 0.0844-0.2064 0.0651-0.1392 0.0474-2.6e-4 0.0272-0.1437-0.0431-0.2003 0.3313 0.2656 0.2043 0.2019-0.0198 0.1574-0.0299 0.2297-0.0601 0.2564-0.0868 0.2781-0.0952 0.2643-0.104 0.2696-0.1101 0.2357-0.1413 0.2029-0.1431 0.1664-0.1601 0.1185-0.1762 0.0691-0.1937 7e-3 -0.2164-0.0669-0.213-0.1201-0.1865-0.1651-0.181-0.1902-0.1709-0.2296-0.1699-0.2476-0.1484-0.253-0.1373-0.2625-0.123-0.2289-0.0915-0.1863-0.0971-0.0905-0.0463 0.0529 0.0513-0.0283 0.1365 0.028-0.023 0.1283-0.1117 0.1662-0.1357 0.182-0.1463 0.1842-0.1421 0.1593-0.1341 0.1484-0.0865 0.1188-0.0651 0.0656-0.0341 0.0378-0.0135 0.0238-0.0106 0.0236-7e-3 0.01-0.027 0.0251 2e-3 0.0236 0.0421 0.0209 0.0153 0.0116 0.0482" __comx="679.991" __comy="198.639" __timestamp="0x1963b01438f"/></g></svg>
