<?xml version="1.0" encoding="UTF-8"?>
<svg width="29.42mm" height="7.794mm" version="1.1" viewBox="0 0 29.42 7.794" xmlns="http://www.w3.org/2000/svg"><g transform="translate(-102.7 -114.3)" stroke-width=".635"><path class="write-flat-pen" d="m105.8 116.2 0.0593-0.0889 0.0728-0.1008 0.0976-0.1596 0.0998-0.2111 0.0759-0.1971 0.0606-0.1871 0.0354-0.1664 0.0278-0.1728-0.0161-0.1741-0.064-0.1757-0.1429-0.1336-0.1744-0.1029-0.2109-0.0611-0.2442-7e-3 -0.2558 0.0323-0.2884 0.1011-0.2905 0.1868-0.2979 0.249-0.2839 0.3384-0.2836 0.4202-0.254 0.4868-0.2405 0.5331-0.2252 0.5519-0.1794 0.5696-0.1148 0.5567-0.0577 0.5371 8e-3 0.5167 0.0672 0.4998 0.1188 0.4643 0.1783 0.4241 0.2127 0.3736 0.2519 0.3289 0.2868 0.2683 0.3408 0.2056 0.3746 0.1082 0.4199 0.041 0.4299-0.0564 0.5326-0.1561-0.0368-0.2201-0.5289 0.0212-0.3641-0.041-0.3281-0.0833-0.2638-0.1103-0.2357-0.1527-0.2119-0.1995-0.1995-0.263-0.177-0.3119-0.149-0.3548-0.0987-0.3924-0.0579-0.435-7e-3 -0.449 0.0511-0.4754 0.1034-0.5022 0.1635-0.521 0.2109-0.5223 0.2273-0.5112 0.2283-0.4479 0.2461-0.3741 0.2312-0.2844 0.2318-0.2024 0.2082-0.1405 0.1786-0.0704 0.1646-0.0304 0.1458-7e-3 0.1 0.0169 0.0905 0.0365 0.0447 0.0225 0.0294 0.0275 0.0299 0.0754 0.0124 0.1228 4e-3 0.1452-0.0172 0.1709-0.0339 0.1918-0.0553 0.2096-0.0582 0.1677-0.036 0.1177-0.036 0.1005" __comx="579.532" __comy="131.587" __timestamp="0x1963b01222b"/><path class="write-flat-pen" d="m108.1 119.5 0.0273-0.0929 0.0183-0.0709-0.0206-0.0923-0.0564-0.1146-0.1265-0.0841-0.1455-0.0458-0.1511-0.0294-0.1712-0.0114-0.1921 9e-3 -0.2032 0.0415-0.1945 0.0958-0.1781 0.1714-0.1299 0.2196-0.0698 0.2487-0.0394 0.2654 0.0296 0.2865 0.1032 0.2638 0.1836 0.2373 0.2675 0.2022 0.327 0.1561 0.3746 0.0974 0.4387 0.0609 0.4665 1e-3 0.4683-0.0669 0.454-0.1347 0.4059-0.1966 0.3368-0.2315 0.2879-0.2598 0.2188-0.2709 0.1524-0.282 0.0847-0.29-0.01-0.3024-0.1029-0.2794-0.2003-0.2342-0.2815-0.1823-0.3146-0.1109-0.3283-0.0707-0.3434-0.0172-0.3209 0.0415-0.3098 0.0982-0.2604 0.1455-0.1826 0.2246-0.0593 0.2572 0.1791 0.3244 0.2998-0.1196-0.0341-0.2093 0.0341 9e-3 0.0823-0.0566 0.145-0.0566 0.2196-0.0577 0.2249-0.0212 0.2487 0.0145 0.2474 0.0537 0.2159 0.0759 0.1545 0.0987 0.0799 0.0921 0.0378 0.095 6e-3 0.1183-0.0405 0.146-0.096 0.1849-0.1558 0.1968-0.226 0.2072-0.2707 0.1889-0.3268 0.1614-0.371 0.1146-0.3884 0.0582-0.3903 1e-3 -0.372-0.0489-0.2953-0.0741-0.2331-0.1085-0.1696-0.1252-0.0966-0.1209-0.0526-0.1252-0.0167-0.1498 0.023-0.1707 0.0389-0.1566 0.0569-0.1077 0.0712-0.0781 0.0704-0.0447 0.1088-0.0357 0.1352-0.023 0.1244-0.0114 0.1135 2e-3 0.0884 5.3e-4 0.0294-6e-3 0.037 0.01 0.0418 0.0172 0.0339 7e-3 0.0273 0.077" __comx="595.875" __comy="131.587" __timestamp="0x1963b0123aa"/><path class="write-flat-pen" d="m111 119.6 5e-3 -0.0638 4e-3 -0.0201 0.0119-0.0434 0.0111-0.0574 0.0196-0.0452 0.0132-0.0479 0.0151-0.0349 7e-3 -0.0579 0.0145-0.0458 0.0249-0.0789 0.0172-0.0862 0.0273-0.0923 0.0204-0.0961 0.0198-0.0817 0.0177-0.0593 0.0183-0.0704 9e-3 -0.0487 0.01-0.022 0.0169-0.0381 0.0103-2e-3 0.0177-0.022 0.0103-0.0402 0.0114-8e-3 -0.385 0.1595-0.0333-0.0185-0.0148-8e-3 0.0172 0.0728 0.0185 0.1302 0.0169 0.2006 0.0106 0.2582-2e-3 0.3151 6e-3 0.3492 0.0151 0.3376 0.0312 0.3196 0.0421 0.2664 0.0712 0.2447 0.1156 0.1746 0.1426 0.1442 0.2103 0.0712 0.1945-0.0151 0.1736-0.072 0.1434-0.1185 0.1286-0.1466 0.1347-0.1704 0.1154-0.2021 0.1045-0.2008 0.0955-0.1913 0.0831-0.1738 0.0786-0.1423 0.0474-0.0767 7e-3 -6e-3 -0.0101 7e-3 -0.4064-0.3704-0.0413 0.0778v0.1286l9e-3 0.1159 0.018 0.1746 0.0571 0.2093 0.0775 0.195 0.1188 0.1894 0.1746 0.1339 0.1886 0.0728 0.2032 8e-4 0.2021-0.0595 0.1794-0.0997 0.1738-0.1188 0.1738-0.155 0.149-0.1662 0.1291-0.1624 0.0998-0.1458 0.0847-0.104 0.0542-0.0542 0.0315-0.0175-0.0831 0.031-0.1429-0.081-0.01-0.0191 0.0307 0.1143 0.0434 0.1812 0.0394 0.2215 0.0601 0.2299 0.0767 0.2312 0.1437 0.2215 0.1707 0.146 0.1828 0.0942 0.1908 0.0384 0.2045-0.0455 0.136-0.1384 0.0672-0.181 0.0691-0.2111 0.0939-0.2241 0.0902-0.2386 0.0804-0.2299 0.0434-0.2225 0.0317-0.1894 0.018-0.1815-0.0225-0.1699-0.0347-0.1643-0.0299-0.1426-0.0114-0.1156 0.0138-0.0513 0.0206-0.0111 0.0204-5e-3 -0.3344 0.022-0.0222-4e-3 -0.0135 0.0119-7e-3 0.0751-4e-3 0.1302-0.01 0.1696 2e-3 0.2146 2e-3 0.2405 4e-3 0.2463 0.014 0.2553 0.0463 0.2474 0.0884 0.209 0.1003 0.1635 0.1791 0.131 0.1831 0.0339 0.1566-0.0138 0.181-0.0635 0.1569-0.1167 0.1135-0.1474 0.0961-0.1707 0.0749-0.1781 0.0394-0.141 0.0495-0.1201 0.0373-0.0963 0.0156-0.0326-0.0124 0.0124 0.0217-0.0106-0.3844-0.159 0.0146 0.0431 0.0114 0.0923 0.0156 0.1754 0.0331 0.2146 0.0407 0.2281 0.05 0.217 0.0582 0.1998 0.064 0.1913 0.0931 0.173 0.1654 0.1291 0.2384 0.0526 0.1826-0.1095 0.118-0.0855 0.1233-0.1328 0.0947-0.1291 0.0971-0.1318 0.0579-0.1072 0.054-0.081 0.0519-0.0757-6e-3 3e-3 -7e-3 3e-3 0.014-1e-3 0.0421 0.01 0.0963 0.036 0.1582 0.0751 0.1913 0.0545 0.232 0.0556h0.282l0.2762-0.046 0.2775-0.0897 0.2765-0.1291 0.2691-0.1566 0.25-0.1979 0.2138-0.1976 0.1966-0.1961 0.1506-0.1971 0.0974-0.1839 0.0751-0.1968-0.014-0.2331-0.1008-0.205-0.1818-0.137-0.2217-0.0775-0.2445-0.0378-0.254-9e-3 -0.2945 0.0283-0.3109 0.1106-0.2865 0.2021-0.2696 0.2781-0.2096 0.3633-0.1408 0.3858-0.0818 0.4024 0.01 0.3948 0.0873 0.3895 0.2212 0.3371 0.326 0.2342 0.4117 0.1437 0.4583 0.0267 0.4651-0.0423 0.4845-0.0984 0.4937-0.1371 0.5056-0.1553 0.517-0.1725 0.4953-0.19 0.5694-0.2527-0.0675-0.2416-0.6231 0.0804-0.5165 0.1209-0.5273 0.1241-0.5072 0.1402-0.4718 0.1275-0.435 0.0884-0.3916 0.0357-0.336-0.0196-0.2582-0.0902-0.1728-0.1241-0.1061-0.1614-0.0524-0.2334-7e-3 -0.2752 0.059-0.2984 0.1087-0.2995 0.1484-0.2604 0.1828-0.1886 0.1802-0.1251 0.1722-0.0609 0.1879-0.018 0.1831 6e-3 0.1601 0.0246 0.0902 0.0312 5e-3 2e-3 -7e-3 -0.0175 1e-3 -2.7e-4 -0.0183 0.0524-0.0577 0.1124-0.0987 0.1299-0.1624 0.1619-0.1905 0.176-0.2024 0.1603-0.2132 0.1244-0.2222 0.104-0.2056 0.0664-0.1908 0.0318h-0.1704l-0.1569-0.0376-0.136-0.0389-0.1381-0.0653-0.1529-0.0574-0.1601-0.0368-0.1881 0.0143-0.1172 0.0495-0.1299 0.0815-0.1193 0.1738-0.0701 0.1058-0.0516 0.0958-0.0743 0.1013-0.0767 0.1048-0.0635 0.0701-0.0534 0.0386 0.0267-0.0161 0.0987 0.0217 0.0249 0.0193-0.0156-0.0291-0.0455-0.136-0.0505-0.1738-0.0434-0.1884-0.0373-0.208-0.0296-0.1908-0.0151-0.1672-0.0196-0.1572-0.0325-0.0963-0.3844-0.159-0.1027 0.0511-0.1222 0.1222-0.0624 0.1389-0.0407 0.1058-0.0595 0.1447-0.0386 0.1392-0.0492 0.1183-0.0601 0.1095-0.0426 0.0558-0.0299 0.0228-0.0376 0.0146-0.0146 2e-3 0.0116 3e-3 8e-3 6e-3 -0.0241-0.0386-0.0521-0.1183-0.0318-0.1569-0.0167-0.2125-0.0108-0.2371-0.0135-0.2418-0.0143-0.2061-0.01-0.173-0.0196-0.15-0.0225-0.0963-0.0291-0.0823-0.0376-0.0344-0.3344 0.022 4e-3 0.0426 5e-3 0.0823 0.0291 0.1045 0.0511 0.1336 0.0635 0.1373 0.0587 0.1466 0.0402 0.1421 2e-3 0.1611-0.0153 0.1842-0.0344 0.2143-0.0746 0.2217-0.0974 0.2283-0.1236 0.1963-0.1495 0.1315-0.1196 0.0376-0.0352-0.0296 2e-3 -0.0302-0.0275-0.0233-0.0667-0.0463-0.0632-0.0561-0.0585-0.0905-0.0476-0.1431-0.0497-0.1897-0.0386-0.2156-0.05-0.2077-0.0471-0.1659-0.0868-0.1902-0.2524-0.1437-0.2072 0.0773-0.1397 0.077-0.1326 0.1326-0.1183 0.1453-0.1024 0.1498-0.1048 0.1342-0.1156 0.1294-0.1225 0.1095-0.1217 0.0833-0.1008 0.0561-0.0624 0.0185-0.0154 8e-4 -0.0135-5e-3 -0.0286-0.022-0.037-0.059-0.0466-0.117-0.0362-0.1336-0.0127-0.122-7e-3 -0.0865v0.0352l-0.0249 0.0468-0.4064-0.3704-0.0571 0.0376-0.0868 0.1024-0.0778 0.1265-0.0929 0.1685-0.0881 0.1842-0.0913 0.1831-0.0976 0.1881-0.0878 0.1566-0.0984 0.1252-0.0897 0.1029-0.0434 0.0376-0.0132 6e-3 8e-3 2.7e-4 0.0227 9e-3 -0.0122-0.0119-0.0402-0.0582-0.0384-0.1299-0.036-0.2159-0.0304-0.2887-0.0167-0.3159-9e-3 -0.336-2e-3 -0.3241-0.0204-0.2865-0.0302-0.2357-0.0431-0.1818-0.0455-0.114-0.0466-0.0862-0.0489-0.0339-0.385 0.1595 0.0114 8e-3 0.0103-0.0249 2e-3 0.0251 0.0103 0.0283 2e-3 0.04 0.01 0.0561 9e-3 0.0294 3e-3 0.0537 2e-3 0.0656 4e-3 0.0894 5e-3 0.0907-4e-3 0.0945 2e-3 0.0852-7e-3 0.0773-7.9e-4 0.063 7e-3 0.0519-5.3e-4 0.0267-2e-3 0.0455-0.0122 0.0492-4e-3 0.0667-3e-3 0.05 4e-3 0.027 5e-3 0.0638" __comx="628.446" __comy="131.587" __timestamp="0x1963b012ad5"/><path class="write-flat-pen" d="m123.3 119.1-0.0257-0.0955-1e-3 -0.1138-5e-3 -0.1733-3e-3 -0.1902-2e-3 -0.1712-0.0185-0.1198-0.0106-0.0643 4e-3 -0.0206-0.313 0.1561-0.0164-6e-3 -7e-3 0.0302 2e-3 0.073-9e-3 0.1408-2e-3 0.2215-2.6e-4 0.2773 0.0175 0.3249 0.0196 0.3395 0.0556 0.3418 0.0722 0.2887 0.0741 0.244 0.131 0.1966 0.163 0.15 0.2381 0.0418 0.2196-0.0868 0.167-0.1312 0.1574-0.1828 0.1582-0.2228 0.1696-0.258 0.1619-0.2741 0.1521-0.2789 0.1334-0.2577 0.0865-0.2328 0.059-0.1905 0.0294-0.1093-0.0635 0.1757-0.3474-0.0892-0.0241-0.0773 0.027 0.1347 0.0368 0.1921 0.0315 0.2506 0.0577 0.282 0.0741 0.2868 0.0939 0.2902 0.1318 0.2717 0.1513 0.24 0.1889 0.2188 0.2476 0.149 0.2802 0.077 0.3053-0.0474 0.2688-0.155 0.2164-0.2582 0.1757-0.3503 0.1667-0.4101 0.1971-0.4482 0.2342-0.4683 0.2339-0.4839 0.2132-0.4903 0.1826-0.4934 0.1326-0.4847 0.0783-0.4546 0.0482-0.4077 0.0156-0.345 6e-3 -0.2662-5e-3 -0.195-9e-3 -0.1037-0.3881-0.1238-0.0789 0.0701-0.0429 0.2061-0.0291 0.2561-0.0286 0.3889-0.0204 0.4731-0.0117 0.5413-3e-3 0.5839 0.0228 0.5726 0.0487 0.5366 0.1013 0.4649 0.1498 0.3786 0.1849 0.286 0.1939 0.1939 0.168 0.1334 0.0958 0.0648 6e-3 5e-3 -0.0873-0.1786 0.1421-0.1246 0.0193 3e-3 -0.0307 0.0114-0.1204-0.0122-0.164-0.0381-0.1828-0.0661-0.2117-0.1199-0.2352-0.1545-0.245-0.1931-0.2487-0.2186-0.2201-0.2138-0.1651-0.2019-0.109-0.1595-0.0241-0.0521-9e-3 0.1045-0.0772 0.0458 0.063-0.0124 0.1233-0.0127h0.1834l0.2376 0.0154 0.2495 8e-3 0.2678 0.018 0.2831-0.0328 0.2704-0.0817 0.3712-0.1688-0.0561-0.2193-0.394 0.027-0.2437 0.0116-0.2307-1e-3 -0.2463-0.0138-0.249-8e-3 -0.2447-0.0156h-0.222l-0.1722 0.018-0.1556 0.0347-0.186 0.1074-0.0254 0.2606 0.1011 0.1974 0.1402 0.1984 0.1932 0.235 0.2476 0.2376 0.2654 0.2331 0.2691 0.2122 0.2633 0.1728 0.2551 0.1447 0.2379 0.09 0.2093 0.0553 0.2069 0.0341 0.1878-0.0193 0.1281-0.0593 0.1892-0.1706-0.1344-0.273-0.118-0.0884-0.0918-0.0593-0.1275-0.1005-0.1334-0.1334-0.1267-0.1963-0.1151-0.2913-0.0855-0.3918-0.0447-0.4916-0.0243-0.549-3e-3 -0.5691 5e-3 -0.5331 0.0106-0.4617 0.0185-0.3744 0.0169-0.227 4e-3 -0.0431-0.0325 0.0241-0.3882-0.1238 0.0225 0.0831 0.0262 0.163 0.0209 0.2479 0.0156 0.3249-0.0143 0.3863-0.0458 0.4339-0.1013 0.4654-0.1447 0.4876-0.1757 0.4916-0.2183 0.4818-0.2328 0.4662-0.2389 0.4239-0.2386 0.3532-0.2143 0.2572-0.1725 0.1318-0.1365 0.0471h-0.1154l-0.1087-0.0328-0.1114-0.0688-0.1066-0.1238-0.1135-0.1807-0.1021-0.2114-0.0773-0.2392-0.0667-0.258-0.0511-0.2484-0.0312-0.2471-0.0413-0.2132-0.0347-0.1619-0.0712-0.2323-0.4101-0.1056-0.1098 0.3008-0.0331 0.1246-0.0497 0.1675-0.0693 0.1879-0.1159 0.2246-0.1434 0.267-0.15 0.2553-0.1577 0.2408-0.1373 0.1979-0.1072 0.1283-0.0669 0.0556-0.0143 7e-3 0.0513 0.0101-8e-3 -6e-3 -0.0558-0.0834-0.0511-0.1611-0.0675-0.2564-0.0542-0.2966-0.0267-0.3151-0.0299-0.3141-0.0159-0.2678-0.0175-0.2146-9e-3 -0.1712-0.0296-0.0984-0.022-0.0789-0.0318-0.0373-0.313 0.1561 0.019 0.0103 0.0365 0.0291 0.0442 0.0669 0.0447 0.1408 0.0442 0.1834 0.041 0.1693 0.0304 0.1201 0.046 0.0987" __comx="661.619" __comy="131.587" __timestamp="0x1963b012e9b"/><path class="write-flat-pen" d="m131.2 117.2-0.1392 0.0206-0.0886 0.0288-0.1037 0.0471-0.1511 0.0799-0.1897 0.0963-0.2045 0.1066-0.2236 0.1116-0.2246 0.1302-0.2214 0.1254-0.1955 0.1402-0.1693 0.1386-0.1437 0.167-0.0767 0.376 0.2426 0.1341 0.1728 0.0712 0.2379 0.0852 0.2659 0.0722 0.2924 0.0979 0.3048 0.1159 0.2815 0.1127 0.245 0.1302 0.1873 0.1196 0.1368 0.1193 0.0857 0.1034 0.0384 0.104 0.0145 0.0916-0.0145 0.0746-0.0418 0.0984-0.0712 0.0989-0.113 0.1093-0.1601 0.1072-0.2204 0.1135-0.2416 0.1098-0.264 0.0979-0.2434 0.0918-0.1992 0.0667-0.1278 0.045-0.0434 0.0265-0.2178-0.0582-0.1733 0.318 0.2717 0.2085 0.2212 0.0265 0.2148-0.0331 0.2368-0.0728 0.2553-0.0958 0.2815-0.1042 0.2725-0.1241 0.2619-0.1357 0.2297-0.1574 0.1826-0.1863 0.1318-0.1976 0.0823-0.2278 0.0172-0.2371-0.0632-0.2204-0.1021-0.2069-0.1638-0.1778-0.1905-0.1609-0.2334-0.1453-0.2844-0.15-0.3106-0.1212-0.3178-0.118-0.3151-0.1042-0.2643-0.0683-0.2135-0.0706-0.1392-0.0532 0.0714 0.0408-0.014 0.0643 0.0431-0.0505 0.127-0.1109 0.1625-0.1244 0.1992-0.1238 0.2114-0.1347 0.2125-0.1222 0.2006-0.1275 0.1839-0.1212 0.1455-0.108 0.0831-0.077 0.0365-0.049 0.096-0.0577" __comx="678.146" __comy="131.587" __timestamp="0x1963b01300a"/></g></svg>
