<?xml version="1.0" encoding="UTF-8"?>
<svg width="28.38mm" height="7.339mm" version="1.1" viewBox="0 0 28.38 7.339" xmlns="http://www.w3.org/2000/svg"><g transform="translate(-72.76 -96.84)" stroke-width=".635"><path class="write-flat-pen" d="m75.28 100.1 0.06138-0.0762 0.09737-0.08281 0.1495-0.1138 0.172-0.1455 0.1683-0.1244 0.1373-0.1304 0.1225-0.1392 0.1087-0.1527 0.08308-0.1453 0.08705-0.1371 0.06191-0.168 0.0056-0.1842-0.04339-0.177-0.0807-0.1635-0.09366-0.141-0.1066-0.1349-0.1439-0.131-0.1535-0.09948-0.1667-0.08361-0.2114-0.06006-0.2376 0.0077-0.2622 0.07117-0.2892 0.1707-0.3069 0.2696-0.2982 0.3366-0.3072 0.386-0.2942 0.4228-0.2553 0.4524-0.2151 0.4887-0.1585 0.5244-0.08996 0.5159-0.05662 0.5024 0.0095 0.4831 0.07038 0.4437 0.1535 0.4215 0.2413 0.3746 0.3064 0.332 0.3929 0.2553 0.445 0.1593 0.4815 0.0775 0.5191-0.0304 0.5054-0.1042 0.4937-0.1638 0.5935-0.2797-0.09922-0.2704-0.6117 0.1622-0.4728 0.0701-0.4601 0.0508-0.431 1e-3 -0.3752-0.063-0.3336-0.1209-0.277-0.1807-0.2233-0.2445-0.1794-0.2799-0.1111-0.3101-0.05477-0.3503-0.0061-0.4053 0.05212-0.4477 0.08149-0.4649 0.1381-0.4575 0.1892-0.4305 0.2278-0.4043 0.267-0.3868 0.285-0.362 0.2619-0.3016 0.2389-0.2138 0.1775-0.1095 0.1275-0.03863 0.08969-0.0079 0.08414 0.01773 0.0979 0.04154 0.09578 0.05556 0.08996 0.07223 0.08017 0.08255 0.07779 0.09287 0.0598 0.08572 0.03466 0.07223 0.0209 0.06535-5.29e-4 0.08123-0.03704 0.1278-0.04207 0.1503-0.06244 0.1439-0.07964 0.141-0.09657 0.1344-0.1434 0.1402-0.1553 0.1664-0.1307 0.1357-0.08943 0.104-0.05636 0.0881" __comx="583.799" __comy="62.375" __timestamp="0x1963b011054"/><path class="write-flat-pen" d="m78.59 102.2-0.1209-0.0442-0.07038-0.0336-0.1267-0.0524-0.1884-0.0659-0.1818-0.0632-0.1889-0.0646-0.1884-0.0482-0.1908-0.0214-0.1937 0.0458-0.1516 0.1154-0.114 0.149-0.09049 0.1799-0.06641 0.1894-0.05053 0.2246 9e-3 0.2479 0.07488 0.2315 0.1336 0.2048 0.2159 0.1741 0.2855 0.0929 0.3167 0.0442 0.3498 0.0341 0.3675 9e-3 0.3371 8e-3 0.3201-0.0156 0.29-0.045 0.2606-0.0953 0.2305-0.1384 0.1918-0.1905 0.1246-0.2212 0.05847-0.2386-0.01005-0.2453-0.09446-0.2286-0.1513-0.1961-0.2013-0.1651-0.2426-0.1537-0.2855-0.1249-0.2979-0.0878-0.2995-0.0513-0.2836-0.0259-0.2537 0.0196-0.186 0.0283-0.2596 0.1101-0.02196 0.3545 0.236 0.1193 0.2992-0.014 0.05397-0.141-0.1688-0.1929 0.08017 0.0106-0.0063 0.2458-0.08811 0.0474 0.1106-2e-3 0.1976-0.0122 0.2151 0.0214 0.2453 0.0421 0.2315 0.0683 0.2133 0.0929 0.1781 0.1109 0.1259 0.1005 0.06721 0.0841 0.02963 0.0669 0.0056 0.0667-0.01931 0.0886-0.04657 0.0897-0.08811 0.0907-0.1278 0.0791-0.1601 0.0606-0.2085 0.0331-0.2717 0.0154-0.3175-7e-3 -0.3487-6e-3 -0.3201-0.0283-0.2598-0.0336-0.1505-0.0468-0.07964-0.0598-0.05398-0.0754-0.03387-0.0958-0.0064-0.1103 0.02725-0.1344 0.0426-0.1368 0.05027-0.1167 0.0418-0.0688 0.01984-0.0251 0.02408-0.0167 0.09022-6e-3 0.1543 0.0145 0.1847 0.0288 0.1918 0.0302 0.2016 0.0275 0.1535 0.01 0.08546-0.018 0.1238-7e-3" __comx="597.362" __comy="62.375" __timestamp="0x1963b0111f5"/><path class="write-flat-pen" d="m80.91 102.6-0.01085-0.0593 0.0019-0.0392-0.0095-0.0675-0.01614-0.0714-0.0069-0.0728-0.01349-0.0725-0.0011-0.0664-0.0024-0.0892-0.0087-0.1032-0.0013-0.0979-0.01376-0.1048-0.01879-0.1117-0.01164-0.0902-0.01244-0.1008-0.0061-0.1106-0.0069-0.1106-0.0019-0.1273-0.0019-0.0873 5e-3 -0.0609 0.0053-0.0312h-0.4556l-0.0077 0.0312-0.0063 0.0622-0.0034 0.1169-0.0032 0.1831 0.0048 0.2371 0.0045 0.2648 0.0053 0.2762 0.01323 0.2789 0.03122 0.2379 0.03201 0.2214 0.05662 0.2006 0.07329 0.1593 0.06853 0.1267 0.0807 0.0823 0.08281 0.0833 0.09922 0.0349 0.1363 0.0553 0.1902-0.0804 0.1323-0.1024 0.08599-0.1265 0.09869-0.1397 0.09393-0.1609 0.08625-0.1561 0.09499-0.1664 0.09816-0.1878 0.08334-0.1741 0.08811-0.1537 0.06535-0.1117 0.0034-4e-3 -0.2307-0.0336-0.04418-0.0762 0.01905 0.0482 0.01799 0.1072 0.02593 0.1675 0.06059 0.1921 0.09604 0.181 0.1127 0.1336 0.1069 0.1064 0.1714 0.0937 0.1979 0.0182 0.1728-0.0431 0.1519-0.0807 0.1466-0.1124 0.114-0.1426 0.1029-0.1267 0.09551-0.1246 0.09631-0.1029 0.06562-0.0646-0.01482 0.0103h-0.1381l-0.07885-0.0667 0.0093 0.027 0.03995 0.1273 0.03704 0.1704 0.0545 0.2183 0.1011 0.2122 0.1685 0.181 0.2344 0.1011 0.2498-5e-3 0.2035-0.0767 0.299-0.1878-0.1389-0.3122-0.2942 0.0765-0.1074-0.0151-0.07752-0.0206-0.03043-0.023-0.0344-0.0373-0.03836-0.0833-0.03889-0.1561-0.04075-0.1876-0.05345-0.1683-0.06853-0.1762-0.1884-0.1601h-0.2469l-0.1707 0.1201-0.1058 0.1066-0.1214 0.1299-0.1074 0.1402-0.09922 0.1225-0.07276 0.0913-0.05636 0.0437-0.05027 0.028-0.01402 4e-3 0.01138 2e-3v2.6e-4l-0.0336-0.0331-0.05874-0.0696-0.04445-0.0839-0.03281-0.1034-0.02011-0.1291-0.02937-0.173-0.05874-0.1386-0.1069-0.1849-0.3397-0.05-0.2305 0.277-0.08969 0.1529-0.09948 0.1736-0.08811 0.1842-0.08863 0.1704-0.09181 0.1609-0.0852 0.1548-0.07726 0.1355-0.08784 0.1252-0.03916 0.0603-0.0074 6e-3 0.08043-0.0331 0.05821 0.0243 0.0058 3e-3 5e-3 6e-3 -0.02805-0.0265-0.02487-0.0447-0.0508-0.1056-0.03784-0.1267-0.02963-0.1836-0.03149-0.2135-0.01746-0.2506-0.01111-0.2686-0.01085-0.2654-0.01058-0.2297-0.0032-0.1749-0.0034-0.1169-0.0063-0.0622-0.0077-0.0312h-0.4556l0.0053 0.0312 5e-3 0.0789 0.01349 0.0992 0.01349 0.1373 0.02461 0.1233 0.02487 0.1233 0.03493 0.1175 0.03466 0.0966 0.04366 0.1058 0.03334 0.0817 0.02937 0.0897 0.03836 0.099 0.02858 0.0823 0.02963 0.0741 0.0336 0.0669 0.02408 0.0677 0.03096 0.0691 0.02117 0.0566 0.0172 0.0386 0.02884 0.0595" __comx="612.758" __comy="62.375" __timestamp="0x1963b01156a"/><path class="write-flat-pen" d="m85.07 101.4 0.0056-0.0947 0.01032-0.0817 0.01164-0.0998 0.01984-0.0855 0.02011 4e-3 -0.1109 0.1371-0.1564-0.0826-0.02249-8e-3 0.0026 0.0952-0.0032 0.1873v0.2402l0.0021 0.2844 0.02858 0.2699 0.03096 0.2723 0.07382 0.2461 0.1005 0.204 0.1365 0.164 0.1934 0.0892 0.2148 5.3e-4 0.1622-0.0799 0.131-0.1072 0.1233-0.1537 0.09737-0.164 0.07541-0.176 0.07673-0.1685 0.08017-0.176 0.068-0.1638 0.06985-0.1326 0.0635-0.1111 0.03757-0.0749-0.01349 0.0222-0.02752 0.0183-0.4032-0.1252 0.01958 0.049 0.03863 0.078 0.03625 0.091 0.03625 0.1378 0.04471 0.1418 0.03334 0.1577 0.068 0.1707 0.1053 0.1442 0.14 0.109 0.2019 0.0611 0.2035-0.0558 0.1347-0.0894 0.1172-0.1286 0.09631-0.154 0.07488-0.1405 0.07488-0.1413 0.05583-0.1278 0.03995-0.0802 0.05821-0.0775-0.06297 0.0495h-0.1061l-0.068-0.0333 0.0029 5e-3 0.04339 0.1117 0.05345 0.1688 0.06667 0.1828 0.07752 0.1852 0.1394 0.186 0.1662 0.1177 0.1913 0.0855 0.1926 0.0407 0.1998 0.0172h0.2029l0.2096-0.018 0.2072-0.0471 0.1839-0.0712 0.146-0.087 0.1291-0.0826 0.136-0.0862 0.1286-0.1008 0.1206-0.1114 0.1045-0.123 0.0926-0.1336 0.06853-0.1577 0.02963-0.1458 0.02804-0.1506v-0.1492l-0.0077-0.1246v-0.1259l-0.0077-0.1088v-0.1937l-0.0127-0.1056-0.05451-0.1643-0.1849-0.1122-0.1995-7.9e-4 -0.1746 0.0881-0.1474 0.1175-0.1595 0.149-0.154 0.176-0.1392 0.2016-0.1061 0.2265-0.068 0.236-0.0299 0.2508 0.01931 0.258 0.07197 0.2461 0.1373 0.2424 0.2286 0.1717 0.2754 0.1177 0.3072 0.0632 0.3548 0.0323 0.4101 0.0199 0.4466-0.0127 0.7535 0.0243-0.01085-0.5972-0.7474 0.0513-0.4257-0.0127-0.3842-0.0272-0.3151-0.0302-0.2222-0.0458-0.1617-0.0691-0.08255-0.0622-0.04948-0.0849-0.03757-0.1275-0.01164-0.1471 0.0164-0.1545 0.04154-0.1529 0.06535-0.1479 0.09366-0.141 0.1117-0.1352 0.1206-0.1159 0.08652-0.0693 0.01217-6e-3 -0.07541-7.9e-4 -0.1072-0.0648-0.02302-0.0709 0.0026 0.0196v0.1799l0.0077 0.1088v0.1236l0.0077 0.1246v0.0847l-0.01826 0.099-0.01746 0.0881-0.02461 0.0598-0.04789 0.0693-0.06694 0.0791-0.08149 0.0754-0.08996 0.0704-0.1135 0.0696-0.1201 0.0733-0.1024 0.0526-0.1127 0.0384-0.1357 0.0307-0.1487 0.0127h-0.155l-0.1429-0.0135-0.104-0.022-0.0889-0.0397-0.05212-0.037-0.04736-0.0632-0.04657-0.1111-0.05847-0.1598-0.0553-0.1741-0.06562-0.1685-0.1069-0.1818-0.1924-0.096h-0.2151l-0.141 0.1122-0.1294 0.172-0.06879 0.1373-0.05292 0.1217-0.06562 0.1236-0.06456 0.1241-0.05953 0.0955-0.03863 0.0426-0.0058 4e-3 0.03228-9e-3 0.04577 0.0138 2.65e-4 2.6e-4 -0.01984-0.0272-0.0254-0.0632-0.0291-0.1378-0.04868-0.1545-0.04154-0.1577-0.05715-0.1429-0.03916-0.0781-0.01138-0.028-0.4032-0.1252-0.07355 0.049-0.06059 0.1003-0.04048 0.081-0.06059 0.1064-0.08625 0.1638-0.0725 0.1788-0.07567 0.1667-0.07911 0.1741-0.06403 0.1503-0.05847 0.1016-0.0635 0.0794-0.04048 0.0336 0.0061-2e-3 0.02805 5.2e-4 0.02196 0.0111-0.01931-0.0228-0.0553-0.108-0.05054-0.1593-0.03148-0.2254-0.03413-0.2442-0.01323-0.2614-0.01535-0.2421-0.01879-0.2178-0.04445-0.1857-0.08493-0.132-0.2024-0.1135-0.1733 0.1987 0.02011 0.145 0.03519 0.1013 0.04339 0.1034 0.04127 0.0733 0.03519 0.086" __comx="634.952" __comy="62.375" __timestamp="0x1963b0118cd"/><path class="write-flat-pen" d="m92.64 101-0.0024-0.0807 0.0026-0.055 0.01111-0.0828 0.0019-0.1164 0.0024-0.078 9e-3 -0.0744 0.01349-0.0479 0.01349-0.0312 0.01191-0.0312-0.3376-0.0794-0.02778 0.0291-0.02963 0.0767-0.04233 0.1154-0.0418 0.2186-0.03757 0.273-0.02937 0.34-0.0045 0.3662-0.0029 0.3336 0.01429 0.2982 0.03387 0.2402 0.06112 0.1992 0.1087 0.1654 0.1326 0.086 0.1341 0.0791 0.2175-0.0331 0.1646-0.0788 0.1355-0.131 0.1434-0.1799 0.1032-0.2056 0.08387-0.2154 0.07673-0.2061 0.07937-0.1871 0.09287-0.1759 0.07435-0.1609 0.02804-0.0577-0.1516 0.1556-0.1966-0.154 0.02196 0.0513 0.06932 0.191 0.07594 0.2662 0.1035 0.3302 0.1238 0.3299 0.1556 0.3199 0.1992 0.2802 0.2389 0.2291 0.2765 0.1521 0.3043 0.0656 0.3106-0.0463 0.2895-0.1548 0.2709-0.2355 0.2365-0.3072 0.2212-0.35 0.1995-0.3942 0.1487-0.4535 0.1286-0.49 0.104-0.5371 0.0717-0.5551 0.06429-0.5697 0.03228-0.5866 0.01693-0.5649-0.02328-0.5495-0.02884-0.4403-0.02064-0.318-0.02249-0.2167-0.0172-0.07937-0.5032 0.0019-0.02196 0.08176-0.01984 0.2043-0.01773 0.3463-0.0016 0.5061 0.0063 0.5998-0.0026 0.6961 0.02196 0.7146 0.03069 0.7041 0.07223 0.6414 0.09816 0.5493 0.1442 0.4411 0.1548 0.318 0.1455 0.2315 0.1124 0.1532 0.07355 0.1085 0.03678 0.0463 0.0079 0.0119 0.4247-0.3495-0.03228-0.0304-0.07805-0.0759-0.1318-0.095-0.1725-0.1334-0.1918-0.1376-0.1976-0.1611-0.1773-0.1905-0.1619-0.2307-0.1495-0.2625-0.09419-0.2225-0.0254-0.1225-0.01032 0.0304-0.02011 8e-3 0.1132-0.0143 0.2058 0.0196 0.2672 0.0233 0.2826 0.0156 0.3231 2e-3 0.3543-0.0251 0.3728-0.0704 0.3871-0.1048 0.3932-0.127 0.3757-0.1468 0.3482-0.1344 0.2963-0.1434 0.2212-0.1193 0.1511-0.0796 0.1011-0.0648 0.0474-0.0315-0.0484-0.2455-0.0654-0.05609-0.1318-0.02725-0.1519 0.0085-0.1963 0.03757-0.195 0.08149-0.2072 0.0934-0.2125 0.1175-0.2178 0.1217-0.1968 0.1503-0.1593 0.158-0.1074 0.1566-0.0926 0.1873 0.1003 0.25 0.1688 0.1008 0.1643 0.0548 0.218 0.073 0.2426 0.063 0.2474 0.0812 0.2535 0.1088 0.2252 0.1212 0.172 0.1267 0.1302 0.117 0.0534 0.0868 0.0177 0.0624-3e-3 0.031-4e-3 -1e-3 -0.027 0.0288-0.1101 0.0751-0.2008 0.0955-0.2627 0.1124-0.299 0.1151-0.2947 0.1162-0.2551 0.0926-0.2238 0.0802-0.1535 0.0857-0.2511 0.0992 0.05424 0.2871 0.2852-2e-3 0.1892-8e-3 0.2439-0.0439 0.2897-0.0786 0.3125-0.1177 0.3085-0.1188 0.2831-0.1214 0.2506-0.122 0.2019-0.1431 0.1445-0.1733 0.0585-0.2196-0.0344-0.2021-0.0757-0.1714-0.1334-0.1781-0.1971-0.1632-0.217-0.1545-0.2733-0.1437-0.2921-0.1241-0.282-0.09-0.2405-0.0622-0.3183-0.1063 0.01296 7e-3 0.03863 0.0942-0.01561 0.0323 0.06377-0.0926 0.1064-0.1069 0.146-0.1154 0.1868-0.1114 0.1929-0.1164 0.1828-0.0934 0.1476-0.0743 0.131-0.0402 0.081-0.0222 9e-3 -0.0117 0.0127-0.01-0.0484-0.2455 2.6e-4 0.031-0.0386 0.0603-0.1135 0.0918-0.1995 0.1299-0.2802 0.1365-0.3373 0.1302-0.3723 0.118-0.3858 0.0751-0.3762 0.0357-0.3445 7e-3 -0.3149-0.0251-0.3006-0.045-0.2778-0.0307-0.263-0.0238-0.2609-0.0267-0.2604 0.0318-0.2693 0.1336-0.08837 0.3104 0.05265 0.2982 0.1236 0.3069 0.1778 0.3143 0.1963 0.2834 0.2278 0.2455 0.2384 0.1968 0.1979 0.1423 0.1701 0.1323 0.1024 0.0765 0.0463 0.0481 0.03043 0.032 0.4247-0.3495-0.02381-0.0354-0.04127-0.0471-0.06588-0.0937-0.1061-0.1434-0.1191-0.1892-0.1254-0.2574-0.1206-0.3694-0.08837-0.4942-0.06826-0.6054-0.03201-0.6821-0.02434-0.7025-0.0026-0.6911-0.0098-0.5998-0.0016-0.49 0.01376-0.3238 0.01085-0.154 0.0087-0.04313-0.5032 0.0019 0.01455 0.04577 0.02355 0.1722 0.02646 0.3056 0.03387 0.4318 0.02302 0.5249-0.01402 0.5411-0.03043 0.5665-0.06006 0.5519-0.06879 0.5355-0.09816 0.5064-0.1206 0.4601-0.1323 0.4032-0.1741 0.3373-0.1995 0.3045-0.1995 0.2376-0.1968 0.1545-0.1619 0.0791-0.1254 0.0161-0.1318-0.0286-0.1442-0.0807-0.1511-0.1453-0.1437-0.2021-0.1246-0.2569-0.1101-0.2929-0.09869-0.309-0.0799-0.2786-0.08652-0.2297-0.08678-0.1826-0.2746-0.2167-0.245 0.2498-0.06535 0.1445-0.06614 0.1508-0.09393 0.182-0.09181 0.2172-0.07911 0.2146-0.07197 0.19-0.068 0.1373-0.08969 0.1164-0.05212 0.0558-0.02196 0.0145 0.03069-2e-3 0.0254 0.0167-0.03889-0.023-0.0164-0.0214-0.03228-0.0963-0.02858-0.1804-0.0164-0.263-0.0029-0.3209-0.0045-0.35 0.01773-0.3146 0.02408-0.2566 0.02064-0.1868 0.02011-0.1021 0.0013-0.0484-0.01217-2e-3 -0.3376-0.0794 0.01191 0.0312 0.01349 0.0312 0.01349 0.0611 0.0254 0.0968 0.03307 0.0778 0.03281 0.1011 0.02672 0.0884 0.0344 0.0537 0.02778 0.0712" __comx="666.107" __comy="62.375" __timestamp="0x1963b011e86"/></g></svg>
