<?xml version="1.0" encoding="UTF-8"?>
<svg width="28.12mm" height="7mm" version="1.1" viewBox="0 0 28.12 7" xmlns="http://www.w3.org/2000/svg"><g transform="translate(-24.08 -108.2)" stroke-width=".635"><path class="write-flat-pen" d="m26.25 110.3 0.04657-0.0627 0.0672-0.0693 0.1019-0.1019 0.1331-0.1466 0.1479-0.1381 0.1463-0.1413 0.141-0.1535 0.1146-0.15 0.118-0.141 0.08599-0.1445 0.06218-0.127 0.04392-0.1728-0.06323-0.1799-0.1032-0.1217-0.1445-0.0907-0.1818-0.0659-0.2101-0.0431-0.2254-0.0156-0.268 0.0452-0.2757 0.131-0.2617 0.1932-0.2932 0.2797-0.2863 0.3662-0.2789 0.4313-0.2797 0.5136-0.2318 0.5834-0.1659 0.6128-0.1003 0.5956-0.0085 0.5707 0.08837 0.504 0.1902 0.4437 0.2865 0.3844 0.3545 0.3202 0.3844 0.2617 0.4315 0.173 0.4524 0.0923 0.4985-0.0236 0.4866-0.1315 0.4575-0.1968 0.4223-0.2707 0.3598-0.2717 0.3056-0.2643 0.2527-0.2688 0.1886-0.2606 0.1159-0.2434 0.08943-0.1987 0.0058-0.2003-0.07408-0.1648-0.1212-0.1368-0.1924-0.0979-0.1966-0.0661-0.2249-0.0484-0.2315-0.032-0.2326-0.0109-0.2622 0.0431-0.2143 0.1519-0.1492 0.2252-0.09234 0.3074-0.0019 0.3318 0.0426 0.35 0.1172 0.3715 0.2082 0.3371 0.2678 0.2858 0.3257 0.2371 0.3659 0.1431 0.3622 0.0892 0.3625 0.0108 0.3569-0.0521 0.3246-0.1281 0.286-0.1815 0.2318-0.2188 0.1842-0.2468 0.1132-0.2709 0.04445-0.2802-0.03069-0.2648-0.1106-0.2585-0.1929-0.218-0.241-0.1619-0.2749-0.1103-0.2813-0.0791-0.2813-0.0421-0.2469-0.0249-0.2334 1e-3 -0.2241 0.0431-0.1979 0.1482-0.06694 0.2588 0.14 0.2244 0.2008 0.1024 0.3532 0.0852 0.1021-0.2463-0.2675-0.1717-0.03228-0.0691 0.04657 0.0365-0.02064 0.1193-0.04207 0.0394 0.05609-4e-3 0.1564 1e-3 0.2045 0.0222 0.2328 0.0352 0.2175 0.0614 0.1921 0.0765 0.1334 0.0873 0.08705 0.0939 0.04524 0.0998 0.0164 0.1088-0.01826 0.1402-0.05794 0.1498-0.1124 0.1582-0.1572 0.1545-0.1974 0.1304-0.2201 0.0905-0.2506 0.0413-0.2611-5e-3 -0.2762-0.0656-0.2733-0.1061-0.2347-0.1683-0.2-0.213-0.1498-0.2394-0.08493-0.2667-0.03545-0.2728-0.0019-0.2294 0.04736-0.1757 0.05397-0.1013 0.05027-0.0511 0.1114-0.0347 0.1725-0.0109 0.2048-2.7e-4 0.1958 0.0132 0.1617 0.0283 0.1349 0.0415 0.08096 0.05 0.06641 0.0691 0.03651 0.1116-0.03493 0.1749-0.08625 0.2397-0.1701 0.2535-0.245 0.2606-0.3027 0.2498-0.3871 0.1953-0.4508 0.1344-0.4456 0.0833-0.4326 0.04-0.39-0.0236-0.3418-0.0945-0.3318-0.1378-0.3011-0.2061-0.2836-0.2564-0.2119-0.2847-0.1371-0.3196-0.06747-0.3844 0.0069-0.4728 0.08652-0.526 0.146-0.5559 0.2043-0.5228 0.2498-0.4672 0.2514-0.3948 0.2432-0.3191 0.2363-0.2344 0.1897-0.1498 0.1614-0.0868 0.1363-0.0325 0.1336-2.7e-4 0.1482 0.0196 0.1138 0.0275 0.05847 0.018 0.0209 2e-3 0.01455-8e-3 0.01323 0.0302-0.01588 0.0905-0.03916 0.1201-0.08414 0.14-0.08837 0.1609-0.1074 0.1585-0.1193 0.1543-0.1323 0.1585-0.1162 0.1654-0.08493 0.1159-0.05715 0.0868-0.03678 0.0751" __comx="583.66" __comy="270.997" __timestamp="0x1963b014c03"/><path class="write-flat-pen" d="m32.12 113 0.0037-0.0736 0.0056-0.0699 0.0071-0.0934 0.0079-0.1222 0.01693-0.0907 0.01799-0.1037 0.01138-0.0963 0.01217-0.0934 0.01138-0.1188-0.0069-0.0998 0.0019-0.095-0.02275-0.1122-0.03678-0.0778-0.0217-0.0656-0.03016-0.0677-0.0066-0.018 0.0069-2e-3 -5.29e-4 -0.0265 0.0037-0.01 0.0056 0.0153 0.0032-0.0135 0.01058-0.031 0.0021-0.0148-0.04948 0.1609-0.2902 6e-3 -0.05768-0.1024 0.01773 0.0675 0.02434 0.1098 9e-3 0.1815 0.01984 0.2434 0.0056 0.2826 0.01429 0.3138 0.03148 0.3196 0.04842 0.2818 0.05953 0.2479 0.07144 0.1992 0.0807 0.1627 0.1066 0.1347 0.1222 0.077 0.1315 0.0497 0.1511 2.6e-4 0.1212-0.0389 0.114-0.0759 0.09657-0.1267 0.05186-0.1342 0.05318-0.1296 0.04233-0.1598 0.04815-0.1598 0.03916-0.1714 0.04657-0.1548 0.02566-0.1048 0.03149-0.058-0.04868 0.0966-0.1984 2.7e-4 -0.08599-0.0566-0.0029-6e-3 0.03916 0.1008 0.03493 0.1193 0.05159 0.1812 0.07752 0.1728 0.07091 0.1593 0.08414 0.1304 0.08864 0.1267 0.1363 0.0855 0.1558 0.0513 0.1691-0.0474 0.1368-0.0823 0.1082-0.108 0.1042-0.141 0.09022-0.1434 0.08202-0.1635 0.0545-0.1402 0.05636-0.113 0.04127-0.0818 0.03307-0.0405 0.02566-0.0206 0.0079-3e-3h-0.02434l0.0069 3e-3 0.06006 0.0511 0.08334 0.0966 0.1111 0.1405 0.1162 0.1564 0.1212 0.1537 0.1299 0.1564 0.1349 0.1249 0.1373 0.0982 0.15 0.0807 0.1638 0.0355 0.123 8e-3 0.1363-9e-3 0.1119-0.055 0.2476-0.1638-0.1778-0.3556-0.2331 0.0767-0.01244-0.0243-0.05053-9e-3 -0.06482-8e-3 -0.05371-0.0116-0.05212-0.028-0.08123-0.058-0.08361-0.0773-0.1029-0.1236-0.1127-0.1429-0.1177-0.1556-0.1228-0.155-0.1188-0.1373-0.1421-0.1204-0.1797-0.09h-0.2122l-0.1789 0.0746-0.1302 0.1045-0.1066 0.1307-0.06826 0.1357-0.068 0.1363-0.05424 0.14-0.05847 0.1175-0.06562 0.105-0.06694 0.0929-0.03228 0.0325-0.01799 0.0111 0.05927-0.0167 0.06244 0.0206 0.01191 7e-3 -0.02037-0.0291-0.05636-0.0873-0.05424-0.1217-0.06218-0.1381-0.0418-0.146-0.04313-0.1455-0.05424-0.1331-0.06535-0.1466-0.1794-0.1183-0.2918 2.7e-4 -0.09578 0.19-0.06191 0.1135-0.03704 0.1598-0.04683 0.1572-0.03889 0.1712-0.04524 0.1513-0.03572 0.1368-0.04022 0.1034-0.02593 0.0688 0.0034-3e-3 0.02064-0.0132 0.02778-8e-3 0.02699 2.7e-4 0.0063 3e-3 -0.0021-1e-3 -0.01852-0.0214-0.04366-0.0865-0.05371-0.1434-0.04948-0.2037-0.04498-0.2476-0.03122-0.2879-0.01667-0.2945-0.0098-0.2932-0.02725-0.2553-0.0217-0.2238-0.05371-0.1704-0.04471-0.104-0.08864-0.1648-0.3064 6e-3 -0.06482 0.208 0.0021 0.0315-0.0048 0.0318 0.0032 0.0646 0.0056 0.0617 0.0344 0.0683 0.01588 0.0206 0.03757 0.0757 0.04048 0.0283 0.01614 0.0103 0.04075 0.0595 0.04101 0.0466 0.02328 0.0437 0.0172 0.0765 0.02461 0.087 0.01138 0.0998 0.01217 0.0934 0.01138 0.0905 0.0026 0.0984 5.29e-4 0.0968 0.0079 0.1273 0.0071 0.0934 0.0056 0.0699 0.0037 0.0736" __comx="608.171" __comy="270.997" __timestamp="0x1963b01501e"/><path class="write-flat-pen" d="m36.54 112.1 0.0029-0.0939-0.01085-0.081-0.0077-0.1093-0.01244-0.1265-0.01376-0.0841 0.01111-0.0241 0.01138-3e-3h-0.3286l-0.0209 0.0339-0.0011 0.0479v0.086l0.0095 0.145 0.01746 0.1828 0.01032 0.2196 0.01085 0.2635 0.01217 0.2757 0.02275 0.2879 0.04895 0.2701 0.06376 0.2342 0.1074 0.1849 0.1677 0.1685 0.2352 0.0206 0.2032-0.0656 0.1675-0.1318 0.141-0.1574 0.123-0.1738 0.1093-0.1818 0.0979-0.1767 0.0635-0.181 0.03757-0.1238 0.03651-0.0847 0.04075-0.0746 0.0217-0.0392-0.0011 1e-3 0.03836-0.022-0.07858 0.0595-0.1339-0.0659-0.0079-7e-3 0.01958 0.0513 0.03995 0.1336 0.02831 0.1558 0.03281 0.1961 0.05398 0.2074 0.08123 0.195 0.1257 0.1638 0.1828 0.1116 0.2222 0.0378 0.1656-0.0828 0.1408-0.0942 0.1183-0.1529 0.06958-0.1373 0.07567-0.1257 0.05636-0.1397 0.04048-0.1103 0.03519-0.091 0.03228-0.0714 0.0066-0.0119-0.1651 0.0653-0.104-0.0627 0.0021 3e-3 0.03545 0.0661 0.05927 0.1429 0.08123 0.1704 0.08969 0.181 0.146 0.1873 0.1834 0.1389 0.2185 0.0767 0.2402 0.0323 0.2744-0.036 0.282-0.0693 0.294-0.1204 0.2995-0.1572 0.2916-0.1783 0.2691-0.1791 0.2498-0.1918 0.2238-0.1738 0.1871-0.1855 0.1416-0.1786 0.09419-0.1722 0.05794-0.1683-0.01931-0.241-0.1651-0.1672-0.1593-0.0484-0.1648-0.0296-0.1865-0.01-0.2032 8e-3 -0.2111 0.0386-0.2 0.0706-0.214 0.1225-0.1746 0.1646-0.1455 0.1995-0.1013 0.2691-7.94e-4 0.2979 0.04471 0.2791 0.08043 0.286 0.131 0.2805 0.1868 0.2455 0.25 0.1992 0.3138 0.1365 0.3667 0.0622 0.3921 0.0257 0.4257-0.037 0.4408-0.0743 0.454-0.1437 0.6482-0.2357-0.1064-0.3606-0.6625 0.1508-0.4344 0.0746-0.4006 0.05-0.3683 0.0257-0.3241-0.0214-0.2725-0.0466-0.1849-0.081-0.1389-0.1124-0.1095-0.1445-0.08678-0.1863-0.06006-0.2125-0.03334-0.204-7.94e-4 -0.1535 0.03942-0.1045 0.07223-0.0968 0.09022-0.0847 0.1132-0.0643 0.1119-0.0381 0.1315-0.0241 0.1394-7e-3 0.1254 6e-3 0.1 0.0175-0.0034-2e-3 -0.0717-0.0738-4e-3 -0.0696-0.0045 0.0193-0.0463 0.0923-0.09128 0.1169-0.14 0.1418-0.1968 0.1535-0.2334 0.1818-0.245 0.1635-0.2686 0.1646-0.2617 0.1394-0.2355 0.0971-0.2167 0.0558-0.1773 0.0257-0.1188-0.0138-0.09234-0.032-0.06615-0.0487-0.0725-0.0929-0.06535-0.131-0.07488-0.1558-0.06588-0.1534-0.07329-0.136-0.09128-0.1061-0.182-0.1098-0.2432 0.0963-0.1024 0.191-0.04551 0.1-0.04286 0.1111-0.03757 0.108-0.03704 0.0931-0.06482 0.1082-0.05477 0.1119-0.03757 0.0492-0.04577 0.031 0.0098-5e-3 0.03545 6e-3 -0.02037-0.0124-0.02937-0.0384-0.04392-0.1016-0.03942-0.1508-0.0299-0.1775-0.03413-0.1868-0.05345-0.1783-0.05847-0.1508-0.1167-0.1326-0.2273-0.1122-0.1413 0.1056-0.07038 0.0407-0.09446 0.0945-0.05609 0.1016-0.05265 0.0966-0.05689 0.1331-0.04048 0.141-0.04524 0.1307-0.07355 0.1342-0.09393 0.1609-0.09446 0.1378-0.09287 0.1072-0.06641 0.055-0.03069 0.0122 0.03307 5e-3 -0.0037-3e-3 -0.04842-0.0799-0.04498-0.1556-0.04445-0.2275-0.02434-0.258-0.01879-0.2691-0.01984-0.2659-0.02143-0.2328-0.02884-0.1908-0.02196-0.1352-0.01535-0.1008-0.0164-0.0302-0.0209 2e-3h-0.3286l0.01138 0.0283 0.02672 0.0693 0.04895 0.0873 0.05027 0.1066 0.05398 0.1093 0.05159 0.0595 0.03069 0.0738" __comx="631.957" __comy="270.997" __timestamp="0x1963b015393"/><path class="write-flat-pen" d="m44.17 111.3-0.03016-0.0587 0.0095-0.045-0.01297-0.0616-5e-3 -0.0582-0.01085-0.0381-0.2614 0.0471-0.03387 0.0455-0.01191 0.1032-0.0026 0.155 0.0061 0.2328 0.02276 0.2686 0.02249 0.3146 0.04048 0.3379 0.03466 0.3326 0.05556 0.3252 0.08784 0.2892 0.1431 0.2476 0.1857 0.1524 0.2275 0.0907 0.2572-0.0246 0.2355-0.1169 0.2151-0.176 0.2148-0.2384 0.2085-0.2746 0.1659-0.2704 0.1453-0.2556 0.1167-0.2217 0.07091-0.1648 0.04736-0.091-0.0032 8e-3 -0.2212 0.1135-0.1164-0.1521 0.02566 0.0476 0.03969 0.1262 0.06932 0.208 0.07673 0.2638 0.09499 0.2934 0.1074 0.3143 0.1447 0.2892 0.2011 0.2492 0.254 0.1588 0.2775 0.0794 0.2834-0.0569 0.2368-0.146 0.1786-0.241 0.1447-0.2971 0.1214-0.3347 0.1072-0.3704 0.09499-0.3643 0.07964-0.3569 0.06403-0.3596 0.0418-0.3678 0.02884-0.3826 0.0053-0.403 0.0056-0.4143-0.0013-0.4244-0.0056-0.4135 0.0024-0.3686-0.0087-0.2601 4e-3 -0.0765-0.01852 0.0312-0.3945-0.0537 0.03678 0.0947 0.04445 0.1828 0.06403 0.3016 0.06244 0.3953 0.05689 0.4651 0.07408 0.5231 0.07594 0.5601 0.07779 0.5532 0.1035 0.5196 0.1132 0.4519 0.1241 0.3733 0.1357 0.2966 0.131 0.227 0.1087 0.1466 0.06456 0.073 0.03916 0.0468 0.02487 0.0177 0.08229-0.4276 0.0074 2e-3 -0.03122 4e-3 -0.1378-2e-3 -0.1894-0.0238-0.2156-0.0482-0.2289-0.0688-0.2394-0.105-0.231-0.1384-0.2159-0.1741-0.1807-0.1926-0.1193-0.1741-0.05768-0.1217 0.0085 0.0318-0.07091 0.0855-0.0164 7e-3 0.1027 0.0103 0.1881 0.0217 0.2294 0.0516 0.2873 0.064 0.2992 0.0484 0.3201 0.0341 0.3024-0.01 0.2535-0.0508 0.3323-0.0873-0.03043-0.2611-0.3342-0.01-0.2289-0.0201-0.2588-0.0251-0.2873-0.0439-0.2775-0.0447-0.273-0.0609-0.2537-0.0571-0.2172-0.0254-0.2082-0.0204-0.204 0.0696-0.1643 0.1942 0.05556 0.25 0.09816 0.2045 0.1609 0.2312 0.2246 0.2434 0.2662 0.2156 0.2831 0.1725 0.291 0.1289 0.2696 0.087 0.2511 0.0606 0.2312 0.0389 0.1738 0.0132 0.1402 4e-3 0.08546-0.0291 0.08228-0.4276 0.0085 2e-3 -0.02249-0.031-0.06059-0.0675-0.07805-0.1027-0.1029-0.1783-0.1135-0.2482-0.109-0.3276-0.1053-0.4202-0.09869-0.4929-0.07805-0.5376-0.0799-0.5612-0.08176-0.5204-0.0672-0.4696-0.07805-0.4151-0.07646-0.3212-0.06429-0.2225-0.05662-0.123-0.3945-0.0537-0.08123 0.1093 0.01958 0.2508 0.02302 0.2537 0.01773 0.363 0.0254 0.4125 0.01508 0.417 0.0056 0.4106 0.0053 0.3921-0.01826 0.3646-0.03625 0.3492-0.06006 0.3413-0.07646 0.344-0.09181 0.3519-0.1114 0.3466-0.1278 0.2881-0.1508 0.217-0.1334 0.117-0.1058 0.0405-0.09022 6e-3 -0.09684-0.0294-0.1196-0.0751-0.1109-0.1397-0.1045-0.2093-0.09472-0.2776-0.09181-0.2831-0.07911-0.2656-0.07117-0.2127-0.05371-0.1693-0.06773-0.1238-0.1635-0.2146-0.2828 0.1442-0.08123 0.1334-0.06218 0.1267-0.06879 0.1625-0.1019 0.199-0.1347 0.2429-0.146 0.2437-0.1804 0.2394-0.1752 0.1976-0.1429 0.1196-0.1072 0.0542-0.0545 7e-3 -0.05265-0.0188-0.06376-0.0498-0.07514-0.1259-0.06721-0.2096-0.05397-0.2823-0.04339-0.322-0.05292-0.332-0.03916-0.3082-0.03995-0.2609-0.02567-0.2185-0.01799-0.1413-0.01191-0.0526-0.01826-0.0161-0.2614 0.0471 0.0209 8e-3 0.04127 0.0352 0.04974 0.0318 0.04022 0.0331 0.07726 0.0487" __comx="656.865" __comy="270.997" __timestamp="0x1963b015749"/><path class="write-flat-pen" d="m51.39 111.3-0.1632 0.0273-0.06377-3e-3 -0.09128 0.0339-0.1082 0.0479-0.1132 0.0712-0.1117 0.0839-0.1331 0.0892-0.1323 0.1212-0.1307 0.1304-0.1162 0.155-0.06615 0.1426-0.05715 0.1453 0.04022 0.186 0.1087 0.1328 0.1281 0.0487 0.1389 0.0704 0.1588 0.0341 0.1347 0.0519 0.15 0.0791 0.1532 0.0849 0.1561 0.1225 0.1455 0.1431 0.1196 0.1482 0.06985 0.1484 0.05768 0.14 0.01984 0.0945-0.0056 0.0571-0.01164 0.0212-0.04789 0.0471-0.1294 0.0947-0.1799 0.1138-0.2164 0.1191-0.2418 0.1273-0.241 0.1132-0.2143 0.0963-0.1794 0.0661-0.0807 0.0326 0.1209 0.0481-0.06059-0.1013-0.3884 0.0876 0.05874 0.4276 0.3077 0.0791 0.2156-0.0609 0.2096-0.0746 0.2373-0.1061 0.2577-0.1209 0.2566-0.1376 0.2352-0.1304 0.2098-0.1357 0.1826-0.1384 0.1543-0.1712 0.06615-0.2127-0.0056-0.2077-0.05794-0.2011-0.09816-0.1873-0.1169-0.1942-0.1759-0.1945-0.1818-0.1688-0.2029-0.1577-0.1894-0.1019-0.1765-0.0923-0.1926-0.0733-0.1378-0.0275-0.1106-0.0548-0.04339-0.014 0.03069 0.0394 0.0093 0.0463 0.0056-0.0109 0.0426-0.0913 0.07064-0.0945 0.1032-0.1034 0.1016-0.0963 0.1164-0.082 0.1061-0.0873 0.07355-0.054 0.07964-0.0455 0.03281-0.0278 0.02963-0.0188 0.172-0.0823" __comx="672.255" __comy="270.997" __timestamp="0x1963b0158d9"/></g></svg>
