<?xml version="1.0" encoding="UTF-8"?>
<svg width="20.72mm" height="9.245mm" version="1.1" viewBox="0 0 20.72 9.245" xmlns="http://www.w3.org/2000/svg" xmlns:xlink="http://www.w3.org/1999/xlink"><g transform="translate(-101.1 -93.66)"><g class="hyperref" transform="matrix(.2646 0 0 .2646 69.09 7)" __timestamp="0x1963b05e274"><g fill="#00f" stroke-width="2.4"><path class="write-flat-pen" d="m123.1 331.5 0.128-0.323 0.143-0.381 0.151-0.556 0.193-0.714 0.105-0.588 0.122-0.454 0.093-0.322 0.067-0.061 0.025 0.096-1.266-0.512-0.128 0.073-0.115 0.262-0.103 0.483-0.091 0.647-0.083 0.851-0.05 1.051-0.048 1.27-0.047 1.466-0.073 1.655-0.129 1.799-0.185 1.984-0.209 2.101-0.266 2.149-0.209 2.088-0.119 1.838-0.122 1.603 0.032 1.338 0.141 1.122 0.402 0.996 1.054 0.693 1.092-0.513 1.08-1.318-1.177-1.109-0.971 0.86 0.211-0.16 0.348 0.22-0.071-0.179-0.095-0.762-0.027-1.136 0.115-1.515 0.117-1.814 0.202-2.03 0.265-2.152 0.202-2.137 0.168-2.018 0.108-1.853 0.043-1.7 0.011-1.478 0.01-1.262 0.011-1.009 0.033-0.797 0.025-0.59 0.017-0.343 2e-3 -0.149-0.07-0.105-1.266-0.512-0.033 0.216 0.067 0.292 0.035 0.268 6e-3 0.488 0.044 0.587-0.04 0.701-0.027 0.561-0.035 0.383-0.057 0.336" __comx="122.772" __comy="344.541" __timestamp="0x1963afedc52"/><path class="write-flat-pen" d="m130.8 342.2 0.038-0.233 0.041-0.147 0.042-0.164 7e-3 -0.239 0.039-0.129 0.044-0.125 2e-3 -0.223-7e-3 -0.162-0.013-0.131-7e-3 -0.141-0.03-0.102-0.019-0.16 0.08 0.036 0.021 0.244-1.287-0.304-0.158 0.188-0.02 0.263-0.021 0.215 0.012 0.365 0.037 0.313 0.014 0.419 0.015 0.582 0.011 0.627-0.014 0.762 0.017 0.824-8e-3 0.808-6e-3 0.706-6e-3 0.618-6e-3 0.566 0.061 0.464 0.04 0.449 0.244 0.426 0.445 0.455 0.589 0.01 0.56-0.086 0.391-0.383 0.293-0.329 0.3-0.43 0.329-0.473 0.39-0.57 0.38-0.582 0.413-0.582 0.36-0.538 0.257-0.378 0.304-0.333 0.201-0.32-0.28 0.472-1.227-0.299-0.063-0.376 0.132 0.363 0.096 0.386 0.081 0.466 0.09 0.505 0.095 0.513 0.16 0.611 0.428 0.727 0.375 0.375 0.459 0.153 0.451 0.093 0.475 2e-3 0.647-0.143 0.581-0.341 0.489-0.45 0.488-0.514 0.499-0.584 0.502-0.612 0.527-0.607 0.446-0.527 0.379-0.378 0.179-0.145-0.287 0.104-0.412-0.221-0.034-0.053 0.1 0.385 0.106 0.712 0.116 0.761 0.123 0.828 0.163 0.75 0.226 0.754 0.386 0.643 0.481 0.532 0.55 0.299 0.487 0.166 0.466 0.013 0.379-0.075 1.002-0.15 0.103-1.253-0.957-0.311-0.268-0.134-0.182-0.104-0.164-0.071-0.098-0.054-0.105-0.116-0.145-0.241-0.127-0.424-0.131-0.603-0.114-0.762-0.117-0.767-0.13-0.82-0.195-0.735-0.387-0.7-0.943-0.512-0.934 0.337-0.527 0.444-0.505 0.506-0.496 0.59-0.532 0.63-0.498 0.625-0.444 0.533-0.396 0.428-0.275 0.255-0.124 0.074-0.121 0.032-0.053 2e-3 -0.139-0.023 0.107 0.036 0.138 0.139-0.162-0.274-0.076-0.273-0.08-0.43-0.088-0.495-0.094-0.534-0.14-0.556-0.105-0.285-0.121-0.729-1.464-0.357-0.454 0.767-0.094 0.15-0.285 0.314-0.332 0.506-0.346 0.521-0.412 0.596-0.384 0.593-0.374 0.55-0.318 0.47-0.231 0.334-0.177 0.202 0.096-0.089 0.207-0.028 0.352 0.01 0.267 0.276 0.069 0.131-0.018-0.078-0.059-0.362-6e-3 -0.434-6e-3 -0.618-6e-3 -0.706-8e-3 -0.84-0.041-0.824-0.014-0.77-0.047-0.668-0.043-0.597-0.048-0.523-0.08-0.335-0.046-0.221-0.021-0.138-0.02 0.085-0.099 0.072-1.287-0.304 0.021 0.302 0.138 0.094 0.039 0.018 0.09 0.073 0.052 0.037 0.104 0.102 0.055 0.016 0.06 0.072 0.044 0.049 0.039 0.166 0.066 0.234 0.042 0.131 0.041 0.147 0.038 0.233" __comx="137.375" __comy="343.158" __timestamp="0x1963afeefd4"/><path class="write-flat-pen" d="m151.6 361.5-0.087 0.287-0.051 0.128-0.084 0.128-0.022 0.183 0.82-0.455 0.17-0.094 0.013-0.128-0.139-0.283-0.105-0.25-0.144-0.386-0.238-0.478-0.223-0.563-0.308-0.748-0.383-0.874-0.372-0.989-0.295-1.111-0.274-1.23-0.164-1.279-0.081-1.296-0.083-1.245-0.026-1.19 0.033-1.123 0.087-0.989 0.167-0.999 0.198-0.92 0.244-0.891 0.288-0.732 0.285-0.571 0.315-0.395 0.303-0.214 0.364-0.166 0.331-0.087 0.393 0.02 0.436 0.082 0.337 0.154 0.301 0.208 0.2 0.215 0.128 0.226 0.118 0.358 0.068 0.448 0.044 0.46-0.046 0.428-0.089 0.372-0.13 0.272-0.216 0.278-0.292 0.279-0.33 0.262-0.362 0.2-0.33 0.152-0.268 0.076-0.279 0.04-0.273 0.022h-0.251l-0.206 4e-3 0.915 0.026-0.054 1.513-0.337 0.07 0.909-0.698-0.731-1.255-1.052 0.444-0.748 0.306-0.054 1.687 1.151 0.026 0.206 4e-3h0.338l0.433-0.036 0.485-0.077 0.558-0.16 0.554-0.259 0.58-0.331 0.55-0.444 0.475-0.486 0.431-0.606 0.282-0.671 0.147-0.687 0.07-0.751-0.072-0.719-0.111-0.669-0.235-0.701-0.342-0.6-0.51-0.549-0.638-0.439-0.725-0.319-0.801-0.151-0.84-0.042-0.79 0.208-0.695 0.307-0.698 0.491-0.627 0.784-0.421 0.841-0.36 0.916-0.287 1.052-0.213 1.022-0.186 1.122-0.091 1.129-0.025 1.231 0.033 1.284 0.095 1.287 0.094 1.353 0.189 1.432 0.315 1.36 0.353 1.243 0.453 1.129 0.44 0.894 0.34 0.722 0.309 0.616 0.29 0.464 0.212 0.378 0.248 0.339 0.155 0.129 0.129 0.167 0.286 0.026 0.82-0.455-0.08-0.053-0.084-0.108-0.11-0.108-0.087-0.225" __comx="151.863" __comy="343.158" __timestamp="0x1963afef23d"/><path class="write-flat-pen" d="m160 344.4-0.075-0.244 0.066-0.154 0.051-0.263 0.057-0.331 0.088-0.332 0.082-0.426-0.14-0.337-1.054-0.237-0.281 0.141-0.284 0.504-0.146 0.606-0.052 0.7-0.017 0.807 0.093 0.844 0.207 0.837 0.311 0.699 0.343 0.61 0.491 0.495 0.514 0.238 0.446 0.154 0.758 8e-3 0.504-0.491 0.245-0.393 0.154-0.467 0.087-0.579 7e-3 -0.593-0.164-0.679-0.241-0.537-0.142-0.447-0.135-0.538-0.137-0.513-0.103-0.482-0.064-0.394 1e-3 -0.24 7e-3 -0.014-0.016 0.019 0.116-0.067 0.192-0.054 0.227-0.03 0.239 0.03 0.443 0.148 0.523 0.165 0.519 0.218 0.527 0.192 0.519 0.142 0.525 0.057 0.547-0.023 0.881-0.237 0.112-0.501-0.679-0.585-0.395-0.259-0.359-0.235-0.419-0.214-0.477-0.219-0.598-0.251-0.597-0.188-0.616-0.205-0.703-0.089-0.654 0.09-0.576 0.179-0.59 0.348-0.547 0.605-0.168 0.754 1e-3 0.641 0.111 0.61 0.134 0.577 0.158 0.546 0.159 0.583 0.211 0.612 0.228 0.463 0.072 0.263 7e-3 0.229-0.029 0.305-0.024 0.122 9e-3 0.018 0.212-0.196 0.285 8e-3 -0.085-0.021-0.134-0.057-0.095-0.094-0.188-0.332-0.221-0.48-0.146-0.575-0.082-0.629-0.017-0.663 7e-3 -0.537 0.029-0.278-0.048 0.034-0.103 0.022-1.054-0.237 0.035-0.042 0.082 0.047 0.088 0.374 0.115 0.375 0.112 0.268 0.124 0.257 0.259 0.266" __comx="162.519" __comy="343.158" __timestamp="0x1963afef400"/><path class="write-flat-pen" d="m173.5 342.3-9e-3 -0.276 1e-3 -0.226-0.022-0.357-0.096-0.424-0.138-0.501-0.233-0.489-0.155-0.398-0.112-0.333-0.019-0.198 0.034-0.132-0.057-0.329-0.404-0.473-1.113-0.038-0.184 0.801-0.115 0.263-0.126 0.555-0.108 0.662-0.133 0.814-0.104 0.97-0.04 0.99-6e-3 1.039 0.094 0.969 0.21 0.918 0.342 0.802 0.486 0.69 0.617 0.536 0.707 0.393 0.688 0.23 0.735 0.137 0.771-0.152 0.707-0.352 0.533-0.621 0.353-0.692 0.216-0.837 0.03-0.87-0.17-0.922-0.31-1.241h-0.446l-0.31 1.205-0.286 0.785-0.207 0.604-0.254 0.459-0.236 0.309-0.172 0.147-0.119 0.059-0.113 0.022-0.207-0.038-0.371-0.123-0.352-0.196-0.267-0.232-0.22-0.31-0.19-0.432-0.143-0.613-0.081-0.738-6e-3 -0.904 0.018-0.895 0.071-0.856 0.104-0.776 0.07-0.633 0.049-0.387 0.063-0.265-0.125 0.507-1.055-0.038-0.287-0.357 4e-3 -0.151 0.092 0.159 0.218 0.333 0.241 0.315 0.256 0.369 0.298 0.392 0.215 0.384 0.199 0.34 0.153 0.29 0.121 0.188 0.12 0.241" __comx="173.566" __comy="343.158" __timestamp="0x1963afef5b1"/><path class="write-flat-pen" d="m173.4 334.1-0.089-0.402-0.057-0.406-0.126-0.438-0.127-0.451-0.124-0.344-0.188-0.219-1.26 0.304-0.071 0.102-0.079 0.21-0.071 0.443 0.11 0.489 0.172 0.436 0.283 0.441 0.394 0.39 0.931 0.765 0.996-0.996-0.713-0.878-0.196-0.316-0.132-0.206-0.061-0.154-0.01-0.039-9e-3 0.029-0.02 0.035-0.013-0.018-1.26 0.304 0.048-0.041 0.109 9e-3 0.345 0.313 0.343 0.271 0.296 0.242 0.306 0.285" __comx="172.66" __comy="343.158" __timestamp="0x1963afef658"/><path class="write-flat-pen" d="m179.2 342.9-0.117-0.167-0.063-0.092-0.031-0.097-0.086-0.184-0.066-0.21-0.023-0.254-0.05-0.291 0.021-0.212 0.04-0.251 0.028-0.175 0.046-0.146 0.05-0.051 0.043-0.038 1e-3 0.07 0.031 6e-3 -0.126 0.312-0.959 0.015-0.251-0.343 0.01 0.05 0.044 0.21 0.062 0.394 0.068 0.509 0.037 0.619 0.016 0.799 0.019 0.94 0.02 1.003 0.087 0.976 0.122 0.818 0.142 0.728 0.203 0.444 0.182 0.543 0.635 0.429 0.692 0.138 0.587-0.286 0.431-0.337 0.434-0.511 0.454-0.692 0.398-0.794 0.338-0.829 0.347-0.837 0.376-0.832 0.342-0.737 0.309-0.593 0.275-0.39 0.158-0.174-0.05 0.032h-0.341l-0.22-0.138 0.025 0.04 0.141 0.361 0.114 0.519 0.084 0.701 0.127 0.821 0.192 0.83 0.226 0.777 0.278 0.728 0.355 0.641 0.334 0.48 0.454 0.504 0.752 0.332 0.701 0.022 0.759-0.218 0.656-0.528 0.532-0.764 0.488-0.909 0.491-1.066 0.477-1.173 0.495-1.242 0.358-1.26 0.298-1.19 0.236-1.155 0.249-1.091 0.215-1.043 0.198-0.964 0.234-0.976 0.13-0.94 0.095-0.829 0.093-0.748 0.053-0.486 0.049-0.295 0.039-0.087h-1.796l-0.031 0.138-0.059 0.352-0.022 0.658-0.016 0.929-0.041 1.088-0.01 1.262 0.025 1.38 0.151 1.399 0.147 1.379 0.215 1.353 0.276 1.225 0.269 1.047 0.244 0.947 0.269 0.805 0.19 0.683 0.144 0.663 0.136 0.544 0.064 0.438 0.091 0.339 0.052 0.163 0.955-1.125 0.285 0.016 0.157 0.141-0.194-0.225-0.365-0.392-0.408-0.492-0.512-0.554-0.526-0.539-0.563-0.548-0.596-0.531-0.622-0.499-0.573-0.414-0.562-0.342-0.486-0.292-0.307-0.14-0.112-0.08-0.077-0.061-9e-3 1.423-0.075 0.072 7e-3 0.019 0.426-0.01 0.676-0.044 0.916 0.012 1.084-0.019 1.13-0.054 1.14-0.056 1.034 0.034 0.952-0.011 0.827-0.013 1.508-0.169v-1.421l-1.445-0.169-0.822-0.129-0.991-0.011-1.083-0.028-1.218 0.064-1.107 0.063-1.034 0.039-0.969 0.012-0.735 0.076-0.458 0.048-0.466 0.077-0.25 0.189-9e-3 1.423 0.097 0.059 0.241 0.153 0.34 0.154 0.398 0.239 0.501 0.305 0.485 0.35 0.553 0.444 0.524 0.47 0.496 0.514 0.475 0.52 0.43 0.505 0.36 0.509 0.341 0.434 0.275 0.365 0.51 0.435 0.405 0.016 0.955-1.125-6e-3 -0.19-0.029-0.308-0.052-0.504-0.159-0.635-0.15-0.69-0.221-0.79-0.262-0.785-0.226-0.876-0.262-1.016-0.255-1.13-0.197-1.238-0.148-1.328-0.144-1.311-0.033-1.269-0.01-1.212 0.017-1.088-0.016-0.956-0.022-0.579-1e-3 -0.354-0.031-0.215h-1.796l0.039 0.087 0.049 0.295 0.053 0.456 0.035 0.726 0.037 0.819 0.013 0.883-0.061 0.967-0.039 0.978-0.138 1.02-0.224 1.085-0.233 1.144-0.291 1.164-0.348 1.21-0.506 1.174-0.582 1.064-0.63 0.877-0.629 0.623-0.53 0.353-0.286 0.061-0.183-0.043-0.063-0.037-0.012-0.021-0.077-0.086-0.197-0.284-0.231-0.418-0.195-0.509-0.186-0.638-0.161-0.698-0.11-0.711-0.094-0.772-0.177-0.776-0.274-0.697-0.387-0.608-0.689-0.432h-0.872l-0.697 0.447-0.431 0.474-0.43 0.61-0.397 0.76-0.367 0.794-0.388 0.874-0.359 0.87-0.309 0.761-0.308 0.618-0.313 0.487-0.213 0.253-0.097 0.077 0.234-0.112 0.397 0.08 0.282 0.193 4e-3 0.015-0.15-0.324-0.094-0.447-0.115-0.713-0.087-0.851-0.038-0.94-0.042-0.945-0.042-0.85-0.08-0.734-0.11-0.608-0.112-0.49-0.134-0.438-0.164-0.303-0.371-0.521-1.075 0.015-0.185 0.432-0.027 0.064-0.119 0.365-0.015 0.199-9e-3 0.24 0.046 0.385 0.086 0.236 0.098 0.28 0.141 0.319 0.183 0.295 0.155 0.277 0.229 0.263 0.209 0.169 0.143 0.078 0.115 0.028 0.143 0.092" __comx="188.289" __comy="343.158" __timestamp="0x1963afefb4b"/></g><a target="_top" xlink:href="/imprint"><rect x="120.9" y="327.6" width="78.29" height="34.93" fill-opacity="0" stroke-opacity="0"/></a></g></g></svg>
