<?xml version="1.0" encoding="UTF-8"?>
<svg width="19.41mm" height="9.922mm" version="1.1" viewBox="0 0 19.41 9.922" xmlns="http://www.w3.org/2000/svg" xmlns:xlink="http://www.w3.org/1999/xlink"><g transform="translate(-101.9 -93.4)"><g class="hyperref" transform="matrix(.2646 0 0 .2646 70.19 44.29)" __timestamp="0x1963b05a9a3"><g fill="#00f" stroke-width="2.4"><path class="write-flat-pen" d="m120.1 198.3-0.224-0.231-0.183 0.183 0.231 0.224" __comx="119.922" __comy="202.123" __timestamp="0x1963afe3671"/><path class="write-flat-pen" d="m120.7 195 0.013-0.265 0.043-0.293 0.101-0.458 0.154-0.652 0.147-0.715 0.222-0.718 0.189-0.75 0.216-0.736 0.228-0.728 0.182-0.712 0.223-0.638 0.178-0.618 0.137-0.446 0.155-0.345 0.077-0.166 1e-3 0.055 0.056-0.018-1.306-0.159-0.025 0.013 7e-3 0.098 2e-3 0.407 0.01 0.842-0.034 1.12-0.076 1.464-0.126 1.845-0.169 2.073-0.264 2.322-0.244 2.436-0.22 2.442-0.148 2.279-0.1 2.043-0.048 1.782-0.025 1.547 0.074 1.284 0.155 1.007 0.254 0.855 0.465 0.635 0.85 0.42 0.855-0.509 0.281-0.643 0.054-0.575 0.027-0.604 0.069-0.981-0.636-0.147-0.359 0.88-0.302 0.479-0.228 0.318-0.097-0.029 0.384-0.273 0.428 0.184-7e-3 -0.026-0.124-0.417-0.127-0.783-0.066-1.117 0.022-1.465 0.046-1.752 0.089-2.008 0.135-2.241 0.204-2.41 0.228-2.416 0.254-2.341 0.16-2.118 0.109-1.875 0.064-1.505 0.012-1.188-0.036-0.902-0.045-0.58-0.133-0.516-0.168-0.222-1.306-0.159-0.133 0.172-0.185 0.337-0.066 0.399-0.08 0.409-0.052 0.543-0.058 0.608-0.106 0.68-0.054 0.749-0.101 0.73-0.113 0.772-0.093 0.758-0.156 0.74-0.089 0.746-0.082 0.667-0.039 0.485-4e-3 0.318 0.013 0.276" __comx="121.907" __comy="202.123" __timestamp="0x1963afe3820"/><path class="write-flat-pen" d="m128.6 204.7-0.03-0.241 2e-3 -0.206 5e-3 -0.325-0.091-0.447-0.063-0.402-0.059-0.423-0.026-0.371 0.042-0.348 0.049-0.377 0.052-0.337 0.077-0.346 0.019-0.374 0.016-0.342-0.019-0.328-0.022-0.198 0.03-6e-3 0.022-2e-3 0.024-0.023 0.021-0.023-1.489 0.37-0.038-0.018-6e-3 0.069 0.043 0.274 0.07 0.446 0.047 0.591 8e-3 0.766-0.082 0.924-0.086 1.087-0.085 1.15-0.036 1.112 0.043 1.101 0.185 0.902 0.235 0.744 0.422 0.712 0.859 0.402 0.801-0.142 0.59-0.448 0.455-0.547 0.385-0.656 0.348-0.661 0.364-0.725 0.345-0.73 0.336-0.774 0.226-0.748 0.204-0.605 0.174-0.469 0.06-0.213 5e-3 -8e-3 -1.746-0.111-0.04-0.079 6e-3 0.069 0.021 0.498v0.723l0.024 0.787 0.051 0.776 0.118 0.701 0.228 0.646 0.491 0.613 0.891 0.276 0.745-0.213 0.576-0.336 0.59-0.472 0.539-0.592 0.513-0.609 0.532-0.653 0.471-0.612 0.382-0.467 0.277-0.277 0.065-0.045-0.362 0.08-0.368-0.205-0.046-0.077 0.078 0.298 0.127 0.552 0.093 0.672 0.151 0.732 0.169 0.698 0.155 0.644 0.262 0.579 0.304 0.456 0.723 0.893 1.109-0.555-0.256-1.066-0.075-0.438-0.113-0.457-0.128-0.534-0.16-0.667-0.131-0.633-0.096-0.696-0.155-0.671-0.158-0.599-0.377-0.642-0.79-0.441-0.787 0.173-0.546 0.38-0.477 0.477-0.465 0.569-0.472 0.614-0.504 0.619-0.477 0.567-0.404 0.445-0.351 0.282-0.224 0.136 0.084-0.024 0.279 0.087 0.113 0.141-0.055-0.155-0.072-0.428-0.042-0.639-0.022-0.721v-0.735l-0.026-0.585-0.044-0.498-0.133-0.266-1.746-0.111-0.184 0.274-0.126 0.445-0.158 0.427-0.218 0.667-0.199 0.664-0.276 0.64-0.315 0.682-0.343 0.69-0.31 0.608-0.276 0.477-0.203 0.254-0.024 0.024 0.283-0.049 0.248 0.12-3e-3 5e-3 -0.141-0.432-0.144-0.652-0.053-0.878 0.011-1.007 0.057-1.112 0.054-1.079 0.061-1.009-0.039-0.928-0.095-0.727-0.117-0.544-0.099-0.34-0.1-0.26-0.087-0.111-1.489 0.37 0.021 0.023 0.024 0.023 0.022 0.187 0.08 0.184 0.071 0.131 0.074 0.19 0.065 0.269 0.066 0.287 0.03 0.312 0.052 0.371 0.049 0.377 0.042 0.406 0.114 0.429 0.13 0.424 0.126 0.399 0.142 0.402 0.054 0.287 0.049 0.218 0.066 0.247" __comx="133.629" __comy="202.123" __timestamp="0x1963afe3aee"/><path class="write-flat-pen" d="m145.7 218.8-0.093 0.366-0.085 0.426-0.112 0.587-0.076 0.719-0.095 0.579-0.07 0.218-0.013-0.101 0.407-0.48 0.559 0.245 0.057 0.012-0.059-0.235-0.16-0.483-0.104-0.594-0.12-0.777-0.122-0.901-0.08-1.016-0.059-1.119-0.018-1.226-0.021-1.38 5e-3 -1.452 0.073-1.555 0.074-1.625 0.139-1.519 0.162-1.429 0.181-1.205 0.197-0.984 0.227-0.746 0.205-0.48 0.139-0.176 0.074-0.045 0.123-0.018 0.402 0.086 0.522 0.198 0.511 0.311 0.448 0.374 0.273 0.305 0.137 0.288 0.063 0.221-4e-3 0.041-0.036 0.067-0.132 0.139-0.419 0.27-0.626 0.37-0.679 0.421-0.731 0.425-0.722 0.448-0.59 0.417-0.505 0.353-0.272 0.228-0.395 0.266-0.135 0.417 1.533 1.218 0.137-0.1 0.29-0.268 0.492-0.418 0.634-0.625 1.164-0.993-0.529-0.852-1.431 0.619-0.825 0.365-0.591 0.286-0.324 0.157-0.098 0.042 1.533 1.218-0.088 0.274-0.11 0.077 0.293-0.244 0.436-0.305 0.542-0.383 0.643-0.399 0.73-0.425 0.686-0.426 0.646-0.383 0.664-0.437 0.529-0.566 0.34-0.736 0.043-0.806-0.22-0.719-0.335-0.701-0.574-0.638-0.682-0.569-0.807-0.49-0.846-0.32-0.917-0.197-0.867 0.124-0.773 0.426-0.568 0.717-0.359 0.838-0.291 0.951-0.227 1.135-0.194 1.293-0.167 1.49-0.144 1.59-0.069 1.673-0.066 1.6 5e-3 1.514 0.026 1.399 0.029 1.271 0.081 1.189 0.11 1.103 0.16 0.982 0.162 0.824 0.178 0.774 0.265 0.6 0.223 0.519 0.436 0.435 0.842 0.388 0.546-0.623 0.176-0.476-0.07-0.536-0.048-0.6-0.123-0.739-0.112-0.592-0.132-0.421-0.093-0.351" __comx="147.419" __comy="202.123" __timestamp="0x1963afe3cf3"/><path class="write-flat-pen" d="m155.4 202.1-0.391-0.249 0.015-0.066-0.015-0.084 0.016-0.053 0.039-0.031-1.08 0.097-0.179 0.196-0.086 0.383-0.052 0.431-0.045 0.65 0.062 0.805 0.062 0.909 0.168 0.951 0.193 0.918 0.229 0.784 0.271 0.655 0.319 0.576 0.537 0.426 0.858 0.114 0.632-0.616 0.156-0.603 0.041-0.578-0.087-0.606-0.137-0.576-0.189-0.546-0.224-0.524-0.195-0.474-0.163-0.474-0.141-0.482-0.096-0.447-0.03-0.396 0.022-0.343 0.039-0.144-0.039 0.059-0.021 0.011 0.146-0.032 0.268 0.025 0.403 0.105 0.435 0.182 0.48 0.293 0.549 0.334 0.658 0.362 0.746 0.176 0.743 0.042 1.006-0.341 0.048-0.613-0.833-0.485-0.483-0.241-0.43-0.246-0.474-0.299-0.533-0.324-0.603-0.368-0.695-0.29-0.683-0.177-0.719-0.068-0.703 0.154-0.632 0.343-0.417 0.624-0.148 0.656-0.025 0.646 0.063 0.641 0.14 0.635 0.188 0.601 0.216 0.562 0.227 0.516 0.201 0.466 0.14 0.397 0.099 0.411 0.055 0.337-8e-3 0.222 0.016-0.038 0.349-0.333 0.48 0.067 0.115 0.097-0.106-0.178-0.2-0.475-0.193-0.631-0.185-0.825-0.161-0.839-0.08-0.832-0.078-0.703 1e-3 -0.528-5e-3 -0.369-0.04 7e-3 -0.083 0.053-1.08 0.097 0.133 0.065 0.158 0.04 0.124 9e-3 0.108-0.016 0.452 0.16" __comx="157.503" __comy="202.123" __timestamp="0x1963afe3ea6"/><path class="write-flat-pen" d="m164.3 201.2 0.093-0.249 0.098-0.205 0.086-0.264 0.09-0.215 0.09-0.164 0.076-0.047-1.407-0.138-0.09 0.154-0.065 0.363-0.079 0.482-0.096 0.757-0.045 0.866-0.066 0.952 0.038 1.051 0.121 0.946 0.187 0.899 0.318 0.752 0.389 0.652 0.576 0.506 0.622 0.31 0.658 0.165 0.685 0.032 0.661-0.202 0.538-0.411 0.386-0.563 0.189-0.647 0.047-0.635-8e-3 -0.693-0.087-0.807-0.194-1.04-0.283 0.03 0.025 1.034-0.087 0.748-0.151 0.578-0.235 0.401-0.282 0.247-0.272 0.097-0.216 0.014-0.189-0.015-0.256-0.015-0.285-0.071-0.225-0.112-0.177-0.155-0.175-0.291-0.2-0.47-0.145-0.655-0.114-0.797-0.055-0.882 0.027-0.884 5e-3 -0.828 0.043-0.704 0.017-0.508-0.019-0.294-0.043-0.082-1.407-0.138 0.076 0.047 0.09 0.164 0.09 0.256 0.132 0.254 0.098 0.174 0.093 0.249" __comx="165.701" __comy="202.123" __timestamp="0x1963afe3fe2"/><path class="write-flat-pen" d="m165.8 196.3-0.032-0.405 0.016-0.459 1e-3 -0.605-0.024-0.786-7e-3 -0.603 0.022-0.44-0.015-0.321-0.017-0.243-0.061-0.151-1.416 0.868-0.01 9e-3 0.065 0.176 0.28 0.406 0.302 0.408 0.42 0.459 0.577 0.451 1.031 0.648 0.704-0.739-0.697-0.999-0.41-0.489-0.287-0.391-0.263-0.343-0.145-0.208-0.077-0.2-0.15-0.181-1.416 0.868-0.014-0.058 0.029-7e-3 0.081 0.243 0.116 0.41 0.183 0.622 0.259 0.768 0.236 0.57 0.205 0.437 0.201 0.376" __comx="165.878" __comy="202.123" __timestamp="0x1963afe4088"/><path class="write-flat-pen" d="m171.1 200.2-0.125-0.302-0.048-0.223-0.054-0.291-0.04-0.259 0.036-0.167 0.051-0.049 0.063 0.043-1.126 0.273-0.049 0.042 2e-3 0.142 0.041 0.3 0.111 0.554 0.108 0.749 0.071 0.969 0.048 1.117-0.018 1.185 0.012 1.162 0.068 1.051 0.191 0.905 0.317 0.73 0.691 0.639 1.022-0.165 0.538-0.571 0.339-0.543 0.317-0.686 0.275-0.688 0.272-0.714 0.227-0.716 0.191-0.624 0.126-0.37 0.086-0.187-0.271 0.364-0.702-0.112-0.167-0.145 0.074 0.166 0.177 0.553 0.151 0.711 0.141 0.823 0.18 0.854 0.278 0.808 0.384 0.736 0.58 0.555 0.775 0.337 0.827-0.208 1.033-0.814-0.663-1.084-0.898 0.367 0.026-0.115 0.021-0.039-0.127-0.153-0.181-0.346-0.193-0.56-0.149-0.7-0.142-0.824-0.18-0.843-0.246-0.765-0.304-0.634-0.543-0.477-0.984-0.158-0.553 0.743-0.199 0.471-0.157 0.48-0.185 0.645-0.197 0.652-0.246 0.651-0.243 0.631-0.247 0.54-0.18 0.304 0.02-6e-3 0.457-0.069 0.22 0.214-0.107-0.213-0.138-0.6-0.071-0.882-0.037-1.099-0.018-1.217-0.092-1.191-0.119-1.057-0.174-0.851-0.172-0.622-0.148-0.36-0.138-0.233-0.098-0.054-1.126 0.273 0.063 0.139 0.101 0.09 0.082 0.162 0.195 0.308 0.182 0.274 0.188 0.199 0.234 0.248" __comx="174.032" __comy="202.123" __timestamp="0x1963afe427e"/><path class="write-flat-pen" d="m182.5 195.6 0.149-0.551 0.238-0.806 0.333-1.249 0.405-1.653 0.364-1.463 0.352-1.196 0.258-0.785 0.207-0.383 0.14-0.191-1.099 0.289-0.159-0.059-0.045-0.027 5e-3 0.412 0.02 0.859-0.02 1.147-0.046 1.386-0.117 1.631-0.107 1.804-0.152 1.873-0.148 1.955-0.054 1.94 0.073 1.739 0.174 1.579 0.315 1.316 0.439 1.044 0.532 0.851 0.661 0.52 0.631 0.317 0.671 0.136 0.649-0.12 0.688-0.469 0.067-0.823-0.137-0.538-0.197-0.516-0.33-0.596-0.432-0.598-0.524-0.661-0.629-0.643-0.632-0.65-0.683-0.634-0.665-0.51-0.571-0.39-0.477-0.264-0.433-0.216-0.336-0.047-0.864 1.32 0.146 0.262 0.442 0.375 0.576 0.276 0.82 0.263 0.996 0.175 1.081 0.086 1.213 0.08 1.389-0.069 1.457-0.117 1.533-0.229 2.451-0.49-0.348-1.858-2.42 0.423-1.436 0.196-1.369 0.118-1.248 0.071-1.095-0.06-0.991-0.057-0.794-0.107-0.595-0.159-0.271-0.102-0.03-1e-3 6e-3 0.026-0.864 1.32h0.04l0.131 0.066 0.373 0.207 0.465 0.317 0.561 0.43 0.586 0.545 0.593 0.622 0.55 0.58 0.417 0.565 0.322 0.485 0.188 0.394 0.088 0.284 3e-3 0.122 0.02-0.401 0.406-0.28 0.131-0.024-0.036-6e-3 -0.216-0.108-0.235-0.184-0.268-0.421-0.315-0.746-0.25-1.039-0.155-1.39-0.069-1.605 0.042-1.827 0.135-1.907 0.131-1.896 0.08-1.822 0.072-1.666 1e-3 -1.44-0.02-1.208-0.073-0.931-0.088-0.671-0.281-0.638-0.302-0.155-1.099 0.289-0.096 0.281-0.169 0.56-0.167 0.912-0.213 1.252-0.247 1.503-0.256 1.691-0.138 1.294-0.044 0.844-0.037 0.571" __comx="187.044" __comy="202.123" __timestamp="0x1963afe4471"/></g><a target="_top" xlink:href="/imprint"><rect x="119.7" y="185.6" width="73.38" height="37.49" fill-opacity="0" stroke-opacity="0"/></a></g></g></svg>
