<?xml version="1.0" encoding="UTF-8"?>
<svg width="18.7mm" height="10.03mm" version="1.1" viewBox="0 0 18.7 10.03" xmlns="http://www.w3.org/2000/svg" xmlns:xlink="http://www.w3.org/1999/xlink"><g transform="translate(-102.1 -93.4)"><g class="hyperref" transform="matrix(.2646 0 0 .2646 70.73 -11.65)" __timestamp="0x1963b0607e1"><g fill="#00f" stroke-width="2.4"><path class="write-flat-pen" d="m118.9 410.3 0.136-0.275 0.086-0.229 0.17-0.364 0.207-0.507 0.148-0.508 0.149-0.53 0.151-0.588 0.155-0.657 0.245-0.696 0.313-0.803 0.321-0.85 0.288-0.888 0.246-0.853 0.214-0.736 0.235-0.635 0.233-0.595 0.254-0.635 0.133-0.63 0.061-0.536 0.031-0.32 0.02-0.176 0.019-0.058h-1.773l-0.018 0.118 0.018 0.184v0.316l2e-3 0.597-0.046 0.913-0.097 1.19-0.184 1.393-0.182 1.613-0.24 1.735-0.208 1.833-0.204 1.719-0.24 1.595-0.154 1.477-0.031 1.332 0.102 1.246 0.295 1.019 0.251 0.782 0.234 0.63 0.238 0.469 0.232 0.454 0.473 0.482 0.704 0.126 0.454-0.542 0.324-0.83-0.414-0.259-0.524 0.526-0.015-0.189 0.409 9e-3 0.12-0.049-4e-3 -0.31-0.115-0.532-0.177-0.607-0.222-0.749-0.233-0.803-0.076-0.933 0.027-1.142 0.141-1.35 0.232-1.582 0.207-1.755 0.203-1.816 0.232-1.74 0.171-1.625 0.169-1.434 0.078-1.284 0.015-1.03-0.059-0.698-0.058-0.449-0.041-0.111-0.018 0.059h-1.773l0.019 0.058 0.02 0.176 0.031 0.27 2e-3 0.406-0.045 0.429-0.157 0.544-0.178 0.642-0.18 0.718-0.139 0.795-0.165 0.853-0.182 0.88-0.211 0.856-0.218 0.846-0.166 0.774-0.081 0.7-0.082 0.587-0.088 0.533-0.088 0.492-0.146 0.494-0.124 0.4-0.031 0.243-0.086 0.271" __comx="120.793" __comy="411.654" __timestamp="0x1963aff08e3"/><path class="write-flat-pen" d="m127.2 415.9-0.034-0.277 1e-3 -0.204 9e-3 -0.301-0.018-0.373-0.019-0.298 0.01-0.213-0.023-0.312-0.022-0.304-0.028-0.265-0.031-0.346-0.013-0.198-0.024-0.2 0.036-0.235 0.01-0.239 0.043-0.321 9e-3 -0.297 0.038-0.17 0.032-0.235 0.025-0.223-9e-3 -0.149 0.019-0.139-0.043-0.251-0.045-0.176 0.044 0.062 8e-3 0.31-0.116 0.255-0.106 0.113-0.027 0.023-0.174 0.088-0.567 5e-3 -0.223-0.321 0.019 0.046 0.021 0.096 0.035 0.293 0.016 0.483 0.021 0.653-5e-3 0.775-5e-3 0.911-1e-3 0.884-1e-3 0.853v0.763l0.037 0.676 0.283 0.895 0.806 0.82 0.893-0.584 0.391-0.334 0.3-0.46 0.261-0.457 0.281-0.549 0.224-0.626 0.22-0.549 0.254-0.562 0.226-0.48 0.187-0.363 0.145-0.33-0.058 0.173-0.833 0.416-0.562-0.378 0.017 0.025 0.125 0.174 0.157 0.283 0.254 0.326 0.271 0.347 0.596 0.505 0.631 0.233 0.577-0.072 0.564-0.189 0.502-0.318 0.472-0.433 0.426-0.523 0.45-0.539 0.497-0.643 0.466-0.544 0.32-0.279-0.173 0.09-0.429-0.429 0.097 0.167 0.111 0.296 0.079 0.495 0.144 0.611 0.093 0.648 0.193 0.645 0.135 0.514 0.091 0.45 0.132 0.425 0.193 0.444 0.368 0.43 0.787 0.543 0.694-0.461-0.143-0.857 0.015-0.276 0.015-0.32-0.101-0.401-0.087-0.434-0.159-0.603-0.16-0.534-0.085-0.589-0.148-0.626-0.099-0.622-0.242-0.646-0.315-0.539-0.782-0.781-1.351 0.679-0.623 0.543-0.593 0.693-0.504 0.653-0.434 0.519-0.342 0.42-0.234 0.215-0.146 0.093-0.142 0.048 0.107-0.013 0.158 0.059-0.169-0.143-0.144-0.184-0.157-0.202-0.138-0.248-0.17-0.237-0.216-0.328-0.74-0.498-0.949 0.474-0.178 0.526-0.088 0.201-0.17 0.343-0.243 0.521-0.277 0.617-0.25 0.63-0.187 0.549-0.192 0.393-0.208 0.369-0.114 0.187-0.079 0.077 0.54-0.348 0.628 0.642-0.07-0.222-0.021-0.383v-0.711l-1e-3 -0.853-1e-3 -0.884-5e-3 -0.911-5e-3 -0.815-0.038-0.704-0.042-0.576-0.085-0.53-0.154-0.435-0.159-0.248-0.339-0.496-0.803 5e-3 -0.29 0.147-0.205 0.14-0.223 0.23-0.174 0.374 8e-3 0.485 0.103 0.182 0.013-1e-3 0.016-0.015 0.019 0.097 0.049 0.145 0.025 0.071 0.032 0.235 0.038 0.241 0.071 0.293 0.043 0.327 0.068 0.234 0.036 0.293 0.092 0.273 0.046 0.155 0.089 0.36 0.089 0.266 0.095 0.282 0.097 0.278 0.068 0.198 0.098 0.292 0.102 0.336 0.067 0.285 0.059 0.211 0.075 0.277" __comx="131.687" __comy="411.654" __timestamp="0x1963aff0c46"/><path class="write-flat-pen" d="m144.3 432.9 0.028 0.406 0.024 0.37 0.04 0.451 0.054 0.484 0.031 0.285 1.214-0.217 0.067-0.029 0.063-0.295 0.053-0.453 0.07-0.705 0.03-0.873-0.051-0.977-0.144-1.065-0.232-1.163-0.288-1.225-0.317-1.326-0.344-1.434-0.342-1.567-0.312-1.665-0.23-1.782-0.172-1.846-0.083-1.74-0.053-1.576-0.022-1.265 0.079-0.875 0.152-0.61 0.147-0.397 0.189-0.284 0.199-0.218 0.245-0.171 0.286-0.152 0.418-0.108 0.515-0.068 0.383 0.036 0.259 0.096 0.162 0.154 0.227 0.393 0.288 0.63 0.27 0.736 0.208 0.676 0.095 0.591-4e-3 0.462-0.083 0.367-0.128 0.35-0.153 0.251-0.286 0.281-0.283 0.259-0.291 0.159-0.396 0.133-0.404 0.094-0.295 0.037-0.23-0.029-0.231-0.091-0.224-0.111-0.203-0.165-0.205-0.244-0.026-1.052-1.049-0.189-0.448 1.292 0.09 0.931 0.445 0.778 0.657 0.537 0.711 0.262 0.712 0.09 0.648-0.083 0.596-0.139 0.662-0.223 0.652-0.369 0.485-0.447 0.478-0.487 0.378-0.63 0.225-0.654 0.153-0.692-4e-3 -0.834-0.142-0.879-0.265-0.856-0.316-0.854-0.359-0.781-0.421-0.727-0.664-0.61-0.858-0.318-0.854-0.08-0.842 0.11-0.758 0.186-0.598 0.317-0.519 0.36-0.448 0.488-0.401 0.601-0.264 0.72-0.204 0.863-0.096 1.126 0.036 1.384 0.064 1.603 0.095 1.793 0.181 1.92 0.243 1.871 0.336 1.747 0.364 1.613 0.362 1.451 0.33 1.322 0.301 1.191 0.238 1.075 0.151 0.936 0.069 0.846 0.03 0.778 8e-3 0.707 0.053 0.489 0.063 0.295 0.067 0.029 1.214-0.217-0.144-0.188-0.182-0.396-0.196-0.433-0.209-0.336-0.226-0.342" __comx="145.468" __comy="411.654" __timestamp="0x1963aff0e6c"/><path class="write-flat-pen" d="m151.6 413.8-2e-3 -0.255 0.054-0.174 0.022-0.181 0.048-0.209 0.048-0.176 0.051-0.087 0.055-0.176 0.054 9e-3 0.044 0.014-0.023 0.173-0.546 0.303-0.415-0.285 3e-3 0.055 0.102 0.488 0.154 0.675 0.102 0.874 0.196 0.985 0.225 1.005 0.265 0.947 0.321 0.795 0.309 0.573 0.346 0.476 0.747 0.403 0.907-0.331 0.229-0.601 0.144-0.532-0.029-0.607-0.058-0.59-0.13-0.712-0.23-0.744-0.299-0.733-0.257-0.708-0.28-0.693-0.21-0.643-0.151-0.587-0.068-0.522 1e-3 -0.48 0.073-0.359 0.144-0.28 0.182-0.196 0.305-0.176 0.376-0.093 0.462-0.042 0.562 0.071 0.681 0.137 0.657 0.161 0.67 0.251 0.696 0.223 0.53 0.141 0.548 0.166 0.572 0.056 0.505-0.029 0.44-0.085 0.424-0.15 0.427-0.198 0.372-0.189 0.349-0.225 0.259-0.293 0.22-0.369 0.178-0.332 0.135-0.302 0.176-0.182 0.18-0.163 0.144-0.038 0.067 0.054 0.076 0.045-0.842-0.846-0.142 0.134-0.094 0.333-0.068 0.268-0.16 0.454-0.208 0.659-0.215 0.801-0.181 0.936-0.109 1.001-0.042 0.941-0.037 0.932 0.064 0.912 0.248 0.864 0.467 0.663 0.629 0.473 0.644 0.155 0.523 0.041 0.624-0.04 0.632-0.243 0.532-0.386 0.437-0.596 0.317-0.717 0.175-0.701 0.116-0.768-0.01-0.845-0.098-1.228-0.794-0.06-0.278 1.155-0.243 0.683-0.24 0.589-0.236 0.474-0.272 0.403-0.21 0.226-0.116 0.087-0.132 0.052-0.201 0.018-0.241-0.017-0.12-0.024-0.08-0.059-0.119-0.16-0.109-0.373-0.052-0.619 0.022-0.832 0.016-0.886 0.07-0.884 0.114-0.829 0.137-0.73 0.145-0.637 0.135-0.605-9e-3 -0.38-0.036-0.078-0.08 0.014-0.842-0.846-0.161 0.165-0.111 0.229-0.089 0.256-0.057 0.31-0.06 0.288-0.04 0.346-0.116 0.315-0.195 0.337-0.21 0.238-0.299 0.128-0.334-0.014-0.34-0.136-0.282-0.212-0.324-0.202-0.379-0.204-0.37-0.18-0.511-0.246-0.59-0.154-0.599-0.192-0.741-0.277-0.816-0.192-0.789-0.158-0.853-0.107-0.833 0.078-0.8 0.199-0.815 0.472-0.582 0.63-0.387 0.779-0.163 0.819 1e-3 0.816 0.11 0.774 0.201 0.766 0.263 0.769 0.306 0.722 0.274 0.703 0.291 0.682 0.182 0.551 0.106 0.522 0.059 0.472 0.029 0.274-0.031 0.178 0.109-0.248 0.616-0.214 0.275 0.166-0.065-0.052-0.222-0.369-0.268-0.621-0.263-0.817-0.248-0.938-0.215-0.899-0.135-0.891-0.199-0.74-0.134-0.512-0.172-0.534-0.652-0.459-0.663 0.361-0.081 0.351-0.018 0.189 0.054 0.188 0.055 0.176 0.051 0.087 0.048 0.176 0.048 0.264 0.083 0.172 0.054 0.179 0.129 0.277" __comx="158.91" __comy="411.654" __timestamp="0x1963aff1213"/><path class="write-flat-pen" d="m165.4 403.8-0.154-0.38-0.061-0.308-0.125-0.404-0.173-0.403-0.118-0.275-0.115-0.199-0.089-0.097-1.138 0.821 0.05 0.103 0.106 0.238 0.179 0.429 0.302 0.638 0.66 1.061 0.86-0.359-0.288-1.21-0.226-0.657-0.174-0.455-0.131-0.293-0.066-0.13-1.138 0.821 0.027 0.02 0.063 0.038 0.174 0.194 0.3 0.303 0.286 0.302 0.292 0.223 0.357 0.257" __comx="164.54" __comy="411.654" __timestamp="0x1963aff12a9"/><path class="write-flat-pen" d="m172.3 410.1-0.159-0.312-0.128-0.277-0.108-0.266-0.135-0.388-0.029-0.177 0.056-0.054 3e-3 -0.135 0.055 0.016 0.033-0.157-0.198-0.243v0.969l-0.419 0.466-0.616-0.552-0.03 9e-3 0.036 0.252-0.024 0.562 9e-3 0.797-0.069 0.901-0.065 1.02-0.094 0.983-0.094 0.92-0.067 0.837-6e-3 0.649-7e-3 0.523 0.134 0.586 0.726 0.753 0.869-0.418 0.471-0.358 0.3-0.462 0.31-0.494 0.308-0.552 0.346-0.621 0.311-0.681 0.268-0.592 0.216-0.488 0.165-0.287 0.02-0.023-0.129 0.071-0.253-0.022-0.053-0.028 0.079 0.104 0.134 0.33 0.099 0.55 0.147 0.738 0.149 0.819 0.204 0.815 0.342 0.786 0.377 0.716 1.102 0.881 1.064-0.208 0.555-0.629 0.441-0.706 0.307-0.939 0.297-1.089 0.317-1.213 0.294-1.217 0.351-1.208 0.32-1.205 0.349-1.165 0.379-1.197 0.44-1.316 0.473-1.35 0.467-1.341 0.495-1.251 0.466-1.1 0.356-0.979 0.331-0.841 0.251-0.647 0.251-0.432 0.158-0.198 0.135-0.09-1.313-0.127-0.121-0.116-0.032 0.148 0.025 0.709-0.025 1.049-0.021 1.268-0.179 1.45-0.276 1.657-0.273 1.756-0.218 1.786-0.098 1.707 0.161 1.516 0.258 1.263 0.378 1.102 0.517 0.897 0.476 0.666 0.388 0.532 0.446 0.406 0.454 0.326 0.333 0.056 0.261 0.078 0.066-0.017-0.06-0.054 1.254-1.25-0.097-0.185-0.146-0.287-0.257-0.42-0.403-0.52-0.424-0.515-0.616-0.507-0.69-0.492-0.731-0.485-0.86-0.484-0.781-0.419-0.726-0.363-0.636-0.287-0.517-0.169-0.414-0.143-0.295-0.033-0.06-0.039-0.719 0.934 0.068 0.413 0.406 0.324 0.382 0.288 0.708 0.305 0.932 0.125 0.992 0.069 1.183 6e-3 1.223-0.089 1.174-0.189 1.091-0.302 1.772-0.725-0.638-1.651-1.705 0.619-0.91 0.229-1.005 0.164-1.073 0.086-1.055 6e-3 -0.893-0.047-0.658-0.05-0.351-0.109-0.265-0.123 0.053 0.088 6e-3 0.18-0.719 0.934 0.06-0.039 0.117-0.033 0.234 0.032 0.425 0.125 0.543 0.244 0.686 0.343 0.75 0.403 0.789 0.459 0.623 0.458 0.547 0.508 0.384 0.436 0.223 0.427 0.244 0.48 0.096 0.285 0.032 0.186 0.02 0.168 1.254-1.25-0.235-0.112-0.054-0.017-0.092-0.042-0.02-3e-3 0.043 0.031-0.202-0.183-0.26-0.349-0.409-0.571-0.367-0.634-0.27-0.783-0.211-1.033-0.134-1.249 0.077-1.473 0.196-1.688 0.254-1.719 0.255-1.697 0.173-1.61-0.021-1.384-0.025-1.127-0.092-0.706-0.032-0.616-0.241-0.295-1.313-0.127-0.218 0.263-0.253 0.449-0.28 0.63-0.218 0.764-0.259 0.865-0.292 0.964-0.418 1.08-0.506 1.281-0.475 1.366-0.469 1.36-0.444 1.333-0.385 1.216-0.357 1.192-0.328 1.207-0.355 1.207-0.353 1.195-0.393 1.141-0.409 0.974-0.341 0.651-0.323 0.353-0.092 0.019 0.416-0.091-0.077-0.061-0.15-0.285-0.247-0.567-0.149-0.596-0.146-0.771-0.148-0.735-0.137-0.745-0.336-0.787-0.453-0.544-0.584-0.381-0.78-0.084-0.718 0.365-0.391 0.45-0.308 0.536-0.254 0.574-0.263 0.583-0.279 0.614-0.302 0.557-0.281 0.506-0.279 0.448-0.111 0.186-0.057 0.053 0.513-0.24 0.551 0.575 0.018 0.117-7e-3 -0.303-6e-3 -0.584 0.049-0.753 0.081-0.907 0.085-1.018 0.051-1.043 0.05-0.98-0.049-0.851-0.024-0.733-0.142-0.457-0.147-0.402-0.736-0.668-0.536 0.583v0.969l-0.14-0.185 0.033-0.099 0.113 0.136 0.061 0.04 0.117 0.124 0.204 0.176 0.28 0.318 0.245 0.207 0.225 0.193 0.223 0.258" __comx="179.806" __comy="411.654" __timestamp="0x1963aff1705"/></g><a target="_top" xlink:href="/imprint"><rect x="118.7" y="397" width="70.68" height="37.91" fill-opacity="0" stroke-opacity="0"/></a></g></g></svg>
