<?xml version="1.0" encoding="UTF-8"?>
<svg width="21.18mm" height="9.462mm" version="1.1" viewBox="0 0 21.18 9.462" xmlns="http://www.w3.org/2000/svg" xmlns:xlink="http://www.w3.org/1999/xlink"><g transform="translate(-95.51 -93.66)"><g class="hyperref" transform="matrix(.2646 0 0 .2646 64.01 63.08)" __timestamp="0x1963b058519"><g fill="#00f" stroke-width="2.4"><path class="write-flat-pen" d="m120.2 129.1 0.015-0.287 0.048-0.353 0.031-0.544 0.059-0.777 0.04-0.851 0.043-0.918 0.036-0.966 0.036-1.004 0.078-1.031 0.171-1.052 0.205-1.071 0.315-1.063 0.367-0.913 0.365-0.727 0.327-0.441 0.071-4e-3 -0.623 0.127-0.222-0.382 1e-3 0.271 0.014 0.515-0.065 0.661-0.129 0.839-0.215 1.099-0.291 1.383-0.334 1.656-0.358 1.914-0.381 2.086-0.339 2.198-0.241 2.157-0.147 2.064 0.048 1.801 0.153 1.417 0.27 1.111 0.375 0.811 0.525 0.611 0.812 0.291 0.804-0.198 0.574-0.584 0.258-0.709 0.11-0.738-0.041-0.78-0.179-1.006-0.401-0.037-0.356 0.902-0.326 0.585-0.266 0.488-0.214 0.231-0.037-0.016 0.19-0.058 0.154 0.055-0.04-0.047-0.192-0.415-0.199-0.818-0.132-1.223-0.045-1.637 0.136-1.938 0.231-2.083 0.321-2.136 0.373-2.058 0.346-1.899 0.327-1.641 0.273-1.397 0.21-1.163 0.107-0.951 0.028-0.844-0.079-0.663-0.095-0.529-0.409-0.807-1.001 0.177-0.4 0.561-0.331 0.641-0.342 0.874-0.293 1.02-0.297 1.149-0.173 1.144-0.111 1.114-0.015 1.088 0.036 1.021 0.036 0.966 0.043 0.918 0.04 0.844 0.012 0.778 0.031 0.539 2e-3 0.354 0.015 0.297" __comx="121.166" __comy="132.206" __timestamp="0x1963afe1bf2"/><path class="write-flat-pen" d="m128 132 0.021-0.16 0.061-0.085 0.089-0.181 0.09-0.249 0.083-0.258 0.041-0.246 0.074-0.242 0.077-0.231 0.076-0.295 0.026-0.298-6e-3 -0.309-0.024-0.27v-0.23l0.021-0.151 9e-3 -0.225 0.02-0.105 0.026-0.036 0.021-0.07-1.507 0.183-0.048 0.095 0.01 0.178 0.016 0.435 0.024 0.749-0.04 1.01-0.014 1.219-0.062 1.316-0.083 1.317-0.058 1.179-0.057 0.995 0.055 0.851 0.265 0.765 0.67 0.61 1.004 0.088 0.668-0.508 0.488-0.481 0.513-0.721 0.541-0.835 0.573-0.971 0.517-1.057 0.483-1.03 0.427-0.972 0.393-0.877 0.368-0.757 0.252-0.497-0.133 0.25-1.578 4e-3 -1e-3 -0.726-0.025 0.535-0.048 0.819-0.047 0.899-0.05 0.976 0.057 0.945 0.251 0.898 0.618 0.774 0.884 0.26 0.82-0.043 0.722-0.325 0.593-0.385 0.576-0.488 0.517-0.575 0.408-0.597 0.336-0.551 0.366-0.563 0.27-0.496 0.263-0.363 0.232-0.309 0.081-0.081-0.331 0.184-0.561-0.202-0.081-0.149 0.086 0.317 0.056 0.592-3e-3 0.904 0.025 1.115 0.073 1.179 0.128 1.102 0.251 1.044 0.382 0.882 0.462 0.646 0.554 0.495 1.188 0.828 1.051-1.264-0.923-0.927-0.247-0.402-0.245-0.39-0.229-0.53-0.174-0.746-0.107-0.924-0.067-1.082-0.024-1.05-3e-3 -0.98-0.084-0.869-0.196-0.719-0.41-0.76-1.079-0.391-0.755 0.419-0.391 0.391-0.332 0.442-0.351 0.486-0.295 0.54-0.338 0.52-0.324 0.532-0.3 0.439-0.33 0.368-0.367 0.312-0.348 0.226-0.221 0.1-0.076 4e-3 0.084 0.025 0.054 0.067-0.078-0.278-0.036-0.609 0.043-0.86 0.046-0.891 0.048-0.831 0.021-0.595-1e-3 -1.384-1.72 4e-3 -0.462 0.862-0.266 0.539-0.386 0.797-0.408 0.913-0.42 0.958-0.46 0.995-0.472 0.969-0.51 0.866-0.495 0.766-0.383 0.551-0.266 0.273 0.057-0.036 0.439 0.042 0.198 0.185-0.018-0.035-0.038-0.467 0.037-0.888 0.036-1.176 0.059-1.323 0.031-1.368-0.014-1.231 7e-3 -1.063-0.069-0.851-0.077-0.554-0.086-0.291-0.094-0.094-1.507 0.183 0.021 0.07 0.026 0.153 0.067 0.177 0.058 0.2 0.068 0.178 0.093 0.288 0.119 0.248 0.087 0.209 0.072 0.173 0.029 0.223 0.03 0.241 0.027 0.277 0.041 0.225-0.013 0.211-0.05 0.223-0.054 0.151-0.079 0.148 0.021 0.244" __comx="134.726" __comy="132.206" __timestamp="0x1963afe1f13"/><path class="write-flat-pen" d="m148.1 147.9-0.127 0.381-0.126 0.303-0.238 0.395-0.272 0.458-0.225 0.219-0.189 0.101 0.257-0.287 0.645 0.28 0.117 0.175-5e-3 -0.183 0.019-0.454 0.018-0.636 0.018-0.745-7e-3 -0.835-0.012-1.016-0.086-1.155-0.088-1.267-0.165-1.426-0.207-1.44-0.188-1.511-0.232-1.516-0.209-1.491-0.161-1.344-0.114-1.19-0.09-0.939v-0.598l0.054-0.321 0.045-0.086 0.096-0.087 0.182-0.097 0.298-0.068 0.38-0.015 0.428 0.082 0.511 0.175 0.445 0.275 0.41 0.356 0.338 0.428 0.266 0.476 0.186 0.435 0.121 0.427 0.089 0.322-1e-3 -0.012 0.013-0.041-0.101 0.142-0.208 0.194-0.404 0.264-0.491 0.329-0.565 0.283-0.614 0.293-0.572 0.194-0.49 0.113-0.408 0.04-0.302 0.023-0.129 2e-3 0.759 1.808-0.052 3e-3 0.122-0.153 0.471-0.414 1.268-0.924-0.625-1.118-1.454 0.597-0.612 0.197-0.443 0.176-0.192 0.145 0.759 1.808 0.199 2e-3 0.405-0.023 0.579-0.056 0.736-0.17 0.793-0.278 0.753-0.364 0.707-0.377 0.592-0.425 0.539-0.394 0.45-0.467 0.324-0.469 0.248-0.606-0.048-0.672-0.147-0.525-0.161-0.562-0.285-0.648-0.394-0.703-0.555-0.701-0.676-0.587-0.777-0.479-0.857-0.294-0.795-0.153-0.799 0.032-0.738 0.168-0.618 0.325-0.565 0.481-0.377 0.714-0.136 0.809v0.863l0.1 1.037 0.122 1.214 0.168 1.386 0.216 1.525 0.237 1.5 0.19 1.502 0.215 1.433 0.167 1.354 0.098 1.231 0.103 1.104 0.035 0.963 0.042 0.812 0.018 0.716 0.018 0.636 0.019 0.629 0.135 0.524 0.259 0.504 0.831 0.376 0.542-0.523 0.234-0.37 0.2-0.489 0.15-0.625 0.093-0.548-0.033-0.402-0.018-0.399" __comx="148.401" __comy="132.206" __timestamp="0x1963afe2139"/><path class="write-flat-pen" d="m158.5 134.5-0.138-0.201-0.026-0.159-0.085-0.279-0.203-0.402-0.186-0.391-0.244-0.431-0.233-0.382-0.216-0.407-0.309-0.345-0.288-0.255-0.531-0.304-0.701 0.272-0.413 0.557-0.119 0.646-0.089 0.721-0.065 0.911 0.089 0.977 0.118 0.966 0.296 0.909 0.353 0.747 0.491 0.584 0.614 0.314 0.553 0.16 0.598 0.011 0.701-0.226 0.438-0.563 0.139-0.5 0.099-0.495 0.065-0.555 0.042-0.667-0.039-0.758-0.039-0.802-0.088-0.838-0.062-0.76-0.018-0.703-0.018-0.666 4e-3 -0.463 0.028-0.233-0.031 0.093-0.263 0.226-0.213 0.042 0.046 7e-3 0.221 0.069 0.323 0.161 0.437 0.313 0.492 0.336 0.442 0.357 0.446 0.386 0.515 0.341 0.596 0.33 0.674 0.116 0.83 0.059 0.258-0.55-0.521-0.574-0.269-0.448-0.344-0.424-0.382-0.413-0.448-0.415-0.548-0.444-0.544-0.371-0.553-0.395-0.62-0.31-0.533-0.167-0.565-0.086-0.684 0.135-0.592 0.508-0.22 0.66-0.065 0.568 4e-3 0.62 0.029 0.699 0.029 0.759 0.081 0.841 0.098 0.809 0.057 0.753 0.054 0.656-5e-3 0.509-0.028 0.435-0.044 0.355-4e-3 0.064 0.155-0.187 0.136-0.037-0.059 0.011-0.154-0.029-0.139-0.061-0.12-0.123-0.214-0.431-0.222-0.645-0.118-0.775-0.097-0.813 0.028-0.739 0.053-0.644 0.021-0.247-0.084 0.085-0.369 0.129-0.156-0.115 0.183 0.074 0.209 0.127 0.256 0.253 0.332 0.322 0.321 0.323 0.285 0.316 0.315 0.305 0.198 0.192 0.163 0.123 0.228 0.16" __comx="159.183" __comy="132.206" __timestamp="0x1963afe234e"/><path class="write-flat-pen" d="m165.4 131.2 0.07-0.269 0.093-0.145v-0.255l0.019-0.222 4e-3 -0.231 0.042-0.046 0.058 0.145-1.41 0.333-0.08-0.047-0.039 0.016-0.015 0.291-9e-3 0.509-0.023 0.676-0.038 0.895-0.01 0.965 0.018 1.05 0.072 0.985 0.201 0.944 0.392 0.852 0.547 0.583 0.628 0.39 0.766 0.162 0.655-0.076 0.685-0.228 0.616-0.525 0.384-0.666 0.252-0.739 0.147-0.846 0.019-0.913-0.042-0.976-0.157-0.993-0.145-1.046-0.175-1.147-0.237-1.233-0.235-1.309-0.308-1.433-0.283-1.456-0.199-1.392-0.244-1.272-0.15-1.011-0.091-0.756-0.101-0.463-0.046-0.264 0.222 0.634-1.288 0.655-0.348-0.429 0.221 0.252 0.274 0.315 0.32 0.469 0.399 0.5 0.501 0.473 0.866 0.948 0.922-0.604-0.538-1.197-0.303-0.659-0.353-0.537-0.387-0.521-0.34-0.39-0.202-0.22-0.537-0.665-1.381 0.702 0.268 0.776 0.094 0.254 0.182 0.384 0.194 0.656 0.319 1.015 0.417 1.225 0.412 1.339 0.47 1.42 0.399 1.39 0.283 1.282 0.235 1.218 0.154 1.114-3e-3 1.026-0.063 0.937-0.182 0.86-0.217 0.737-0.278 0.565-0.313 0.439-0.23 0.274-0.138 0.089-0.162 0.054-0.145 0.017-0.127-0.027-0.126-0.078-0.16-0.171-0.172-0.374-0.131-0.61-0.068-0.805-0.029-0.976-0.01-0.918 9e-3 -0.895-0.023-0.739-0.056-0.573-0.064-0.367-0.085-0.316-0.126-0.14-1.41 0.333 0.058 0.238 0.185 0.19 0.097 0.051 0.161 0.203 0.14 0.074 0.093-3e-3 0.07 0.269" __comx="166.714" __comy="132.206" __timestamp="0x1963afe24ff"/><path class="write-flat-pen" d="m175.5 130.2-7e-3 -0.324 8e-3 -0.346-0.024-0.479-0.071-0.576-0.144-0.528-0.196-0.403-0.269-0.304-0.302-0.257-0.672-0.039-0.417 0.468-0.149 0.405-0.113 0.49-0.051 0.679-0.025 0.849 2e-3 1.06-0.023 1.247 4e-3 1.342-0.013 1.338 0.062 1.259 0.121 1.049 0.256 0.876 0.39 0.715 0.574 0.485 0.769 0.218 0.76-0.31 0.51-0.503 0.418-0.624 0.384-0.769 0.414-0.865 0.423-0.945 0.311-0.911 0.308-0.755 0.215-0.634 0.087-0.212-0.019 0.021-0.538 0.236-0.402-0.344 0.043 0.066 0.06 0.374 0.119 0.786 0.169 0.943 0.202 0.988 0.32 0.956 0.39 0.838 0.607 0.676 0.876 0.399 0.972-0.24 0.73-0.657 0.551-0.895 0.448-1.111 0.484-1.256 0.522-1.336 0.5-1.345 0.499-1.388 0.431-1.44 0.38-1.521 0.396-1.616 0.549-1.66 0.62-1.721 0.652-1.647 0.6-1.48 0.447-1.127 0.269-0.678 0.125-0.275-1.566 0.05-0.023 0.023 0.037 0.421 0.028 0.898 5e-3 1.297-0.019 1.634-0.042 1.849-0.059 2.021-0.055 2-0.05 1.963 0.074 1.791 0.199 1.596 0.312 1.373 0.453 1.119 0.484 0.861 0.468 0.634 0.4 0.425 0.462 0.344 0.342 0.055 1.111-1.111-0.072-0.298-0.265-0.344-0.313-0.427-0.486-0.538-0.544-0.576-0.649-0.663-0.702-0.716-0.809-0.754-0.845-0.723-0.828-0.68-0.719-0.521-0.555-0.363-0.369-0.245-0.371-0.127-0.161-6e-3 -0.292 1.604 0.228 0.106 0.434 0.13 0.711 0.175 1.072 0.14 1.317 0.12 1.63 0.042 1.83-0.07 2.077-0.139 2.174-0.231 3.023-0.305-0.156-1.777-3.039 0.226-2.16 0.194-2.021 0.143-1.75 0.069-1.525-5e-3 -1.227-0.067-0.953-0.096-0.608-0.107-0.32-0.059-0.15-0.037-0.292 1.604-0.111-6e-3 -0.089-0.031 0.196 0.131 0.527 0.345 0.646 0.468 0.776 0.638 0.802 0.689 0.746 0.708 0.663 0.696 0.623 0.656 0.492 0.556 0.364 0.452 0.205 0.373 0.017 0.078-0.026-0.062 1.111-1.111 0.107 8e-3 0.037 0.015-0.211-0.235-0.332-0.449-0.363-0.647-0.347-0.858-0.256-1.124-0.177-1.42-0.068-1.646 0.046-1.9 0.038-2.002 0.034-2.031 8e-3 -1.871-0.019-1.664-0.044-1.341-0.066-0.988-0.102-0.709-0.119-0.213-1.566 0.05-0.064 0.289-0.2 0.687-0.356 1.134-0.53 1.489-0.62 1.698-0.509 1.81-0.44 1.731-0.405 1.635-0.374 1.495-0.416 1.386-0.491 1.342-0.536 1.292-0.61 1.255-0.646 1.148-0.542 0.912-0.438 0.52-0.259 0.143 0.078-0.051 0.076 0.021-0.147-0.171-0.221-0.48-0.248-0.741-0.174-0.849-0.16-0.894-0.117-0.769-0.129-0.802-0.428-0.641-0.731-0.627-0.963 0.422-0.491 0.539-0.242 0.591-0.21 0.638-0.304 0.75-0.3 0.879-0.377 0.845-0.389 0.832-0.32 0.643-0.243 0.366-0.101 0.108 0.195-0.074 0.25 0.078 7e-3 0.013-0.128-0.228-0.166-0.535-0.115-0.834-0.08-1.145-0.013-1.299-0.042-1.342-0.023-1.25-0.044-1.059-0.025-0.801-4e-3 -0.543 0.03-0.31-9e-3 -0.067-0.228 0.232-0.39-0.039-0.019-0.068 0.202 0.072 0.179 0.115 0.235 0.319 0.211 0.46 0.165 0.417 0.101 0.312 0.072 0.313" __comx="186.059" __comy="132.206" __timestamp="0x1963afe28f8"/></g><a target="_top" xlink:href="/imprint"><rect x="119.1" y="115.6" width="80.03" height="35.76" fill-opacity="0" stroke-opacity="0"/></a></g></g></svg>
