<?xml version="1.0" encoding="UTF-8"?>
<svg width="20.88mm" height="11.67mm" version="1.1" viewBox="0 0 20.88 11.67" xmlns="http://www.w3.org/2000/svg" xmlns:xlink="http://www.w3.org/1999/xlink"><g transform="translate(-95.78 -92.87)"><g class="hyperref" transform="matrix(.2646 0 0 .2646 63.59 81.73)" __timestamp="0x1963b054b6a"><g fill="#00f" stroke-width="2.4"><path class="write-flat-pen" d="m121.9 55.8 0.143-0.393 0.109-0.504 0.256-0.786 0.269-1.125 0.311-1.255 0.38-1.326 0.367-1.333 0.363-1.304 0.323-1.251 0.211-1.145 0.176-0.97 0.179-0.754 0.106-0.425 0.094-0.154 0.07-0.095-1.389-0.404-0.085 0.227-0.031 0.411-0.097 0.602-0.068 1.041-0.1 1.333-0.133 1.711-0.134 2.146-0.163 2.552-0.121 2.91-0.188 3.122-0.151 3.205-0.147 3.028-0.077 2.741 0.114 2.195 0.247 1.652 0.658 1.318 1.25 0.562 1.205-0.277 0.947-0.721 0.703-0.921 0.771-1.307-0.746-0.605-1.074 0.967-0.749 0.532-0.581 0.299-0.251 0.015-0.059-0.022-0.214-0.427-0.189-1.257-0.106-2.026 0.067-2.645 0.145-3.01 0.141-3.196 0.176-3.131 0.095-2.912 0.129-2.541 0.086-2.143 0.083-1.71 0.048-1.36 4e-3 -0.995 0.047-0.634-0.031-0.317-0.013-0.061-1.389-0.404-2e-3 0.12-0.05 0.282-0.042 0.523-0.109 0.77-0.116 0.995-0.154 1.111-0.257 1.222-0.293 1.317-0.289 1.356-0.272 1.367-0.202 1.293-0.167 1.128-0.18 0.814-0.035 0.516-0.084 0.385" __comx="124.964" __comy="60.99" __timestamp="0x1963afdd5d5"/><path class="write-flat-pen" d="m134.3 60.96-0.091-0.245-0.131-0.135-0.102-0.219-0.132-0.208-0.144-0.221-0.106-0.248-0.123-0.28-0.109-0.217-0.05-0.194-4e-3 -0.17-0.016-0.146-0.07-0.316-0.169-0.121 0.042 5e-3 -0.018-0.054-0.944 0.156-0.16 0.263-0.031 0.367-0.067 0.378-0.064 0.593-0.067 0.622-0.062 0.753-0.095 0.859-0.098 0.962-0.056 0.921-0.051 0.911 0.034 0.832 0.117 0.583 0.114 0.529 0.427 0.54 0.593 0.198 0.319 5e-3 0.395-0.059 0.551-0.231 0.328-0.391 0.361-0.456 0.215-0.641 0.278-0.583 0.343-0.798 0.32-0.857 0.394-0.823 0.355-0.864 0.215-0.704 0.209-0.445-0.071 0.119-0.842-0.286-9e-3 -0.019 0.149 0.538 0.131 0.817 0.07 1.031 0.114 1.091 0.155 1.02 0.265 0.961 0.406 0.712 0.645 0.645 0.981 0.088 0.734-0.367 0.641-0.469 0.679-0.6 0.69-0.728 0.676-0.752 0.679-0.828 0.584-0.767 0.618-0.764 0.572-0.744 0.522-0.588 0.492-0.431 0.299-0.199-0.147 0.011-0.122-0.109 0.088 0.223 0.058 0.678 0.03 1.052v1.189l0.115 1.242 0.201 1.166 0.357 1.022 0.605 0.884 0.744 0.635 0.818 0.438 1.344 0.58 0.558-0.839-1.024-0.994-0.566-0.583-0.492-0.457-0.339-0.496-0.227-0.65-0.163-0.946-0.101-1.086v-1.135l-0.041-1.132-0.09-0.994-0.348-0.869-0.774-0.689-1.096 0.083-0.794 0.529-0.668 0.585-0.642 0.724-0.592 0.78-0.618 0.765-0.58 0.762-0.633 0.772-0.632 0.704-0.618 0.652-0.557 0.493-0.451 0.331-0.138 0.069 0.181 0.016-0.011-0.011-0.174-0.304-0.176-0.64-0.133-0.873-0.107-1.017-0.074-1.081-0.161-0.999-0.215-0.771-0.373-0.819-1.278-0.434-0.723 1.211-0.303 0.647-0.221 0.749-0.301 0.736-0.406 0.849-0.332 0.892-0.313 0.731-0.302 0.654-0.149 0.451-0.147 0.196-0.036 0.045 0.038-0.011-0.041 0.013 0.103 5e-3 0.157 0.054 0.135 0.176-0.034-0.127-0.099-0.437-0.038-0.62 0.021-0.837 0.016-0.895 0.046-0.93 0.053-0.885 0.01-0.776 5e-3 -0.615 8e-3 -0.571 9e-3 -0.422-0.031-0.141-0.016-0.029-0.944 0.156 0.054 0.018 0.114 0.077-0.021-0.045 2e-3 -0.1 0.056 0.074 0.067 0.194 0.17 0.314 0.184 0.219 0.165 0.228 0.186 0.261 0.22 0.219 0.16 0.152 0.186 0.221 0.161 0.081 0.106 0.148" __comx="141.083" __comy="60.99" __timestamp="0x1963afdd925"/><path class="write-flat-pen" d="m159.6 84.46-0.195 0.223-0.197 0.027-0.267 0.185-0.038-0.055 0.215-0.052 0.028-0.027-0.202-0.375-0.333-0.768-0.319-0.968-0.341-1.187-0.385-1.303-0.392-1.433-0.392-1.585-0.397-1.7-0.394-1.757-0.324-1.879-0.358-1.843-0.25-1.745-0.176-1.645-0.107-1.407v-2.377l0.129-0.905 0.175-0.643 0.192-0.35 0.162-0.139 0.092-0.018 0.288 0.072 0.455 0.277 0.519 0.519 0.544 0.646 0.543 0.714 0.431 0.704 0.353 0.675 0.167 0.502 0.045 0.393-0.059 0.26-0.213 0.307-0.389 0.355-0.615 0.409-0.751 0.358-0.797 0.248-0.738 0.153-0.595 0.057-0.286-0.018-0.117-0.064-0.141-0.169-0.146-0.374-0.07-0.529 0.072-0.603 0.253-0.71 0.442-0.776 1.009-1.051-0.381-0.522-1.406 0.71-0.938 0.753-0.619 0.962-0.368 1.073 0.078 1.143 0.362 0.934 0.588 0.703 0.827 0.448 0.878 0.054 0.861-0.091 0.934-0.207 1.024-0.336 0.994-0.514 0.842-0.611 0.627-0.661 0.444-0.786 0.157-0.832-0.099-0.843-0.269-0.806-0.447-0.853-0.514-0.825-0.621-0.815-0.62-0.734-0.717-0.717-0.857-0.523-0.876-0.22-0.924 0.131-0.786 0.661-0.46 0.81-0.261 0.957-0.163 1.136v2.569l0.114 1.501 0.183 1.704 0.262 1.82 0.37 1.866 0.328 1.902 0.407 1.807 0.403 1.72 0.409 1.616 0.408 1.475 0.415 1.317 0.387 1.214 0.409 1.068 0.467 0.904 0.455 0.645 0.608 0.41 0.799-0.052 0.398-0.491 0.097-0.328 0.091-0.261 0.028-0.458" __comx="156.37" __comy="60.99" __timestamp="0x1963afddb3c"/><path class="write-flat-pen" d="m162.3 59.68-4e-3 0.359-0.029 0.221-6e-3 0.413 0.151 0.624 0.186 0.615 0.283 0.755 0.429 0.755 0.367 0.775 0.328 0.75 0.392 0.687 0.344 0.483 0.335 0.457 0.358 0.279 0.039 0.044-7e-3 0.012 1.272-0.738 9e-3 -2e-3 -0.031-0.171-0.173-0.316-0.155-0.378-0.378-0.524-0.433-0.553-0.497-0.653-0.556-0.738-0.465-0.731-0.317-0.667-0.181-0.597-0.079-0.465 1e-3 -0.111-0.103 0.26-0.189 0.086 0.328-0.023 0.514-0.027 0.561 0.095 0.675 0.112 0.669 0.14 0.67 0.142 0.694 0.184 0.688 0.138 0.59 0.217 0.682 0.314 0.833 0.216 1.305 0.452 0.5-0.955-1.178-0.848-0.768-0.436-0.702-0.343-0.79-0.291-0.769-0.154-0.686-0.181-0.715-0.15-0.712-0.147-0.71-0.108-0.748-0.125-0.722 0.049-0.62 0.049-0.697 0.302-0.319 0.772 0.073 0.613 0.137 0.627 0.255 0.788 0.411 0.857 0.555 0.87 0.608 0.791 0.52 0.66 0.439 0.535 0.278 0.348 0.137 0.279 0.119 0.192 0.041 0.121 0.081 0.142 1.272-0.738-0.151-0.204-0.253-0.176-0.226-0.157-0.245-0.271-0.312-0.389-0.336-0.549-0.324-0.702-0.433-0.825-0.444-0.702-0.301-0.63-0.25-0.545-0.213-0.469-0.078-0.315-0.101-0.287-0.236-0.35" __comx="166.806" __comy="60.99" __timestamp="0x1963afddcbb"/><path class="write-flat-pen" d="m174.2 59.29 0.076-0.283 0.064-0.218 0.066-0.182 0.077-0.29 0.078-0.146 0.074-0.074-0.807-0.575-0.426 0.087-0.272 0.577-0.241 0.567-0.271 0.882-0.226 1.08-0.144 1.285-0.089 1.374 0.065 1.356 0.162 1.228 0.405 1.09 0.61 0.816 0.819 0.532 0.968 0.121 0.915-0.253 0.789-0.392 0.825-0.562 0.666-0.777 0.524-0.926 0.321-1.018 0.063-1.15-0.131-1.114-0.221-1.291-0.303 0.01-0.139 1.269-0.275 0.994-0.302 0.886-0.407 0.654-0.492 0.603-0.498 0.46-0.559 0.382-0.519 0.264-0.394 0.111-0.196-0.023-0.201-0.125-0.262-0.348-0.251-0.654-0.13-0.957-0.079-1.188 0.055-1.247 0.077-1.187 0.138-0.956 0.165-0.791 0.123-0.526-0.056-3e-3 -0.205 0.01-0.807-0.575 0.074 0.074 0.078 0.146 0.077 0.29 0.066 0.182 0.064 0.218 0.076 0.283" __comx="175.716" __comy="60.99" __timestamp="0x1963afdddf8"/><path class="write-flat-pen" d="m175.1 51.31-0.151-0.395-0.041-0.268-0.207-0.363-0.298-0.423-0.248-0.15-0.077-0.079-0.787 1.026 0.04 0.136 0.16 0.246 0.255 0.328 0.284 0.438 0.404 0.474 0.507 0.393 0.872 0.582 0.441-0.408-0.479-0.879-0.221-0.551-0.324-0.47-0.296-0.434-0.257-0.329-0.132-0.19-0.104-0.084-0.787 1.026 0.143-7e-3 0.04-0.074 0.215 0.085 0.301 0.145 0.179 0.096 0.309 0.302" __comx="174.744" __comy="60.99" __timestamp="0x1963afdde9e"/><path class="write-flat-pen" d="m180.8 56.72-0.172-0.272-0.09-0.168-0.201-0.216-0.413-0.086-0.438 0.172-0.314 0.33-0.384 0.526-0.301 0.736-0.195 0.974-0.182 1.125 0.023 1.306 0.149 1.233 0.326 1.133 0.502 0.927 0.654 0.612 0.687 0.35 0.73 0.061 0.737-0.103 0.709-0.35 0.634-0.485 0.494-0.668 0.414-0.659 0.331-0.74 0.244-0.69 0.17-0.688 0.027-0.3 0.072-0.115-1.469-8e-3 0.048 0.08 0.075 0.293 0.152 0.544 0.061 0.763 0.111 1.024 0.275 1.019 0.292 1.005 0.551 0.852 0.754 0.591 0.837 0.266 0.837 0.034 0.819-0.327 0.749-0.471 0.844-0.993-0.396-0.537-1.077 0.422-0.631 0.109-0.493 0.037-0.327-0.038-0.323-0.098-0.266-0.209-0.249-0.385-0.216-0.739-0.237-0.873-0.105-0.868-0.087-0.909-0.208-0.692-0.145-0.508-0.172-0.284-1.469-8e-3 -0.288 0.465-0.05 0.576-0.118 0.477-0.192 0.546-0.253 0.568-0.315 0.505-0.306 0.425-0.31 0.239-0.312 0.162-0.279 0.041-0.218-0.011-0.185-0.086-0.29-0.26-0.299-0.53-0.259-0.832-0.139-1.024-0.054-1.095 0.11-0.984 0.097-0.842 0.135-0.504 0.196-0.419 0.051-0.178-0.074-0.048-0.049-0.086 0.091-0.068 0.126-0.024 0.243 0.143" __comx="183.989" __comy="60.99" __timestamp="0x1963afde061"/><path class="write-flat-pen" d="m195.2 47.74 4e-3 -0.464 0.065-0.651 0.031-0.952-0.011-1.059 0.055-0.807 0.04-0.584-0.102-0.614-0.88-0.511-0.553 0.735-0.192 0.641-0.148 0.871-0.176 1.126-0.204 1.407-0.28 1.743-0.276 2.005-0.307 2.267-0.231 2.285-0.147 2.268-0.154 2.052 0.076 1.819 0.236 1.542 0.421 1.39 0.686 1.121 0.724 0.854 0.781 0.643 0.858 0.406 0.964 0.151 0.962-0.105 0.988-0.491 0.795-0.895 0.531-1.11 0.432-1.189 0.292-1.28 0.11-1.275-0.091-1.118-0.37-0.952-0.665-0.647-0.815-0.28-1.039-0.1-1.295-0.015-1.364 0.146-1.393 0.256-1.363 0.308-1.264 0.396-1.113 0.336-0.977 0.251-0.817 0.216-0.527 0.154-0.671 0.263-0.06 1.169 0.894 0.176 0.57 0.113 1.002-0.181 1.115-0.408 1.231-0.666 1.295-0.739 1.34-0.665 1.325-0.591 1.302-0.434 1.311-0.347 1.928-0.601-0.263-1.358-2.05 0.17-1.453 0.309-1.463 0.51-1.44 0.645-1.425 0.719-1.322 0.785-1.097 0.646-0.849 0.392-0.599 0.183-0.302 0.037 0.309 0.104-0.06 0.804-0.087-0.025 0.417-0.282 0.711-0.368 0.916-0.406 1.068-0.464 1.212-0.476 1.325-0.344 1.371-0.256 1.329-0.142 1.249 0.057 0.926 0.192 0.498 0.371 0.207 0.517-6e-3 0.648-0.163 0.847-0.254 1.054-0.365 1.049-0.44 0.991-0.418 0.783-0.365 0.413-0.324 0.165-0.347 0.039-0.421-0.065-0.378-0.178-0.455-0.373-0.512-0.603-0.478-0.772-0.307-1.011-0.2-1.295-0.068-1.597 0.138-1.949 0.141-2.245 0.206-2.224 0.277-2.242 0.232-1.995 0.232-1.75 0.156-1.429 0.116-1.13 0.072-0.801 0.024-0.303-0.404 0.515-0.736-0.439 0.042-0.106 0.116 0.436 0.127 0.793 0.133 1.05 0.103 0.941 0.137 0.657 0.111 0.462" __comx="193.636" __comy="60.99" __timestamp="0x1963afde286"/></g><a target="_top" xlink:href="/imprint"><rect x="121.6" y="42.1" width="78.9" height="44.09" fill-opacity="0" stroke-opacity="0"/></a></g></g></svg>
