<?xml version="1.0" encoding="UTF-8"?>
<svg width="19.09mm" height="9.763mm" version="1.1" viewBox="0 0 19.09 9.763" xmlns="http://www.w3.org/2000/svg" xmlns:xlink="http://www.w3.org/1999/xlink"><g transform="translate(-101.9 -93.4)"><g class="hyperref" transform="matrix(.2646 0 0 .2646 70.13 25.88)" __timestamp="0x1963b05c862"><g fill="#00f" stroke-width="2.4"><path class="write-flat-pen" d="m123.4 265.8 0.016-0.309-6e-3 -0.356 0.027-0.526-1e-3 -0.766 0.028-0.82 0.036-0.882 0.042-0.884 0.052-0.876 0.093-0.836 0.121-0.809 0.117-0.728 0.12-0.681 0.078-0.586 0.044-0.489 0.034-0.339 8e-3 -0.239 0.034-0.264-0.087-0.246-1.603 0.217-0.063 0.228-0.013 0.416-0.045 0.561-0.131 0.886-0.135 1.137-0.133 1.393-0.241 1.636-0.213 1.912-0.295 2.009-0.33 2.097-0.269 2.077-0.241 1.949-0.208 1.811-0.149 1.664-0.118 1.432-0.063 1.231 0.031 1.091 0.063 0.832 0.085 0.667 0.187 0.486 0.264 0.466 0.481 0.218 0.691 0.127 0.224-0.525 0.147-0.534-0.465-0.389-0.536 0.284 0.107-0.35 0.513 0.069 0.245 0.043 0.09-7e-3 -0.05-0.278-0.031-0.454-0.057-0.758-0.028-0.968 0.057-1.123 0.115-1.395 0.146-1.633 0.204-1.78 0.232-1.936 0.262-2.045 0.318-2.084 0.291-2.055 0.201-1.915 0.229-1.661 0.104-1.43 0.102-1.1 0.102-0.94 0.017-0.676-0.013-0.29-5e-3 -0.067-1.603 0.217-0.029-0.13 0.034-0.028 0.066 0.234 0.034 0.247 0.044 0.454 0.019 0.535 4e-3 0.673-3e-3 0.745 5e-3 0.839 0.034 0.87 0.052 0.889 0.042 0.884 0.036 0.882 0.028 0.828 0.058 0.765 0.027 0.533 0.052 0.354 0.016 0.297" __comx="122.099" __comy="272.752" __timestamp="0x1963afec9ab"/><path class="write-flat-pen" d="m128.2 272.5 0.024-0.288 4e-3 -0.208 0.043-0.252 0.047-0.396 0.02-0.326-6e-3 -0.347-5e-3 -0.353-0.035-0.352-9e-3 -0.237-0.017-0.248 3e-3 -0.19 0.012-0.115 0.018-0.16 0.038-0.131-7e-3 -0.254-0.016-0.269-0.047-0.167h-1.51l-0.097 0.165-0.063 0.28-0.077 0.31-0.077 0.511-0.074 0.574-0.073 0.708-0.042 0.834-0.011 0.93-7e-3 0.942-9e-3 0.971-7e-3 0.872 0.024 0.814 0.065 0.706 0.152 0.548 0.212 0.533 0.425 0.42 0.43 0.15 0.357 0.089 0.647-0.101 0.453-0.366 0.287-0.32 0.344-0.442 0.291-0.547 0.343-0.565 0.4-0.674 0.402-0.766 0.377-0.751 0.403-0.719 0.327-0.599 0.3-0.422 0.133-0.163-0.399 0.252-0.732-0.362-0.072-0.217 0.063 0.36 0.025 0.585v1.632l0.152 0.831 0.279 0.744 0.516 0.569 0.75 0.413 0.875-0.071 0.548-0.249 0.469-0.285 0.48-0.343 0.423-0.363 0.521-0.396 0.521-0.49 0.466-0.465 0.413-0.442 0.267-0.267 0.163-0.108 0.079-0.028 0.055-5e-3 0.066 0.011-0.025-9e-3 0.068 0.076 0.121 0.198 0.083 0.25 0.089 0.529 0.176 0.53 0.081 0.49 0.149 0.594 0.218 0.438 0.189 0.358 0.727 0.992 1.341-0.671-0.296-1.055-0.048-0.352-0.135-0.384-0.087-0.348-0.094-0.568-0.177-0.533-0.089-0.53-0.212-0.634-0.348-0.566-0.463-0.513-0.615-0.304-0.64-0.105-0.593 0.053-0.569 0.208-0.543 0.361-0.439 0.439-0.413 0.442-0.418 0.419-0.418 0.394-0.483 0.368-0.399 0.343-0.346 0.247-0.295 0.185-0.099 0.045 0.111-9e-3 0.102 0.056-0.015-0.017-0.074-0.198-0.085-0.464v-1.489l-0.033-0.768-0.115-0.641-0.247-0.748-1.085-0.537-0.872 0.547-0.394 0.484-0.41 0.579-0.379 0.696-0.419 0.751-0.391 0.78-0.362 0.704-0.367 0.621-0.362 0.613-0.237 0.454-0.188 0.264-0.124 0.153 0.1-0.071 0.294-0.043 0.121 0.031 0.077 0.03 0.189 0.187-0.024-0.056-0.084-0.278-0.052-0.47-0.034-0.718-7e-3 -0.835-9e-3 -0.971-7e-3 -0.942-0.011-0.896 0.016-0.756 0.044-0.646 0.046-0.543 0.039-0.431 0.043-0.28-5e-3 -0.073-0.039 0.045h-1.51l0.012-0.048 0.043 0.026 0.051 0.099 0.038 0.101 0.08 0.313 0.07 0.121 0.061 0.163 0.099 0.28 0.111 0.236 0.14 0.295 0.115 0.294 0.11 0.3 0.078 0.263 0.047 0.368 0.043 0.279 0.062 0.203 0.024 0.266" __comx="133.94" __comy="272.752" __timestamp="0x1963afeccdd"/><path class="write-flat-pen" d="m147.9 290.4-0.089 0.413 0.071 0.285 0.017 0.217 0.198 0.436 0.344 0.139 0.169 0.114 0.418 0.059 0.396-0.228 0.406-0.35 0.036-0.554 0.027-0.295 0.029-0.351-0.016-0.577-0.046-0.637-0.106-0.796-0.134-0.912-0.135-0.987-0.131-1.085-0.081-1.121-0.085-1.19-0.114-1.198-0.146-1.263-0.113-1.242-0.087-1.272-0.056-1.171v-1.063l0.056-0.932 0.057-0.756 0.074-0.552 0.046-0.175-0.178 0.224-0.363 0.056 0.098 0.052 0.447 0.291 0.378 0.4 0.421 0.553 0.413 0.606 0.348 0.569 0.243 0.462 0.138 0.392 0.072 0.27-4e-3 -0.013 0.018-0.057 0.055-0.08-0.022 0.011-0.347 0.148-0.481 0.188-0.527 0.163-0.601 0.19-0.518 0.213-0.342 0.122-0.288 0.073-0.222 0.053-0.149 0.029 1.005 1.661-0.101 0.099 0.084-0.087 0.446-0.41 1.011-0.868-0.645-1.077-1.245 0.483-0.434 0.121-0.506 0.146-0.28 0.335 1.005 1.661 0.204-0.029 0.309-0.064 0.418-0.105 0.484-0.173 0.482-0.198 0.516-0.163 0.593-0.19 0.578-0.226 0.479-0.205 0.505-0.283 0.408-0.55 0.196-0.588-4e-3 -0.602-0.165-0.611-0.215-0.609-0.347-0.659-0.416-0.668-0.471-0.689-0.521-0.683-0.623-0.659-0.728-0.473-0.786-0.421-1.131 0.176-0.589 0.751-0.19 0.709-0.101 0.743-0.063 0.833-0.061 1.01v1.175l0.06 1.242 0.091 1.318 0.124 1.29 0.149 1.269 0.119 1.156 0.093 1.167 0.097 1.175 0.16 1.152 0.16 1.014 0.161 0.915 0.13 0.732 0.07 0.542 0.046 0.482 0.029 0.297 0.027 0.295 0.036-0.143 0.228-0.172 0.16-0.053 0.244 0.059-0.068 0.055 0.049 0.081-0.038 0.083-0.157-0.136-0.165-0.068-0.089-0.234" __comx="149.776" __comy="272.752" __timestamp="0x1963afecf24"/><path class="write-flat-pen" d="m156.9 277.2-0.149-0.398-0.076-0.35-0.133-0.454-0.198-0.593-0.223-0.485-0.246-0.477-0.257-0.335-0.267-0.295-0.691-0.376-0.656 0.615-0.147 0.495-0.051 0.591 0.058 0.749 0.196 0.822 0.32 0.862 0.43 0.846 0.51 0.689 0.53 0.571 0.513 0.369 0.414 0.247 0.396 0.199 0.654 0.092 0.708-0.328 0.231-0.62 0.083-0.497-0.112-0.561-0.115-0.521-0.176-0.571-0.19-0.608-0.198-0.687-0.238-0.697-0.221-0.65-0.155-0.551-0.096-0.501-0.04-0.395 0.032-0.247 0.065-0.162-8e-3 0.011 0.091-0.037 0.224-0.04 0.373 0.057 0.502 0.12 0.455 0.182 0.445 0.251 0.462 0.28 0.487 0.259 0.6 0.201 1.315 0.411 0.613-1.384-1.128-0.672-0.401-0.33-0.397-0.269-0.481-0.31-0.613-0.338-0.723-0.288-0.735-0.175-0.802-0.122-0.776 0.138-0.793 0.316-0.54 0.659-0.288 0.722-0.084 0.754 0.077 0.722 0.14 0.677 0.198 0.686 0.249 0.704 0.235 0.656 0.213 0.666 0.221 0.629 0.18 0.488 0.118 0.422 0.066 0.207 0.024-0.028 0.111-0.267 0.475-0.211 0.181 0.034-0.073-0.034-0.295-0.168-0.31-0.22-0.354-0.368-0.374-0.49-0.334-0.627-0.269-0.667-0.157-0.593-0.058-0.488 8e-3 -0.29-0.031 0.08-0.478 0.44-0.455-0.259 0.144 0.058 0.213 0.138 0.285 0.287 0.308 0.34 0.329 0.466 0.278 0.368 0.219 0.297 0.279 0.352" __comx="158.367" __comy="272.752" __timestamp="0x1963afed119"/><path class="write-flat-pen" d="m164.1 270.9 0.311 0.767 0.076 0.157 2e-3 0.084 0.02 0.142 0.027 0.26 0.021 0.452 3e-3 0.626-0.022 0.792 0.017 0.824-7e-3 0.891 0.097 0.94 0.211 0.883 0.345 0.782 0.627 0.625 0.681 0.341 0.727 0.13 0.779 3e-3 0.738-0.246 0.634-0.311 0.56-0.445 0.466-0.572 0.271-0.698 0.081-1.187-0.935-0.295-0.568 0.865-0.26 0.245-0.299 0.192-0.324 0.203-0.366 0.162-0.321 0.107-0.283 3e-3 -0.274-0.049-0.141-0.07-0.14-0.139-0.124-0.28-0.142-0.587-0.081-0.708-7e-3 -0.819-0.041-0.824-0.022-0.798-0.055-0.728-0.099-0.607-0.148-0.504-0.217-0.389-0.234-0.269-0.099-0.021-0.327-0.509" __comx="167.385" __comy="272.752" __timestamp="0x1963afed266"/><path class="write-flat-pen" d="m165.9 262.7-0.33-0.238-0.092-0.159-0.087-0.132-0.154-0.099-0.165-0.026-0.462 1.164 0.09 0.109 0.262 0.144 0.257 0.077 0.24 0.082 0.308 0.117 0.385 0.107 0.872-9e-3 0.252-0.623-0.632-0.618-0.383-0.188-0.339-0.116-0.288-0.096-0.158-0.04 0.029 0.024 0.028 0.05-0.462 1.164-0.045-0.026 0.021-0.041 0.15-0.071 0.087-0.1 0.339 0.096" __comx="165.909" __comy="272.752" __timestamp="0x1963afed33e"/><path class="write-flat-pen" d="m174.6 270-0.167-0.214-0.067-0.237-0.195-0.306-0.162-0.361-0.11-0.337-0.215-0.311-0.173-0.303-0.162-0.157-0.263-0.266-0.81-0.034-0.197 0.667-0.078 0.398 0.039 0.511 0.06 0.632 0.09 0.71 0.082 0.786 0.03 0.879 0.038 1.055 0.106 1.016 0.077 0.996 0.081 0.877 0.053 0.785 0.091 0.684 0.13 0.623 0.388 0.592 0.585 0.367 0.654 0.102 0.725-0.269 0.447-0.566 0.265-0.56 0.234-0.554 0.289-0.596 0.279-0.582 0.303-0.522 0.313-0.525 0.23-0.461 0.168-0.271 0.183-0.208-0.07 0.082-0.546 0.068-0.25-0.182 0.075 0.131 0.183 0.424 0.177 0.586 0.171 0.745 0.219 0.841 0.276 0.839 0.29 0.805 0.337 0.674 0.391 0.663 0.544 0.481 0.734 0.338 0.846-0.164 0.563-0.518 0.276-0.696 0.27-1.081-0.46-0.241-0.681 0.732-0.43 0.13-0.143-0.049 0.14-0.103 0.028-0.018-0.103-0.105-0.199-0.337-0.252-0.505-0.241-0.669-0.252-0.751-0.196-0.749-0.181-0.784-0.234-0.768-0.286-0.638-0.339-0.575-0.719-0.535-1.019 0.126-0.423 0.493-0.286 0.324-0.305 0.493-0.239 0.481-0.276 0.475-0.345 0.598-0.311 0.655-0.301 0.641-0.235 0.563-0.146 0.324 0.032-0.038 0.256-0.091 0.243 0.044 0.112 0.073 0.035 0.061-0.048-0.2-0.084-0.553-0.063-0.747-0.097-0.888-0.101-1.008-0.127-0.986-0.082-1.005-0.087-0.948-0.154-0.862-0.143-0.702-0.118-0.605-0.078-0.315-0.02-0.129-0.139 0.431-0.694-0.034 0.032-0.029 0.132 0.018 0.18 0.112 0.258 0.159 0.185 0.194 0.308 0.345 0.278 0.221 0.166 0.178 0.249 0.196" __comx="177.251" __comy="272.752" __timestamp="0x1963afed60c"/><path class="write-flat-pen" d="m185.7 267.2 0.08-0.372 0.195-0.417 0.274-0.621 0.3-0.798 0.293-0.703 0.239-0.596 0.195-0.458 0.139-0.269 0.014 0.05-0.095 0.103-1.269-0.394-0.017 0.044-0.013 0.181 0.027 0.505 8e-3 0.771-0.021 0.954-0.016 1.119-0.011 1.295-6e-3 1.324-5e-3 1.353-1e-3 1.308 0.03 1.275 0.155 1.202 0.225 1.189 0.358 1.043 0.384 0.923 0.431 0.831 0.494 0.722 0.578 0.496 0.563 0.346 0.549 0.166 0.684 0.15 0.844-0.501 0.328-0.708 0.108-0.631 0.085-0.772-0.031-0.786-0.147-0.776-0.248-0.677-0.346-0.609-0.466-0.497-0.469-0.398-0.544-0.416-0.661-0.349-0.641-0.367-0.715-0.279-0.745-0.232-0.762-0.127-0.742-0.023-0.746 0.074-0.635 0.21-0.489 0.369-0.387 0.385-0.137 0.694 0.472 0.668 0.692 0.1 0.638 0.104 0.888-0.079 1.01-0.244 1.062-0.366 1.085-0.446 1.025-0.425 0.825-0.308 1.496-0.424-0.315-1.471-1.623 0.244-1.001 0.282-1.092 0.456-1.036 0.438-0.939 0.34-0.816 0.228-0.582 0.096-0.483-0.012-0.072 0.042 0.236 0.374-0.079 0.282 0.024-0.087 0.221-0.278 0.307-0.201 0.549-0.163 0.611-0.082 0.649 0.052 0.67 0.179 0.639 0.249 0.596 0.342 0.573 0.357 0.399 0.406 0.299 0.428 0.24 0.445 0.123 0.45 0.047 0.501-0.027 0.577-0.089 0.567-0.151 0.582-0.129 0.311-0.025-0.06 0.313-0.206 0.156 0.034-0.218-0.071-0.201-0.124-0.248-0.213-0.27-0.395-0.334-0.642-0.326-0.783-0.289-0.841-0.187-0.987-0.139-1.036-0.028-1.141-1e-3 -1.283-5e-3 -1.353-6e-3 -1.324-0.011-1.295-0.016-1.119-0.021-0.988-0.05-0.877-0.093-0.558-0.071-0.408-0.133-0.251-1.269-0.394-0.273 0.223-0.161 0.461-0.098 0.378-0.1 0.542-0.114 0.641-0.118 0.77-0.115 0.85-0.079 0.674-0.038 0.526 0.08 0.432" __comx="187.477" __comy="272.752" __timestamp="0x1963afed832"/></g><a target="_top" xlink:href="/imprint"><rect x="119.9" y="255.2" width="72.14" height="36.9" fill-opacity="0" stroke-opacity="0"/></a></g></g></svg>
