<?xml version="1.0" encoding="UTF-8"?>
<svg width="37.74mm" height="10.53mm" version="1.1" viewBox="0 0 37.74 10.53" xmlns="http://www.w3.org/2000/svg" xmlns:xlink="http://www.w3.org/1999/xlink"><g transform="translate(-92.6 -93.13)"><g class="hyperref" transform="matrix(.2646 0 0 .2646 8.117 44.03)" __timestamp="0x1963b0673ec"><g fill="#00f" stroke-width="2.4"><path class="write-flat-pen" transform="translate(10.98,2.061)" d="m320.6 199.7 0.017-0.252 0.082-0.19 0.094-0.362 0.093-0.494 0.132-0.51 0.046-0.562 0.018-0.628 0.023-0.673-0.071-0.782-0.13-0.857-0.191-0.969-0.218-0.972-0.158-0.966-0.138-0.807-0.074-0.53-0.049-0.454-0.131-0.237-1.384 0.046-0.169 0.25-0.138 0.533-0.142 0.779-0.077 1.236 0.051 1.571 0.169 1.787 0.291 1.97 0.438 1.98 0.444 1.924 0.552 1.754 0.625 1.479 0.605 1.056 0.539 0.783 0.41 0.416 0.452 0.46 1.177 5e-3 0.392-1.02v-0.636l-0.127-0.771-0.391-0.796-0.534-0.786-0.74-0.764-0.779-0.705-0.824-0.755-0.864-0.742-0.817-0.79-0.859-0.87-0.859-0.879-0.839-0.868-0.851-0.791-0.867-0.743-0.914-0.632-0.866-0.499-0.818-0.426-0.729-0.349-0.554-0.305-0.444-0.278-0.235-0.234-0.113-0.207-0.073-0.28v-0.222l0.093-0.27 0.208-0.365 0.322-0.427 0.525-0.534 0.639-0.657 0.736-0.694 0.83-0.683 0.988-0.669 1.026-0.663 1.155-0.534 1.258-0.402 1.369-0.214 1.384-0.026 1.323 0.212 1.164 0.367 0.912 0.518 0.699 0.633 0.548 0.774 0.364 0.888 0.23 1.023 0.133 1.081 0.021 1.061-0.057 0.913-0.184 0.819-0.236 0.696-0.276 0.498-0.38 0.433-0.396 0.381-0.397 0.244-0.503 0.215-0.504 0.167-0.559 0.095-0.56 0.05h-0.473l-0.275-0.036 0.275 0.106 0.31 0.91-0.503 0.395 0.106-0.181 0.576-0.275 1.202-0.471-0.112-0.696-1.317-0.064-0.839 0.02-0.658 0.172-0.739 0.632 0.426 1.201 0.806 0.285 0.609 0.081h0.702l0.739-0.067 0.795-0.142 0.733-0.245 0.731-0.316 0.723-0.461 0.605-0.62 0.562-0.684 0.43-0.858 0.295-0.952 0.227-1.065 0.059-1.147-0.037-1.235-0.161-1.273-0.298-1.273-0.52-1.234-0.805-1.111-1.011-0.898-1.264-0.715-1.488-0.459-1.62-0.258-1.676 0.032-1.637 0.256-1.507 0.482-1.377 0.645-1.154 0.748-1.072 0.743-0.938 0.791-0.796 0.779-0.656 0.697-0.592 0.641-0.443 0.635-0.323 0.635-0.202 0.73 0.058 0.72 0.221 0.663 0.36 0.557 0.529 0.471 0.615 0.369 0.625 0.343 0.745 0.357 0.768 0.4 0.785 0.444 0.792 0.547 0.781 0.669 0.797 0.74 0.81 0.839 0.851 0.886 0.848 0.898 0.831 0.858 0.842 0.79 0.766 0.773 0.695 0.71 0.555 0.648 0.35 0.568 0.195 0.44 0.051 0.349v0.128l0.214-0.55 0.944 5e-3 0.099 0.107-0.299-0.29-0.403-0.571-0.512-0.887-0.553-1.29-0.507-1.6-0.44-1.845-0.443-1.906-0.298-1.857-0.183-1.684-0.069-1.434 0.043-1.06 0.091-0.633 0.04-0.232 5e-3 -0.045-1.384 0.046-0.011-0.063 0.067 0.135 0.162 0.529 0.215 0.783 0.253 0.977 0.313 0.971 0.279 0.916 0.226 0.791 0.162 0.692 0.081 0.622 0.08 0.609 0.046 0.497-0.046 0.49-0.023 0.506-0.026 0.344-0.035 0.225 0.017 0.291" __comx="329.11" __comy="203.539" __timestamp="0x1963affb43e"/><path class="write-flat-pen" transform="translate(10.98,2.061)" d="m328 199.4-0.188-0.167-0.012-0.126-8e-3 -0.089 0.04-0.05-0.845 0.188-0.148 0.121-0.083 0.339-0.075 0.447-0.034 0.757 0.106 0.853 0.199 0.946 0.291 0.962 0.286 0.853 0.28 0.758 0.273 0.481 0.195 0.418 0.227 0.29-0.018 0.01 0.145 0.522 1.621 0.023 0.017-1.277-0.21-0.433-0.19-0.304-0.259-0.432-0.348-0.416-0.284-0.393-0.288-0.447-0.297-0.542-0.331-0.673-0.312-0.702-0.204-0.782-0.158-0.764-0.046-0.621 0.041-0.451 0.08-0.239 0.061-0.073 0.191-0.09 0.441-0.085 0.639-0.052 0.768 0.052 0.83 0.084 0.769 0.186 0.702 0.196 0.647 0.197 0.668 0.161 0.621 0.041 0.578-0.061 0.574-0.216 0.63-0.407-0.091-0.419-0.612-0.138-0.368-0.274-0.423-0.181-0.441-0.192-0.565-0.192-0.648-0.217-0.772-0.215-0.938-0.226-0.996-0.094-0.939-0.064-0.893 0.065-0.796 0.152-0.809 0.379-0.587 0.695-0.273 0.819-0.076 0.845 0.07 0.911 0.195 0.942 0.266 0.986 0.397 0.884 0.374 0.742 0.351 0.637 0.36 0.554 0.364 0.488 0.299 0.352 0.21 0.332 0.163 0.227-0.031-0.08 0.017-1.04 1.563 0.023 0.087 0.344-0.254-0.227-0.068-0.063-0.158-0.288-0.258-0.403-0.247-0.595-0.304-0.795-0.299-0.865-0.212-0.818-0.13-0.678-0.034-0.596-0.017-0.379-0.025-0.188-0.086-0.057-0.845 0.188 0.156 0.07 0.109-0.031 0.108-9e-3 0.325 0.09" __comx="341.43" __comy="203.539" __timestamp="0x1963affb612"/><path class="write-flat-pen" transform="translate(10.98,2.061)" d="m336.4 197 0.042-0.173 0.104-0.04 0.09-0.137 0.131-0.104 0.094-0.113 0.082-0.029-1.151-0.275-0.164 0.196-0.091 0.318-0.119 0.39-0.192 0.581-0.192 0.793-0.182 0.961-0.176 1.134-0.075 1.277 0.025 1.222 0.124 1.132 0.253 1.02 0.474 0.777 0.674 0.578 0.889 0.184 0.789-0.209 0.774-0.478 0.512-0.854 0.277-1.038 0.128-1.136 9e-3 -1.253 0.017-1.355-0.056-1.346-8e-3 -1.315-0.095-1.335-0.178-1.333-0.274-1.368-0.372-1.353-0.449-1.277-0.452-1.016-0.405-0.749-0.332-0.498-0.155-0.171-1.208 0.125-0.186 0.284v0.598l0.149 0.553 0.197 0.652 0.346 0.732 0.488 0.721 0.62 0.604 0.942 0.785 0.565-0.484-0.601-1.017-0.322-0.692-0.338-0.633-0.24-0.564-0.159-0.527-0.084-0.332v0.071l-0.069 0.106-1.208 0.125 0.081 0.066 0.257 0.324 0.417 0.608 0.49 0.865 0.493 1.139 0.392 1.238 0.257 1.281 0.175 1.257 0.083 1.256-8e-3 1.275-0.056 1.302-0.162 1.297-0.166 1.159-0.225 0.923-0.254 0.672-0.193 0.263-0.168 0.111-0.095 0.028 5e-3 6e-3 -0.09-0.07-0.173-0.282-0.158-0.628-0.112-0.931-0.034-1.074 0.041-1.135 0.119-1.045 0.113-0.923 0.103-0.735 0.103-0.597 0.056-0.494-0.033-0.151-0.044-0.04-1.151-0.275 0.082 0.029 0.094 7e-3 0.073 0.129 0.09 0.099 0.042 0.076 0.042 0.257" __comx="348.06" __comy="203.539" __timestamp="0x1963affb781"/><path class="write-flat-pen" transform="translate(10.98,2.061)" d="m340.9 194.5-0.231 0.4-0.076 0.269-0.055 0.421 0.038 0.688 0.132 0.798 0.192 1.033 0.201 1.159 0.266 1.263 0.309 1.281 0.395 1.184 0.483 0.944 0.554 0.765 0.601 0.508 0.484 0.228 0.556 0.213 0.749-0.188 0.431-0.46 0.289-0.44 0.231-0.618 0.19-0.624 0.271-0.784 0.303-0.977 0.325-1.019 0.337-1.036 0.227-0.955 0.118-0.686 0.082-0.502-0.053-0.313-0.087-0.087-1.375 0.694 0.305 0.043 0.892-0.048 0.239-0.785-0.478-0.465 0.068-0.132-1.375 0.694-0.087 0.087-0.053 0.099-0.096 0.324-0.115 0.668-0.187 0.814-0.311 0.965-0.323 1.04-0.286 0.966-0.256 0.806-0.163 0.613-0.122 0.383-0.064 0.15 0.075-0.049 0.338-0.068 0.025 0.035-0.222-0.067-0.279-0.198-0.389-0.472-0.401-0.704-0.373-0.995-0.339-1.189-0.32-1.211-0.272-1.137-0.277-1.03-0.221-0.73-0.14-0.549-0.055-0.346-0.076-0.142 0.016-0.339" __comx="355.391" __comy="203.539" __timestamp="0x1963affb8cf"/><path class="write-flat-pen" transform="translate(10.98,2.061)" d="m353.9 199.3 0.058-0.247 0.067-0.089 0.075-0.118 0.085-0.167 0.119-0.169 0.076-0.312-0.058-0.447-0.216-0.35-0.291-0.302-0.446-0.236-0.457-0.114-0.518-0.068-0.699 0.127-0.668 0.347-0.627 0.572-0.443 0.872-0.252 0.877-0.144 0.966 0.03 0.933 0.068 0.847 0.339 0.831 0.663 0.611 0.865 0.276 0.859-0.092 0.822-0.322 0.691-0.496 0.589-0.582 0.442-0.618 0.363-0.687 0.229-0.672 0.104-0.577 0.077-0.439 1e-3 -0.523-0.135-0.267-1.838 0.166-0.089 0.31-0.032 0.539-0.062 0.696 0.033 1.004 0.098 1.03 0.24 1.082 0.434 0.987 0.656 0.735 0.759 0.381 1.312 0.161 0.305-1.154-0.96-0.438-0.183-0.267-0.228-0.386-0.214-0.603-0.171-0.802-0.08-0.851-0.026-0.822 0.055-0.6 0.027-0.345 0.031-0.101-1.838 0.166-0.076-0.151 1e-3 -0.108-0.04 0.267-0.074 0.424-0.124 0.387-0.226 0.434-0.264 0.383-0.354 0.36-0.368 0.268-0.356 0.148-0.2 0.028-0.077-0.019-0.043-0.037-0.075-0.169-0.048-0.507-0.028-0.718 0.092-0.682 0.159-0.593 0.205-0.423 0.196-0.196 0.216-0.123 0.185-0.052 0.188-7e-3 0.191 3e-3 0.085 1e-3 0.062-7e-3 0.021-0.055 0.059-0.036 0.076 0.041 0.061 0.184 0.085 0.244 0.075 0.118 0.067 0.089 0.058 0.247" __comx="364.451" __comy="203.539" __timestamp="0x1963affba91"/><path class="write-flat-pen" transform="translate(10.98,2.061)" d="m365.9 198.4-0.207-0.266 0.037-0.109-0.04-0.263-0.133-0.353-0.092-0.355-0.231-0.472-0.379-0.412-0.414-0.308-0.613-0.228-0.75 0.016-0.72 0.355-0.638 0.572-0.597 0.809-0.583 0.994-0.578 1.127-0.455 1.248-0.303 1.222-0.076 1.221 0.378 1.098 0.674 0.885 0.974 0.608 1.106 0.32 1.153 0.158 1.212-0.071 1.063-0.34 1.377-0.73-0.296-0.948-1.455 0.156-0.88 0.013-0.905-0.013-0.852-0.137-0.717-0.207-0.441-0.276-0.268-0.352-0.15-0.433 0.04-0.66 0.228-0.957 0.367-1.048 0.484-0.994 0.476-0.891 0.404-0.602 0.304-0.312 0.164-0.114 0.073-0.043 0.154 5e-3 0.176 0.048 0.207 0.116 0.184 0.176 0.203 0.292 0.278 0.294 0.197 0.21 0.212 0.124 0.383 0.179" __comx="374.119" __comy="203.539" __timestamp="0x1963affbbce"/><path class="write-flat-pen" transform="translate(10.98,2.061)" d="m368 197.7-0.381 0.264-0.203 0.158-0.174 0.247-0.112 0.484 0.133 0.567 0.243 0.603 0.356 0.625 0.43 0.676 0.471 0.693 0.502 0.701 0.585 0.625 0.621 0.554 0.68 0.379 0.62 0.194 0.693 0.065 0.679-0.224 0.538-0.427 0.434-0.586 0.364-0.684 0.382-0.647 0.439-0.627 0.383-0.591 0.383-0.551 0.392-0.494 0.349-0.474 0.232-0.404 0.271-0.346 0.257-0.279 0.177-0.105 0.186-0.029 0.181-0.035 0.598-0.453-0.476-0.578-1.196 0.118-0.094 0.037-0.203 0.207-0.363 0.468-0.291 0.701-0.372 0.847-0.433 1.099-0.546 1.407-0.654 1.688-0.837 1.997-0.862 2.24-0.984 2.45-0.896 2.503-0.777 2.393-0.577 2.122-0.34 1.797-0.089 1.438 0.193 1.133 0.454 1.712 1.951-0.682-0.639-1.414 0.018-0.751 0.144-1.152 0.307-1.619 0.543-1.997 0.751-2.318 0.872-2.441 0.959-2.436 0.844-2.235 0.811-2.009 0.641-1.725 0.516-1.42 0.39-1.08 0.337-0.859 0.179-0.536 0.168-0.296 0.15-0.266 0.022-0.138-1.196 0.118-0.418-0.52 0.539-0.394 6e-3 0.143-0.109 0.207-0.117 0.306-0.157 0.369-0.198 0.418-0.179 0.422-0.298 0.468-0.375 0.507-0.381 0.566-0.381 0.588-0.445 0.61-0.502 0.529-0.578 0.378-0.508 0.178-0.404 0.043-0.263 0.012-0.25-0.051-0.322-0.1-0.379-0.21-0.438-0.388-0.473-0.492-0.441-0.595-0.471-0.664-0.454-0.62-0.35-0.492-0.23-0.398-0.1-0.198-0.054-0.106-0.058-0.106-0.083-0.078 0.175-0.292" __comx="383.946" __comy="203.539" __timestamp="0x1963affbdc2"/><path class="write-flat-pen" d="m406.9 198.4 0.051-0.368 0.065-0.324 0.065-0.382 0.063-0.413 0.051-0.206 0.059-0.087h-1.031l-0.054 0.169-5e-3 0.43 0.095 0.792 0.146 1.183 0.208 1.485 0.269 1.685 0.249 1.569 0.259 1.422 0.317 1.196 0.452 0.88 0.499 0.626 0.642 0.435 0.889 8e-3 0.533-0.603 0.199-0.687 6e-3 -0.723-0.103-0.82-0.317-0.853-0.456-0.814-0.519-0.803-0.565-0.804-0.586-0.853-0.608-0.87-0.564-0.907-0.531-0.953-0.47-1.05-0.39-1.144-0.301-1.171-0.186-1.19-0.072-1.148 0.068-1.027 0.145-0.917 0.222-0.656 0.295-0.485 0.32-0.359 0.325-0.189 0.518-0.129 0.833-0.077h1.088l1.301 0.056 1.364 0.167 1.349 0.303 1.168 0.409 0.998 0.49 0.754 0.47 0.513 0.452 0.266 0.371 0.096 0.292-0.03 0.245-0.141 0.279-0.292 0.347-0.559 0.396-0.716 0.454-0.855 0.458-0.961 0.449-1.057 0.453-1.028 0.398-1.009 0.356-0.807 0.329-0.669 0.256-0.525 0.288-0.251 0.215 0.012 1.553 0.345 0.243 0.706 0.106 0.794-6e-3 1.089-0.054 1.887-0.086 0.03-1.291-1.878-0.174-1.032-0.112-0.617-0.126-0.12-0.069 0.05 7e-3 0.012 1.553 0.105-0.079 0.239-0.123 0.568-0.216 0.783-0.319 0.992-0.35 1.093-0.424 1.118-0.489 1.044-0.493 0.968-0.543 0.816-0.547 0.794-0.608 0.592-0.77 0.328-0.838 0.031-0.934-0.319-0.886-0.557-0.746-0.782-0.669-0.956-0.589-1.178-0.568-1.364-0.475-1.536-0.345-1.521-0.186-1.409-0.061h-1.208l-1.051 0.097-0.894 0.223-0.792 0.459-0.622 0.703-0.473 0.81-0.306 0.993-0.149 1.142-0.052 1.21 0.107 1.326 0.226 1.339 0.347 1.303 0.436 1.272 0.53 1.184 0.586 1.052 0.614 0.974 0.629 0.899 0.589 0.854 0.555 0.786 0.481 0.729 0.37 0.656 0.211 0.562 0.075 0.533 6e-3 0.394-0.037 0.139 0.18-0.192 0.3 8e-3 -0.064-0.034-0.265-0.316-0.316-0.593-0.272-0.98-0.269-1.347-0.283-1.552-0.32-1.669-0.261-1.459-0.207-1.171-0.142-0.74-0.063-0.334-0.054-0.126h-1.031l0.059 0.087 0.051 0.206 0.063 0.413 0.065 0.382 0.065 0.324 0.051 0.368" __comx="411.198" __comy="201.478" __timestamp="0x1963affc143"/><path class="write-flat-pen" d="m421.2 199.1-0.489-0.089-0.041-0.081-0.17-0.105-0.209-0.06-0.271-0.091-0.517 0.047-0.581 0.161-0.609 0.356-0.717 0.454-0.798 0.671-0.822 0.869-0.722 1.004-0.531 1.162-0.288 1.198-2e-3 1.172 0.267 1.123 0.624 0.999 0.984 0.739 1.217 0.398 1.263 5e-3 1.284-0.273 1.242-0.51 1.076-0.732 0.915-0.773 0.691-0.863 0.44-0.867 0.192-0.962-0.187-0.906-0.421-0.803-0.714-0.62-0.865-0.369-0.891-0.186-0.891-0.037-0.813 0.073-0.703 0.162-0.559 0.291-0.318 0.291-0.701 0.813 0.96 0.828 1.111-0.047 0.144-1.17-0.531-0.249 0.785 0.65-0.526 0.639 0.093-4e-3 0.209-0.062 0.356-0.075 0.541-0.047 0.583 0.025 0.52 0.109 0.372 0.159 0.17 0.147 0.106 0.198 0.05 0.211-0.044 0.275-0.208 0.428-0.426 0.549-0.675 0.584-0.809 0.563-0.876 0.37-0.896 0.2-0.738 5e-3 -0.609-0.192-0.428-0.319-0.26-0.416-0.144-0.584-2e-3 -0.712 0.182-0.804 0.353-0.839 0.515-0.764 0.648-0.721 0.617-0.563 0.578-0.43 0.391-0.292 0.241-0.134 0.131-0.069 0.143-0.032 0.202-0.06 0.183-0.046 0.134-0.081 0.489-0.089" __comx="419.559" __comy="201.478" __timestamp="0x1963affc2c3"/><path class="write-flat-pen" d="m428.1 192.7 0.128-0.331 0.114-0.392 0.119-0.605 0.198-0.785 0.135-0.771 0.239-0.669 0.335-0.669 0.273-0.566 0.356-0.502 0.299-0.454 0.184-0.324 0.131-0.174 0.087-0.119 0.047-0.047-1.43-0.346-0.072 0.089-0.038 0.208-0.056 0.434-0.135 0.753-0.192 1.159-0.276 1.429-0.306 1.685-0.304 1.817-0.242 1.894-0.155 1.923-0.094 1.944-0.03 1.874 0.092 1.69 0.192 1.481 0.392 1.211 0.613 0.939 0.774 0.559 0.834 0.339 0.928 0.085 0.866-0.159 0.76-0.337 0.669-0.544 0.536-0.607 0.432-0.643 0.339-0.663 0.229-0.672 0.12-0.584 0.109-0.464 0.185-0.473 0.234-0.449 0.281-0.397 0.23-0.261 0.121-0.095-0.317 0.086-0.221-0.229 0.012 0.223-6e-3 0.707 2e-3 1.045-0.024 1.118 0.011 1.234 0.15 1.134 0.2 0.964 0.459 0.885 0.918 0.499 0.981-0.321 0.671-0.705 0.471-0.895 0.369-1.102 0.199-1.252 0.095-1.303-0.095-1.364-0.227-1.377-0.388-1.381-0.519-1.308-0.5-1.263-0.46-1.18-0.315-0.988-0.227-0.82-0.104-0.467-0.115-0.951-0.762 1e-3 -0.815 0.922 0.035 0.28 0.11 0.468 0.217 0.622 0.472 0.688 0.623 0.572 0.986 0.869 0.736-0.633-0.71-1.101-0.378-0.607-0.233-0.491-0.136-0.379-0.068-0.296-0.023-0.193-0.815 0.922-0.704 1e-3 -0.054-0.42 0.129 0.592 0.246 0.89 0.333 1.071 0.482 1.236 0.501 1.266 0.481 1.224 0.318 1.21 0.188 1.214 0.08 1.168-0.08 1.113-0.158 1.044-0.279 0.841-0.293 0.575-0.213 0.237 0.101-0.026 0.15 0.088-0.13-0.235-0.153-0.684-0.145-0.983-0.047-1.123-0.024-1.12-0.056-1.072-0.064-0.825-0.167-0.661-0.574-0.64-0.728 0.202-0.41 0.32-0.359 0.387-0.367 0.483-0.352 0.493-0.346 0.528-0.302 0.54-0.236 0.533-0.24 0.448-0.308 0.454-0.332 0.474-0.348 0.397-0.332 0.278-0.302 0.136-0.368 0.074-0.367-0.032-0.345-0.134-0.285-0.205-0.271-0.415-0.256-0.79-0.161-1.229-0.086-1.548 0.028-1.775 0.084-1.884 0.14-1.847 0.228-1.813 0.285-1.774 0.283-1.67 0.255-1.457 0.161-1.198 0.098-0.837 6e-3 -0.566-0.038-0.261-0.072-0.089-1.43-0.346-0.015 0.073-0.029 0.114-0.105 0.241-0.11 0.382-0.171 0.43-0.291 0.615-0.197 0.671-0.254 0.742-0.176 0.805-0.04 0.819-0.097 0.805 3e-3 0.628-6e-3 0.376-0.059 0.33" __comx="433.897" __comy="201.478" __timestamp="0x1963affc68a"/><path class="write-flat-pen" d="m446.6 198.1-0.14-0.441 0.078 0.108 0.072-0.367-0.595-0.678-0.631 0.169-0.225 0.064-0.335 0.109-0.499 0.298-0.477 0.416-0.501 0.51-0.511 0.729-0.482 0.793-0.453 0.897-0.372 0.943-0.216 0.991-0.037 0.936 0.169 0.924 0.473 0.85 0.703 0.57 0.791 0.414 0.895 0.276 0.858 0.194 0.893 0.146 0.968 0.08 0.97-0.207 1.35-0.622-0.315-1.173-1.355 0.104-0.62-0.029-0.681-0.156-0.814-0.149-0.732-0.159-0.637-0.196-0.446-0.233-0.239-0.194-0.116-0.209-0.064-0.371 0.021-0.537 0.137-0.657 0.276-0.705 0.369-0.751 0.402-0.68 0.373-0.566 0.325-0.37 0.287-0.293 0.207-0.172 0.196-0.127 0.128-0.11-0.456 0.107-0.475-0.558 0.072-0.25 0.078 0.166 0.38 0.63" __comx="445.33" __comy="201.478" __timestamp="0x1963affc7c8"/><path class="write-flat-pen" d="m452.6 197.9-0.271-0.132-0.203-0.063-0.295-0.073-0.336-0.084-0.44 0.05-0.399 0.425-0.09 0.508-0.035 0.493 0.069 0.643 0.147 0.742 0.25 0.818 0.294 0.837 0.377 0.865 0.438 0.783 0.555 0.706 0.68 0.53 0.733 0.408 0.829 0.264 0.734 0.075 0.72-0.093 0.652-0.35 0.442-0.496 0.356-0.605 0.366-0.904-0.448-0.342-0.744 0.548-0.466 0.275-0.322 0.093-0.232 3e-3 -0.281-0.035-0.387-0.041-0.466-0.147-0.442-0.24-0.382-0.296-0.325-0.411-0.33-0.574-0.329-0.722-0.296-0.752-0.281-0.713-0.205-0.611-0.165-0.477-0.096-0.329-0.09-0.081-0.163 0.072-0.087-0.07 0.195-0.084 0.295-0.073 0.15-0.063 0.249 4e-3" __comx="454.38" __comy="201.478" __timestamp="0x1963affc8d2"/><path class="write-flat-pen" d="m461 197.6 0.167-0.218 0.123 0.015 0.191-0.049 0.124-0.06-5e-3 0.105-1.059-0.178-0.131-0.178-0.022-0.058-0.103 0.312-0.21 0.487-0.253 0.774-0.333 1.038-0.44 1.376-0.636 1.749-0.806 2.052-0.983 2.3-1.066 2.5-1.068 2.538-0.943 2.33-0.832 2.047-0.616 1.723-0.381 1.404-0.109 1.173 0.268 1.261 0.815 0.095 0.541-1.082 0.36-0.948 0.444-1.245 0.617-1.631 0.819-2.017 0.938-2.32 1.053-2.526 1.055-2.506 0.96-2.35 0.784-2.129 0.598-1.843 0.386-1.451 0.256-1.08 0.158-0.757 0.143-0.572 0.017-0.336 0.094-0.411-0.189-0.298-1.059-0.178-0.064 0.163 4e-3 0.235 0.016 0.188 0.061 0.193 0.039 0.292" __comx="456.79" __comy="201.478" __timestamp="0x1963affc9bc"/></g><a target="_top" xlink:href="/privacy"><rect x="319.3" y="185.6" width="142.6" height="39.78" fill-opacity="0" stroke-opacity="0"/></a></g></g></svg>
