<?xml version="1.0" encoding="UTF-8"?>
<svg width="39.33mm" height="10.87mm" version="1.1" viewBox="0 0 39.33 10.87" xmlns="http://www.w3.org/2000/svg" xmlns:xlink="http://www.w3.org/1999/xlink"><g transform="translate(-91.81 -92.87)"><g class="hyperref" transform="matrix(.2646 0 0 .2646 8.7 6.838)" __timestamp="0x1963b06a95e"><g fill="#00f" stroke-width="2.4"><path class="write-flat-pen" transform="translate(10.84 2.268)" d="m315.4 339.2-0.337 0.087-0.359 0.144-0.493 0.168-0.663 0.174-0.604 0.084-0.579 0.028h-0.515l-0.365-0.056-0.191-0.047-0.088-0.087-0.021-0.104-0.029-0.133-0.016-0.259h-0.25l-0.016 0.286 0.029 0.161 0.037 0.191 0.206 0.208 0.282 0.07 0.4 0.061h0.544l0.6-0.03 0.633-0.091 0.69-0.182 0.508-0.185 0.347-0.151 0.318-0.097" __comx="324.018" __comy="341.805" __timestamp="0x1963b000154"/><path class="write-flat-pen" transform="translate(10.84 2.268)" d="m312 334.3 0.026-0.252 0.122-0.238 0.143-0.379 0.182-0.486 0.186-0.486 0.154-0.378 0.128-0.326 0.082-0.128 0.06-0.032-1.227-0.195-0.045 0.118-0.051 0.353-0.058 0.71 0.034 1.061 0.043 1.33 0.112 1.603 0.13 1.648 0.141 1.67 0.205 1.564 0.211 1.354 0.316 1.2 0.327 0.937 0.333 0.699 0.278 0.494 0.293 0.377 0.324 0.239 0.028-0.017-0.024-0.059 0.451-1.484-0.12 0.044-0.046 0.024-0.157-0.026-0.27-0.067-0.201-0.138-0.343-0.341-0.44-0.489-0.494-0.631-0.509-0.763-0.576-0.894-0.574-0.976-0.616-1.118-0.707-1.207-0.665-1.215-0.644-1.259-0.647-1.246-0.643-1.214-0.615-1.157-0.593-1.079-0.536-0.918-0.302-0.668-0.138-0.486 0.026-0.244 0.175-0.266 0.402-0.329 0.712-0.325 0.914-0.252 1.153-0.182 1.262-0.103 1.389 0.057 1.503 0.147 1.543 0.252 1.449 0.395 1.333 0.473 1.119 0.538 0.86 0.61 0.596 0.63 0.383 0.648 0.188 0.581 0.033 0.541-0.102 0.457-0.192 0.38-0.333 0.363-0.545 0.373-0.694 0.384-0.904 0.354-0.917 0.342-0.926 0.307-0.822 0.219-0.663 0.133-0.349 0.043 0.095 0.022 0.672 0.718-0.452 0.51 0.259-0.305 0.713-0.453 1.493-0.732-0.197-0.707-1.746 0.171-1.055 0.314-0.741 0.401-0.805 0.98 0.908 0.954 0.801 0.139 0.71-0.074 0.811-0.162 0.942-0.251 1.021-0.34 0.965-0.367 1.039-0.41 0.896-0.5 0.812-0.57 0.668-0.754 0.398-0.857 0.19-0.955-0.083-1.049-0.344-1.009-0.618-1-0.874-0.902-1.141-0.802-1.355-0.64-1.493-0.527-1.611-0.431-1.699-0.275-1.616-0.148-1.555-0.06-1.449 0.13-1.321 0.232-1.145 0.334-1.052 0.5-0.776 0.672-0.53 0.851-0.094 0.993 0.277 0.93 0.404 0.86 0.581 0.967 0.586 1.043 0.622 1.139 0.652 1.198 0.648 1.228 0.651 1.273 0.688 1.256 0.708 1.209 0.617 1.12 0.604 1.025 0.602 0.932 0.55 0.827 0.564 0.723 0.502 0.57 0.483 0.484 0.563 0.39 0.614 0.169 0.491 0.091 0.365-0.034 0.174-0.014 0.451-1.484-0.14-0.176-0.092-0.079 0.03 6e-3 -0.06-0.096-0.191-0.328-0.257-0.538-0.262-0.77-0.274-1.038-0.2-1.236-0.206-1.499-0.154-1.627-0.165-1.648-0.183-1.576-0.131-1.318-0.144-1.001-0.058-0.643-0.051-0.353-0.045-0.118-1.227-0.195 2e-3 0.146 0.024 0.225 8e-3 0.322-0.02 0.386-0.05 0.515-0.054 0.518-0.032 0.386-0.056 0.293 0.026 0.304" __comx="323.498" __comy="341.805" __timestamp="0x1963b0004b8"/><path class="write-flat-pen" transform="translate(10.84 2.268)" d="m323.8 339.4-0.071-0.287-2e-3 -0.207-0.021-0.249-0.055-0.315-6e-3 -0.139 0.034-1e-3 0.027-0.06-0.788-0.191-0.144 0.171 0.024 0.354 0.033 0.44 0.066 0.707 0.184 0.925 0.226 1.023 0.263 1.127 0.356 1.1 0.332 0.99 0.323 0.878 0.359 0.739 0.352 0.459 0.333 0.362 0.896 0.392 0.761-0.99-0.201-0.651-0.177-0.406-0.265-0.479-0.308-0.469-0.34-0.514-0.338-0.562-0.343-0.609-0.362-0.642-0.301-0.662-0.302-0.725-0.273-0.795-0.222-0.835-0.191-0.843-0.074-0.735 0.029-0.633 0.091-0.448 0.114-0.259 0.037-0.046-2e-3 1e-3 0.175-8e-3 0.417 0.105 0.664 0.214 0.833 0.362 0.923 0.418 0.971 0.393 0.995 0.32 0.929 0.194 0.821 0.019 1.122-0.028 0.136-0.777-1.009-0.4-0.652-0.334-1.667-0.723-0.914-0.371-0.903-0.408-0.931-0.402-0.809-0.259-0.758-0.189-0.767 0.054-0.708 0.292-0.494 0.602-0.297 0.683-0.145 0.789-0.029 0.899 0.1 0.972 0.224 0.983 0.248 0.93 0.316 0.915 0.345 0.803 0.347 0.753 0.403 0.712 0.363 0.628 0.371 0.613 0.365 0.548 0.281 0.412 0.205 0.347 0.117 0.242-0.084-0.298 0.586-0.754 0.601 0.272-0.079-0.049-0.238-0.247-0.289-0.498-0.324-0.77-0.374-0.953-0.411-1.021-0.326-1.049-0.302-0.982-0.231-0.84-0.109-0.647-0.084-0.444-0.037-0.057-0.082 0.051-0.788-0.191 0.027 0.06 0.034 0.116 0.111 0.214 0.12 0.274 0.098 0.224 0.114 0.204 0.158 0.274" __comx="337.679" __comy="341.805" __timestamp="0x1963b000721"/><path class="write-flat-pen" transform="translate(10.84 2.268)" d="m333.9 336.8-0.01-0.302-0.097-0.255-0.04-0.272-0.075-0.366-0.025-0.25 0.03-0.167 0.038-0.107-1.233-0.084-0.142 0.187-0.051 0.315-0.073 0.406-0.098 0.706-0.083 1.016-0.077 1.31-0.043 1.433-7e-3 1.521 0.124 1.428 0.223 1.347 0.378 1.1 0.511 0.871 0.702 0.75 1.051 0.145 0.822-0.517 0.509-0.808 0.29-1.017 0.117-1.1 0.017-1.171-0.053-1.294-0.058-1.351-0.123-1.448-0.212-1.51-0.33-1.621-0.44-1.672-0.446-1.676-0.471-1.593-0.494-1.357-0.411-1.017-0.317-0.673-0.198-0.332-0.07-0.103-1.478 0.612 0.057 0.284 0.237 0.397 0.262 0.496 0.446 0.724 0.561 0.748 0.528 0.77 0.545 0.815 0.644 1.026 0.467-0.187-0.249-1.206-0.281-1.012-0.414-0.937-0.44-0.841-0.38-0.691-0.266-0.504-0.115-0.193-1e-3 -8e-3 -1.478 0.612 0.046 0.071 0.155 0.257 0.33 0.564 0.473 0.926 0.623 1.233 0.591 1.467 0.493 1.62 0.444 1.628 0.317 1.556 0.199 1.437 0.056 1.375-0.058 1.301-0.112 1.235-0.161 1.066-0.178 0.901-0.238 0.635-0.197 0.251 0.054-0.048 0.228 0.028-0.124-0.135-0.315-0.541-0.269-0.785-0.188-1.127-0.113-1.279-7e-3 -1.422 0.019-1.394 0.039-1.28 0.033-0.985 0.022-0.705-0.014-0.478-0.051-0.038-0.084 0.067-1.233-0.084 0.097 0.071 0.15 0.186 0.208 0.22 0.22 0.281 0.197 0.259 0.197 0.156 0.113 0.198" __comx="344.929" __comy="341.805" __timestamp="0x1963b0008b0"/><path class="write-flat-pen" transform="translate(10.84 2.268)" d="m337.1 335.8 0.198 0.034-0.164-0.013 5e-3 0.154 0.093 0.318 1e-3 0.511 0.025 0.833 0.1 1.022 0.056 1.232 0.234 1.288 0.329 1.259 0.445 1.149 0.597 0.983 0.674 0.796 0.734 0.61 0.75 0.42 0.776 0.225 0.827-0.038 0.689-0.356 0.547-0.53 0.34-0.691 0.257-0.693 0.174-0.777 0.169-0.828 0.133-0.895 0.157-0.946 0.127-0.988 0.061-0.92 0.088-0.802 0.03-0.574 0.021-0.411-0.073-0.217h-1.9l0.031 0.179 0.511 0.955 1.393-0.46-0.065-0.791 0.031 0.117h-1.9l-0.073 0.135-0.04 0.356-0.028 0.543-0.087 0.788-0.059 0.906-0.106 0.897-0.137 0.938-0.104 0.87-0.125 0.762-0.12 0.635-0.154 0.486-0.133 0.31-0.101 0.118-0.075 0.055-0.115 0.02-0.283-0.066-0.429-0.228-0.503-0.394-0.502-0.558-0.466-0.723-0.377-0.91-0.319-1.099-0.239-1.124-0.119-1.183-0.195-1.038-0.154-0.815-0.174-0.726-0.322-0.447-0.228-0.261-0.401-0.188-0.5 0.262" __comx="352.126" __comy="341.805" __timestamp="0x1963b0009ee"/><path class="write-flat-pen" transform="translate(10.84 2.268)" d="m352.2 343.1 0.159-0.175 0.059-0.138 0.051-0.119 0.112-0.194 0.079-0.211 0.162-0.241 0.162-0.356 0.123-0.363 0.13-0.38 0.069-0.435 0.04-0.419 7e-3 -0.457-0.07-0.398-0.103-0.422-0.141-0.375-0.174-0.358-0.126-0.227-0.183-0.345-0.417-0.354-0.455-0.25-0.533-0.205-0.577-0.092-0.671-7e-3 -0.643 0.383-0.475 0.666-0.26 0.883-0.193 1.058-0.097 1.214-0.039 1.271 0.09 1.26 0.259 1.124 0.439 0.978 0.678 0.73 0.78 0.383 0.776 0.212 0.867-0.035 0.768-0.274 0.727-0.41 0.668-0.623 0.565-0.732 0.431-0.777 0.283-0.809 0.181-0.842 0.039-0.828-0.034-0.786-0.184-0.75-0.264-0.648-0.307-0.489-0.302-0.317-0.575-0.585-1.015 0.337-0.529 0.875 0.318 0.828 0.256 0.708 0.455 0.844 0.525 0.903 0.638 0.924 0.727 0.86 0.817 0.714 0.963 0.621 0.961 0.396 1.016 0.197 1.032-0.097 0.895-0.357 0.756-0.661 0.76-0.949-0.331-0.401-0.994 0.499-0.717 0.107-0.578-4e-3 -0.616-0.097-0.632-0.156-0.629-0.252-0.685-0.441-0.595-0.519-0.568-0.671-0.541-0.782-0.476-0.806-0.37-0.684-0.213-0.587 0.023 0.061-0.351 0.58-0.84 0.279-0.281-0.29 0.168 0.153 0.107 0.158 0.147 0.356 0.111 0.425 0.025 0.509-0.02 0.588-0.114 0.57-0.187 0.545-0.278 0.518-0.377 0.505-0.39 0.378-0.39 0.238-0.353 0.138-0.308 0.027-0.345-0.082-0.337-0.148-0.265-0.27-0.27-0.554-0.211-0.819-0.088-1.036 0.023-1.142 0.078-1.086 0.16-0.885 0.155-0.529 0.111-0.157-0.053 0.026 0.097-7e-3 0.304 0.028 0.293 0.09 0.251 0.103 0.114 0.057 0.111 0.128 0.169 0.184 0.179 0.231 0.154 0.211 0.13 0.287 0.108 0.249 0.065 0.307 0.04 0.345 0.01 0.332-0.048 0.326-0.052 0.343-0.074 0.291-0.133 0.29-0.037 0.258-0.067 0.221-8e-3 0.172 1e-3 0.098-0.02 0.194" __comx="366.281" __comy="344.991" __timestamp="0x1963b001b2b"/><path class="write-flat-pen" transform="translate(10.84 2.268)" d="m365.6 339.3 0.074-0.219 0.121-0.138 0.108-0.216 0.137-0.289 0.107-0.31-0.025-0.453-0.123-0.324-0.156-0.328-0.476-0.405-0.602-0.18-0.656-0.064-0.77 0.107-0.835 0.319-0.729 0.59-0.576 0.826-0.401 0.863-0.391 0.963-0.27 1.025-0.141 0.942 0.04 0.956 0.247 0.826 0.439 0.745 0.644 0.561 0.693 0.382 0.828 0.298 0.939 0.063 0.905-0.2 0.872-0.41 0.688-0.76 0.685-0.905-0.231-0.292-1.019 0.443-0.728 0.244-0.598 2e-3 -0.568-0.025-0.473-0.112-0.467-0.175-0.369-0.204-0.237-0.207-0.15-0.256-0.105-0.353-0.022-0.514 0.096-0.648 0.203-0.801 0.315-0.802 0.305-0.669 0.308-0.469 0.271-0.232 0.343-0.153 0.347-0.068 0.286-6e-3 0.104-5e-3 -3e-3 -0.052 0.077 0.025 0.113 0.032 0.091 0.017 0.107 0.101 0.079 0.3 0.108 0.195 0.063 0.156 0.074 0.264" __comx="374.275" __comy="344.991" __timestamp="0x1963b001c45"/><path class="write-flat-pen" transform="translate(10.84 2.268)" d="m368.5 338.4-0.277-0.318-0.055-0.109-0.303-0.282-0.661 0.433-0.05 0.544 0.032 0.407 0.103 0.584 0.301 0.628 0.439 0.659 0.554 0.689 0.652 0.723 0.721 0.659 0.746 0.592 0.756 0.531 0.782 0.341 0.748 0.204 0.696 0.035 0.626-0.227 0.745-0.478-0.177-0.5-0.756 0.051-0.375-0.168-0.424-0.14-0.547-0.207-0.571-0.249-0.598-0.411-0.669-0.529-0.632-0.575-0.585-0.634-0.505-0.606-0.387-0.516-0.227-0.373-0.134-0.358-0.084-0.241-0.05 0.13-0.428 0.258-0.125-0.166 0.123-0.051 0.312 0.086" __comx="381.928" __comy="344.991" __timestamp="0x1963b001d1f"/><path class="write-flat-pen" transform="translate(10.84 2.268)" d="m377.8 338.6 0.222-0.184 0.167-0.061 0.161-0.025 0.166-0.021-0.878-0.368-0.19-0.056-0.079 0.074-0.155 0.323-0.236 0.509-0.293 0.671-0.379 0.941-0.495 1.264-0.605 1.632-0.811 1.977-0.933 2.298-0.957 2.503-0.985 2.534-0.896 2.489-0.775 2.253-0.63 1.983-0.399 1.591-0.22 1.198-0.031 0.758 4e-3 0.783 0.421 0.293 1.182-0.053 0.069-0.336 0.319-0.901-0.623-0.444-0.714 0.548-0.284 0.075 1.182-0.053 0.301 0.176 0.062 0.073 0.089-0.654 0.191-1.04 0.369-1.469 0.604-1.903 0.757-2.222 0.872-2.459 0.958-2.527 0.924-2.503 0.893-2.294 0.779-2.025 0.574-1.665 0.447-1.268 0.327-0.944 0.238-0.683 0.176-0.553 0.081-0.325 0.096-0.337-0.19-0.231-0.878-0.368-0.07 0.212-0.013 0.212-0.011 0.176-0.114 0.265" __comx="384.514" __comy="344.991" __timestamp="0x1963b001e2a"/><path class="write-flat-pen" d="m408 338.1 0.077-0.325 0.187-0.273 0.148-0.409 0.151-0.356 0.098-0.074v0.083l-0.854-0.226 0.073 0.238 0.153 0.403 0.147 0.753 0.185 1.112 0.21 1.29 0.186 1.334 0.229 1.236 0.227 1.015 0.182 0.8 0.21 0.648 0.135 0.438 0.049 0.232-4e-3 0.025-2e-3 -7e-3 0.12-0.127 0.111-0.03 0.028-2e-3 -0.128-0.071-0.3-0.242-0.361-0.41-0.397-0.582-0.414-0.72-0.452-0.913-0.496-1.053-0.555-1.172-0.577-1.278-0.543-1.324-0.477-1.376-0.387-1.325-0.241-1.344-0.127-1.168 0.058-1.013 0.187-0.854 0.277-0.652 0.454-0.543 0.567-0.471 0.708-0.354 0.883-0.221 1.022-0.047 1.173 0.134 1.288 0.302 1.371 0.476 1.342 0.576 1.219 0.567 0.978 0.566 0.727 0.465 0.356 0.311 0.059 0.112-0.026-0.12-0.069 0.101-0.257 0.376-0.421 0.414-0.647 0.504-0.772 0.55-0.902 0.529-1.025 0.582-1.021 0.583-0.966 0.528-0.779 0.431-0.602 0.301-0.414 0.178-0.161 0.087-5e-3 0.024-0.205 1.792 0.294 0.105 0.521-0.036 0.528-0.073 1.413-0.144 0.037-1.089-1.382-0.239-0.472-0.132-0.127-0.094 0.058-0.015-0.205 1.792 0.232-0.034 0.309-0.15 0.412-0.175 0.693-0.346 0.811-0.45 0.977-0.534 1.038-0.593 1.035-0.597 0.983-0.588 0.876-0.629 0.768-0.613 0.638-0.649 0.391-0.624 0.342-0.663-0.084-0.946-0.53-0.711-0.644-0.515-0.863-0.536-1.081-0.613-1.314-0.608-1.427-0.603-1.515-0.524-1.477-0.345-1.417-0.16-1.336 0.07-1.235 0.31-1.06 0.53-0.845 0.704-0.724 0.872-0.429 1.055-0.225 1.147-0.058 1.283 0.164 1.365 0.29 1.483 0.439 1.443 0.524 1.447 0.574 1.386 0.602 1.313 0.562 1.182 0.505 1.068 0.49 0.968 0.47 0.812 0.488 0.713 0.523 0.59 0.523 0.406 0.52 0.282 0.559 0.057 0.581-0.146 0.356-0.364 0.235-0.477 0.055-0.564-0.129-0.533-0.16-0.504-0.201-0.589-0.171-0.732-0.242-0.986-0.244-1.176-0.225-1.318-0.263-1.301-0.226-1.125-0.206-0.895-0.258-0.539-0.164-0.231-0.854-0.226-0.175 0.199-0.138 0.458-0.086 0.47-0.03 0.414-0.046 0.375 0.077 0.42" __comx="411.045" __comy="342.723" __timestamp="0x1963b0021f5"/><path class="write-flat-pen" d="m419.1 340.2-0.389 0.144-0.158-0.021-0.178 5e-3 -0.229 0.019-0.299 0.017-0.398 0.115-0.421 0.201-0.476 0.331-0.457 0.498-0.464 0.524-0.48 0.676-0.424 0.753-0.316 0.778-0.15 0.897 0.232 0.864 0.522 0.777 0.823 0.492 0.927 0.313 1.086 0.122 1.148-0.053 1.17-0.152 1.166-0.326 1.089-0.471 0.867-0.572 0.737-0.729 0.396-0.857 0.186-0.853-0.138-0.951-0.43-0.826-0.59-0.682-0.758-0.478-0.8-0.348-0.872-0.277-0.902-0.128-0.786-0.116-0.702-9e-3 -0.437 0.064-0.177 0.097-0.375 1.631 0.212 0.029 0.952-0.162 0.115-1.046-0.622-0.336 0.092-0.029-0.375 1.631 0.177 0.097 0.389 0.064 0.535 0.049 0.684 0.12 0.746 0.108 0.602 0.192 0.554 0.241 0.362 0.228 0.232 0.26 0.159 0.292 0.04 0.228-0.05 0.268-0.135 0.318-0.322 0.33-0.545 0.371-0.796 0.355-0.897 0.263-0.948 0.142-0.915 0.064-0.736-0.056-0.547-0.156-0.294-0.155-0.126-0.165-0.063-0.195 0.025-0.34 0.157-0.517 0.282-0.6 0.342-0.561 0.362-0.476 0.307-0.386 0.234-0.2 0.227-0.152 0.188-0.118 0.232-0.103 0.302-0.156 0.233-0.174 0.136-0.196 0.297-0.326" __comx="419.456" __comy="342.723" __timestamp="0x1963b002385"/><path class="write-flat-pen" d="m427.7 327.7 0.049-0.244 0.144-0.175 0.228-0.373 0.21-0.398 0.258-0.304 0.192-0.216 0.1-0.077 0.051 0.017-0.842-0.136-0.041 0.158 0.026 0.113 9e-3 0.136 0.054 0.304 0.015 0.464-8e-3 0.683-0.056 0.915-0.137 1.25-0.222 1.526-0.309 1.809-0.338 1.978-0.304 2.094-0.184 1.977-0.124 1.837 0.092 1.611 0.3 1.296 0.419 1.05 0.597 0.859 0.638 0.564 0.648 0.42 0.771 0.283 0.831 0.085 0.845-0.135 0.768-0.447 0.592-0.655 0.516-0.71 0.599-0.8 0.652-0.878 0.624-0.849 0.581-0.825 0.435-0.748 0.284-0.566 0.121-0.28 4e-3 -3e-3 -0.594 0.212-0.201-0.377 0.031 0.211-0.027 0.523 0.065 0.736 0.103 0.811 0.227 0.721 0.276 0.608 0.47 0.474 0.795 0.326 0.664-0.39 0.546-0.403 0.353-0.75 0.203-0.845 0.125-0.806 0.122-0.909 0.091-1.012 0.036-1.065v-1.139l-0.125-1.307-0.241-1.32-0.208-1.311-0.27-1.201-0.203-0.933-0.131-0.651-0.143-0.361-1.45-0.067-0.121 0.239-0.083 0.626v0.748l-0.031 1.032 0.134 1.157 0.179 1.213 0.68 1.353 0.542-0.114 0.097-1.427 1e-3 -1.141-0.04-1.081 0.027-0.97v-0.667l0.034-0.254-1e-3 3e-3 -1.45-0.067 0.09 0.229 0.105 0.524 0.208 0.951 0.261 1.156 0.203 1.279 0.232 1.271 0.112 1.164v1.04l-0.026 0.994-0.083 0.931-0.115 0.859-0.112 0.726-0.149 0.625-0.116 0.251-0.16 0.128 0.074-0.037 0.206 0.089-0.062-0.054-0.136-0.276-0.185-0.516-0.133-0.663-0.114-0.618-0.027-0.594-0.144-0.495-0.379-0.733-0.768 0.273-0.349 0.408-0.174 0.426-0.247 0.493-0.388 0.668-0.539 0.765-0.613 0.799-0.701 0.771-0.696 0.67-0.601 0.527-0.47 0.346-0.291 0.142-0.272 0.043-0.348-0.035-0.349-0.128-0.352-0.228-0.362-0.32-0.345-0.495-0.286-0.715-0.231-1-0.083-1.333 0.112-1.696 0.168-1.909 0.281-2.028 0.313-1.966 0.277-1.843 0.192-1.592 0.096-1.341 6e-3 -1.027-0.069-0.79-0.102-0.653-0.182-0.463-0.166-0.333-0.152-0.123-0.099 0.041-0.842-0.136-0.065 0.133-0.078 0.218-0.103 0.253-0.211 0.406-0.143 0.482-0.129 0.395-0.089 0.294 0.049 0.332" __comx="433.319" __comy="342.723" __timestamp="0x1963b002783"/><path class="write-flat-pen" d="m448 339.1 0.089-0.252 0.116-0.075 0.08-0.338-0.031-0.404-0.166-0.317-0.199-0.339-0.389-0.297-0.433-0.267-0.535-0.176-0.777-0.189-0.872 0.144-0.861 0.381-0.784 0.725-0.602 0.9-0.5 1.015-0.403 1.145-0.237 1.174-0.103 1.109-0.037 0.989 0.07 0.99 0.333 0.891 0.594 0.775 0.877 0.501 0.963 0.325 1.056 0.171 1.153 0.033 1.192-0.133 1.13-0.363 1.017-0.558 1.187-0.947-0.347-0.694-1.391 0.342-0.984 0.148-0.933 0.165-0.926 0.045-0.91-0.026-0.767-0.124-0.627-0.206-0.36-0.205-0.174-0.226-0.136-0.346-0.046-0.6 0.021-0.834 0.071-0.954 0.178-0.944 0.303-0.918 0.384-0.808 0.398-0.631 0.391-0.396 0.376-0.205 0.307-0.093 0.402 0.048 0.345 0.057 0.273 0.086 0.201 0.059 0.154 0.072 0.129 0.036 0.089 7e-3 0.08 0.073 0.054 0.103 0.089 0.354" __comx="446.187" __comy="342.723" __timestamp="0x1963b002903"/><path class="write-flat-pen" d="m452.3 339-0.315-0.198-0.304-0.135-0.277-0.117-0.467-0.165-0.546 0.089-0.327 0.443 0.011 0.575 0.235 0.61 0.366 0.554 0.417 0.581 0.458 0.631 0.477 0.609 0.516 0.616 0.535 0.569 0.524 0.468 0.524 0.458 0.626 0.355 0.639 0.171 1.028-0.106 0.132-0.789-0.822-0.416-0.362-0.182-0.375-0.234-0.418-0.364-0.477-0.416-0.466-0.49-0.485-0.563-0.466-0.569-0.484-0.606-0.467-0.536-0.34-0.388-0.176-0.274-0.047-0.014-0.153 0.152-0.073-0.031 0.297 0.013h0.313l0.286-0.019 0.32 0.06" __comx="453.291" __comy="342.723" __timestamp="0x1963b002a0e"/><path class="write-flat-pen" d="m462.7 337.5 0.058-0.336-0.064 0.186-0.827-0.966-0.21 0.065-0.295 0.26-0.269 0.447-0.326 0.601-0.365 0.891-0.485 1.171-0.655 1.434-0.855 1.798-1.09 2.155-1.279 2.446-1.278 2.631-1.335 2.784-1.194 2.74-1.018 2.575-0.724 2.241-0.462 1.819-0.198 1.386 0.128 1.025 0.289 0.69 0.665 0.661 1.146-0.411-0.201-1.292h-1.042l-0.201 0.165 0.913-0.352 0.37 0.308-6e-3 -0.195-0.05-0.565 0.155-1.026 0.422-1.655 0.691-2.117 0.983-2.486 1.16-2.678 1.314-2.749 1.254-2.608 1.253-2.444 1.09-2.2 0.852-1.852 0.64-1.509 0.458-1.244 0.282-0.874 0.206-0.578 0.083-0.317-0.058-0.035-0.035-0.055-0.827-0.966-0.122 0.248 0.058 0.779" __comx="456.322" __comy="342.723" __timestamp="0x1963b002b3a"/></g><a target="_top" xlink:href="/privacy"><rect x="314.1" y="325.2" width="148.7" height="41.09" fill-opacity="0" stroke-opacity="0"/></a></g></g></svg>
