<?xml version="1.0" encoding="UTF-8"?>
<svg width="39.72mm" height="11.87mm" version="1.1" viewBox="0 0 39.72 11.87" xmlns="http://www.w3.org/2000/svg" xmlns:xlink="http://www.w3.org/1999/xlink"><g transform="translate(-91.81 -92.34)"><g class="hyperref" transform="matrix(.2646 0 0 .2646 8.562 25.17)" __timestamp="0x1963b068f2f"><g fill="#00f" stroke-width="2.4"><path class="write-flat-pen" transform="translate(10.8 -1.825)" d="m316.5 264.7-4e-3 -0.239 0.076-0.225 0.053-0.357 0.069-0.443-0.03-0.445-1e-3 -0.304-0.047-0.325 0.022-0.064 0.038 0.037 0.039-0.06h-1.464l-0.044 0.206 0.072 0.495 0.162 0.724 0.175 1.172 0.269 1.602 0.217 1.88 0.194 2.011 0.259 1.967 0.259 1.734 0.203 1.551 0.177 1.366 0.175 1.134 0.154 0.96 0.209 0.802 0.356 0.763 1.199 0.544 0.571-1.143-0.086-0.668-0.232-0.759-0.375-0.713-0.477-0.929-0.344 0.114 0.165 1.005-0.022 0.699-0.112 0.594-0.144 0.158 0.335-0.732 0.962 0.428 3e-3 -5e-3 -0.144-0.552-0.14-0.867-0.178-1.104-0.176-1.341-0.208-1.571-0.272-1.737-0.272-1.919-0.218-1.995-0.252-1.947-0.32-1.637-0.24-1.24-0.25-0.75-0.102-0.269-0.044-0.031h-1.464l0.039 0.06 0.038 0.212 0.139 0.23 0.128 0.206 0.119 0.224 0.145 0.323 0.069 0.38 0.115 0.349 0.076 0.248 0.119 0.257" __comx="328.299" __comy="267.843" __timestamp="0x1963affd339"/><path class="write-flat-pen" transform="translate(10.8 -1.825)" d="m308.4 267.6-0.351-0.102-0.36-0.146-0.596-0.209-0.678-0.255-0.576-0.326-0.374-0.367-0.233-0.429-0.128-0.547-0.06-0.616 0.116-0.65 0.244-0.708 0.375-0.699 0.495-0.657 0.499-0.638 0.554-0.556 0.655-0.565 0.768-0.532 0.905-0.564 1.044-0.479 1.257-0.405 1.47-0.305 1.659-0.196 1.71-0.057 1.626 0.111 1.414 0.299 1.229 0.423 0.93 0.579 0.705 0.639 0.419 0.626 0.219 0.673 0.086 0.717-0.079 0.761-0.155 0.77-0.299 0.705-0.395 0.66-0.462 0.612-0.548 0.507-0.62 0.459-0.617 0.305-0.564 0.187-0.516 0.089h-0.438l-0.328-0.058-0.09-0.014 0.025 0.125-0.022 0.158-0.2 0.267 0.353-0.497-0.757-0.906-0.906 0.554-0.316 0.679 0.215 0.747 0.436 0.594 0.733 0.281 0.676 0.12h0.796l0.841-0.147 0.848-0.283 0.914-0.463 0.85-0.658 0.747-0.73 0.6-0.862 0.486-0.868 0.411-1.005 0.198-1.053 0.096-1.065-0.147-1.109-0.37-1.091-0.702-1.022-1.002-0.893-1.25-0.775-1.536-0.52-1.649-0.349-1.849-0.125-1.881 0.063-1.816 0.215-1.648 0.343-1.453 0.479-1.252 0.579-1.038 0.673-0.88 0.644-0.76 0.73-0.622 0.739-0.501 0.777-0.506 0.813-0.393 0.949-0.225 0.944-0.062 0.937 0.177 0.857 0.284 0.748 0.473 0.63 0.63 0.459 0.777 0.322 0.792 0.157 0.641 0.085 0.408 0.032 0.384 2e-3" __comx="325.41" __comy="267.843" __timestamp="0x1963affd4fb"/><path class="write-flat-pen" transform="translate(10.8 -1.825)" d="m323.9 275.6 0.016-0.154 0.076-0.099 0.066-0.231 0.071-0.234 0.076-0.278 0.047-0.296 0.021-0.297 0.05-0.29-0.02-0.322 9e-3 -0.299-0.03-0.33-0.029-0.258-2e-3 -0.145 0.018-0.074 0.02 0.517-0.749 0.026-0.113-0.051 0.124 0.199 0.199 0.428 0.259 0.643 0.27 0.739 0.283 0.892 0.359 0.936 0.434 0.932 0.488 0.767 0.533 0.651 0.579 0.432 0.355 0.18 0.314 0.175 0.993 0.265 0.407-1.176-0.243-0.589-0.247-0.402-0.357-0.537-0.506-0.58-0.489-0.555-0.489-0.586-0.486-0.577-0.397-0.616-0.375-0.617-0.267-0.584-0.147-0.551-0.084-0.376 0.017-0.258 0.038-0.165 0.069-0.119 0.174-0.173 0.272-0.153 0.384-0.121 0.493-0.065 0.59 0.048 1.587 0.285 0.841 0.18 0.892 0.096 0.893 0.012 0.938-0.157 0.862-0.256 1.025-0.54-0.073-0.507-1.131-0.231-0.844-0.023-0.772-0.037-0.697-0.108-0.757-0.137-0.807-0.172-1.709-0.305-0.884-0.072-0.861 0.113-0.733 0.232-0.671 0.378-0.535 0.533-0.342 0.587-0.137 0.599-0.045 0.684 0.153 0.687 0.206 0.744 0.38 0.828 0.451 0.737 0.487 0.738 0.573 0.66 0.512 0.593 0.512 0.562 0.437 0.483 0.29 0.405 0.165 0.246-0.064-0.177 0.349-1.001 0.757 0.207-0.159-0.061-0.231-0.112-0.305-0.216-0.351-0.412-0.396-0.587-0.388-0.775-0.347-0.832-0.306-0.873-0.32-0.793-0.331-0.71-0.332-0.573-0.345-0.39-0.408-0.287-0.985 0.026 0.02 0.753 0.018 0.163 0.06 0.266 0.087 0.274 0.086 0.256 0.067 0.29 0.1 0.267 0.05 0.241 0.079 0.292 0.047 0.232 0.018 0.253 0.012 0.236 5e-3 0.183-0.041 0.134 0.016 0.222" __comx="339.291" __comy="270.659" __timestamp="0x1963affe507"/><path class="write-flat-pen" transform="translate(10.8 -1.825)" d="m336.5 270.5-0.355-0.25-0.055-0.097-0.07-0.119-0.11-0.118-0.083-0.115-0.071-0.094-0.367-0.242-0.587 0.333-0.404 0.36-0.207 0.494-0.228 0.543-0.242 0.726-0.163 0.835-0.159 0.959-0.096 1.034-0.036 1.075 0.062 1.068 0.235 1.035 0.37 0.94 0.594 0.757 0.675 0.555 0.85 0.33 0.896 1e-3 0.847-0.266 0.79-0.538 0.675-0.795 0.477-0.949 0.378-1.043 0.213-1.158 0.061-1.137-0.046-1.116-0.276-1.151-0.409-1.088-0.51-1.193-0.256 0.083 0.279 1.242 0.064 1.091-0.04 1.028-0.224 0.944-0.234 0.984-0.315 0.902-0.389 0.783-0.407 0.641-0.384 0.438-0.327 0.229-0.273 0.086-0.221 1e-3 -0.212-0.082-0.268-0.213-0.286-0.36-0.219-0.534-0.176-0.73-0.058-0.817 0.022-0.926 0.082-0.909 0.136-0.867 0.131-0.697 0.169-0.569 0.183-0.516 0.03-0.153-0.051 7e-3 -0.409 0.216-0.251-0.184 0.224-0.036 0.096-0.056 0.123-0.06 0.225 1e-3 0.065-0.097 0.267 0.061" __comx="347.623" __comy="270.659" __timestamp="0x1963affe68f"/><path class="write-flat-pen" transform="translate(10.8 -1.825)" d="m337.2 265-0.174-0.36-0.111-0.402-0.118-0.474-0.236-0.628-0.229-0.449-0.242-0.371-0.385-0.247-0.099-0.046-5e-3 3e-3 -1.133 1.107 0.075 0.141 0.183 0.238 0.234 0.246 0.429 0.307 0.946 0.618 0.71-0.764-0.644-0.859-0.218-0.398-0.177-0.223-0.053-0.057 0.017 0.021-1.133 1.107 0.115 0.065 0.076 0.013 0.026-0.014 0.115 0.044 0.299 0.257 0.412 0.431 0.355 0.352 0.359 0.304 0.342 0.258" __comx="346.616" __comy="270.659" __timestamp="0x1963affe714"/><path class="write-flat-pen" transform="translate(10.8 -1.825)" d="m340 267.6-0.118 0.702 0.091 0.41 0.095 0.57 0.202 0.939 0.297 1.087 0.332 1.168 0.379 1.186 0.515 1.103 0.494 0.922 0.516 0.732 0.522 0.495 0.502 0.348 0.457 0.167 0.568 0.085 0.651-0.258 0.366-0.425 0.217-0.484 0.121-0.442 0.143-0.503 0.104-0.593 0.128-0.679 0.13-0.865 0.035-0.913 0.03-0.871v-0.789l0.023-0.508 0.091-0.382-0.011-0.14-0.138 0.013-0.218-0.111 0.699 0.132 0.35-1.18-1.07-0.392-0.749 0.064-0.549 0.486-0.247 0.507-0.204 0.677-0.036 0.788v0.801l-0.028 0.836-0.024 0.797-0.106 0.725-0.108 0.674-0.071 0.524-0.093 0.439-0.057 0.325-0.016 0.102 0.13-0.13 0.239-0.08 0.095 0.026-0.074-0.011-0.203-0.121-0.3-0.272-0.368-0.505-0.448-0.784-0.485-0.956-0.386-1.052-0.377-1.127-0.35-1.034-0.267-0.884-0.199-0.609-0.146-0.238-0.118-0.491" __comx="354.549" __comy="270.659" __timestamp="0x1963affe8a5"/><path class="write-flat-pen" transform="translate(10.8 -1.825)" d="m354.9 270.4-0.056-0.217-0.035-0.153-0.023-0.158-0.105-0.247-0.129-0.22-0.113-0.236-0.273-0.301-0.3-0.183-0.268-0.194-0.362-0.171-0.286-0.141-0.349-0.195-0.66-0.081-0.723 0.23-0.66 0.503-0.662 0.744-0.53 0.988-0.376 0.989-0.248 1.068-2e-3 1.108 0.362 1.078 0.709 0.937 0.942 0.666 1.214 0.375h1.335l1.272-0.302 1.288-0.457 1.166-0.718 0.865-0.822 0.634-0.838 0.422-0.869 0.166-0.876-0.035-0.827-0.242-0.745-0.367-0.648-0.555-0.458-0.576-0.267-0.781-0.087-0.688 0.489-0.347 0.638-0.159 0.713-0.102 0.932 0.068 1.033 0.225 1.089 0.273 1.064 0.32 1.107 0.458 0.993 0.643 0.857 0.912 0.516 1.518 0.325 0.392-1.231-1.187-0.537-0.325-0.368-0.3-0.496-0.306-0.717-0.269-0.952-0.255-0.995-0.189-0.915-0.048-0.732 0.073-0.658 0.077-0.345 6e-3 -9e-3 -0.273 0.194-0.254-0.029 0.072 0.028 0.093 0.073 0.106 0.174 0.111 0.314 0.023 0.351-0.07 0.419-0.225 0.485-0.425 0.577-0.608 0.59-0.835 0.519-1.008 0.366-0.966 0.229h-0.844l-0.67-0.214-0.47-0.335-0.35-0.475-0.169-0.512-2e-3 -0.602 0.163-0.755 0.272-0.779 0.354-0.719 0.397-0.493 0.282-0.261 0.103-0.065 0.046-0.023 0.182 0.041 0.362 0.095 0.286 0.062 0.259 0.1 0.231 0.053 0.139 0.051 0.182 0.117 0.224 0.133 0.19 0.106 0.156 0.079 0.14 0.025 0.124 0.123" __comx="365.199" __comy="270.659" __timestamp="0x1963affeb0e"/><path class="write-flat-pen" transform="translate(10.8 -1.825)" d="m364 272.5 0.02-0.282 0.085-0.155 0.09-0.337 0.059-0.466 0.044-0.438-0.085-0.51-0.226-0.462-0.453-0.347-0.586-0.13-0.632 0.156-0.592 0.447-0.459 0.674-0.381 0.794-0.364 0.93-0.261 0.961-0.204 1.012v1.053l0.242 0.924 0.462 0.836 0.717 0.674 0.888 0.462 0.961 0.284 1.032 0.13 1.034-0.113 0.959-0.35 0.859-0.525 0.893-0.972-0.258-0.452-1.207 0.228-0.789 0.123-0.747 0.061-0.676 7e-3 -0.675-0.106-0.629-0.186-0.466-0.247-0.284-0.268-0.186-0.339-0.111-0.43v-0.595l0.149-0.756 0.208-0.804 0.283-0.779 0.266-0.618 0.189-0.326 0.056-0.084-0.101-0.018-0.116-0.072-0.038-0.111 0.068-0.051 0.148 0.137 0.106 0.268 0.118 0.418 0.09 0.311 0.085 0.198 0.134 0.295" __comx="374.834" __comy="270.659" __timestamp="0x1963affec19"/><path class="write-flat-pen" transform="translate(10.8 -1.825)" d="m369.4 271.3-0.271-0.208 0.034-0.121-0.09-0.15-0.812 0.275-0.166 0.167-0.066 0.333-0.045 0.422 0.112 0.599 0.177 0.628 0.28 0.702 0.364 0.69 0.378 0.706 0.502 0.67 0.538 0.607 0.587 0.488 0.523 0.424 0.553 0.339 0.593 0.211 0.614 0.016 0.667-0.161 0.726-0.568-0.165-0.528-0.744-0.108-0.334-0.161-0.27-0.159-0.291-0.142-0.328-0.192-0.419-0.34-0.475-0.396-0.401-0.452-0.382-0.509-0.328-0.589-0.345-0.606-0.247-0.535-0.176-0.489-0.125-0.343-0.045-0.226-0.066-0.02-0.108 0.047-0.812 0.275 0.026-0.091 0.096-0.059 0.445 0.15" __comx="382.078" __comy="270.659" __timestamp="0x1963affed05"/><path class="write-flat-pen" transform="translate(10.8 -1.825)" d="m379.7 271.4 0.087-0.212 0.136 0.054 0.16-0.094 0.103 0.019 0.067 5e-3 -0.768-1.222-0.373 0.083-0.291 0.417-0.199 0.358-0.273 0.527-0.358 0.755-0.466 1.024-0.553 1.262-0.672 1.561-0.705 1.754-0.728 1.989-0.717 2.094-0.742 2.158-0.713 2.248-0.709 2.239-0.706 2.265-0.705 2.201-0.668 2.051-0.57 1.798-0.427 1.39-0.252 1.02-0.039 1.172 1.195 0.222 0.357-0.965 0.454-0.807 0.573-1.375 0.667-1.796 0.686-2.068 0.71-2.216 0.706-2.269 0.707-2.236 0.699-2.227 0.732-2.139 0.694-2.087 0.684-1.955 0.652-1.721 0.623-1.557 0.506-1.27 0.418-1.039 0.289-0.773 0.196-0.536 0.095-0.29-0.113 0.122-0.198 0.025-0.768-1.222-0.049 0.125-0.075 0.252 0.043 0.142-0.042 0.232 0.087 0.511" __comx="385.266" __comy="271.6" __timestamp="0x1963affee1e"/><path class="write-flat-pen" d="m408 262.6 0.13 0.419 0.109 0.193 0.11 0.26 0.218 0.495 0.3 0.766 0.306 1.104 0.33 1.499 0.31 1.777 0.288 1.841 0.239 1.807 0.29 1.57 0.291 1.246 0.205 0.981 0.178 0.707 0.107 0.411 0.057 0.256 0.032 0.12 1.1-1.106-1e-3 -6e-3 -0.074-0.044-0.171-0.137-0.272-0.272-0.332-0.435-0.336-0.492-0.323-0.646-0.362-0.753-0.35-0.935-0.483-1.056-0.532-1.179-0.588-1.268-0.608-1.334-0.503-1.284-0.416-1.266-0.258-1.079-0.022-0.897 0.149-0.787 0.278-0.68 0.431-0.556 0.528-0.458 0.583-0.313 0.673-0.187 0.804-0.075 0.909 0.027 1.051 0.113 1.109 0.196 1.099 0.283 1.074 0.315 0.954 0.348 0.751 0.254 0.423 0.214-0.16-0.095-0.013-0.641 0.053-0.074-0.43 0.245-0.803 0.376-1.037 0.451-1.195 0.493-1.218 0.501-1.164 0.507-0.996 0.453-0.78 0.393-0.489 0.246-0.401 0.23-0.17 0.136-0.114 1.521 0.296 0.277 0.631 0.159 0.762 0.127 1.064 0.131 1.237 0.028 1.687-0.031 0.096-0.707-1.61-0.48-1.121-0.325-0.937-0.338-0.649-0.226-0.078-0.078 0.063 0.04-0.114 1.521 0.063-0.039 0.247-0.126 0.454-0.224 0.751-0.371 0.947-0.431 1.132-0.493 2.415-1.008 1.084-0.491 0.904-0.45 0.748-0.461 0.642-0.722-0.013-1.114-0.807-0.565-0.697-0.318-0.839-0.274-0.989-0.358-1.164-0.332-1.197-0.306-1.245-0.219-1.186-0.12-1.092-0.032-1.081 0.1-1.033 0.286-0.949 0.51-0.826 0.721-0.689 0.914-0.428 1.088-0.204 1.156 0.036 1.279 0.332 1.337 0.469 1.382 0.556 1.365 0.629 1.377 0.587 1.264 0.53 1.175 0.459 1.003 0.356 0.95 0.402 0.837 0.383 0.766 0.431 0.629 0.432 0.565 0.434 0.434 0.36 0.274 0.337 0.193 0.177 0.052 1.1-1.106-0.026-0.055-0.063-0.217-0.129-0.411-0.175-0.646-0.206-0.962-0.299-1.228-0.299-1.494-0.289-1.784-0.36-1.867-0.396-1.814-0.437-1.564-0.458-1.192-0.468-0.824-0.368-0.506-0.304-0.329-0.186-0.04-0.179-0.216" __comx="412.365" __comy="273.424" __timestamp="0x1963afff1d2"/><path class="write-flat-pen" d="m421.5 268.3-0.262 0.107-0.222-3e-3 -0.294 0.169-0.292 0.106-0.364 0.125-0.434 0.195-0.451 0.175-0.522 0.283-0.495 0.411-0.482 0.438-0.49 0.596-0.345 0.674-0.261 0.737-0.128 0.818 0.115 0.857 0.333 0.8 0.643 0.74 0.911 0.489 0.944 0.265 1.028 0.166 1.116-0.043 1.07-0.216 1.013-0.372 0.898-0.592 0.746-0.661 0.502-0.739 0.296-0.764 6e-3 -0.881-0.455-0.755-0.543-0.546-0.74-0.432-0.895-0.383-1.004-0.268-1.06-0.187-1.049-0.156-1.02-0.028-0.735 0.043-0.764 0.119-0.994 0.799 0.409 1.282 0.745 0.288 0.674 0.168 1.527-0.032 0.134-1.196-1.259-0.344-0.327-0.244 0.156-7e-3 0.293 0.871-0.524 0.442 0.12 3e-3 0.56-0.015 0.806 0.03 0.894 0.139 0.941 0.166 0.764 0.204 0.633 0.264 0.38 0.215 0.163 0.16 0.014 9e-3 6e-3 -0.117-0.057 0.178-0.204 0.323-0.433 0.398-0.572 0.408-0.636 0.276-0.756 0.195-0.769 0.077-0.737-0.071-0.646-0.146-0.442-0.217-0.241-0.264-0.14-0.317-0.06-0.38 0.047-0.419 0.153-0.5 0.183-0.443 0.278-0.404 0.341-0.388 0.331-0.353 0.301-0.248 0.374-0.236 0.392-0.275 0.342-0.228 0.356-0.309 0.175-0.301 0.073-0.182 0.158-0.305" __comx="421.256" __comy="273.424" __timestamp="0x1963afff351"/><path class="write-flat-pen" d="m430.2 263.7 0.057-0.391 0.093-0.494 0.12-0.639 0.123-0.822 0.112-0.668 0.107-0.568 0.064-0.437 0.03-0.296 0.069-0.137 0.057-0.118-1.356-0.726-0.381 0.222-0.213 0.663-0.182 0.696-0.27 1.12-0.234 1.518-0.225 1.874-0.213 2.088-0.121 2.171-0.117 1.982-0.062 1.754 0.134 1.481 0.342 1.233 0.724 1.014 0.922 0.584 0.963 0.319 1.031 0.039 0.939-0.188 0.926-0.357 0.837-0.525 0.801-0.624 0.692-0.742 0.569-0.785 0.475-0.737 0.422-0.69 0.343-0.624 0.272-0.543 0.186-0.373-0.109 0.25-0.977 0.011-0.117-0.301 0.074 0.391 0.086 0.622 0.114 0.725 0.048 0.784 0.175 0.791 0.283 0.675 0.322 0.602 0.815 0.459 0.942-0.228 0.421-0.622 0.287-0.599 0.186-0.847 0.064-0.897 0.063-0.99 0.034-1.095-0.093-1.258-0.253-1.278-0.374-1.256-0.463-1.209-0.488-1.068-0.374-0.774-0.229-0.562-0.141-0.324-0.052-0.14-1.322 1.144-0.141-0.071 0.013 0.017 0.23 0.383 0.332 0.609 0.373 0.759 0.413 0.861 0.521 0.84 0.576 0.778 0.778 0.528 1.024 0.315 0.285-0.438-0.592-0.738-0.281-0.589-0.308-0.696-0.36-0.808-0.354-0.845-0.391-0.831-0.374-0.686-0.301-0.501-0.34-0.452-0.258-0.129-1.322 1.144 0.064 0.213 0.154 0.382 0.241 0.613 0.393 0.816 0.454 0.995 0.417 1.087 0.336 1.098 0.216 1.076 0.085 1.041-0.028 0.964-0.053 0.952-0.052 0.751-0.109 0.507-0.128 0.285 0.068-0.091 0.473-0.111 0.284 0.165-0.031-0.046-0.187-0.442-0.12-0.504-0.072-0.748-0.177-0.807-0.15-0.673-0.163-0.493-0.296-0.829-1.21 0.011-0.287 0.661-0.167 0.333-0.259 0.516-0.305 0.554-0.4 0.605-0.468 0.617-0.551 0.572-0.603 0.492-0.669 0.439-0.636 0.355-0.602 0.232-0.534 0.107-0.501-0.02-0.449-0.154-0.373-0.238-0.276-0.397-0.189-0.71-0.103-1.171 0.058-1.601 0.116-1.962 0.116-2.129 0.198-2.031 0.19-1.837 0.177-1.425 0.199-1.059 0.112-0.658-0.035 0.016-0.206 0.106-1.356-0.726 0.057 0.118 0.069 0.216 0.092 0.29 0.064 0.331 0.045 0.549 0.054 0.685 0.064 0.829 0.062 0.656 0.093 0.507 0.057 0.391" __comx="434.588" __comy="273.424" __timestamp="0x1963afff694"/><path class="write-flat-pen" d="m447.1 270.4 0.288-0.23 0.192-0.034 0.088-0.015 0.397-0.313-0.418-0.723-0.333-0.19-0.202-0.086-0.294-0.12-0.376-0.039-0.507 0.01-0.559 0.206-0.527 0.294-0.55 0.452-0.565 0.572-0.555 0.629-0.553 0.74-0.419 0.817-0.249 0.933 0.043 0.974 0.342 0.897 0.583 0.833 0.919 0.68 1.037 0.428 1.144 0.301 1.224 0.132 1.337-3e-3 1.392-0.201 1.501-0.411 1.518-0.712 1.443-0.9 1.286-0.986 1.143-1.043 1.142-1.037-0.292-0.393-1.31 0.787-1.331 0.667-1.421 0.6-1.442 0.632-1.368 0.466-1.268 0.295-1.137 0.152-1.079-3e-3 -0.956-0.104-0.857-0.226-0.669-0.277-0.438-0.324-0.24-0.342-0.131-0.34-0.015-0.321 0.104-0.42 0.229-0.478 0.389-0.555 0.446-0.55 0.439-0.487 0.33-0.315 0.24-0.175 0.146-0.088 0.141-0.048 0.093-0.039 0.178-3e-3 0.151-0.028-0.159-0.129-0.298-0.548 0.277-0.193 0.03 0.101 0.076 0.082-0.23 0.288" __comx="449.951" __comy="273.424" __timestamp="0x1963afff7d0"/><path class="write-flat-pen" d="m454.8 267.2-0.103-0.302-0.027-0.281-0.145-0.34-0.15-0.296-0.263-0.284-0.616-0.193-0.515 0.458-0.221 0.4-0.122 0.504-0.04 0.713 0.184 0.786 0.305 0.843 0.472 0.9 0.604 0.887 0.731 0.839 0.876 0.708 0.902 0.555 0.887 0.319 0.797 0.154 0.797-0.027 0.806-0.286 0.974-0.659-0.33-0.827-1.032 0.14-0.489-0.049-0.436-0.147-0.56-0.141-0.582-0.209-0.629-0.387-0.656-0.529-0.564-0.631-0.513-0.703-0.412-0.69-0.284-0.63-0.169-0.451-0.04-0.346-6e-3 -0.202-0.043-0.011-0.279 0.221-0.383-0.135 0.031-0.048 0.203 0.115 0.269 0.133 0.206 0.13 0.284 0.21" __comx="456.724" __comy="273.424" __timestamp="0x1963afff8ca"/><path class="write-flat-pen" d="m463.9 265.2-0.308 0.451-0.11-5e-3 -0.157 0.11-0.176 0.221-0.24 0.309-0.342 0.622-0.344 0.804-0.471 1.132-0.579 1.438-0.774 1.706-0.896 1.998-0.954 2.159-0.93 2.265-0.809 2.19-0.636 2.028-0.429 1.758-0.223 1.478 0.019 1.153 0.117 0.888 0.377 0.612 0.65 0.609 1.048-0.441-0.089-1.2h-1.213l-0.089 0.191 0.869-0.383 0.355 0.256 0.024-0.155 1e-3 -0.465 0.019-0.907 0.188-1.229 0.397-1.6 0.601-1.916 0.778-2.107 0.897-2.21 0.931-2.138 0.868-2.008 0.758-1.769 0.542-1.505 0.409-1.164 0.245-0.786 0.189-0.554 0.113-0.338 0.06-0.252 0.018-0.185-0.052-0.121 0.185-0.508" __comx="460.139" __comy="273.424" __timestamp="0x1963afff9e6"/></g><a target="_top" xlink:href="/privacy"><rect x="314.6" y="253.9" width="150.1" height="44.85" fill-opacity="0" stroke-opacity="0"/></a></g></g></svg>
