<?xml version="1.0" encoding="UTF-8"?>
<svg width="39.34mm" height="10.27mm" version="1.1" viewBox="0 0 39.34 10.27" xmlns="http://www.w3.org/2000/svg" xmlns:xlink="http://www.w3.org/1999/xlink"><g transform="translate(-91.81 -93.13)"><g class="hyperref" transform="matrix(.2646 0 0 .2646 7.184 62.06)" __timestamp="0x1963b0658d7"><g fill="#00f" stroke-width="2.4"><path class="write-flat-pen" transform="translate(5.976,2.296)" d="m319.2 126.5 0.036-0.252 0.141-0.276 0.245-0.443 0.277-0.627 0.31-0.654 0.311-0.769 0.257-0.754 0.181-0.664 0.248-0.573 0.154-0.407 0.093-0.13 0.066-0.039-1.235 0.072-0.106-0.062-0.039-0.035 4e-3 0.528 0.108 1.028 0.048 1.329 0.082 1.636 0.141 1.823 0.084 1.836 0.176 1.762 0.246 1.524 0.354 1.269 0.464 1.035 0.521 0.636 0.39 0.398 0.064 0.059-0.566-0.847 0.903-0.61 0.125-0.023-0.163-0.015-0.385-0.101-0.464-0.123-0.465-0.221-0.512-0.26-0.477-0.335-0.56-0.51-0.646-0.734-0.67-0.865-0.59-1.023-0.547-1.162-0.441-1.195-0.402-1.324-0.377-1.25-0.316-1.18-0.245-1.016-0.105-0.892 0.023-0.753 0.194-0.738 0.29-0.726 0.451-0.687 0.634-0.659 0.777-0.559 0.946-0.412 1.14-0.227 1.217-0.053 1.256 0.157 1.273 0.346 1.163 0.505 1.061 0.639 0.862 0.683 0.679 0.708 0.469 0.601 0.255 0.477 0.08 0.282-0.029 0.237-0.114 0.28-0.243 0.349-0.405 0.356-0.565 0.368-0.674 0.349-0.704 0.338-0.662 0.288-0.596 0.181-0.475 0.128-0.16 0.038 0.136 0.074 0.323 0.432-0.16 0.418-0.147-0.079 0.555-0.609-0.414-0.735-1.122 0.337-0.5 0.51-0.218 0.829 0.618 0.727 0.784 0.252 0.724-0.082 0.643-0.167 0.757-0.23 0.811-0.359 0.766-0.368 0.799-0.415 0.789-0.516 0.715-0.644 0.521-0.771 0.297-0.779 0.091-0.941-0.273-0.893-0.454-0.819-0.648-0.814-0.852-0.882-1.081-0.845-1.293-0.776-1.428-0.612-1.554-0.422-1.571-0.196-1.548 0.067-1.512 0.301-1.35 0.589-1.107 0.798-0.894 0.931-0.669 1.019-0.416 1.039-0.279 1.088-0.035 1.131 0.131 1.168 0.286 1.163 0.331 1.233 0.387 1.282 0.424 1.386 0.501 1.334 0.628 1.312 0.705 1.214 0.803 1.02 0.766 0.856 0.735 0.666 0.702 0.491 0.667 0.33 0.652 0.307 0.653 0.171 0.557 0.136 0.546 0.043 0.537-0.081 1.078-0.726-0.682-1.025-0.23-0.177-0.257-0.25-0.302-0.365-0.303-0.672-0.293-1.027-0.223-1.361-0.176-1.654-0.094-1.814-0.153-1.827-0.093-1.602-0.072-1.382-0.125-1.032-0.058-0.709-0.214-0.563-0.226-0.182-1.235 0.072-0.167 0.255-0.143 0.459-0.082 0.477-0.163 0.664-0.056 0.748-0.096 0.716-0.159 0.763-0.162 0.699-0.134 0.668-0.108 0.5-0.038 0.371 0.036 0.296" __comx="328.331" __comy="133.827" __timestamp="0x1963aff860c"/><path class="write-flat-pen" transform="translate(5.976,2.296)" d="m332.3 132-0.028-0.298 0.013-0.318 0.03-0.53 0.04-0.65 0.038-0.653 0.039-0.54 0.027-0.371 0.06-0.293 0.018-0.18 0.043-0.01h-1.318l-0.026 0.147-0.02 0.448 0.126 0.729 0.201 0.912 0.267 1.041 0.384 1.132 0.409 1.087 0.417 1.019 0.446 0.872 0.373 0.7 0.336 0.607 0.41 0.432 0.293 0.285 0.388 0.236 0.245 0.025 0.516-1.697-0.135-0.107-0.216-0.187-0.329-0.34-0.425-0.467-0.449-0.486-0.441-0.531-0.434-0.554-0.387-0.578-0.375-0.709-0.346-0.706-0.249-0.683-0.15-0.656-0.067-0.512 0.039-0.379 0.083-0.272 0.058-0.09 0.15-0.089 0.386-0.136 0.576-0.066 0.746 0.026 0.811 0.082 0.747 0.132 0.774 0.202 0.764 0.165 0.679 0.203 0.639 0.086 0.59 5e-3 0.956-0.093 0.2-0.795-0.781-0.529-0.472-0.29-0.536-0.266-0.736-0.267-0.826-0.188-0.816-0.213-0.901-0.159-0.953-0.096-0.963-0.033-0.952 0.109-0.793 0.279-0.734 0.438-0.47 0.735-0.211 0.729-0.081 0.8 0.111 0.841 0.203 0.876 0.34 0.903 0.418 0.826 0.451 0.822 0.497 0.717 0.505 0.625 0.501 0.586 0.493 0.515 0.459 0.475 0.435 0.425 0.373 0.286 0.218 0.13 0.516-1.697 0.187 0.025 0.152 0.116-0.118-0.068-0.237-0.216-0.253-0.394-0.391-0.653-0.438-0.776-0.405-0.923-0.416-1.034-0.38-1.047-0.264-0.96-0.21-0.852-0.111-0.567-0.02-0.32-0.026-0.147h-1.318l0.043 0.11 0.076 0.173 0.06 0.238 0.085 0.393 0.1 0.519 0.096 0.642 0.098 0.646 0.088 0.532 0.071 0.33 0.076 0.302" __comx="341.077" __comy="133.827" __timestamp="0x1963aff88e9"/><path class="write-flat-pen" transform="translate(5.976,2.296)" d="m343 128.2 0.058-0.277 0.112-0.029 0.108-8e-3 0.133-0.071 0.086-0.075 0.113-0.074 0.058-0.185-1.2-0.742-0.435 0.169-0.181 0.614-0.137 0.447-0.194 0.786-0.218 1.019-0.218 1.124-0.161 1.253-0.033 1.237 0.132 1.084 0.297 1.053 0.636 0.905 0.852 0.559 0.948 0.295 0.955 0.181 0.956-0.035 0.9-0.187 0.793-0.392 0.572-0.635 0.432-0.792 0.193-0.957 0.068-1.065-0.067-1.122-0.215-1.536-0.681 0.035-0.06 1.499-0.187 0.999-0.227 0.878-0.277 0.571-0.332 0.328-0.312 0.187-0.327 0.139-0.512 0.108-0.576 0.023-0.635-0.113-0.584-0.174-0.323-0.208-0.248-0.332-0.172-0.595-0.105-0.797 0.025-1.001 0.134-1.104 0.194-1.052 0.196-0.985 0.159-0.743 0.096-0.437-0.061 0.141-0.319 0.111-1.2-0.742 0.058-0.065 0.055 0.101 0.086 0.103 0.075 0.104 0.108 0.17 0.112 0.029 0.058 0.277" __comx="350.762" __comy="133.827" __timestamp="0x1963aff8a28"/><path class="write-flat-pen" transform="translate(5.976,2.296)" d="m342.7 121.7-0.256-0.389-0.285-0.388-0.378-0.504-0.382-0.459-0.204-0.297-0.063-0.127-0.191 0.61-0.049 0.039-7e-3 8e-3 0.29 0.138 0.392 0.236 0.47 0.393 0.584 0.506 0.683 0.542 0.944 0.606 0.324-0.357-0.709-0.893-0.67-0.579-0.594-0.495-0.53-0.433-0.492-0.292-0.358-0.156-0.302-0.108-0.224 0.098-0.191 0.61 0.111 0.106 0.269 0.292 0.441 0.425 0.448 0.438 0.363 0.317 0.346 0.304" __comx="348.562" __comy="133.827" __timestamp="0x1963aff8abe"/><path class="write-flat-pen" transform="translate(5.976,2.296)" d="m349.8 127.8-0.119-0.212-9e-3 -0.253-0.139-0.325-0.108-0.325-0.079-0.287-0.055-0.154-0.042-0.163-0.194-0.136-0.798 0.369-0.085 0.239 0.061 0.417 0.063 0.532 0.126 0.809 0.191 1.019 0.164 1.189 0.156 1.322 0.254 1.285 0.284 1.142 0.343 1.029 0.487 0.807 0.543 0.576 0.641 0.373 0.767 0.193 0.73-0.24 0.548-0.464 0.368-0.605 0.246-0.654 0.299-0.757 0.202-0.853 0.199-0.813 0.1-0.857 0.034-0.706 0.028-0.512 0.029-0.355-2e-3 -0.122-0.196 0.32-0.401 0.063-0.051-0.155 0.694-0.022 0.26-0.861-0.756-0.46-0.462-0.155-0.695 0.18-0.313 0.615-0.06 0.409-0.033 0.409-0.03 0.55-0.025 0.648-0.075 0.674-0.157 0.716-0.151 0.737-0.228 0.658-0.169 0.521-0.101 0.221-0.041 0.064 0.082-4e-3 -0.056 0.019-0.243-0.1-0.283-0.247-0.335-0.489-0.304-0.797-0.305-1.037-0.277-1.186-0.197-1.269-0.189-1.227-0.22-1.04-0.169-0.781-0.115-0.531-0.056-0.169-0.027 3e-3 -0.798 0.369-0.078-0.078 0.019-0.046 0.178 0.083 0.157 0.124 0.245 0.265 0.214 0.206 0.111 0.217 0.203 0.224" __comx="357.742" __comy="133.827" __timestamp="0x1963aff8d69"/><path class="write-flat-pen" transform="translate(5.976,2.296)" d="m361.6 131.6 0.239-0.185 0.159-0.105 0.168-0.157 0.16-0.339 0.077-0.336-6e-3 -0.234 5e-3 -0.392-0.296-0.366-0.392-0.347-0.468-0.143-0.505-0.204-0.676-0.167-0.783-0.014-0.798 0.167-0.741 0.489-0.519 0.774-0.305 0.834-0.15 0.929 0.073 1.003 0.21 0.929 0.417 0.912 0.697 0.816 0.785 0.53 0.855 0.399 0.877 0.216 0.795 0.103 0.854 0.04 0.796-0.245 0.757-0.372 0.539-0.573 0.462-0.601 0.368-0.686 0.266-0.71 0.123-0.758-0.039-0.744-0.183-0.675-0.24-0.646-0.419-0.567-0.521-0.427-0.556-0.246-0.715-0.127-0.856 0.325-0.393 0.791 1e-3 0.705v0.772l0.067 0.921 0.202 1.008 0.338 0.969 0.447 0.929 0.604 0.771 0.629 0.616 0.834 0.368 1.344 0.153 0.29-1.065-1.017-0.491-0.287-0.338-0.313-0.443-0.396-0.586-0.317-0.661-0.252-0.738-0.151-0.757-0.053-0.727v-0.701l1e-3 -0.237-0.157 0.321-0.383 0.147-0.067-7e-3 0.091 0.045 0.127 0.104 0.109 0.139 0.113 0.297 0.112 0.384 0.023 0.318-0.055 0.359-0.146 0.411-0.222 0.431-0.302 0.399-0.228 0.253-0.302 0.156-0.325 0.107-0.441-0.018-0.616-0.072-0.596-0.137-0.557-0.248-0.452-0.296-0.361-0.421-0.231-0.5-0.143-0.602-0.047-0.645 0.087-0.541 0.168-0.461 0.186-0.288 0.14-0.101 0.264-0.066 0.392-0.014 0.386 0.066 0.496 0.152 0.238 0.032 0.081 6e-3 -0.063-0.13 0.063 0.019 0.114 0.119 0.077 0.016 0.041 0.192 0.051 0.138 0.043 0.132-0.066 0.259" __comx="367.601" __comy="133.827" __timestamp="0x1963aff8f4b"/><path class="write-flat-pen" transform="translate(5.976,2.296)" d="m377.7 129.8 0.113-0.377 0.098-0.375-3e-3 -0.473-0.106-0.68-0.357-0.575-0.433-0.452-0.51-0.371-0.62-0.252-0.64-0.171-0.787-0.07-0.797 0.174-0.794 0.336-0.708 0.612-0.609 0.769-0.469 0.846-0.315 0.953-0.208 0.983-0.035 1.059 0.105 1.046 0.33 1.031 0.598 0.971 0.762 0.723 0.793 0.551 0.885 0.442 0.914 0.285 0.921 0.081 0.848-0.155 1.15-0.521-0.179-0.857-1.118-0.047-0.567-0.155-0.607-0.155-0.618-0.243-0.647-0.325-0.56-0.391-0.475-0.452-0.345-0.56-0.198-0.617-0.073-0.719 0.024-0.767 0.145-0.723 0.216-0.695 0.295-0.57 0.391-0.526 0.354-0.331 0.381-0.191 0.382-0.121 0.392-0.012 0.419 0.066 0.381 0.101 0.316 0.157 0.331 0.196 0.232 0.192 0.189 0.378 0.171 0.353 0.16 0.273 0.113 0.349" __comx="380.195" __comy="133.827" __timestamp="0x1963aff908a"/><path class="write-flat-pen" transform="translate(5.976,2.296)" d="m379.4 129.6-0.223-0.109-0.194-0.185-0.308-0.193-0.263-0.197-0.516-0.273-0.54 0.434-0.071 0.532 2e-3 0.436 0.085 0.592 0.188 0.705 0.254 0.761 0.287 0.813 0.309 0.785 0.396 0.771 0.468 0.648 0.516 0.474 0.597 0.314 0.655 0.12 0.683-0.129 0.635-0.321 0.554-0.436 0.603-0.644-0.198-0.254-0.709 0.379-0.563 0.033-0.486-0.026-0.318-0.129-0.229-0.117-0.226-0.155-0.251-0.231-0.296-0.411-0.31-0.586-0.281-0.685-0.302-0.777-0.277-0.712-0.224-0.591-0.151-0.467-0.115-0.269-0.071 0.059-0.362 0.259-0.047-0.098 0.326 0.04 0.34 0.044 0.275 0.052 0.291 0.018" __comx="386.373" __comy="133.827" __timestamp="0x1963aff9184"/><path class="write-flat-pen" transform="translate(5.976,2.296)" d="m387.2 128.9 0.216-0.158 0.11 0.052 0.1 0.042-0.792-0.18-0.106-6e-3 -0.092 0.137-0.089 0.318-0.208 0.532-0.246 0.667-0.342 0.851-0.496 1.055-0.582 1.343-0.72 1.606-0.838 1.912-0.959 2.217-0.956 2.402-0.922 2.461-0.807 2.299-0.603 2.046-0.423 1.72-0.27 1.396 4e-3 1.06 0.325 1.277 1.352-0.153 0.053-1.137 0.182-0.763 0.258-1.256 0.402-1.635 0.576-1.956 0.783-2.235 0.9-2.429 0.929-2.364 0.925-2.2 0.811-1.916 0.692-1.632 0.539-1.364 0.446-1.124 0.306-0.975 0.165-0.745 0.145-0.705-0.03-0.447-0.031-0.394-0.168-0.181-0.792-0.18 0.042 0.1 0.052 0.11-0.158 0.217" __comx="389.081" __comy="133.827" __timestamp="0x1963aff925d"/><path class="write-flat-pen" d="m408 127.9 0.06-0.278 0.108-0.194 0.126-0.207 0.121-0.221 0.024 0.126-0.354 0.187-0.295-0.115 0.01 0.156 0.194 0.631 0.222 1.043 0.241 1.374 0.299 1.614 0.245 1.621 0.282 1.535 0.298 1.274 0.383 1.045 0.413 0.774 0.383 0.474 0.332 0.304 0.21 0.12-0.23-1.39 0.37-0.387 0.466 0.177-0.119-0.076-0.216-0.183-0.23-0.268-0.207-0.417-0.242-0.537-0.234-0.675-0.341-0.783-0.413-0.858-0.44-0.968-0.488-1.037-0.414-1.088-0.361-1.205-0.274-1.252-0.249-1.332-0.127-1.251-0.022-1.159 0.063-0.973 0.218-0.729 0.311-0.641 0.401-0.536 0.499-0.475 0.605-0.336 0.811-0.264 1.047-0.101 1.261 0.027 1.459 0.14 1.465 0.253 1.425 0.344 1.351 0.374 1.168 0.374 0.928 0.341 0.68 0.293 0.303 0.188-0.079-0.057-0.093-0.374 0.05-0.132-0.185 0.194-0.468 0.415-0.772 0.502-0.985 0.579-1.127 0.681-1.16 0.71-1.053 0.671-0.954 0.562-0.751 0.375-0.582 0.231-0.308 0.095-0.287 0.06-0.164 0.127 0.282 1.773 0.181-0.087 0.395-0.142 1.268-0.305-0.143-1.129-1.273 0.016-0.315-0.084-0.114-0.087 0.282 1.773 0.014 0.069 0.245 2e-3 0.573-0.141 0.775-0.3 0.897-0.447 1.047-0.617 1.069-0.682 1.136-0.702 1.11-0.672 1.016-0.6 0.935-0.618 0.653-0.585 0.462-0.512 0.345-0.779-0.213-0.901-0.549-0.471-0.581-0.34-0.852-0.355-1.014-0.368-1.244-0.39-1.417-0.39-1.518-0.365-1.598-0.275-1.601-0.154-1.446-0.031-1.369 0.132-1.19 0.384-0.985 0.548-0.796 0.762-0.6 0.818-0.456 0.949-0.31 1.097-0.057 1.265 0.04 1.311 0.164 1.401 0.283 1.433 0.315 1.339 0.403 1.328 0.47 1.208 0.512 1.084 0.444 0.975 0.409 0.848 0.307 0.687 0.239 0.682 0.289 0.639 0.32 0.645 0.476 0.554 0.431 0.348 0.354 0.219 0.761 0.294 0.429-0.445-0.23-1.39-0.026 3e-3 -0.08-0.052-0.207-0.232-0.292-0.521-0.323-0.84-0.291-1.138-0.308-1.467-0.286-1.617-0.349-1.624-0.287-1.395-0.309-1.136-0.275-0.664-0.226-0.55-0.59-0.29-0.533 0.245-0.093 0.421 5e-3 0.307 6e-3 0.266 0.05 0.275 0.06 0.303" __comx="414.561" __comy="131.531" __timestamp="0x1963aff9614"/><path class="write-flat-pen" d="m423.3 129.8-0.305 0.134-0.216 0.049-0.329 0.119-0.417 0.254-0.404 0.241-0.439 0.294-0.478 0.293-0.538 0.325-0.558 0.397-0.537 0.526-0.472 0.611-0.344 0.639-0.251 0.721-0.052 0.801 0.242 0.801 0.395 0.737 0.639 0.624 0.723 0.524 0.901 0.374 0.886 0.221 0.951 0.122 0.942-0.144 0.837-0.309 0.743-0.528 0.574-0.685 0.405-0.793 0.215-0.872-0.035-0.891-0.287-0.798-0.395-0.681-0.534-0.584-0.656-0.452-0.696-0.292-0.576-0.192-0.543-0.169-0.567-0.097-0.683 0.118-0.593 0.621-0.056 0.758 0.143 0.581 0.315 0.624 0.536 0.567 0.649 0.468 1.134 0.616 0.605-0.805-0.846-0.873-0.351-0.474-0.173-0.375-0.038-0.26 0.027-0.124 2e-3 0.231-0.357 0.385-0.33 0.06 0.081 0.019 0.399 0.126 0.483 0.161 0.424 0.177 0.286 0.195 0.23 0.241 0.194 0.32 0.124 0.322 0.023 0.284-0.08 0.365-0.181 0.386-0.252 0.316-0.315 0.236-0.4 0.163-0.473 0.089-0.577-0.052-0.646-0.132-0.573-0.216-0.452-0.302-0.362-0.318-0.194-0.322-0.111-0.316 6e-3 -0.262 0.102-0.396 0.187-0.42 0.292-0.451 0.347-0.417 0.384-0.368 0.462-0.381 0.464-0.413 0.383-0.412 0.302-0.348 0.292-0.335 0.199-0.234 0.137-0.188 0.227-0.259" __comx="422.219" __comy="131.531" __timestamp="0x1963aff97d5"/><path class="write-flat-pen" d="m431.6 123.6 0.065-0.323 0.07-0.362 0.046-0.56 0.07-0.727 0.071-0.753 0.102-0.616 0.135-0.509 0.129-0.234 0.094-0.05 0.048 0.017-1.585-0.113-0.036 0.014-0.018 0.095-0.025 0.397-0.047 0.725-0.151 0.957-0.249 1.258-0.255 1.55-0.247 1.681-0.279 1.815-0.186 1.844-0.094 1.717-0.033 1.492 0.129 1.314 0.19 1.013 0.214 0.89 0.401 0.752 0.481 0.61 0.687 0.37 0.845 0.136 0.818-0.289 0.562-0.556 0.448-0.713 0.303-0.836 0.274-0.841 0.319-0.853 0.339-0.807 0.322-0.733 0.288-0.631 0.258-0.484 0.185-0.303 6e-3 0.042-0.081 0.073-0.747-0.368-6e-3 0.103 0.051 0.237 0.045 0.396 0.068 0.67 0.019 0.857 0.062 1.018 0.1 1.104 0.115 1.04 0.195 0.969 0.312 0.743 0.56 0.683 0.983 0.094 0.72-0.532 0.456-0.67 0.319-0.867 0.182-0.983 0.104-1.049 0.082-1.116 0.048-1.17 0.019-1.266-0.04-1.3-0.097-1.399-0.218-1.434-0.272-1.326-0.271-1.143-0.233-0.849-0.115-0.52-0.061-0.244-1.254-0.331-0.23 0.245 1e-3 0.499-1e-3 0.422 0.113 0.613 0.251 0.629 0.578 0.881 0.605-0.192-0.025-1.018-0.043-0.546-4e-3 -0.449-1e-3 -0.342 1e-3 0.088-0.172 0.183-1.254-0.331 0.056 0.229 0.121 0.539 0.237 0.858 0.26 1.095 0.259 1.264 0.193 1.335 0.078 1.308 0.021 1.233-0.042 1.208-0.069 1.125-0.096 1.063-0.129 0.952-0.171 0.782-0.213 0.548-0.192 0.272 0.014-4e-3 0.335 0.036 0.029 0.036-0.157-0.374-0.158-0.741-0.121-0.961-0.137-1.075-0.112-0.983-0.101-0.908-0.169-0.745-0.13-0.485-0.128-0.294-0.064-0.075-0.747-0.368-0.256 0.135-0.173 0.336-0.168 0.344-0.274 0.516-0.302 0.664-0.326 0.737-0.367 0.783-0.445 0.796-0.432 0.749-0.403 0.579-0.378 0.346-0.202 0.091-8e-3 -0.052-0.039-0.042-0.019-0.042-0.109-0.158-0.188-0.365-0.139-0.583-0.163-0.871-0.108-1.098 0.028-1.335 0.081-1.638 0.167-1.747 0.252-1.776 0.223-1.677 0.218-1.51 0.22-1.274 0.144-1.103 0.011-0.864-0.025-0.545-0.076-0.378-0.094-0.16-1.585-0.113-0.011 0.133-0.023 0.303 9e-3 0.414 0.018 0.611 0.043 0.679 0.071 0.775 0.07 0.746 0.104 0.557 0.07 0.347 0.065 0.323" __comx="434.557" __comy="131.531" __timestamp="0x1963aff9ac6"/><path class="write-flat-pen" d="m446.2 134.6 0.157-0.146 0.148-0.166 0.265-0.191 0.406-0.329 0.476-0.315 0.434-0.317 0.404-0.31 0.304-0.218 0.19-0.274 0.205-0.199 0.11-0.259 0.075-0.198 0.083-0.188 0.038-0.261 3e-3 -0.284 2e-3 -0.256-0.032-0.39-0.304-0.478-0.345-0.317-0.444-0.177-0.531-0.161-0.655 0.032-0.712 0.222-0.703 0.519-0.581 0.718-0.513 0.764-0.536 0.905-0.475 0.938-0.393 0.904-0.301 1.014 0.039 0.988 0.305 0.92 0.611 0.784 0.797 0.57 0.902 0.468 1.076 0.279 1.099 0.167 1.215-0.027 1.219-0.257 1.173-0.421 1.685-0.856-0.427-1.111-1.725 0.456-1.065 0.11-1.015 0.096-0.906-0.027-0.844-0.127-0.751-0.194-0.568-0.296-0.44-0.314-0.214-0.274-0.106-0.317-0.019-0.366 0.169-0.576 0.313-0.744 0.409-0.83 0.464-0.802 0.43-0.647 0.362-0.461 0.239-0.186 0.172-0.073 0.109-0.026 0.175 0.014 0.087 1e-3 -0.05-0.08-0.01-0.067 0.026-0.037 0.06 0.216 0.061 0.186 0.038 0.034 0.025 0.107 0.017 0.213 0.051 0.036-0.031 0.154-0.046 0.258-0.107 0.193-0.302 0.396-0.33 0.389-0.408 0.394-0.362 0.377-0.263 0.221-0.146 0.187-0.141 0.143" __comx="448.032" __comy="132.47" __timestamp="0x1963affa8bf"/><path class="write-flat-pen" d="m456 130.5-0.344-0.172-0.265-0.11-0.353-0.116-0.416-0.094-0.434-0.039-0.596 0.234-0.273 0.67 0.083 0.567 0.196 0.569 0.39 0.671 0.53 0.716 0.646 0.751 0.722 0.765 0.817 0.689 0.873 0.572 0.886 0.412 0.868 0.269 0.873 0.158 0.827-0.091 0.738-0.271 1.169-0.686-0.465-1.082-1.151 0.31-0.499-0.034-0.468-0.033-0.543-0.136-0.66-0.204-0.646-0.294-0.659-0.429-0.653-0.548-0.634-0.647-0.591-0.664-0.471-0.579-0.316-0.446-0.157-0.257-0.033 0.039-0.156 0.317-0.243 0.056 0.097-0.097 0.349-0.094 0.353-0.116 0.208-0.11 0.327-0.039" __comx="458.091" __comy="131.193" __timestamp="0x1963affa9b9"/><path class="write-flat-pen" d="m467.5 129 0.198-0.234 0.057 0.138 0.164 0.038 0.159-0.031-1.161-0.287-0.062 0.056-0.056-0.063-0.04 0.017-0.219 0.356-0.309 0.534-0.431 0.693-0.538 0.967-0.582 1.184-0.712 1.425-0.874 1.681-0.904 1.934-0.928 2.079-0.864 2.102-0.802 1.947-0.712 1.808-0.598 1.575-0.46 1.286-0.282 1.071-0.154 0.764-5e-3 0.521 0.122 0.826 1.031 0.361 0.732-0.917-0.493-0.655-0.393-0.072 0.794 0.244 0.122 0.353 0.115-0.301 0.14-0.648 0.246-0.933 0.424-1.185 0.581-1.547 0.699-1.783 0.788-1.938 0.843-2.079 0.899-2.043 0.861-1.894 0.836-1.674 0.7-1.46 0.538-1.17 0.462-0.918 0.391-0.719 0.28-0.587 0.254-0.528 0.135-0.569-0.114-0.416-0.121-0.122-1.161-0.287 0.039 0.086-0.011 0.158-1e-3 0.196-0.132 0.39" __comx="462.982" __comy="131.475" __timestamp="0x1963affaad4"/></g><a target="_top" xlink:href="/privacy"><rect x="319.8" y="117.4" width="148.7" height="38.82" fill-opacity="0" stroke-opacity="0"/></a></g></g></svg>
