<?xml version="1.0" encoding="UTF-8"?>
<svg width="39.29mm" height="10.48mm" version="1.1" viewBox="0 0 39.29 10.48" xmlns="http://www.w3.org/2000/svg" xmlns:xlink="http://www.w3.org/1999/xlink"><g transform="translate(-91.81 -93.13)"><g class="hyperref" transform="matrix(.2646 0 0 .2646 8.014 80.79)" __timestamp="0x1963b063be8"><g fill="#00f" stroke-width="2.4"><path class="write-flat-pen" d="m321.9 55.17-0.022-0.322 0.039-0.436 0.023-0.649 0.055-0.843 0.086-0.876 0.092-0.867 0.152-0.848 0.091-0.777 0.081-0.601 0.125-0.411 0.087-0.191-0.05 0.235-0.228 0.096-0.977-0.709-0.013 0.087-6e-3 0.266-5e-3 0.555 0.115 0.855 0.074 1.104 0.129 1.462 0.181 1.684 0.185 1.866 0.25 1.89 0.224 1.91 0.227 1.817 0.171 1.705 0.178 1.494 0.182 1.186 0.193 0.93 0.204 0.625 0.182 0.404 0.013 0.035-6e-3 -0.211 1.564-0.648 0.051 0.044-0.072-0.145-0.222-0.351-0.294-0.507-0.395-0.609-0.462-0.694-0.516-0.858-0.601-1.033-0.592-1.155-0.581-1.365-0.628-1.376-0.68-1.391-0.611-1.279-0.541-1.226-0.408-1.113-0.209-1.04-0.111-0.969-0.053-0.765 0.047-0.594 0.135-0.445 0.276-0.404 0.549-0.418 0.75-0.387 0.958-0.252 1.055-0.128 1.091 0.08 1.131 0.219 1.147 0.357 1.099 0.45 1.144 0.504 1.063 0.443 0.949 0.404 0.757 0.37 0.435 0.313 0.19 0.265 0.084 0.275 0.029 0.376-0.123 0.483-0.271 0.577-0.483 0.625-0.672 0.663-0.86 0.631-0.814 0.605-0.706 0.488-0.628 0.336-0.568 0.257-0.486 0.161-0.505 0.076-0.377 0.058-0.197 0.055 0.138 1.95 0.029-0.029 0.295-0.169 1.059-0.223v-1.117l-1.059-0.223-0.295-0.169-0.029-0.029 0.138 1.95 0.215-3e-3 0.387-0.058 0.674-0.102 0.751-0.25 0.728-0.332 0.784-0.428 0.826-0.574 0.834-0.632 0.966-0.722 0.86-0.865 0.693-0.906 0.434-0.954 0.233-0.987-0.091-0.919-0.269-0.787-0.574-0.736-0.802-0.571-0.949-0.452-0.997-0.422-1.054-0.438-1.152-0.5-1.197-0.488-1.327-0.411-1.343-0.251-1.38-0.099-1.361 0.166-1.279 0.338-1.076 0.556-0.92 0.699-0.608 0.891-0.276 0.912-0.073 0.934 0.066 0.945 0.126 1.091 0.26 1.255 0.476 1.299 0.576 1.306 0.627 1.312 0.673 1.377 0.609 1.331 0.598 1.404 0.645 1.258 0.633 1.088 0.546 0.906 0.481 0.721 0.369 0.566 0.296 0.494 0.189 0.297 0.165 0.328 0.167 0.161 1.564-0.648-6e-3 -0.269-0.22-0.377-0.112-0.243-0.149-0.433-0.163-0.78-0.171-1.11-0.175-1.449-0.181-1.711-0.242-1.833-0.248-1.917-0.278-1.876-0.229-1.845-0.23-1.671-0.166-1.423-0.101-1.133-0.121-0.794-5e-3 -0.445-6e-3 -0.266-0.013-0.087-0.977-0.709-0.406 0.155-0.166 0.529-0.029 0.336-0.054 0.531 0.023 0.694 0.033 0.754-0.026 0.859 0.034 0.901 0.028 0.889 0.055 0.863 0.082 0.646 0.039 0.448 0.071 0.336" __comx="325.077" __comy="59.996" __timestamp="0x1963aff42a2"/><path class="write-flat-pen" d="m333.9 59.52-0.317-0.077-0.087-0.085-0.149-0.07-0.271-0.017-0.21 5e-3 -0.303 0.101-0.353 0.396-0.032 0.524 0.07 0.416 0.063 0.529 0.172 0.618 0.222 0.716 0.292 0.738 0.264 0.655 0.324 0.639 0.31 0.454 0.219 0.358 0.299 0.279 0.353 0.295 0.113 0.026-0.142-0.038 0.959-1.549-0.045-0.08-0.125-0.147-0.312-0.268-0.351-0.315-0.305-0.342-0.304-0.405-0.313-0.578-0.363-0.679-0.328-0.71-0.293-0.748-0.175-0.639-0.084-0.486 0.03-0.277 0.056-0.141 0.016-0.018 0.193-0.079 0.462-0.088 0.677-0.054 0.755-0.057 0.765 3e-3 0.727 0.029 0.708 0.054 0.702 0.097 0.659 0.099 0.563 0.047 1.158 0.391 0.629-1.262-1.163-0.766-0.732-0.306-0.753-0.196-0.829-0.139-0.823-0.062-0.805-0.032-0.883 3e-3 -0.835 0.063-0.793 0.063-0.775 0.148-0.807 0.332-0.573 0.63-0.297 0.744-0.09 0.84 0.152 0.868 0.237 0.834 0.354 0.9 0.381 0.821 0.402 0.733 0.393 0.717 0.464 0.596 0.46 0.483 0.475 0.391 0.274 0.205 0.17 0.145 0.191 0.098 0.959-1.549-0.258-0.097 0.051 0.026 0.12 0.117-0.116-0.074-0.134-0.169-0.28-0.371-0.262-0.481-0.268-0.579-0.298-0.677-0.247-0.638-0.181-0.499-0.115-0.471-0.105-0.293-0.032 0.055-0.12 0.102-0.067-0.015 0.027-0.057 0.14-0.075 0.088-0.07 0.087-0.085 0.317-0.077" __comx="335.682" __comy="59.996" __timestamp="0x1963aff4465"/><path class="write-flat-pen" d="m341.6 58.78 0.066-0.134h0.083l0.167-0.104 0.15-0.065 0.054 0.022 0.103-3e-3 0.011 0.021-0.055 0.019 0.066-5e-3 -0.091 0.101-0.102 0.075-0.286-0.059-0.233-0.218-0.045-0.096-0.032 0.327-0.056 0.458-0.075 0.638-0.075 0.821-0.036 0.904-0.036 1.062 0.095 1.063 0.161 1.019 0.288 0.897 0.389 0.707 0.371 0.557 0.46 0.461 0.553 0.371 0.724 0.221 0.831-0.138 0.736-0.476 0.566-0.759 0.446-0.979 0.289-1.138 0.287-1.566-0.594-0.193-0.67 1.386-0.595 0.863-0.496 0.669-0.376 0.3-0.207 0.055-0.053-0.022-0.04-0.012-0.152-0.102-0.188-0.187-0.218-0.327-0.258-0.468-0.185-0.576-0.133-0.804-0.08-0.879 0.022-0.943 0.022-0.86 0.045-0.769 0.042-0.657 2e-3 -0.543-0.032-0.379-0.045-0.449-0.408-0.455-0.406-0.117-0.219 0.075-0.149 0.101-0.054 0.053-0.113 0.019-0.106 0.137-0.076 0.055-0.121 0.2-0.087 0.171-0.069 0.191-0.092 0.175 0.066 0.291" __comx="344.294" __comy="59.996" __timestamp="0x1963aff45f5"/><path class="write-flat-pen" d="m344.3 51.27-0.208-0.397-0.258-0.311-0.323-0.341-0.396-0.375-0.297-0.28-0.073-0.092-0.041-0.116-0.125-0.125-0.169 1.135-0.091 0.051h-0.126l0.122 0.036 0.301 0.075 0.362 0.117 0.928 2e-3 0.24-0.64-0.654-0.591-0.402-0.236-0.405-0.099-0.289-0.084h-0.421l-0.211 0.113-0.169 1.135-6e-3 -9e-3 0.134 0.179 0.341 0.202 0.35 0.19 0.485 0.273 0.445 0.19 0.332 0.1 0.353 0.171" __comx="342.941" __comy="59.996" __timestamp="0x1963aff46ac"/><path class="write-flat-pen" d="m348.2 60.32-0.218-0.156-0.164-0.173-0.184-0.205-0.206-0.281-0.139-0.252-0.045-0.169 0.019-0.116 0.029-0.076 0.044 0.01 0.067-0.088 0.068-0.105-1.17 0.318 0.017 0.064 0.108 0.172 0.181 0.387 0.246 0.735 0.287 0.977 0.243 1.236 0.292 1.34 0.399 1.296 0.51 1.142 0.58 0.902 0.624 0.641 0.67 0.449 0.725 0.26 0.786-0.045 0.755-0.419 0.417-0.64 0.32-0.719 0.302-0.859 0.287-1.033 0.314-1.185 0.226-1.207 0.165-1.21 2e-3 -1.09-0.182-0.891-0.261-0.697-0.375-0.481-0.311-0.248-0.147-0.07-1.53 1.168 0.168 0.274 0.433 0.298 0.471 0.186 1.056 0.486 0.548-0.755-0.759-0.829-0.177-0.342 0.08-0.059 0.11 0.099-1.53 1.168 0.028 0.046 0.042 0.047 0.039 0.051 0.092 0.245 0.113 0.521 2e-3 0.737-0.13 1.027-0.188 1.089-0.272 1.11-0.244 0.968-0.229 0.731-0.208 0.518-0.056 0.124 0.049-8e-3 0.022 0.016-0.159-0.035-0.331-0.199-0.377-0.36-0.42-0.63-0.432-0.917-0.368-1.12-0.297-1.25-0.284-1.296-0.36-1.083-0.343-0.854-0.35-0.613-0.303-0.301-0.1-0.053-1.17 0.318 6e-3 0.131 9e-3 0.145-0.014 0.305 0.145 0.339 0.139 0.237 0.249 0.242 0.273 0.217 0.325 0.251 0.285 0.148 0.247 0.122 0.285 0.092" __comx="350.438" __comy="59.996" __timestamp="0x1963aff48f7"/><path class="write-flat-pen" d="m360.3 62.44 0.231-0.174 0.173-0.132 0.179-0.232 0.186-0.419 0.08-0.444 0.041-0.473-0.147-0.484-0.179-0.444-0.361-0.373-0.423-0.313-0.504-0.229-0.644-0.14-0.72-0.011-0.709 0.247-0.663 0.519-0.445 0.711-0.261 0.821-0.147 0.84 0.038 0.88 0.181 0.903 0.346 0.819 0.523 0.683 0.676 0.551 0.782 0.29 0.736 0.143 0.736 0.077 0.713-0.085 0.731-0.306 0.558-0.605 0.251-0.615 0.238-0.641 0.143-0.69 0.095-0.662 0.065-0.599 0.035-0.553v-0.352l1e-3 -0.176-1.867-0.44-0.132 0.266 1e-3 0.5-0.028 0.565 0.067 0.913 0.196 1.049 0.328 1.082 0.447 0.997 0.656 0.907 0.839 0.549 0.922 0.206 0.925-0.086 0.938-0.387 0.812-0.615 0.795-0.777 0.835-0.871 0.764-0.926 0.709-0.885 0.595-0.795 0.519-0.692 0.479-0.573 0.383-0.543 0.348-0.488 0.264-0.433 0.181-0.353 0.179-0.502-0.294-0.563-0.384-0.224-0.524-0.161-0.639 0.135-0.506 0.206-0.518 0.276-0.563 0.433-0.503 0.528-0.426 0.683-0.295 0.755-0.211 0.821-0.11 0.878 0.037 0.824 0.157 0.873 0.425 0.764 0.544 0.62 0.673 0.525 0.773 0.405 0.876 0.28 0.897 0.125 0.854 0.011 0.849-0.114 1.249-0.285v-0.799l-1.199-0.285-0.741-0.231-0.735-0.167-0.693-0.169-0.594-0.19-0.464-0.243-0.386-0.301-0.282-0.322-0.164-0.295-0.076-0.422-0.024-0.53 0.068-0.595 0.142-0.591 0.178-0.483 0.221-0.376 0.261-0.298 0.321-0.273 0.304-0.194 0.262-0.147 0.067-0.043 4e-3 -0.045-0.089-0.104-0.116-0.326 0.121-0.033 0.061 0.295-0.031 0.393-0.18 0.512-0.265 0.574-0.405 0.606-0.482 0.72-0.584 0.795-0.703 0.88-0.768 0.901-0.872 0.777-0.912 0.46-0.84 0.149-0.71 0.027-0.487-0.144-0.373-0.209-0.281-0.273-0.344-0.508-0.317-0.71-0.261-0.861-0.156-0.835-0.049-0.677 0.03-0.493 1e-3 -0.09-0.074 0.15-1.867-0.44 1e-3 0.176v0.295l-0.023 0.448-0.055 0.519-0.08 0.575-0.094 0.488-0.173 0.476-0.102 0.269-0.032 0.043-0.095 0.047-0.23 0.035-0.439-0.043-0.501-0.09-0.339-0.124-0.263-0.213-0.244-0.318-0.182-0.418-0.114-0.57-0.023-0.531 0.09-0.514 0.15-0.474 0.144-0.231 0.163-0.129 0.113-0.048 0.223-0.011 0.299 0.038 0.202 0.062 0.224 0.101 0.112 0.039 0.115 0.087 0.148 0.164 0.099 0.175 0.08 0.262 8e-3 0.287 4e-3 0.238 0.053 0.163-0.042 0.243" __comx="365.626" __comy="59.996" __timestamp="0x1963aff4bc1"/><path class="write-flat-pen" d="m379.9 61.08-0.119-0.206-0.095-0.183-0.113-0.282-0.194-0.408-0.177-0.432-0.135-0.418-0.101-0.43-0.036-0.367 0.038-0.227 0.038-0.237 0.057-0.112 0.047 0.086 0.016 0.055-1.11 0.325 0.068 0.084 0.074 0.1 0.143 0.27 0.222 0.535 0.199 0.787 0.254 1.013 0.346 1.196 0.357 1.206 0.431 1.185 0.484 1.036 0.541 0.853 0.558 0.632 0.62 0.457 0.732 0.249 0.713-0.07 0.631-0.367 0.407-0.599 0.263-0.687 0.273-0.819 0.386-0.845 0.505-0.888 0.553-0.845 0.583-0.782 0.587-0.66 0.605-0.597 0.571-0.521 0.527-0.451 0.384-0.295 0.32-0.128 0.167-5e-3 -0.321 0.154-0.6-0.481 0.033-0.242-0.224 0.474-0.294 0.652-0.339 0.781-0.427 0.993-0.485 1.143-0.54 1.289-0.596 1.405-0.624 1.465-0.679 1.572-0.765 1.662-0.828 1.796-0.887 1.94-0.909 1.966-0.916 1.947-0.807 1.791-0.664 1.629-0.486 1.365-0.337 1.073-0.161 0.722-0.054 0.519 0.131 0.833 1.239 0.528 0.665-1.368-0.249-0.195 0.131 0.422 0.124-0.249 0.192-0.632 0.311-0.986 0.457-1.284 0.632-1.55 0.783-1.741 0.91-1.938 0.914-1.978 0.881-1.946 0.82-1.798 0.766-1.693 0.674-1.608 0.613-1.479 0.58-1.422 0.522-1.302 0.457-1.153 0.395-1.008 0.308-0.809 0.238-0.702 0.128-0.469 0.269-0.773-0.837-0.714-0.616 0.212-0.306 0.289-0.327 0.341-0.322 0.472-0.415 0.549-0.488 0.596-0.574 0.64-0.588 0.694-0.596 0.808-0.564 0.862-0.557 0.88-0.495 0.803-0.494 0.655-0.443 0.372-0.299 0.107-0.136-0.072-0.051-0.07-0.152-0.104-0.261-0.191-0.326-0.369-0.402-0.62-0.4-0.849-0.392-1.053-0.352-1.148-0.36-1.158-0.273-0.988-0.273-0.923-0.367-0.761-0.384-0.553-0.399-0.312-0.227-0.094-1.11 0.325-0.1 0.291 0.047 0.261 0.057 0.182 0.096 0.294 0.096 0.3 0.2 0.458 0.252 0.454 0.276 0.404 0.295 0.394 0.275 0.356 0.182 0.249 0.141 0.17 0.145 0.189" __comx="384.549" __comy="62.243" __timestamp="0x1963aff6708"/><path class="write-flat-pen" d="m408.3 54.85-0.394-0.27-0.289 0.189-0.16 0.182-0.173 0.436-0.062 0.655-0.024 0.871 9e-3 1.166 0.078 1.366 0.075 1.487 0.158 1.484 0.131 1.352 0.113 1.106 0.116 0.818 0.099 0.595 0.129 0.403 0.23 0.419 0.239 0.156 1.198-0.721 0.018-0.194-0.134-0.448-0.29-0.39-0.325-0.424-0.411-0.508-0.481-0.605-0.474-0.655-0.507-0.752-0.536-0.842-0.564-0.926-0.556-0.992-0.483-1.009-0.313-0.974-0.233-0.933-0.097-0.941 0.01-1.015 0.11-0.989 0.254-0.902 0.389-0.729 0.58-0.619 0.707-0.495 0.871-0.363 0.987-0.198 1.223-0.08 1.44 0.086 1.483 0.087 1.451 0.223 1.404 0.319 1.228 0.287 1.094 0.337 0.956 0.338 0.75 0.315 0.446 0.283 0.19 0.197-0.016-0.011-1e-3 -0.081-0.097 0.185-0.302 0.333-0.608 0.522-0.773 0.601-0.933 0.618-0.979 0.633-0.991 0.594-0.977 0.517-0.841 0.449-0.682 0.289-0.474 0.162-0.29 0.093-0.095 0.048-0.132 1.932 0.443 0.18 0.469-0.238 0.327-0.158 0.449-0.266 1.061-0.394-0.17-0.943-1.177 8e-3 -0.494-0.03-0.437-0.038 0.116-0.121 0.323 0.122-0.132 1.932 0.083-0.01 0.299-0.085 0.585-0.191 0.849-0.359 0.923-0.493 1.024-0.542 1.071-0.643 1.022-0.662 1.01-0.677 0.875-0.694 0.745-0.657 0.582-0.668 0.376-0.815 0.057-0.907-0.427-0.775-0.578-0.567-0.791-0.484-0.956-0.391-1.046-0.368-1.201-0.368-1.304-0.303-1.481-0.329-1.612-0.247-1.576-0.091-1.565-0.092-1.484 0.098-1.309 0.271-1.25 0.521-1.058 0.742-0.894 0.971-0.611 1.156-0.335 1.274-0.123 1.248 0.01 1.222 0.136 1.18 0.298 1.126 0.393 1.147 0.576 1.17 0.623 1.067 0.614 0.959 0.581 0.864 0.555 0.78 0.526 0.698 0.519 0.632 0.412 0.493 0.323 0.398 0.125 0.141-0.018-0.095 0.018-0.074 1.198-0.721 0.123 0.095 0.052 0.124-0.046-0.124-0.079-0.464-0.12-0.772-0.123-1.074-0.16-1.358-0.198-1.459-0.158-1.456-0.158-1.341-0.107-1.13-0.085-0.839-0.062-0.52 5e-3 -0.27-0.043-0.055-0.169 0.073 0.101-0.022" __comx="412.232" __comy="62.243" __timestamp="0x1963aff6acd"/><path class="write-flat-pen" d="m423.1 59.18-0.415-0.089-0.205-0.098-0.318-0.048-0.448 5e-3 -0.484 0.115-0.543 0.181-0.612 0.289-0.687 0.418-0.707 0.5-0.686 0.651-0.552 0.814-0.383 0.85-0.169 0.941 0.081 0.94 0.423 0.911 0.804 0.674 0.988 0.424 1.093 0.218 1.21 0.035 1.197-0.129 1.144-0.289 1.005-0.35 0.851-0.396 0.659-0.55 0.503-0.723 0.01-0.962-0.335-0.747-0.485-0.535-0.647-0.529-0.802-0.345-0.831-0.267-0.896-0.199-0.805-0.095-0.77-0.065-0.766 0.044-0.715 0.238-0.738 0.676 0.054 1.083 0.523 0.643 0.63 0.399 1.279 0.433 0.511-1.021-0.921-0.667-0.134-0.307 0.05-0.066 0.054 0.435-0.265 0.265 0.049 2e-3 0.351-0.014 0.587 0.055 0.665 0.08 0.694 0.154 0.642 0.206 0.435 0.182 0.295 0.238 0.163 0.17 0.018 0.017 0.01-0.136 0.03-0.017-0.225 0.214-0.503 0.251-0.818 0.298-0.919 0.242-0.921 0.108-0.911-0.023-0.734-0.138-0.54-0.223-0.258-0.207-0.105-0.209-0.039-0.355 0.068-0.47 0.206-0.503 0.332-0.543 0.431-0.466 0.53-0.442 0.55-0.405 0.447-0.301 0.4-0.233 0.281-0.176 0.261-0.115 0.21-0.106 0.148-0.098 0.415-0.089" __comx="421.849" __comy="62.243" __timestamp="0x1963aff6c6e"/><path class="write-flat-pen" d="m429.9 58.81-0.019-0.265 0.046-0.262 0.111-0.389 0.139-0.608 0.169-0.67 0.287-0.765 0.293-0.929 0.354-0.994 0.422-1.029 0.388-0.998 0.383-0.852 0.291-0.678 0.199-0.473 0.161-0.417 0.028-0.252h-1.865l-0.023 0.173-0.035 0.411-5e-3 0.651-0.06 0.907-0.091 1.187-0.151 1.361-0.181 1.52-0.212 1.6-0.154 1.668-0.151 1.645-0.065 1.693-1e-3 1.553 0.094 1.392 0.162 1.201 0.314 1.052 0.437 0.834 0.469 0.626 0.535 0.454 0.518 0.303 0.567 0.189 0.599 0.049 0.563-0.092 0.581-0.204 0.532-0.331 0.526-0.443 0.528-0.526 0.568-0.674 0.552-0.758 0.659-0.827 0.765-0.921 0.722-0.974 0.678-0.957 0.47-0.877 0.345-0.719 0.179-0.463 0.185-0.323 0.08-0.186-1.185-0.793-0.25 0.143-0.305 0.395-0.317 0.548-0.23 0.746-0.195 0.758-0.202 0.892-0.07 0.899 0.068 0.8 0.119 0.59 0.244 0.544 0.52 0.434 0.706 0.123 0.567-0.292 0.45-0.459 0.229-0.725 0.088-0.804 0.082-0.938-7e-3 -1.061 0.027-1.159-0.034-1.191-0.086-1.152-0.122-1.164-0.21-1.149-0.254-1.089-0.21-0.96-0.192-0.767-0.172-0.592-0.135-0.245-1.585-0.045-0.14 0.215-0.123 0.439-0.043 0.618 0.167 0.713 0.288 0.628 0.453 0.635 0.623 0.504 1.107 0.657 0.714-0.935-0.829-0.821-0.261-0.438-0.194-0.423-0.127-0.376-0.066-0.288 0.015-0.146-7e-3 0.028-0.02 0.037-1.585-0.045 0.04 0.05 0.122 0.35 0.219 0.706 0.263 0.922 0.277 1.032 0.201 1.03 0.115 1.073 0.089 1.085 0.024 1.105-0.031 1.137-7e-3 0.998-0.093 0.83-0.09 0.608-0.066 0.159 0.039-0.048 0.214-0.114 0.353 0.061 0.167 0.139 8e-3 0.016-0.059-0.294-0.048-0.554 0.047-0.633 0.151-0.757 0.158-0.715 0.127-0.549 0.152-0.332 0.048-0.136-0.014-0.032-1.185-0.793 0.022 0.047-0.11 0.266-0.174 0.479-0.303 0.635-0.414 0.772-0.617 0.87-0.693 0.91-0.763 0.844-0.757 0.763-0.623 0.658-0.553 0.501-0.472 0.358-0.416 0.263-0.29 0.142-0.244 0.087-0.143 0.028-0.107-9e-3 -0.142-0.047-0.188-0.108-0.229-0.193-0.237-0.316-0.272-0.52-0.214-0.716-0.133-0.979-0.085-1.257-1e-3 -1.449 0.055-1.603 0.144-1.593 0.141-1.632 0.199-1.576 0.172-1.543 0.144-1.404 0.084-1.229 0.06-0.977-5e-3 -0.644 0.023-0.411-0.023-0.241h-1.865l0.028-0.016-0.018 0.172-0.096 0.47-0.179 0.676-0.265 0.916-0.259 1.061-0.284 1.089-0.235 1.069-0.18 0.956-0.183 0.825-0.068 0.741-0.035 0.629-9e-3 0.434 0.046 0.327 0.096 0.284" __comx="435.874" __comy="55.876" __timestamp="0x1963aff77d6"/><path class="write-flat-pen" d="m447.8 57.05-0.336 0.726-0.067 0.029-0.192 0.258-0.327 0.379-0.495 0.565-0.533 0.704-0.539 0.756-0.477 0.842-0.326 0.82-0.156 0.745v0.821l0.283 0.755 0.434 0.648 0.651 0.575 0.736 0.491 0.79 0.374 0.85 0.305 0.86 0.171 0.941-0.018 0.867-0.259 0.787-0.454 0.708-0.66 0.62-1.141-0.385-0.385-1.06 0.54-0.645 0.282-0.566 0.135-0.49 0.032-0.529-0.076-0.555-0.124-0.62-0.222-0.563-0.273-0.501-0.335-0.35-0.309-0.155-0.233-0.07-0.188v-0.242l0.077-0.372 0.205-0.534 0.349-0.632 0.462-0.655 0.467-0.65 0.447-0.555 0.379-0.502 0.22-0.39 0.111-0.266 0.222-0.979" __comx="448.66" __comy="58.953" __timestamp="0x1963aff7925"/><path class="write-flat-pen" d="m454.8 58.78-0.319-0.098-0.206-0.116-0.266-0.104-0.432-0.09-0.385 0.053-0.446 0.227-0.292 0.538-0.091 0.64 0.111 0.72 0.239 0.78 0.369 0.801 0.448 0.85 0.477 0.859 0.613 0.79 0.711 0.64 0.741 0.427 0.744 0.297 0.685 6e-3 0.673-0.222 0.615-0.495 0.454-0.685 0.407-0.743 0.39-0.812 0.407-0.787 0.465-0.763 0.499-0.732 0.529-0.702 0.506-0.638 0.53-0.546 0.548-0.393 0.395-0.183 0.275-0.02-0.103 0.134-0.284-0.086-0.17-0.108-0.058-0.085-0.103 0.315-0.188 0.518-0.29 0.743-0.494 0.944-0.689 1.34-0.859 1.632-1.05 1.941-1.145 2.251-1.202 2.521-1.196 2.733-1.074 2.702-0.953 2.528-0.695 2.088-0.39 1.593-0.141 1.163 0.149 0.928 0.801 0.693 0.858-0.61-0.104-0.58 0.149-0.247 0.273-0.9 0.374-1.467 0.658-1.976 0.932-2.475 1.047-2.657 1.158-2.681 1.152-2.485 1.093-2.224 1.013-1.945 0.847-1.664 0.665-1.367 0.507-1.06 0.299-0.905 0.165-0.657 0.075-0.569-0.058-0.616-0.406-0.403-0.462-0.202-0.514 0.251-0.314 0.336-0.311 0.403-0.453 0.55-0.47 0.633-0.494 0.657-0.53 0.71-0.505 0.742-0.474 0.768-0.477 0.742-0.553 0.662-0.594 0.494-0.546 0.316-0.389 0.094-0.266-0.047-0.199-0.052-0.376-0.172-0.493-0.283-0.467-0.419-0.445-0.563-0.407-0.731-0.436-0.798-0.337-0.672-0.234-0.574-0.122-0.397-0.032-0.186-0.055 7e-3 -0.093-6e-3 0.026-0.067 0.274-0.09 0.266-0.104 0.206-0.116 0.319-0.098" __comx="458.795" __comy="60.018" __timestamp="0x1963aff7af7"/></g><a target="_top" xlink:href="/privacy"><rect x="316.7" y="46.65" width="148.5" height="39.6" fill-opacity="0" stroke-opacity="0"/></a></g></g></svg>
