<?xml version="1.0" encoding="UTF-8"?>
<svg width="34.6mm" height="11.84mm" version="1.1" viewBox="0 0 34.6 11.84" xmlns="http://www.w3.org/2000/svg" xmlns:xlink="http://www.w3.org/1999/xlink"><g transform="translate(-94.19 -92.34)"><g class="hyperref" transform="matrix(.2646 0 0 .2646 8.248 -12.41)" __timestamp="0x1963b06c66d"><g fill="#00f" stroke-width="2.4"><path class="write-flat-pen" transform="translate(17.75 -1.326)" d="m314.8 407.2-0.02-0.305-0.077-0.325-0.091-0.401-0.149-0.581-0.139-0.53-0.049-0.487-0.052-0.485 1e-3 -0.461 0.015-0.483-0.022-0.426 9e-3 -0.249 0.032-0.113 0.032-0.058h-1.539l-0.02 0.058-0.013 0.266-0.014 0.555 0.043 0.952 0.106 1.315 0.161 1.637 0.219 1.838 0.249 1.944 0.229 1.873 0.295 1.713 0.3 1.485 0.336 1.227 0.313 0.983 0.305 0.679 0.263 0.454 0.436 0.551 0.474 5e-3 0.716-1.53-0.139-0.169-0.24-0.303-0.397-0.462-0.467-0.528-0.505-0.593-0.624-0.682-0.637-0.724-0.659-0.774-0.705-0.904-0.67-0.981-0.652-1.107-0.657-1.201-0.596-1.247-0.509-1.237-0.385-1.18-0.216-1.084-0.104-0.907 0.05-0.761 0.095-0.641 0.202-0.484 0.379-0.497 0.593-0.568 0.752-0.591 0.887-0.565 1.027-0.5 1.107-0.318 1.285-0.214h1.319l1.312 0.214 1.207 0.35 1.061 0.481 0.928 0.575 0.751 0.523 0.434 0.459 0.215 0.406 0.05 0.326-0.069 0.338-0.223 0.422-0.417 0.492-0.63 0.537-0.744 0.571-0.806 0.525-0.782 0.472-0.738 0.38-0.776 0.232-0.669 0.173-0.576 0.021-0.489-0.087-0.252-0.068 0.155 0.12 0.25 0.956-0.614 0.209 0.172-0.172 1-0.378-0.14-0.974-1.211-0.059-0.476 0.061-0.967 0.388 0.367 1.309 0.686 0.415 0.57 0.169 0.806 0.146 1.014-0.037 0.921-0.238 0.993-0.299 0.968-0.5 0.867-0.532 0.9-0.592 0.846-0.666 0.785-0.7 0.642-0.804 0.424-0.873 0.168-0.957-0.187-0.969-0.491-0.889-0.745-0.778-0.955-0.653-1.074-0.662-1.296-0.578-1.442-0.417-1.573-0.255h-1.624l-1.542 0.256-1.367 0.392-1.269 0.617-1.056 0.672-0.896 0.704-0.761 0.727-0.622 0.799-0.388 0.928-0.141 0.949-0.067 1.007 0.132 1.153 0.253 1.27 0.44 1.352 0.55 1.353 0.641 1.343 0.697 1.273 0.701 1.189 0.745 1.078 0.765 0.98 0.695 0.816 0.659 0.749 0.613 0.671 0.496 0.582 0.475 0.535 0.37 0.419 0.229 0.286 0.155 0.184 0.716-1.53 0.416 5e-3 0.2 0.256-0.148-0.252-0.226-0.497-0.276-0.844-0.311-1.127-0.286-1.4-0.295-1.645-0.244-1.835-0.278-1.942-0.254-1.811-0.192-1.601-0.13-1.275-0.073-0.875-0.014-0.503-0.013-0.266-0.02-0.058h-1.539l0.032 0.058 0.032 0.182 0.067 0.34 0.095 0.396 0.076 0.459 0.117 0.54 0.184 0.516 0.184 0.514 0.276 0.532 0.262 0.536 0.204 0.366 0.159 0.26 0.091 0.257" __comx="333.574" __comy="413.643" __timestamp="0x1963b0033a1"/><path class="write-flat-pen" transform="translate(17.75 -1.326)" d="m323.3 412.7-0.18-0.255-0.169-0.227-0.225-0.297-0.312-0.316-0.215-0.274-0.315-0.34-0.699-0.043-0.247 0.629-0.038 0.586 0.105 0.781 0.195 0.952 0.299 1.096 0.485 1.153 0.503 1.031 0.48 0.916 0.447 0.729 0.357 0.605 0.385 0.414 0.34 0.273 0.532 0.21 0.785-0.227 0.223-0.736-0.066-0.494-0.189-0.42-0.234-0.355-0.249-0.381-0.258-0.398-0.273-0.531-0.392-0.708-0.464-0.771-0.487-0.87-0.48-0.852-0.406-0.878-0.261-0.705-0.057-0.553 0.05-0.349 0.127-0.205 0.239-0.194 0.37-0.166 0.484-0.101 0.627 0.023 0.751 0.101 0.856 0.271 0.979 0.317 0.983 0.353 0.92 0.225 0.887 0.181 1.437 0.2 0.355-1.272-1.309-0.566-0.819-0.35-0.848-0.303-0.959-0.352-1.022-0.33-1.029-0.318-1.014-0.135-0.963-0.035-0.931 0.194-0.805 0.362-0.704 0.573-0.521 0.854-0.128 1.005 0.122 1.037 0.387 1.001 0.478 1.007 0.52 0.916 0.514 0.895 0.479 0.76 0.372 0.646 0.316 0.589 0.331 0.482 0.279 0.387 0.181 0.234 0.044 0.049-4e-3 -0.141 0.161-0.499 0.611-0.168 0.179 0.094-0.075-0.022-0.201-0.175-0.29-0.453-0.437-0.686-0.463-0.849-0.498-0.97-0.457-1.027-0.29-0.967-0.217-0.871-0.132-0.635-0.038-0.295-0.131 0.276-0.463-0.043 0.096 0.013 0.316 0.195 0.394 0.215 0.306 0.172 0.242 0.126 0.245 0.17" __comx="343.55" __comy="413.643" __timestamp="0x1963b003586"/><path class="write-flat-pen" transform="translate(17.75 -1.326)" d="m331.1 409.4-0.847-0.058-0.346 0.426-0.298 0.483-0.248 0.777-0.168 1.048-0.064 1.181 0.036 1.333 0.172 1.291 0.216 1.229 0.361 1.022 0.389 0.78 0.48 0.575 0.629 0.351 0.822-0.115 0.557-0.73 0.139-0.776 0.168-0.94 0.079-1.16-1e-3 -1.242-0.013-1.316-0.069-1.366-0.213-1.469-0.364-1.492-0.499-1.539-0.543-1.516-0.566-1.365-0.471-1.24-0.396-0.946-0.271-0.666-0.212-0.396-0.083-0.152-1.435 0.986 0.149 0.188 0.302 0.299 0.451 0.436 0.699 0.482 1.292 0.869 0.843-1.08-1.145-1.033-0.534-0.519-0.375-0.39-0.229-0.228-0.084-0.107-1.435 0.986 0.092 0.142 0.202 0.31 0.315 0.571 0.488 0.877 0.588 1.176 0.671 1.284 0.577 1.428 0.501 1.463 0.341 1.393 0.198 1.358 0.051 1.283-0.013 1.274-0.063 1.174-0.154 1.016-0.246 0.828-0.152 0.403 0.026-0.082 0.349-0.056 0.101 0.057-0.167-0.193-0.259-0.515-0.286-0.801-0.199-1.067-0.181-1.183-0.081-1.199-5e-3 -1.057 0.069-0.895 0.105-0.576 0.113-0.34-0.109 0.07 0.255-0.058" __comx="348.347" __comy="413.643" __timestamp="0x1963b003716"/><path class="write-flat-pen" transform="translate(17.75 -1.326)" d="m337.2 411.3-0.124-0.285-0.013-0.145-0.14-0.232-0.065-0.161-0.016-0.135 0.016-0.051 0.026 6e-3 0.025-0.118 0.03-0.029 0.033-0.029-1.22 0.12v0.154l0.061 0.438 0.086 0.713 0.174 1.012 0.176 1.134 0.254 1.188 0.317 1.189 0.366 1.126 0.438 0.964 0.454 0.805 0.53 0.654 0.65 0.449 0.657 0.2 0.744 0.024 0.625-0.288 0.502-0.477 0.301-0.614 0.151-0.609 0.138-0.637 0.092-0.732 0.117-0.758 0.167-0.828 0.222-0.834 0.215-0.698 0.258-0.601 0.082-0.233 8e-3 -9e-3 0.127-0.068 0.139-0.077 0.253-0.183 0.98-0.318-0.207-1.317-1.101 9e-3 -0.453-8e-3 -0.392 0.101-0.521 0.285-0.523 0.518-0.209 0.593-0.273 0.636-0.257 0.834-0.247 0.93-0.186 0.936-0.119 0.831-0.082 0.683-0.099 0.538-0.085 0.395-0.052 0.15-0.029 0.055 0.039 3e-3 -0.082 0.024-0.169-0.033-0.23-0.14-0.296-0.346-0.368-0.61-0.388-0.801-0.339-0.995-0.331-1.107-0.277-1.108-0.235-1.103-0.237-0.989-0.15-0.699-0.117-0.446-0.058-0.14-1.22 0.12 0.033 0.029 0.03 0.029 0.025 0.118 0.026 0.185 0.133 0.244 0.162 0.218 0.23 0.192 0.213 0.121 0.103 0.029 0.248 0.209" __comx="358.152" __comy="413.643" __timestamp="0x1963b00397f"/><path class="write-flat-pen" transform="translate(17.75 -1.326)" d="m350.2 414.6-0.034-0.194 0.038-0.123 0.044-0.206 0.044-0.295 0.047-0.28 0.077-0.305 0.078-0.316 0.077-0.281 0.083-0.29-2e-3 -0.317-0.022-0.317-0.154-0.3-0.158-0.301-0.341-0.288-0.423-0.225-0.419-0.066-0.557-0.062-0.623 0.159-0.633 0.303-0.601 0.509-0.513 0.717-0.414 0.814-0.306 0.928-0.203 0.984-0.074 0.995 0.064 0.931 0.097 0.85 0.223 0.81 0.371 0.67 0.43 0.575 0.693 0.32 0.775 0.114 0.768-0.328 0.56-0.509 0.47-0.652 0.367-0.699 0.315-0.714 0.268-0.652 0.25-0.593 0.172-0.548 0.088-0.406 0.121-0.352 1e-3 -0.081-0.063 0.128-1.665-0.394v0.239l0.166 0.33 0.109 0.272 0.207 0.483 0.274 0.638 0.351 0.702 0.442 0.73 0.481 0.705 0.516 0.612 0.563 0.596 0.666 0.52 0.806 0.309 1.557 0.158 0.24-1.455-1.31-0.315-0.373-0.222-0.393-0.306-0.437-0.463-0.426-0.505-0.403-0.591-0.38-0.627-0.297-0.593-0.257-0.595-0.204-0.46-0.128-0.317-0.012-0.023v0.18l-1.665-0.394-0.122 0.244 1e-3 0.214-0.054 0.175-0.09 0.42-0.122 0.394-0.219 0.524-0.263 0.643-0.275 0.642-0.28 0.535-0.294 0.411-0.207 0.197-0.055 0.025-0.051-3e-3 -0.071-0.033-0.101-0.135-0.215-0.389-0.134-0.486-0.078-0.681-0.056-0.776 0.046-0.769 0.15-0.784 0.225-0.72 0.292-0.598 0.31-0.462 0.284-0.255 0.309-0.17 0.203-0.077h0.265l0.17-8e-3 0.108 0.011 0.071 3e-3 0.078 0.056 0.079 0.053 0.04 0.036 0.056 0.153 0.025 0.182 0.015 0.305 0.019 0.331 0.019 0.343 0.047 0.309 0.044 0.295 0.044 0.206 0.038 0.172 0.103 0.223" __comx="368.32" __comy="413.643" __timestamp="0x1963b003c6e"/><path class="write-flat-pen" transform="translate(17.75 -1.326)" d="m361.4 412.7-0.28-0.058-0.108-0.116-0.063-0.097-0.047-0.102-0.065-0.12-0.109-0.154-0.318-0.316-0.413-0.137-0.559-0.169-0.701 0.132-0.715 0.317-0.673 0.58-0.646 0.694-0.719 0.863-0.608 1.022-0.471 1.095-0.299 1.204 0.118 1.18 0.418 1.045 0.761 0.76 1.024 0.472 1.086 0.218 1.166 3e-3 1.175-0.107 1.173-0.33 1.049-0.483 0.846-0.647 0.9-1.015-0.447-0.62-1.19 0.49-0.802 0.296-0.893 0.223-0.948 0.201-0.943 0.068-0.897 3e-3 -0.679-0.135-0.508-0.234-0.24-0.24-0.172-0.429-0.06-0.585 0.174-0.738 0.352-0.848 0.454-0.804 0.577-0.727 0.529-0.601 0.389-0.362 0.286-0.153 0.121-0.047 0.209 9e-3 0.115-0.021 0.155 0.037 0.244 0.083 0.23 0.055 0.364 0.076 0.173-0.097 0.129-0.058 0.357-0.058" __comx="377.203" __comy="413.643" __timestamp="0x1963b003d9a"/><path class="write-flat-pen" transform="translate(17.75 -1.326)" d="m365.3 414.9-0.306-0.075-0.269-0.064-0.375-0.081-0.41-0.118-0.34-0.163-0.216-0.105-0.073-0.093-0.015-0.077-0.068-0.087-0.896 0.708-0.012 0.166 0.115 0.408 0.25 0.543 0.433 0.738 0.52 0.717 0.544 0.703 0.565 0.66 0.605 0.574 0.658 0.439 0.744 0.231 0.782-0.015 0.681-0.361 0.694-0.568-0.142-0.315-0.8 0.106-0.494-0.128-0.397-0.132-0.376-0.18-0.401-0.267-0.454-0.43-0.494-0.573-0.518-0.654-0.481-0.636-0.389-0.616-0.222-0.399-0.121-0.24-0.071-0.07-0.896 0.708 0.052-0.025 0.16 0.04 0.338 0.023 0.257-0.047 0.365 0.016 0.474-2e-3 0.389-0.019 0.262-5e-3 0.306 0.026" __comx="383.348" __comy="413.643" __timestamp="0x1963b003e73"/><path class="write-flat-pen" transform="translate(17.75 -1.326)" d="m372.2 413.1 0.04-0.231 0.14-0.107 0.194-0.18 0.115-0.022 0.04 0.089-0.718-0.547-0.152 0.063-0.134 0.215-0.278 0.538-0.401 0.852-0.443 1.142-0.494 1.482-0.622 1.81-0.737 2.122-0.885 2.379-1.074 2.579-1.042 2.718-1.044 2.787-0.868 2.633-0.633 2.366-0.447 1.958-0.247 1.518 0.074 1.137 0.54 0.95 0.937 0.017 0.911-0.722-0.347-0.661-0.754 0.153 0.29-0.1 0.129 7e-3 0.074-0.627 0.226-1.308 0.434-1.87 0.604-2.284 0.839-2.548 1.019-2.751 1.017-2.696 1.047-2.602 0.879-2.449 0.678-2.178 0.554-1.839 0.449-1.461 0.383-1.095 0.305-0.854 0.195-0.583 0.099-0.371-0.094-0.232-0.718-0.547-0.193 0.205-0.063 0.331-0.042 0.231-0.093 0.246 0.04 0.336" __comx="385.509" __comy="413.643" __timestamp="0x1963b003f6d"/><path class="write-flat-pen" d="m406.8 405.9 0.087-0.347 0.075-0.189-0.018-0.187 0.026-0.076-0.993-0.113-0.167 0.248 0.016 0.525 0.103 0.622 0.248 0.967 0.394 1.163 0.52 1.333 0.662 1.462 0.624 1.451 0.629 1.402 0.573 1.221 0.437 1.098 0.429 0.869 0.322 0.59 0.15 0.322-0.152-0.335 0.707-0.696 0.413 0.131-0.117-0.08-0.237-0.217-0.312-0.371-0.431-0.519-0.453-0.568-0.454-0.625-0.523-0.754-0.544-0.81-0.594-0.95-0.736-1.033-0.672-1.063-0.579-1.155-0.43-1.176-0.294-1.264-0.156-1.243-0.048-1.255 0.031-1.107 0.105-0.909 0.205-0.661 0.266-0.42 0.317-0.255 0.576-0.192 0.808-0.123 0.985 0.051 1.058 0.163 1.036 0.273 1.011 0.366 1.038 0.405 0.949 0.406 0.768 0.347 0.421 0.301 0.119 0.151-0.023-0.054-0.022 0.033-0.223 0.319-0.46 0.435-0.75 0.576-0.863 0.656-0.919 0.631-0.895 0.606-0.823 0.512-0.705 0.405-0.569 0.247-0.549 0.157-0.463 0.125-0.673 0.231-0.573 0.833 0.311 0.973 0.648 0.55 0.823 0.373 1.149 0.188 1.546-2e-3 0.097-0.407-1.335-0.688-0.852-0.459-0.414-0.333-0.058-0.156 0.132 0.326-0.278 0.422 0.032-6e-3 0.421-0.112 0.688-0.196 0.784-0.342 0.827-0.476 0.883-0.55 0.931-0.631 0.965-0.664 0.902-0.698 0.84-0.661 0.66-0.682 0.424-0.682 0.272-0.793-0.259-0.876-0.529-0.617-0.757-0.522-0.939-0.421-0.994-0.416-1.083-0.421-1.106-0.398-1.202-0.316-1.238-0.19-1.253-0.065-1.135 0.172-1.014 0.336-0.804 0.629-0.556 0.875-0.326 1.046-0.132 1.154-0.027 1.247 0.068 1.394 0.201 1.405 0.354 1.446 0.509 1.357 0.659 1.315 0.743 1.174 0.734 1.03 0.585 0.932 0.573 0.838 0.539 0.777 0.489 0.67 0.489 0.61 0.45 0.54 0.394 0.455 0.411 0.372 0.414 0.273 0.766 0.247 0.827-0.812-0.33-0.75-0.203-0.384-0.326-0.589-0.396-0.779-0.443-1.078-0.606-1.253-0.666-1.366-0.671-1.43-0.691-1.423-0.542-1.258-0.428-1.074-0.284-0.86-0.133-0.495-0.042-0.122-0.047 0.011-0.993-0.113 0.085 0.161 0.098 0.046 0.075-0.01 0.087 0.347" __comx="410.194" __comy="414.969" __timestamp="0x1963b00434d"/><path class="write-flat-pen" d="m422.4 412.7-0.424-0.086-0.298-0.042-0.424-0.055-0.544-0.044-0.454-0.058-0.396-0.062-0.328-0.117-0.367-0.129-0.501-0.104-0.591 0.073-0.591 0.289-0.559 0.565-0.367 0.789-0.192 0.852-0.089 0.941 0.165 0.959 0.382 0.883 0.724 0.702 0.968 0.378 1.067 0.087 1.115-0.237 1.028-0.426 0.981-0.615 0.787-0.804 0.652-0.807 0.449-0.876 0.244-0.934-0.029-0.874-0.186-0.833-0.397-0.739-0.538-0.621-0.663-0.519-0.782-0.43-0.857-0.307-0.824-0.196-0.874-0.137-0.83 0.044-0.724 0.21-0.592 0.522-0.254 0.788 0.214 0.774 0.461 0.581 0.63 0.44 0.774 0.337 0.805 0.187 0.905 0.088 1.297-0.147 0.054-0.763-1.172-0.32-0.685-0.265-0.552-0.283-0.46-0.31-0.254-0.266-0.07-0.125 0.039 0.126-0.079 0.257-0.12 0.111 0.099-0.026 0.407-0.014 0.6 0.096 0.646 0.16 0.617 0.221 0.513 0.276 0.396 0.306 0.288 0.321 0.189 0.32 0.109 0.404 0.032 0.422-0.113 0.478-0.257 0.539-0.465 0.605-0.566 0.608-0.671 0.447-0.736 0.338-0.711 0.174-0.581-0.029-0.444-0.153-0.277-0.24-0.207-0.412-0.129-0.569 0.028-0.649 0.102-0.621 0.164-0.448 0.205-0.258 0.177-0.122 0.173-0.047 0.263 0.016 0.342 0.045 0.436 0.062 0.488-3e-3 0.488 1e-3 0.573-0.044 0.46-0.055 0.291-0.1 0.396-0.086" __comx="420.603" __comy="414.969" __timestamp="0x1963b004501"/><path class="write-flat-pen" d="m428.5 401.1 0.068-0.388 0.084-0.353 0.078-0.442 0.087-0.514-0.08-0.521-0.151-0.224-0.927 0.046-0.168 0.169-0.31 0.468-0.212 0.757-0.22 1.019-0.247 1.298-0.276 1.56-0.298 1.845-0.352 1.977-0.252 1.971-0.193 1.879-5e-3 1.665 0.093 1.426 0.278 1.248 0.512 0.986 0.639 0.79 0.793 0.566 0.87 0.395 0.909 0.083 0.879-0.208 0.744-0.524 0.632-0.66 0.596-0.815 0.488-0.892 0.378-0.931 0.282-0.89 0.168-0.818 0.185-0.632 0.122-0.388 0.029-0.059-0.606 0.303-0.211-0.359 0.055 0.356 0.107 0.634 0.076 0.858 0.087 0.941 0.099 1.025 0.165 0.972 0.138 0.757 0.093 0.606 0.286 0.742 1.153 0.314 0.41-0.917 0.2-0.59 0.231-0.879 0.125-1.145 0.148-1.283 0.092-1.383 0.064-1.477-0.029-1.511-0.186-1.467-0.305-1.358-0.324-1.121-0.206-0.867-0.145-0.576-0.018-0.064-0.038 0.112-1.47 0.152 0.062 0.107 0.095 0.383 0.262 0.781 0.367 1.031 0.489 1.168 0.772 1.442 0.553-0.184-0.234-1.585-0.159-1.248-0.28-1.087-0.211-0.751-0.138-0.559-0.175-0.304-1.47 0.152-0.097 0.29 0.098 0.522 0.15 0.603 0.206 0.898 0.323 1.117 0.284 1.233 0.167 1.302 0.029 1.374-0.053 1.408-0.086 1.324-0.143 1.249-0.111 1.034-0.18 0.711-0.156 0.469 0.177-0.386 0.916 0.252 0.05 0.156-0.082-0.456-0.157-0.771-0.188-0.913-0.138-0.976-0.149-0.944-0.16-0.91-0.184-0.662-0.124-0.524-0.448-0.774-0.722 0.361-0.266 0.472-0.172 0.496-0.226 0.663-0.244 0.772-0.308 0.759-0.389 0.776-0.454 0.698-0.521 0.597-0.489 0.403-0.373 0.182-0.299 0.029-0.328-0.037-0.425-0.194-0.441-0.315-0.362-0.447-0.314-0.604-0.195-0.873-0.082-1.223-5e-3 -1.515 0.16-1.771 0.218-1.914 0.299-1.967 0.23-1.866 0.197-1.558 0.165-1.292 0.133-0.985 0.082-0.538 0.101-0.238 0.068-0.126-0.927 0.046 0.024-0.046 0.098 0.068 0.087 0.367 0.078 0.442 0.084 0.353 0.068 0.388" __comx="430.827" __comy="414.969" __timestamp="0x1963b004759"/><path class="write-flat-pen" d="m443.4 413.2 0.087-0.439 0.036-0.268-0.027-0.283-0.061-0.392-0.188-0.403-0.199-0.397-0.217-0.413-0.322-0.454-0.423-0.439-0.525-0.304-0.694-0.206-0.829 0.266-0.595 0.632-0.418 0.747-0.372 0.996-0.265 1.077-0.136 1.143 0.069 1.158 0.375 1.062 0.598 0.903 0.813 0.74 0.868 0.489 0.875 0.255 0.801 0.11 0.771-0.109 0.659-0.279 1.076-0.689-0.462-1.099-1.14 0.242-0.462 0.016-0.404 0.011-0.436-0.068-0.537-0.156-0.489-0.275-0.482-0.438-0.344-0.509-0.211-0.59-0.051-0.724 0.1-0.862 0.205-0.866 0.275-0.768 0.23-0.432 0.114-0.132-0.123 0.029 0.012-0.028 0.181 0.049 0.225 0.151 0.267 0.251 0.252 0.293 0.274 0.309 0.165 0.187 0.117 0.256 0.148 0.19 0.094 0.085 0.087 0.372" __comx="441.68" __comy="414.969" __timestamp="0x1963b004885"/><path class="write-flat-pen" d="m445.6 412.1-0.17-0.296-0.138-0.191-0.107-0.157-0.145-0.191-0.154-0.11-0.663 0.826 0.039 0.174 0.142 0.329 0.299 0.532 0.412 0.691 0.426 0.717 0.502 0.791 0.515 0.73 0.501 0.664 0.574 0.608 0.575 0.424 0.679 0.263 0.74 2e-3 0.826-0.321v-0.424l-0.715-0.321-0.38-0.234-0.322-0.268-0.367-0.282-0.427-0.451-0.441-0.573-0.486-0.682-0.499-0.741-0.458-0.695-0.472-0.666-0.349-0.469-0.211-0.261-0.136-0.117-0.663 0.826 0.02-0.052 0.15 0.042 0.246 0.021 0.157-0.013 0.255 0.121" __comx="447.337" __comy="414.969" __timestamp="0x1963b00496f"/><path class="write-flat-pen" d="m454.8 410.4-0.259 0.491-0.108 0.201-0.137 0.296-0.131 0.401-0.22 0.478-0.358 0.749-0.414 0.991-0.6 1.332-0.742 1.712-0.754 2.071-0.852 2.475-0.915 2.8-0.921 2.999-1.008 3.152-0.857 2.926-0.744 2.558-0.413 2.072-0.252 2.237 1.605 0.272 0.489-2.137 0.529-1.93 0.73-2.506 0.849-2.902 0.997-3.146 0.902-3.007 0.853-2.792 0.796-2.469 0.658-2.051 0.611-1.704 0.521-1.375 0.35-1.01 0.29-0.783 0.194-0.639 0.044-0.483 0.041-0.351-0.05-0.21 0.053-0.465" __comx="450.352" __comy="414.969" __timestamp="0x1963b004a69"/></g><a target="_top" xlink:href="/privacy"><rect x="324.8" y="395.9" width="130.8" height="44.74" fill-opacity="0" stroke-opacity="0"/></a></g></g></svg>
