<?xml version="1.0" encoding="UTF-8"?>
<svg width="92.2mm" height="9.39mm" version="1.1" viewBox="0 0 92.2 9.39" xmlns="http://www.w3.org/2000/svg" xmlns:xlink="http://www.w3.org/1999/xlink"><g transform="translate(-18.52 -114.8)"><g class="hyperref" transform="matrix(.2646 0 0 .2646 -14.22 -54.91)" __timestamp="0x1963b078fa1"><g fill="#00f" stroke-width="2.4"><path class="write-flat-pen" d="m129.4 648.8 0.135-0.303 0.105-0.237 0.197-0.36 0.261-0.535 0.21-0.552 0.26-0.579 0.188-0.602 0.131-0.565 0.12-0.573-0.098-0.605-0.265-0.587-0.509-0.389-0.564-0.244-0.604-0.087-0.66-0.012-0.796 0.119-0.806 0.383-0.767 0.609-0.656 0.875-0.579 1.04-0.495 1.191-0.34 1.3-0.161 1.274-7e-3 1.212 0.278 1.156 0.495 1.045 0.814 0.915 0.931 0.79 1.003 0.795 0.988 0.764 0.935 0.822 0.897 0.811 0.803 0.784 0.7 0.701 0.57 0.572 0.353 0.453 0.16 0.312 4e-3 0.074 5e-3 -0.086-0.036 0.025-0.409 0.211-0.727 0.315-0.963 0.343-2.13 0.803-0.99 0.377-0.84 0.319-0.651 0.203-0.472 0.079-0.109 0.015 0.442 0.154 0.294 0.626-0.142 0.287 0.08-0.245 0.368-0.55 0.627-0.785 0.965-1.305-0.464-0.503-1.375 0.853-0.881 0.582-0.668 0.533-0.485 0.555-0.284 0.805 0.437 0.908 0.864 0.296 0.645-0.081 0.66-0.11 0.854-0.266 0.903-0.342 0.989-0.377 2.108-0.797 1.017-0.364 0.873-0.389 0.817-0.449 0.624-0.728 0.191-0.886-0.182-0.822-0.408-0.724-0.541-0.676-0.655-0.654-0.712-0.711-0.847-0.816-0.94-0.839-0.995-0.872-1.037-0.79-0.976-0.76-0.812-0.671-0.551-0.592-0.305-0.603-0.193-0.727-7e-3 -0.86 0.121-1.035 0.274-1.054 0.399-0.977 0.458-0.843 0.427-0.586 0.412-0.331 0.37-0.184 0.383-0.068 0.423-0.012 0.292 7e-3 0.19 0.038 0.056-0.011 0.063 0.024 0.091 0.149 0.024 0.32-8e-3 0.52-0.048 0.527-0.116 0.597-0.075 0.58-0.114 0.548-0.085 0.44 9e-3 0.281-0.039 0.311" __comx="129.267" __comy="658.945" __timestamp="0x1963b02b6e7"/><path class="write-flat-pen" d="m133.2 657.2-0.237 0.141-0.241 0.131-0.259 0.305-0.29 0.42-0.194 0.514-0.074 0.596 0.126 0.656 0.453 0.578 0.726 0.368 0.853 0.142 0.924-0.157 0.876-0.341 0.839-0.484 0.833-0.559 0.769-0.68 0.657-0.73 0.523-0.833 0.286-0.79 0.196-0.731 0.101-0.685-0.017-0.632-0.193-0.656-0.435-0.599-0.58-0.32-0.634-0.21-0.784 0.028-0.789 0.208-0.819 0.349-0.813 0.552-0.755 0.725-0.598 0.891-0.394 1.009-0.27 1.055-0.114 1.159 0.146 1.168 0.411 1.147 0.694 1.024 0.965 0.818 1.066 0.588 1.097 0.372 1.202 0.118 1.257-0.156 1.278-0.392 1.898-0.643-0.255-1.074-1.952 0.273-1.173 0.077-0.958-0.06-0.822-0.164-0.742-0.242-0.721-0.399-0.592-0.503-0.389-0.576-0.247-0.689-0.09-0.715 0.075-0.774 0.199-0.782 0.266-0.685 0.345-0.523 0.468-0.451 0.505-0.344 0.503-0.216 0.434-0.121 0.206-0.019 0.12 0.026 0.034 9e-3 -0.013-0.034 0.043 0.098 0.03 0.215-0.039 0.397-0.135 0.541-0.183 0.529-0.326 0.535-0.473 0.542-0.596 0.542-0.675 0.478-0.668 0.413-0.585 0.27-0.488 0.125-0.372 2e-3 -0.264-0.057-0.112-0.033-0.11-0.145-0.074-0.3-5e-3 -0.333 0.086-0.381 0.07-0.309 0.045-0.198 0.128-0.23" __comx="137.408" __comy="658.945" __timestamp="0x1963b02b867"/><path class="write-flat-pen" d="m145.8 654.1-0.207-0.08-0.162-0.087-0.12-0.072-0.132-0.113-0.053-0.097-0.019-0.082 0.061-0.039 0.077 1e-3 -0.849 0.07-0.165 0.157-0.091 0.319-0.064 0.421-0.034 0.68-0.031 0.872-0.027 1.059-0.025 1.139 3e-3 1.178 0.101 1.089 0.17 0.946 0.37 0.814 0.557 0.496 0.626 0.314 0.762-0.039 0.636-0.358 0.398-0.509 0.316-0.57 0.271-0.605 0.276-0.55 0.291-0.606 0.205-0.451 0.163-0.294-0.132 0.234-0.903 0.138-0.245-0.354 0.148 0.307 0.243 0.531 0.276 0.68 0.429 0.743 0.55 0.672 0.7 0.527 0.852 0.315 0.962 7e-3 0.938-0.259 0.848-0.535 1.01-0.798-0.247-0.494-1.181 0.295-0.799 0.03-0.616-0.023-0.449-0.133-0.326-0.156-0.29-0.227-0.297-0.364-0.279-0.483-0.242-0.592-0.275-0.599-0.228-0.447-0.53-0.779-1.232 0.185-0.368 0.612-0.213 0.413-0.22 0.489-0.274 0.573-0.289 0.579-0.247 0.574-0.202 0.37-0.073 0.105 0.071-0.029 0.148 7e-3 0.015 0.031-0.104-0.069-0.149-0.269-0.159-0.658-0.135-0.934-0.043-1.083-0.025-1.123-0.027-1.059-0.031-0.872-0.034-0.638-0.018-0.333-0.044-0.01-0.07 0.014-0.849 0.07 0.123 0.05 0.154 8e-3 0.077-0.035 0.133-3e-3 0.247 0.03 0.162-0.025 0.166 6e-3 0.223 0.032" __comx="149.371" __comy="658.945" __timestamp="0x1963b02baaf"/><path class="write-flat-pen" d="m157.9 658.2 0.018-0.227 0.101-0.115 0.099-0.23 0.027-0.363-0.087-0.341-0.103-0.318-0.218-0.334-0.256-0.31-0.357-0.322-0.451-0.207-0.444-0.154-0.59-0.057-0.653 0.117-0.7 0.238-0.786 0.478-0.734 0.704-0.589 0.883-0.392 1.046-0.091 1.102 0.144 1.105 0.433 1.016 0.704 0.822 0.904 0.649 1.034 0.38 1.12 0.129 1.161-0.179 1.093-0.545 0.976-0.802 0.894-0.996 0.747-1.219 0.576-1.305 0.395-1.381 0.206-1.376 0.101-1.337 0.026-1.274-0.025-1.254-0.096-1.209-0.205-1.204-0.308-1.106-0.34-0.924-0.246-0.717-0.288-0.643-0.234-0.229-1.784 0.739v0.325l0.026 0.75 0.097 1.154 0.192 1.53 0.236 1.862 0.26 2.008 0.288 2.069 0.424 1.967 0.615 1.693 0.782 1.341 0.938 1.038 1.633 1.681 1.433-1.657-1.768-1.259-0.569-0.892-0.536-1.11-0.515-1.416-0.376-1.753-0.276-1.983-0.258-1.995-0.235-1.858-0.187-1.486-0.089-1.061-0.023-0.662v-0.289l-1.784 0.739-0.045-0.04 0.09 0.204 0.223 0.651 0.32 0.866 0.257 0.92 0.173 1.008 0.09 1.053 0.024 1.147-0.023 1.176-0.085 1.205-0.173 1.168-0.312 1.116-0.46 1.05-0.571 0.947-0.66 0.747-0.671 0.563-0.604 0.305-0.582 0.103-0.62-0.06-0.57-0.185-0.508-0.34-0.378-0.403-0.228-0.489-0.092-0.639 0.051-0.642 0.22-0.601 0.354-0.532 0.442-0.425 0.44-0.276 0.383-0.141 0.29-0.069 0.164-0.01 0.217 0.035 0.206 0.029 0.161 0.054 0.216 0.115 0.158 0.088 0.133 0.107 0.148 0.13 0.122 0.108 0.099 0.146 0.101 0.167 0.133 0.243" __comx="158.656" __comy="658.945" __timestamp="0x1963b02bc72"/><path class="write-flat-pen" d="m184.4 658.1-0.041-0.241-0.081-0.213-0.084-0.239-0.082-0.346-0.1-0.297-0.047-0.276-0.052-0.301-0.038-0.244 3e-3 -0.272-0.036-0.332-0.068-0.289-0.032-0.252-0.023-0.299-0.059-0.251-0.043-0.186-0.035-0.184-0.034-0.101-0.041-0.176-0.125-0.147-1.254 0.499-0.018 0.224 0.077 0.196 9e-3 0.082 0.046 0.265 0.048 0.394 0.073 0.641 0.076 0.795 0.057 0.993 0.059 1.114 0.086 1.13 0.17 1.058 0.231 0.951 0.327 0.778 0.421 0.572 0.623 0.477 0.768 0.014 0.611-0.237 0.491-0.435 0.425-0.607 0.322-0.72 0.231-0.742 0.227-0.778 0.153-0.749 0.103-0.534 0.165-0.434 0.102-0.306-0.031 0.061-0.427 0.343-0.584-0.151-0.213-0.171-0.015-0.033 0.067 0.356 0.066 0.646 0.13 0.833 0.242 0.863 0.326 0.801 0.501 0.679 0.738 0.507 0.86 0.051 0.783-0.259 0.673-0.413 0.649-0.592 0.581-0.659 0.514-0.693 0.445-0.676 0.293-0.562 0.241-0.408-0.071 0.141h-1.379l-0.097-0.68 0.048 0.31 0.069 0.464 0.093 0.648 0.097 0.775 0.154 0.82 0.215 0.806 0.319 0.764 0.477 0.577 0.55 0.462 0.713 0.243 0.669-8e-3 0.675-0.159 0.525-0.39 0.399-0.456 0.31-0.52 0.27-0.469 0.241-0.426 0.203-0.405 0.115-0.376-0.029-0.337-0.112-0.311-0.19-0.224-0.375-0.172-0.465 0.169-0.173 0.444 0.091 0.45 0.246 0.479 0.368 0.438 0.429 0.406 0.527 0.392 0.642 0.229 0.65 0.06 0.725-0.12 0.637-0.368 0.518-0.475 0.453-0.558 0.335-0.635 0.214-0.657 0.097-0.605 7e-3 -0.533-0.064-0.541-0.242-0.511-0.371-0.383-0.441-0.272-0.4-0.117-0.43-0.108-0.545-9e-3 -0.6 0.066-0.588 0.254-0.536 0.35-0.541 0.601-0.355 0.766-0.158 0.878-0.035 1.016 0.22 1.074 0.365 1.08 0.522 1.101 0.798 0.998 1.036 0.862 1.315 0.584 1.494 0.204 1.621-0.143 1.743-0.386 2.944-0.683-0.635-2.098-2.735 1.034-1.555 0.228-1.298 0.044-1.004-0.172-0.804-0.359-0.66-0.549-0.521-0.652-0.372-0.783-0.296-0.85-0.155-0.716 0.012-0.635 0.078-0.487 0.116-0.27 0.163-0.199 0.172-0.121 0.166-0.075 0.2-0.03 0.209-9e-3 0.182 0.035 0.119 0.026 0.031 0.011 7e-3 -7e-3 -6e-3 -0.039 0.029 0.116 7e-3 0.27-0.045 0.335-0.115 0.379-0.183 0.354-0.255 0.338-0.282 0.276-0.21 0.15-0.218 0.069-0.244 0.013-0.254-0.053-0.32-0.172-0.372-0.255-0.292-0.22-0.176-0.181-0.052 0.025-0.126 0.258-0.276 0.073-0.046-0.076 0.045-0.038 0.077 0.068 0.018 0.135-0.071 0.235-0.176 0.349-0.23 0.375-0.341 0.332-0.398 0.234-0.401 0.062-0.322-0.012-0.268-0.066-0.224-0.102-0.136-0.089-0.154-0.15-0.183-0.223-0.153-0.368-0.161-0.605-0.129-0.688-0.092-0.733-0.096-0.67-0.071-0.476-0.048-0.304-0.144-1.009h-1.568l-0.446 0.895-0.23 0.393-0.271 0.521-0.355 0.549-0.429 0.579-0.455 0.517-0.434 0.398-0.317 0.201-0.206 0.07 0.06 4e-3 -0.016-0.011-0.16-0.217-0.192-0.471-0.181-0.645-0.105-0.672-0.076-0.675-0.12-0.631-0.25-0.601-0.496-0.404-0.773-0.2-0.662 0.532-0.22 0.439-0.134 0.399-0.21 0.555-0.132 0.692-0.129 0.663-0.198 0.683-0.191 0.623-0.196 0.458-0.189 0.287-0.074 0.083 0.047-1e-3 0.203 0.014 0.056 0.055-0.144-0.182-0.191-0.448-0.191-0.746-0.161-0.918-0.101-1.039-0.084-1.098-0.085-1.032-0.11-0.852-0.116-0.68-0.095-0.453-0.093-0.346-0.087-0.25-0.016 0.01-0.018 0.128-1.254 0.499-0.079-0.097 5e-3 -0.037 0.062 0.088 0.059 0.098 0.099 0.19 0.081 0.127 0.073 0.219 0.108 0.313 0.121 0.276 0.106 0.233 0.096 0.296 0.151 0.274 0.134 0.264 0.142 0.288 0.183 0.268 0.154 0.315 0.152 0.233 0.108 0.163 0.068 0.2" __comx="195.961" __comy="658.945" __timestamp="0x1963b02c267"/><path class="write-flat-pen" d="m230.1 657.2-0.012-0.268 0.05-0.121 0.032-0.138-2e-3 -0.241 0.116 0.025 0.053 0.227h-1.268l-0.046 0.207 0.116 0.334 0.093 0.329 0.203 0.566 0.297 0.732 0.325 0.873 0.392 0.964 0.434 0.996 0.503 0.883 0.51 0.801 0.584 0.695 0.696 0.577 0.755 0.331 0.79 0.154 0.781-0.149 0.693-0.261 0.637-0.438 0.566-0.522 0.481-0.592 0.461-0.615 0.453-0.675 0.475-0.712 0.444-0.671 0.449-0.598 0.345-0.487 0.261-0.388 0.175-0.333 0.075-0.554-0.789-0.653-0.597 0.416-0.223 0.185-0.33 0.356-0.349 0.572-0.404 0.67-0.5 0.872-0.571 1.069-0.631 1.267-0.724 1.407-0.743 1.534-0.763 1.58-0.721 1.548-0.628 1.466-0.517 1.353-0.352 1.23-0.227 1.107-0.077 0.905 0.022 0.709 0.249 0.786 0.913 0.479 0.765-0.463 0.471-0.566 0.941-1.132-0.925-0.754-0.849 1.065-0.426 0.188 0.107-0.134 0.534 0.243 0.109 0.128 0.068-0.423 0.065-0.742 0.195-0.919 0.308-1.078 0.472-1.238 0.594-1.407 0.693-1.514 0.745-1.575 0.716-1.528 0.691-1.419 0.594-1.276 0.512-1.05 0.443-0.871 0.347-0.696 0.218-0.465 0.138-0.209 0.062-0.098-0.41 0.273-0.6-0.51 0.075-0.318 0.033 0.138-0.068 0.366-0.173 0.499-0.351 0.628-0.403 0.694-0.468 0.702-0.44 0.643-0.482 0.515-0.509 0.398-0.563 0.232-0.542 0.126-0.483 0.021-0.398-0.053-0.339-0.128-0.377-0.187-0.387-0.32-0.406-0.481-0.43-0.66-0.44-0.764-0.413-0.89-0.411-0.92-0.379-0.871-0.364-0.726-0.269-0.52-0.19-0.329-0.073-0.044-0.046 0.114h-1.268l0.053 0.274 0.165 0.071 0.091-5e-3 0.125 0.051 0.099 0.021 0.15 0.218" __comx="235.068" __comy="658.945" __timestamp="0x1963b02c5f6"/><path class="write-flat-pen" d="m247.2 659.2 0.07-0.399 0.116-0.118 0.073-0.159 0.082-0.233 0.064-0.336-0.089-0.492-0.442-0.429-0.409-0.104-0.482-0.065-0.501 0.173-0.425 0.206-0.504 0.321-0.504 0.444-0.473 0.56-0.412 0.706-0.308 0.839-0.213 0.937-0.11 1.035 0.08 1.041 0.254 0.988 0.491 0.943 0.779 0.756 0.852 0.499 0.981 0.301 1.049-0.066 0.931-0.393 0.84-0.647 0.66-0.857 0.522-0.895 0.366-0.919 0.199-0.902 0.065-0.827-0.089-0.769-0.228-0.787-0.434-0.677-0.539-0.572-0.655-0.448-0.713-0.242-0.718-0.103-0.77 0.128-0.703 0.419-0.518 0.601-0.342 0.711-0.152 0.875 0.158 0.881 0.432 0.763 0.647 0.613 1.285 0.54 0.559-0.996-0.887-0.68-0.156-0.376-0.087-0.367 0.018-0.298 0.084-0.301 0.129-0.232 0.14-0.153 0.097-0.052 0.08-0.012 0.223 0.037 0.276 0.09 0.241 0.163 0.262 0.275 0.178 0.266 0.101 0.342 0.054 0.41-0.031 0.491-0.13 0.606-0.245 0.635-0.375 0.659-0.423 0.555-0.432 0.343-0.387 0.172-0.363 0.03-0.434-0.124-0.466-0.255-0.4-0.373-0.263-0.472-0.168-0.613-0.063-0.702 0.079-0.752 0.162-0.714 0.21-0.573 0.248-0.426 0.281-0.334 0.297-0.263 0.296-0.197 0.235-0.123 0.017-0.016 0.036-0.019-0.08-0.057-0.206-0.24 5e-3 -0.209 0.064 0.043 0.036 0.239 0.073 0.217 0.116 0.118 0.07 0.399" __comx="246.725" __comy="658.945" __timestamp="0x1963b02c7d9"/><path class="write-flat-pen" d="m253.9 658.7-1e-3 -0.236 0.083-4e-3 0.082-0.177 0.037-0.198 0.042-0.13-0.016-0.561-0.576-0.211-0.456-0.05-0.47 0.348-0.321 0.458-0.175 0.586-0.169 0.718-0.117 0.889-0.058 0.932-0.035 0.96 0.079 0.921 0.296 0.861 0.6 0.703 0.85 0.294 0.758 0.043 0.716-0.209 0.61-0.319 0.476-0.471 0.33-0.486 0.255-0.538 0.161-0.581 0.047-0.497 0.051-0.378 0.071-0.427 0.067-0.384 0.092-0.373 0.041-0.3-0.015-0.09-0.054-3e-3 -1.4-0.103 0.055 0.034 0.056 0.088 0.095 0.201 0.135 0.248 0.157 0.254 0.325 0.228 0.327 0.148 0.255 0.105 0.23 0.133 0.189 0.174 0.169 0.219 0.18 0.339 0.196 0.431 0.246 0.441 0.599 0.714 0.818-0.526-0.352-0.764-0.133-0.406-0.226-0.465-0.245-0.462-0.303-0.392-0.375-0.344-0.427-0.246-0.312-0.128-0.191-0.087-4e-3 -7e-3 0.014 0.018-0.052-0.131-1e-3 -0.082 9e-3 -0.098 8e-3 -0.109-1.4-0.103-0.1 0.09-0.111 0.242-0.099 0.265-0.144 0.38-0.122 0.463-0.115 0.469-0.092 0.469-0.046 0.397-0.075 0.269-0.123 0.262-0.141 0.219-0.135 0.143-0.19 0.103-0.227 0.074-0.182-4e-3 -0.139-0.035-0.06-0.05-0.126-0.315-0.064-0.587 0.011-0.83 0.038-0.858 0.069-0.758 0.114-0.603 0.061-0.308 0.01-0.06-0.187 0.112-0.27-0.05-0.387-0.164 0.03-0.279 0.092 0.105 0.083 0.084 0.082 0.106 0.083 0.091 0.168 0.272" __comx="255.738" __comy="658.945" __timestamp="0x1963b02c99c"/><path class="write-flat-pen" d="m260.5 657.2-0.261-0.071-0.07-0.101-0.141-0.081-0.352-0.066-0.37 0.302-0.201 0.456 0.024 0.541 0.109 0.58 0.173 0.734 0.252 0.906 0.283 1.024 0.339 1.103 0.316 0.964 0.262 0.856 0.284 0.686 0.248 0.479 0.389 0.459 0.678 0.264 0.637-0.199 0.465-0.455 0.161-0.576 0.039-0.568-0.096-0.628-0.194-0.561-0.21-0.56-0.247-0.47-0.207-0.463-0.221-0.441-0.222-0.455-0.176-0.407-0.079-0.288 3e-3 -0.068-0.011 0.038-0.015 0.023 0.168-0.056 0.34-0.037 0.494 0.083 0.725 0.241 0.892 0.414 1.135 0.611 1.289 0.422 2.092 0.487 0.445-1.502-1.953-0.712-1.066-0.474-1.08-0.565-1.038-0.482-0.972-0.324-0.918-0.153-0.839 0.106-0.726 0.273-0.533 0.494-0.343 0.745 0.052 0.779 0.203 0.606 0.246 0.536 0.249 0.488 0.204 0.406 0.216 0.48 0.224 0.424 0.168 0.429 0.135 0.382 0.047 0.266-0.011 0.186 0.021-0.057 0.183-0.173 0.355-0.106 0.299 0.124 0.014 0.034-0.13-0.229-0.234-0.536-0.256-0.794-0.342-0.966-0.368-1.063-0.329-1.002-0.316-0.884-0.249-0.681-0.173-0.456-0.072-0.164-0.059 0.031-0.181 0.113-0.07-0.066 0.141-0.081 0.07-0.101 0.261-0.071" __comx="264.374" __comy="658.945" __timestamp="0x1963b02cd33"/><path class="write-flat-pen" d="m285.6 653.8-0.082-0.358-0.076-0.494-0.09-0.761-0.147-1.025-0.123-1.046-0.12-0.978-0.094-0.902-0.073-0.834-0.059-0.678-0.017-0.568-0.027-0.452-0.01-0.421-0.045-0.364-0.014-0.303 2e-3 -0.3 0.02-0.283-6e-3 -0.19 0.014-0.063h-1.808l-0.017 0.141 0.045 0.292 0.047 0.54 0.08 0.996 0.107 1.454 0.135 1.792 0.16 1.985 0.184 2.05 0.159 1.947 0.139 1.825 0.09 1.642 0.093 1.461 0.067 1.247 0.122 1.102 0.125 0.879 0.152 0.701 0.156 0.565 0.306 0.56 1.101 0.659 0.724-0.857 0.233-0.357 0.263-0.507 0.246-0.615 0.325-0.745 0.283-0.915 0.262-0.929 0.25-0.887 0.266-0.759 0.316-0.576 0.309-0.391 0.149-0.113-0.096 0.011 0.016 0.011 0.241 0.242 0.355 0.599 0.416 0.885 0.422 0.961 0.45 0.976 0.517 0.872 0.575 0.694 0.659 0.506 0.85 0.258 0.787-0.231 0.533-0.421 0.29-0.554 0.168-0.571 0.196-0.671-0.323-0.222-0.544 0.406-0.443 0.23-0.324 0.06-0.172-0.045-0.013-0.089v-0.027l-0.188-0.152-0.322-0.389-0.377-0.636-0.397-0.86-0.427-0.971-0.477-0.998-0.541-0.909-0.699-0.698-0.928-0.414-1.039 0.151-0.791 0.594-0.587 0.741-0.484 0.882-0.345 0.984-0.268 0.95-0.256 0.908-0.236 0.782-0.289 0.667-0.222 0.563-0.162 0.34-0.096 0.162 0.488-0.575 0.865 0.52 0.07 0.135-0.08-0.282-0.13-0.571-0.111-0.771-0.114-1.017-0.072-1.201-0.096-1.461-0.099-1.653-0.144-1.851-0.17-1.962-0.194-2.048-0.169-1.971-0.148-1.788-0.129-1.466-0.109-1.03-0.093-0.636-0.05-0.18-0.017 0.045h-1.808l0.014 0.172 0.041 0.188 0.02 0.235 0.051 0.407 0.079 0.401 0.098 0.343 0.083 0.379 0.116 0.445 0.122 0.562 0.177 0.687 0.209 0.816 0.235 0.888 0.258 0.951 0.253 1.026 0.278 1.001 0.193 0.746 0.159 0.492 0.129 0.353" __comx="289.495" __comy="658.945" __timestamp="0x1963b02d2d2"/><path class="write-flat-pen" d="m297.8 658.5 0.017-0.156 0.091-0.075 0.124-0.141 0.142-0.091 0.155-0.047 0.078 0.049 0.07 0.068-0.053 0.163-0.255 0.065 0.329-1.396-0.015-0.096-0.137-0.101-0.23-0.072-0.223-0.062-0.265-0.014-0.259-0.012-0.282-0.011-0.345-6e-3 -0.507 0.039-0.487 0.221-0.432 0.297-0.335 0.442-0.265 0.433-0.261 0.524-0.23 0.6-0.174 0.625-0.114 0.633-0.087 0.673-0.029 0.663 0.054 0.737 0.179 0.723 0.291 0.625 0.377 0.648 0.534 0.612 0.682 0.503 0.721 0.351 0.753 0.193 0.8 0.069 0.851-0.129 0.854-0.371 0.798-0.659 0.59-0.854 0.466-0.87 0.359-0.961 0.213-0.955 0.147-0.945-0.094-0.987-0.279-0.845-0.395-0.727-0.606-0.641-0.731-0.413-0.842-0.177-0.852 0.093-0.75 0.317-0.553 0.451-0.312 0.491-0.132 0.678 0.295 0.607 0.498 0.221 0.957 0.221 0.378-0.946-0.697-0.439 0.169-0.015 0.202 0.325 7e-3 0.209 0.017 0.066 0.154-0.067 0.24-0.062 0.231-1e-3 0.194 0.059 0.166 0.105 0.194 0.206 0.169 0.309 0.146 0.427 0.046 0.474-0.089 0.609-0.163 0.739-0.255 0.689-0.335 0.638-0.351 0.511-0.335 0.284-0.322 0.147-0.328 0.057-0.376-0.024-0.379-0.089-0.361-0.167-0.355-0.25-0.266-0.285-0.237-0.389-0.178-0.362-0.103-0.363-0.041-0.439 0.017-0.466 0.056-0.552 0.076-0.499 0.108-0.458 0.145-0.436 0.163-0.369 0.158-0.274 0.09-0.122 0.04-0.032 0.031-0.015 0.104-0.01 0.269-6e-3 0.282-0.011 0.259-0.012 0.11-0.014 0.059-0.012 6e-3 -0.026-0.041-0.054 0.078-0.049 0.329-1.396-0.302 0.065-0.1 0.209-0.026 0.117-0.062 0.235-0.035 0.189-0.047 0.238-0.015 0.191-0.052 0.161 0.017 0.235" __comx="298.152" __comy="658.945" __timestamp="0x1963b02d4d5"/><path class="write-flat-pen" d="m301.8 658.9-0.073-0.223-9e-3 -0.12-0.024-0.205 2e-3 -0.215 0.025-0.23 0.018-0.228-0.032-0.295-0.194-0.331-0.227-0.185-0.23-0.151-0.306-0.047-0.495-0.037-0.423 0.589 0.033 0.622 0.222 0.498 0.285 0.615 0.396 0.743 0.419 0.87 0.522 1.017 0.511 1.036 0.532 1.026 0.613 0.997 0.729 0.881 1.462 1.002 1.002-1.334-1.191-0.99-0.496-0.626-0.517-0.84-0.504-0.95-0.525-1.037-0.56-1.009-0.478-0.873-0.451-0.718-0.327-0.561-0.156-0.209-0.013 0.2-0.33 0.446-0.26-0.037 0.072-0.047 6e-3 -0.058 0.056-0.043 0.042-0.048 0.061 0.034 0.065 0.15 0.071 0.242 0.098 0.254 0.116 0.219 0.087 0.116 0.138 0.204" __comx="303.203" __comy="658.945" __timestamp="0x1963b02d70e"/><path class="write-flat-pen" d="m306.9 658.8-0.054-0.28-0.016-0.27-0.032-0.351-0.043-0.408 7e-3 -0.304 0.042-0.27 0.018-0.257 9e-3 -0.115 0.038-0.126 0.01-0.054 0.037 0.136h-1.422l-0.032 0.127 4e-3 0.298 0.023 0.488 0.072 0.762 0.105 1.05 0.18 1.221 0.207 1.333 0.23 1.282 0.256 1.121 0.251 0.934 0.341 0.768 0.428 0.602 0.667 0.433 0.812 0.023 0.603-0.308 0.477-0.463 0.31-0.604 0.241-0.606 0.214-0.633 0.256-0.641 0.25-0.654 0.284-0.605 0.309-0.594 0.296-0.507 0.256-0.365 0.179-0.179-0.454 0.049-0.16-0.091 0.132 0.134 0.245 0.41 0.316 0.61 0.3 0.741 0.371 0.767 0.485 0.757 0.681 0.59 0.814 0.322 0.839 0.055 0.796-0.237 0.676-0.486 0.562-0.654 0.565-0.64 0.58-0.633 0.477-0.654 0.354-0.572 0.307-0.545 0.23-0.485 0.113-0.508-0.033-0.554-0.27-0.51-0.405-0.379-0.479-0.266-0.507-0.196-0.584-0.092-0.68 8e-3 -0.764 0.241-0.718 0.565-0.535 0.841-0.359 0.96-0.264 1.062-0.159 1.155 0.023 1.094 0.196 0.987 0.358 0.907 0.728 0.703 0.98 0.227 0.998-0.173 0.928-0.545 0.892-0.745 0.835-1.043 0.721-1.207 0.639-1.368 0.489-1.476 0.305-1.494 0.155-1.456 0.027-1.471-0.147-1.439-0.247-1.386-0.347-1.432-0.504-1.363-0.544-1.196-0.53-0.992-0.564-0.694-0.818-0.695-1.274 0.422-0.298 1.013-0.085 0.878v1.282l0.098 1.634 0.217 1.972 0.311 2.229 0.432 2.305 0.508 2.225 0.614 1.99 0.691 1.621 0.799 1.283 1.362 1.521 1.296-1.05-1.1-1.518-0.52-1.119-0.581-1.441-0.564-1.823-0.481-2.109-0.415-2.218-0.3-2.152-0.208-1.891-0.091-1.521v-1.119l0.057-0.583-0.063 0.213-0.852 0.282-0.204-0.177 0.329 0.389 0.413 0.752 0.492 1.063 0.439 1.181 0.311 1.255 0.225 1.251 0.135 1.244-0.02 1.262-0.128 1.274-0.26 1.286-0.407 1.257-0.54 1.174-0.598 1.008-0.623 0.793-0.615 0.527-0.486 0.302-0.274 0.063-0.102-8e-3 -0.073-0.051-0.16-0.365-0.133-0.661-0.023-0.789 0.124-0.917 0.207-0.87 0.253-0.688 0.265-0.431 0.224-0.189 0.225-0.088 0.307-0.039 0.312 1e-3 0.294 0.04 0.275 0.063 0.16 0.046 0.108 0.054 0.106 0.153 0.066 0.292-6e-3 0.409-0.118 0.541-0.258 0.557-0.419 0.618-0.596 0.543-0.66 0.445-0.663 0.193-0.546-0.015-0.382-0.05-0.29-0.131-0.272-0.15-0.213-0.21-0.269-0.422-0.289-0.598-0.311-0.767-0.392-0.755-0.413-0.673-0.482-0.48-0.629-0.373-0.925 0.096-0.811 0.811-0.404 0.578-0.362 0.622-0.351 0.678-0.327 0.713-0.268 0.711-0.262 0.681-0.211 0.637-0.181 0.479-0.115 0.243-0.041 0.055 0.085-0.026 0.198 0.023 0.055 0.057-0.136-0.152-0.224-0.458-0.22-0.763-0.262-1.045-0.241-1.215-0.218-1.304-0.196-1.18-0.131-1.022-0.117-0.745-0.071-0.455-0.042-0.22-0.032-0.06h-1.422l0.037 0.183 0.057 0.039 0.038 0.017 0.102 0.167 0.065 0.118 0.091 0.294 0.147 0.356 0.193 0.392 0.157 0.309 0.124 0.248 0.132 0.266" __comx="314.964" __comy="658.945" __timestamp="0x1963b02dc0e"/><path class="write-flat-pen" d="m328.5 661 0.016-0.227 0.013-0.165 0.015-0.26 0.019-0.314-5e-3 -0.306-0.03-0.235-0.036-0.223-0.06-0.178-0.031-0.124-0.03-0.104-0.012-0.072 0.01-0.019-0.01-0.079v-0.091l-0.031-0.164-0.018-0.149-9e-3 -0.112 6e-3 -0.108 6e-3 -0.101 0.02-0.15-0.016-0.177-0.037-0.256-0.146-0.221-0.138-0.196-0.064-0.066-0.059-0.111 0.026 9e-3 0.016 0.031-0.079-0.212-0.037-0.113-0.018-0.06-0.03-0.189 6e-3 -0.012 0.013 0.052-0.042-0.215-0.073-0.259 0.082 0.069 9e-3 0.101-0.155-0.335-0.207-0.216-0.034-0.023 0.081 0.082-1.277 0.114-0.158 0.219-0.051 0.329-0.051 0.269-0.057 0.453-0.026 0.456-0.025 0.571-0.03 0.653-1e-3 0.83 0.073 0.861 0.068 0.83 0.127 0.855 0.249 0.79 0.376 0.694 0.554 0.539 0.6 0.331 0.683 0.182 0.638-0.12 0.487-0.182 0.47-0.323 0.375-0.369 0.257-0.353 0.207-0.343 0.076-0.188 0.042-0.072 0.039-0.073-1.342 0.376 0.017 0.018 0.059 0.068 0.214 0.287 0.416 0.474 0.466 0.467 0.647 0.499 0.754 0.317 0.855 0.121 0.807-0.19 0.69-0.409 0.544-0.597 0.405-0.643 0.308-0.747 0.177-0.775 0.089-0.81-0.055-0.841-0.143-0.747-0.261-0.768-0.357-0.656-0.408-0.563-0.485-0.443-0.484-0.241-0.622-0.187-1.117 0.407 0.109 1.153 0.612 0.352 0.538 0.035 0.77-0.018 0.117-0.445-0.572-0.371-0.12-0.294 0.234 0.023 0.109 0.917-0.785 0.311-0.154 2e-3 0.13 0.088 0.127 0.124 0.206 0.284 0.208 0.38 0.161 0.457 0.093 0.475 0.041 0.527-0.053 0.509-0.105 0.497-0.163 0.429-0.206 0.346-0.21 0.25-0.157 0.109-0.136 0.046-0.228-0.019-0.282-0.108-0.343-0.255-0.334-0.333-0.338-0.373-0.258-0.327-0.319-0.308-0.216-0.124-1.342 0.376-0.011 0.023-0.097 0.164-0.067 0.188-0.076 0.129-0.119 0.165-0.143 0.149-0.144 0.102-0.124 0.053-0.069 0.02-0.071-7e-3 -0.201-0.091-0.2-0.169-0.189-0.295-0.175-0.482-0.108-0.653-0.072-0.771-0.069-0.787-1e-3 -0.724 0.02-0.619 0.022-0.558 0.021-0.394 0.036-0.347 0.045-0.249h-5e-3l-0.065 0.076-1.277 0.114 0.127 0.131 0.062 0.024-0.16-0.17-0.108-0.242 9e-3 0.147 0.129 0.118-0.027-0.119 7e-3 -0.025 0.013 0.192 0.099 0.13 0.016 0.046 0.078 0.176 0.056 0.123 0.064 0.117 0.063 0.22 0.166 0.149 0.131 0.171 0.125 0.077 0.048 0.039-4e-3 -0.032 0.01-0.023 0.03 0.058 0.02 0.133 0.056 0.184 0.053 0.174 0.084 0.171 0.075 0.134 0.065 0.118 0.047 0.098 0.083 0.156 0.059 0.074 0.081 0.068 0.064 0.038 0.065 0.066 0.08 0.105 0.06 0.153 0.063 0.19 0.041 0.258 0.019 0.298 0.015 0.26 0.013 0.165 0.016 0.227" __comx="331.009" __comy="658.945" __timestamp="0x1963b02e05c"/><path class="write-flat-pen" d="m336.6 658 0.209-0.047 0.174 0.042 0.195-0.104 0.199-0.186 0.063-0.078 0.049 0.035-1.185 0.084 0.022 0.146 0.087 0.208 0.145 0.346 0.239 0.575 0.332 0.707 0.439 0.755 0.447 0.69 0.461 0.576 0.431 0.475 0.391 0.322 0.255 0.193 0.067 0.061-0.123-0.096-0.068-0.108 1.788-0.306 0.018 0.129 0.06-0.154-0.091-0.521-0.092-0.42-0.12-0.545-0.177-0.611-0.214-0.659-0.242-0.702-0.262-0.691-0.252-0.689-0.221-0.661-0.143-0.567-0.07-0.447-7e-3 -0.34 6e-3 -0.012-0.184 0.329-0.521 0.268-0.353-0.133 0.071 0.051 0.253 0.272 0.451 0.451 0.576 0.466 0.624 0.413 0.694 0.341 0.706 0.173 0.603 0.033 1.051-0.063 0.185-1.123-0.919-0.388-0.387-0.202-0.426-0.251-0.482-0.27-0.459-0.294-0.414-0.335-0.35-0.35-0.361-0.389-0.447-0.324-0.728-0.276-0.803 0.41-0.373 0.658 6e-3 0.599 0.039 0.509 0.119 0.636 0.186 0.705 0.251 0.751 0.266 0.725 0.257 0.674 0.23 0.663 0.208 0.613 0.154 0.521 0.116 0.491 0.094 0.38 5e-3 -3e-3 0.014-0.015 0.018 0.175 1.788-0.306-0.117-0.248-0.309-0.285-0.216-0.128-0.217-0.136-0.269-0.197-0.323-0.325-0.386-0.46-0.4-0.581-0.411-0.656-0.326-0.611-0.279-0.557-0.234-0.408-0.149-0.167-0.071-0.043-1.185 0.084 3e-3 0.178 0.063 0.015 0.103 3e-3 0.102 0.035 0.081 0.088-0.161 0.144" __comx="339.924" __comy="658.945" __timestamp="0x1963b02e1dc"/><path class="write-flat-pen" d="m345.2 655.6 0.023-0.295 0.051-0.14 0.07-0.097-0.064-0.458-0.895-0.071-0.176 0.563-0.131 0.256-0.129 0.467-0.119 0.586-0.112 0.755-0.08 0.89-0.071 0.954-0.047 1.071 0.067 1.039 0.218 0.952 0.348 0.827 0.5 0.579 0.602 0.431 0.808 0.134 0.651-0.328 0.458-0.473 0.215-0.639 0.113-0.659 0.033-0.782-0.123-0.888-0.234-0.886-0.352-0.892-0.55-0.847-0.598-0.9-0.595-1.078-0.513-1.304-0.445-1.48-0.453-1.582-0.389-1.571-0.333-1.461-0.223-1.223-0.105-0.892-0.06-0.582-0.073-0.626-0.326-0.18-0.979 0.531-0.045 0.303 0.111 0.518 0.276 0.606 0.366 0.685 0.448 0.821 0.551 0.81 0.632 0.798 0.956 0.821 0.474-0.38-0.553-1.065-0.405-0.853-0.438-0.838-0.449-0.78-0.339-0.634-0.196-0.43-0.032-0.143 2e-3 -0.072-0.979 0.531-0.23-0.134 0.067-0.014 0.222 0.551 0.319 0.849 0.438 1.181 0.514 1.412 0.505 1.538 0.49 1.573 0.452 1.486 0.473 1.336 0.395 1.181 0.298 1.033 0.204 0.896 0.116 0.802 0.051 0.761-0.03 0.669-0.109 0.536-0.123 0.424-0.068 0.115 0.036-0.051 0.18-0.092 0.243 0.04-0.059-0.041-0.158-0.175-0.17-0.398-0.16-0.649-0.073-0.798v-0.955l0.022-0.929 0.013-0.853 0.03-0.703 0.023-0.546 0.011-0.38 0.011-0.262-0.129 0.327-0.849-0.071-0.017-0.315 0.117 0.042 0.1 2e-3 0.023 0.21" __comx="344.306" __comy="658.945" __timestamp="0x1963b02e38d"/><path class="write-flat-pen" d="m350.4 645.8 0.273-0.271 0.181-0.282 0.211-0.355 0.223-0.475 0.114-0.345 0.103-0.195 0.082-0.066-1.239 0.145-0.123-0.122-0.039 0.014-0.058 0.503-0.056 0.795-0.105 1.133-0.145 1.542-0.194 1.972-0.207 2.272-0.155 2.483-0.03 2.396 0.17 2.164 0.329 1.779 0.512 1.372 0.602 0.952 0.615 0.615 0.63 0.411 0.504 0.207 0.34 0.102 0.259 0.06 0.191-8e-3 0.093-0.038 0.238-1.492 0.215 0.023 0.016 0.057-0.297-0.205-0.406-0.329-0.489-0.442-0.599-0.527-0.738-0.618-0.809-0.666-0.886-0.695-0.907-0.668-0.76-0.561-0.646-0.461-0.482-0.328-0.162-0.119 0.026-8e-3 -0.264 1.309 0.077-8e-3 0.298-0.059 0.593-0.125 0.835-0.213 0.988-0.314 1.039-0.392 0.971-0.448 0.928-0.508 0.829-0.58 0.755-0.672 0.601-0.779 0.436-0.883 0.241-0.919 0.141-0.955 0.163-1.021 0.175-1.027 0.166-1.002 0.096-0.985 0.057-0.93 0.067-0.931 0.031-0.959 0.017-0.935-0.01-0.839 9e-3 -0.481 0.038 0.102-0.795 0.376-0.255-0.362 0.091 0.316 0.048 0.708 0.086 1.124 0.109 1.516 0.088 1.822 0.093 2.124 0.028 2.267 0.031 2.327 0.019 2.158 0.094 1.933 0.17 1.554 0.231 1.215 0.322 0.938 0.368 0.568 0.486 0.521 1.259 0.181 0.426-1.117-0.154-0.617-0.331-0.542-0.479-0.477-0.557-0.471-0.619-0.517-0.666-0.582-0.71-0.682-0.697-0.69-0.583-0.648-0.365-0.472-0.081-0.126 7e-3 0.651-0.58 0.101 0.027 0.032 0.224 0.119 0.323 0.176 0.457 0.281 0.561 0.306 0.717 0.319 0.749 0.222 0.75 0.123 0.782-0.102 1.125-0.403-0.218-1.046-1.051 0.051-0.49-0.102-0.522-0.113-0.569-0.156-0.555-0.246-0.475-0.258-0.486-0.284-0.43-0.202-0.433-0.163-0.444-0.061-0.909 0.148 7e-3 1.026 0.341 0.534 0.436 0.565 0.643 0.717 0.717 0.725 0.701 0.73 0.652 0.643 0.56 0.566 0.433 0.472 0.226 0.323 0.048 0.166-0.06-0.195 0.333-0.881 0.976 0.135 0.107 0.096-0.15-0.232-0.196-0.569-0.191-0.997-0.161-1.415-0.092-1.833-0.03-2.129-0.062-2.336-0.065-2.3-0.143-2.163-0.148-1.852-0.173-1.546-0.15-1.137-0.141-0.939-0.285-0.58-0.49-0.785-1.03 0.469-0.105 0.809 0.105 0.648 0.13 0.811 0.11 0.901 0.081 0.925 0.018 0.905-0.036 0.907-0.093 0.947-0.163 0.974-0.2 0.998-0.309 0.958-0.331 0.835-0.37 0.682-0.461 0.578-0.529 0.491-0.659 0.46-0.726 0.456-0.816 0.432-0.866 0.402-0.938 0.362-0.898 0.298-0.766 0.211-0.583 0.157-0.409 0.128-0.159 0.088-0.264 1.309 0.166 0.132 0.356 0.164 0.461 0.239 0.626 0.387 0.748 0.522 0.884 0.651 0.857 0.672 0.792 0.652 0.721 0.604 0.58 0.51 0.501 0.454 0.441 0.378 0.317 0.264 0.345 0.293 0.262 0.023 0.238-1.492-0.05-0.084-0.091-0.102-0.21-0.129-0.321-0.134-0.296-0.122-0.312-0.203-0.326-0.325-0.387-0.602-0.384-1.029-0.282-1.518-0.159-1.981 0.017-2.267 0.127-2.416 0.169-2.251 0.138-1.983 0.091-1.566 0.035-1.176-9e-3 -0.806-0.011-0.44 0.01-0.408-0.172-0.218-1.239 0.145 0.036 0.124 0.01 0.276 0.02 0.313-0.062 0.421-0.071 0.399-6e-3 0.282-0.109 0.299" __comx="352.349" __comy="658.945" __timestamp="0x1963b02e723"/><path class="write-flat-pen" d="m360.4 657.8-0.394-0.263-0.115-0.071-0.023-0.063v1.027l-0.327 0.05h-0.048l0.341 0.182 0.275 0.176 0.436 0.139 0.501 0.064 0.487 8e-3 0.557-0.063 0.508-0.184 0.456-0.265 0.39-0.376 0.286-0.408 0.241-0.441 0.201-0.517 0.142-0.538 0.079-0.502 0.061-0.443 2e-3 -0.482-0.12-0.551-0.476-0.489-0.537-0.205-0.598-0.078-0.706 0.071-0.761 0.32-0.651 0.587-0.553 0.752-0.428 0.872-0.283 0.932-0.205 0.947-0.076 0.943 0.038 0.95 0.223 0.953 0.411 0.837 0.643 0.717 0.774 0.456 0.79 0.294 0.86 0.178h0.884l0.99-0.051 1.223-0.175 1.407-0.288 1.636-0.419 1.776-0.579 2.552-1.036-0.54-1.486-2.561 0.823-1.711 0.411-1.566 0.335-1.326 0.23-1.085 0.154-0.846 0.042h-0.624l-0.505-0.104-0.482-0.177-0.355-0.202-0.254-0.272-0.201-0.388-0.155-0.554-0.056-0.651 0.018-0.705 0.127-0.75 0.188-0.715 0.276-0.589 0.344-0.471 0.289-0.263 0.229-0.102 0.237-0.025 0.202 0.018-0.019-0.019-0.147-0.157-0.024-0.129 2e-3 0.178-0.035 0.311-0.06 0.391-0.094 0.359-0.128 0.33-0.137 0.266-0.139 0.204-0.128 0.142-0.155 0.11-0.199 0.101-0.29 0.077-0.314 0.055-0.3 0.017-0.178-1e-3 -0.193-0.06 9e-3 0.04-0.142-0.189-0.374 0.05v1.027l0.023-0.063-0.068-0.071 0.28 0.083" __comx="366.195" __comy="658.945" __timestamp="0x1963b02e927"/><path class="write-flat-pen" d="m367.6 654.7 5e-3 -0.259 0.083-0.163 0.065-0.172 0.09-0.209 0.079-0.141 0.069-0.093 0.059-0.071-1.327 0.212-0.062 0.012-0.019 0.22 0.064 0.487 0.055 0.738 0.105 0.975 0.115 1.064 0.143 1.153 0.228 1.083 0.233 1.025 0.304 0.894 0.324 0.717 0.372 0.599 0.437 0.445 0.684 0.379 0.868-0.127 0.64-0.422 0.516-0.545 0.527-0.684 0.527-0.796 0.507-0.821 0.463-0.784 0.431-0.646 0.415-0.519 0.329-0.347 0.218-0.157 0.033-0.01-0.042-2e-3 0.128 0.095 0.244 0.335 0.303 0.652 0.3 0.89 0.276 0.944 0.273 0.92 0.326 0.819 0.422 0.723 0.587 0.497 0.801 0.297 1.778-8e-3 -0.261-2.175-1.197 0.349 0.047-0.081-0.071-0.161-0.192-0.36-0.238-0.595-0.245-0.823-0.289-0.985-0.361-1.043-0.451-0.949-0.603-0.794-0.812-0.519-0.892-0.142-0.814 0.272-0.63 0.454-0.521 0.55-0.525 0.657-0.512 0.768-0.48 0.817-0.48 0.779-0.463 0.711-0.416 0.542-0.284 0.302-0.067 0.049 0.257-0.034 0.166 0.097-0.081-0.073-0.193-0.294-0.243-0.508-0.261-0.706-0.238-0.908-0.244-0.99-0.186-1.06-0.168-1.055-0.177-0.958-0.134-0.769-0.123-0.453-0.069-0.298-0.109-0.13-1.327 0.212 0.059 0.071 0.069 0.093 0.079 0.141 0.09 0.263 0.112 0.16 0.083 0.166 0.118 0.278" __comx="373.648" __comy="658.945" __timestamp="0x1963b02ebd2"/><path class="write-flat-pen" d="m402.4 657.9 0.224-0.154 0.233-0.117 0.318-0.212 0.429-0.303 0.348-0.3 0.359-0.297 0.271-0.257 0.292-0.28 0.135-0.519-0.21-0.553-0.478-0.224-0.384-0.128-0.38-0.05-0.5-0.051-0.572 0.012-0.623 0.127-0.644 0.217-0.654 0.357-0.619 0.538-0.572 0.632-0.592 0.808-0.533 0.96-0.45 1.07-0.323 1.192-0.136 1.21 0.056 1.163 0.324 1.103 0.573 0.965 0.805 0.804 1.011 0.625 1.219 0.356 1.307 0.024 1.375-0.369 1.322-0.74 1.434-1.435-0.443-0.663-1.771 0.705-1.128 0.389-0.98 0.149-0.812-0.023-0.714-0.209-0.589-0.365-0.467-0.468-0.323-0.543-0.194-0.638-0.038-0.77 0.1-0.909 0.242-0.927 0.351-0.862 0.41-0.781 0.444-0.653 0.417-0.497 0.37-0.358 0.336-0.208 0.392-0.162 0.364-0.106 0.325-0.038 0.393-1e-3 0.234-3e-3 0.181 0.011-0.103-0.081-0.114-0.364 0.088-0.143 7e-3 0.145-0.105 0.308-0.206 0.361-0.217 0.361-0.325 0.355-0.247 0.259-0.192 0.166-0.209 0.193" __comx="402.015" __comy="658.945" __timestamp="0x1963b02efd9"/><path class="write-flat-pen" d="m411.1 657.4-0.304-0.135-0.284-0.129-0.424-0.087-0.567-0.075-0.571-0.016-0.605-9e-3 -0.567 0.059-0.502 0.066-0.501 0.094-0.48 0.228-0.406 0.306-0.413 0.487-0.346 0.64-0.287 0.748-0.224 0.867-0.096 0.958 0.079 0.961 0.327 0.946 0.67 0.788 0.952 0.55 1.031 0.306 1.141 0.097 1.14-0.133 1.111-0.299 1.005-0.496 0.824-0.559 0.676-0.668 0.468-0.758 0.253-0.816 5e-3 -0.828-0.201-0.812-0.406-0.787-0.659-0.693-0.804-0.529-0.946-0.374-1.025-0.248-1.079-0.082-1.049 0.116-0.951 0.261-0.8 0.547-0.529 0.815 0.033 1.057 0.728 0.732 1.566 0.614 0.68-1.471-1.128-0.63 0.114 0.024 0.033 0.303-0.011 0.061 0.19-0.113 0.464-0.114 0.692-0.073 0.711 0.06 0.718 0.174 0.608 0.24 0.421 0.271 0.284 0.297 0.159 0.296 0.081 0.317 5e-3 0.257-0.076 0.267-0.192 0.325-0.361 0.368-0.541 0.384-0.692 0.352-0.772 0.219-0.793 0.103-0.742-0.046-0.616-0.165-0.463-0.25-0.224-0.248-0.145-0.373-0.063-0.547 0.046-0.642 0.151-0.641 0.184-0.571 0.172-0.396 0.151-0.22 0.112-0.116 0.134-0.1 0.253-0.095 0.438-0.123 0.469-0.13 0.527-0.103 0.512-0.109 0.516-0.075 0.424-0.087 0.284-0.129 0.304-0.135" __comx="409.406" __comy="658.945" __timestamp="0x1963b02f159"/><path class="write-flat-pen" d="m415.9 658.3-0.059-0.243-0.072-0.149-0.088-0.206-0.231-0.257-0.26-0.27-0.226-0.206-0.148-0.178-0.103-0.191-0.016-0.102 0.011-0.114-4e-3 -0.168 0.027-0.1 0.044-0.113 0.042-0.127 0.013 0.066-0.073 0.199-0.083 0.102-1.694-0.701-6e-3 0.302 0.214 0.364 0.101 0.17 0.12 0.234 0.132 0.335 0.162 0.459 0.139 0.525 0.104 0.625 0.108 0.741 0.04 0.788 0.024 0.834 0.022 0.787-3e-3 0.691v0.631l0.104 0.596 0.269 0.671 0.715 0.418 0.693 0.01 0.621-0.272 0.426-0.461 0.361-0.487 0.259-0.57 0.234-0.507 0.233-0.487 0.209-0.441 0.273-0.439 0.282-0.445 0.235-0.376 0.156-0.245-0.046 0.068-0.678 0.41-0.671-0.46-0.058-0.086 0.066 0.137 0.091 0.311 0.159 0.53 0.188 0.443 0.127 0.435 0.298 0.59 0.897 0.692 0.981-0.214 0.4-0.358 0.417-0.329 0.412-0.493 0.378-0.423 0.403-0.424 0.36-0.36 0.267-0.228 0.116-0.085-0.204 0.082-0.325-0.074-0.051-0.035 0.127 0.149 0.213 0.371 0.254 0.53 0.252 0.597 0.273 0.62 0.288 0.575 0.302 0.511 0.413 0.467 0.504 0.317 0.583 0.106 1.227-0.125v-1.607l-0.898-0.125 0.065-0.084-0.015-0.059-0.105-0.147-0.17-0.289-0.23-0.461-0.245-0.556-0.266-0.629-0.311-0.649-0.354-0.616-0.438-0.512-0.523-0.364-0.747-0.17-0.675 0.271-0.402 0.293-0.394 0.337-0.44 0.441-0.444 0.469-0.423 0.474-0.295 0.354-0.291 0.235-0.022 0.021 0.556-0.121 0.286 0.221 0.013 0.025-0.106-0.365-0.191-0.451-0.124-0.413-0.144-0.49-0.217-0.428-0.248-0.369-0.811-0.556-0.914 0.553-0.235 0.35-0.173 0.273-0.236 0.378-0.283 0.449-0.341 0.55-0.26 0.549-0.239 0.502-0.238 0.529-0.166 0.37-0.157 0.22-0.045 0.057 0.199-0.082 0.315 0.01 0.386 0.229 0.08 0.199-0.036-0.204v-0.451l-3e-3 -0.721-0.024-0.817-0.026-0.86-0.054-0.908-0.128-0.859-0.132-0.741-0.19-0.701-0.216-0.578-0.197-0.466-0.209-0.378-0.135-0.208 0.072 0.128-6e-3 0.255-1.694-0.701-0.13 0.148-0.119 0.295-0.033 0.252-4e-3 0.251-5e-3 0.309 0.077 0.418 0.136 0.35 0.2 0.404 0.312 0.277 0.322 0.231 0.37 0.154 0.292 0.076 0.305 0.106 0.24 0.075 0.148 0.077 0.118 0.037 0.123 0.132" __comx="420.115" __comy="658.945" __timestamp="0x1963b02f4dd"/><path class="write-flat-pen" d="m427.5 660.5 0.134-0.061 0.023 3e-3 0.077-0.035 0.049-0.02 0.055-0.203-0.019-0.07-0.021-0.12-0.066-0.206-0.078-0.265-0.059-0.243-0.056-0.236-0.046-0.244-0.066-0.24-0.031-0.229-0.01-0.248v-0.223l0.038-0.261 0.037-0.282 0.037-0.307 0.012-0.312 0.01-0.295 2e-3 -0.27-0.048-0.323-0.065-0.176-0.045-0.198-0.166-0.19-1.318 0.315-0.104 0.238 0.034 0.38 0.027 0.319 0.027 0.522 0.072 0.612 4e-3 0.735-8e-3 0.937 0.062 1.044 0.063 1.06 0.063 1.046 0.112 0.883 0.063 0.744 0.082 0.747 0.219 0.566 0.256 0.569 0.69 0.503 0.99-0.137 0.469-0.689 0.189-0.574 0.102-0.559 0.172-0.629 0.106-0.75 0.096-0.738 0.096-0.783 0.091-0.771 0.123-0.675 0.207-0.622 0.199-0.531 0.153-0.37 0.01-0.023-0.78 0.626-0.664-0.663 0.038 0.077 0.124 0.267 0.129 0.452 0.228 0.625 0.298 0.542 0.317 0.569 0.495 0.455 0.565 0.31 0.715 0.119 0.678-0.243 0.472-0.39 0.375-0.402 0.329-0.401 0.261-0.319 0.214-0.198 0.153-0.115 0.088-0.04-0.097 0.017-0.201-0.053-0.142-0.123 0.017 0.042 0.084 0.354 0.083 0.477 0.074 0.634 0.126 0.577 0.115 0.61 0.29 0.61 0.43 0.476 0.713 0.366 0.775-0.218 0.554-0.325 0.563-0.485 0.528-0.562 0.563-0.6 0.457-0.657 0.294-0.644 0.155-0.555 0.046-0.416-0.046-0.288-0.034-0.132-1.274 0.904 0.031 0.021 0.059 0.057 0.219 0.296 0.47 0.458 0.574 0.396 0.673 0.232 0.751 0.127 0.803 0.013 0.809-0.166 0.718-0.276 0.678-0.37 0.514-0.426 0.48-0.393 0.362-0.46 0.244-0.468 0.152-0.661-0.362-0.744-0.572-0.362-0.55-0.116-0.569-0.085-0.672-1e-3 -0.676 0.08-0.753 0.135-0.795 0.251-0.789 0.387-0.662 0.545-0.489 0.749-0.291 0.859 0.033 0.914 0.239 0.903 0.588 0.831 0.786 0.635 0.944 0.545 1.06 0.334 1.144 0.217 1.243-1e-3 1.228-0.219 1.218-0.344 1.111-0.485 0.949-0.546 0.765-0.547 0.543-0.604 0.298-0.605 0.121-0.561-0.132-0.691h-0.459l-0.132 0.521-0.254 0.193-0.363 0.245-0.494 0.243-0.696 0.3-0.888 0.351-0.961 0.315-1.043 0.221-0.984 0.157-0.876-1e-3 -0.835-0.159-0.73-0.23-0.61-0.352-0.439-0.355-0.212-0.298-0.09-0.322-0.014-0.312 0.084-0.271 0.172-0.288 0.232-0.209 0.436-0.225 0.523-0.174 0.565-0.101 0.503-0.06 0.411-1e-3 0.374 0.055 0.154 0.027-0.193-0.126-0.175-0.368 0.059-0.236-0.038 0.097-0.11 0.152-0.321 0.268-0.379 0.328-0.407 0.242-0.458 0.196-0.463 0.117-0.469 0.013-0.474-0.062-0.316-0.097-0.273-0.168-0.284-0.249-0.253-0.316-0.27-0.225-0.112-0.075-1.274 0.904 0.016 0.057v-5e-3l-1e-3 0.055-0.08 0.292-0.177 0.392-0.297 0.429-0.473 0.482-0.462 0.427-0.38 0.219-0.247 0.054 0.164-0.079 0.288 0.131 8e-3 7e-3 -0.041-0.097-0.071-0.38-0.11-0.506-0.069-0.591-0.107-0.606-0.149-0.589-0.268-0.615-0.564-0.501-0.719-0.193-0.615 0.111-0.526 0.242-0.412 0.31-0.397 0.367-0.353 0.435-0.282 0.353-0.236 0.256-0.096 0.081 0.16-0.054 0.15 0.026-0.047-0.022-0.07-0.063-0.155-0.278-0.22-0.401-0.15-0.411-0.153-0.537-0.205-0.438-0.198-0.395-0.853-0.853-1.016 0.815-0.223 0.495-0.179 0.43-0.224 0.598-0.264 0.793-0.16 0.879-0.098 0.83-0.094 0.772-0.093 0.723-0.08 0.615-0.16 0.596-0.085 0.523-0.047 0.18 0.187-0.267 0.658-0.088 0.361 0.267-0.026-0.045-0.11-0.281-0.06-0.479-0.077-0.761-0.124-0.86-0.079-0.98-0.077-1.059-0.08-0.982-8e-3 -0.899-0.042-0.866-0.117-0.66-0.066-0.514-0.069-0.342-0.013 4e-3 -0.058 0.095-1.318 0.315-0.07-0.094 1e-3 -0.058 0.078 0.106 0.045 0.056 0.049 0.152 0.056 0.27 0.058 0.256 0.037 0.258 0.037 0.282 0.038 0.351 0.096 0.295 0.084 0.27 0.112 0.289 0.12 0.232 0.097 0.228 0.133 0.235 0.128 0.228 0.157 0.253 0.123 0.17 0.075 0.116 0.074 0.072 0.055-0.203-0.044 0.027-0.019 0.011-0.024 3e-3 -0.185 0.099" __comx="438.532" __comy="658.612" __timestamp="0x1963b03051c"/><path class="write-flat-pen" d="m448.9 657.7-0.16-0.257-0.081-0.201-0.069-0.195-0.2-0.362-0.657-0.209-0.36 0.467-0.192 0.338-0.139 0.559-0.067 0.621-0.039 0.737-4e-3 0.774 0.116 0.846 0.227 0.784 0.413 0.678 0.608 0.501 0.69 0.249 0.687 7e-3 0.647-0.183 0.58-0.347 0.513-0.5 0.437-0.601 0.347-0.629 0.325-0.646 0.27-0.612 0.246-0.555 0.189-0.474 0.102-0.237 0.069-0.104-0.35 0.446-0.856-0.28-0.106-0.178 0.1 0.281 0.142 0.466 0.13 0.668 0.164 0.754 0.17 0.851 0.255 0.916 0.33 0.934 0.543 0.871 0.761 0.755 1.033 0.357 1.067-0.111 1.009-0.502 0.899-0.811 0.827-0.98 0.753-1.126 0.666-1.196 0.614-1.254 0.553-1.278 0.528-1.273 0.488-1.364 0.414-1.486 0.34-1.55 0.267-1.605 0.239-1.612 0.216-1.553 0.218-1.413 0.243-1.174 0.226-0.791-0.035 0.127-1.133 0.025-0.096-0.29 0.047 0.765 0.079 1.264 0.016 1.567-0.011 1.849-0.035 1.949-0.035 2.03-9e-3 1.933 0.072 1.826 0.196 1.627 0.275 1.449 0.38 1.265 0.417 1.068 0.512 0.909 0.546 0.609 0.679 0.479 1.256-5e-3 0.437-1.179-0.304-0.754-0.513-0.528-0.625-0.416-0.775-0.363-0.858-0.366-0.988-0.382-1.119-0.42-1.113-0.464-1.09-0.463-0.982-0.457-0.799-0.411-0.569-0.308-0.326-0.164-0.105-0.082-0.316 1.658h0.043l0.283-0.022 0.601-0.01 0.972 0.017 1.28 0.012 1.365-0.019 1.522 1e-3 1.602-0.071 1.52-0.15 1.431-0.217 1.31-0.276 1.883-0.475-0.258-1.43-1.901 0.208-1.28 0.1-1.395 0.115-1.449 0.132-1.507 0.068-1.494 1e-3 -1.365 0.028-1.263 0.012-1.008 0.017-0.718 0.039-0.471 0.071-0.146 0.047-0.316 1.658 0.227 0.154 0.427 0.214 0.561 0.304 0.848 0.436 1.044 0.486 1.125 0.477 1.149 0.479 1.139 0.427 0.945 0.372 0.79 0.342 0.593 0.298 0.315 0.242 0.101 0.133-0.118-0.282 0.297-0.803 0.738-5e-3 0.019 7e-3 -0.254-0.285-0.335-0.599-0.337-0.865-0.327-1.09-0.244-1.281-0.18-1.482-0.07-1.707-9e-3 -1.882 0.012-2.019 0.011-1.96-0.011-1.874-0.031-1.635-0.107-1.327-0.095-0.932-0.332-1.183-1.416 0.025-0.41 1.067-0.245 0.953-0.228 1.277-0.207 1.46-0.206 1.555-0.233 1.59-0.251 1.551-0.32 1.465-0.386 1.387-0.455 1.273-0.508 1.224-0.53 1.219-0.611 1.147-0.652 1.066-0.705 0.946-0.727 0.761-0.655 0.507-0.499 0.205-0.3 0.031-0.19-0.068-0.275-0.281-0.307-0.495-0.235-0.667-0.217-0.781-0.159-0.796-0.165-0.754-0.153-0.746-0.19-0.617-0.183-0.473-0.342-0.6-1.139-0.376-0.539 0.682-0.213 0.321-0.18 0.421-0.186 0.469-0.226 0.528-0.248 0.567-0.287 0.577-0.267 0.503-0.27 0.388-0.238 0.254-0.174 0.121-0.153 0.053-0.116 7e-3 -0.11-0.033-0.146-0.111-0.151-0.219-0.148-0.439-0.12-0.615-0.051-0.638-0.039-0.678-0.021-0.509v-0.338l-3e-3 -0.134-0.217 0.234-0.421-0.162 0.129 0.013 0.214 0.087 0.201 0.081 0.257 0.16" __comx="459.566" __comy="652.642" __timestamp="0x1963b03085d"/></g><a target="_top" xlink:href="mailto:blog@lehnert.dev"><rect x="123.7" y="641.5" width="348.5" height="35.49" fill-opacity="0" stroke-opacity="0"/></a></g></g></svg>
