<?xml version="1.0" encoding="UTF-8"?>
<svg width="90.58mm" height="10.46mm" version="1.1" viewBox="0 0 90.58 10.46" xmlns="http://www.w3.org/2000/svg" xmlns:xlink="http://www.w3.org/1999/xlink"><g transform="translate(-19.31 -114.3)"><g class="hyperref" transform="matrix(.2646 0 0 .2646 -12.77 -36.52)" __timestamp="0x1963b076cdd"><g fill="#00f" stroke-width="2.4"><path class="write-flat-pen" d="m129 579.9 0.193-0.342 0.267-0.405 0.449-0.637 0.558-0.874 0.479-0.881 0.439-0.871 0.272-0.918 0.106-0.876-0.103-0.902-0.531-0.804-0.831-0.474-0.953-0.208-1.081 0.045-1.146 0.209-1.209 0.41-1.163 0.72-1.022 0.938-0.812 1.177-0.504 1.32-0.199 1.381 0.141 1.355 0.422 1.293 0.74 1.207 0.952 1.084 1.113 0.941 1.131 0.843 1.061 0.783 0.984 0.829 0.838 0.818 0.656 0.874 0.511 0.821 0.299 0.799 0.198 0.814 0.073 0.678-0.062 0.508-0.19 0.447-0.332 0.456-0.52 0.513-0.734 0.54-0.854 0.542-0.932 0.497-0.915 0.379-0.913 0.275-0.811 0.167-0.63 0.057-0.518-0.036-0.392-0.068-0.24-0.079 0.026 0.035 0.178 0.392-0.155 0.398 0.014-0.111 0.433-0.381 0.707-0.583 1.326-0.928-0.446-0.834-1.533 0.6-0.894 0.36-0.699 0.324-0.644 0.503-0.297 0.916 0.414 0.814 0.591 0.414 0.656 0.249 0.691 0.121 0.801 0.057 0.924-0.083 1.026-0.211 1.112-0.336 1.11-0.468 1.094-0.588 0.983-0.634 0.913-0.685 0.752-0.759 0.564-0.816 0.374-0.965 0.08-1.047-0.162-1.019-0.273-1.023-0.408-1.084-0.665-1.062-0.805-1.059-0.998-0.972-1.088-0.915-1.108-0.818-1.081-0.805-0.96-0.803-0.745-0.846-0.532-0.866-0.286-0.875-0.094-0.906 0.133-0.924 0.343-0.895 0.553-0.802 0.722-0.663 0.816-0.505 0.864-0.295 0.879-0.169 0.709-0.048 0.458 0.075 0.252 0.09 0.13 0.093 0.133 0.32 0.06 0.585-0.059 0.73-0.218 0.825-0.275 0.909-0.385 0.916-0.305 0.728-0.155 0.489-0.102 0.391" __comx="127.31" __comy="588.823" __timestamp="0x1963b021271"/><path class="write-flat-pen" d="m131.7 590.6-0.071 0.336-0.068 0.171-0.085 0.252 0.011 0.432 0.023 0.483 0.213 0.608 0.458 0.59 0.591 0.4 0.796 0.24 0.886 0.05 0.89-0.215 0.928-0.334 0.884-0.536 0.874-0.626 0.8-0.738 0.691-0.745 0.533-0.755 0.357-0.694 0.246-0.665 0.063-0.746-0.252-0.753-0.577-0.539-0.619-0.239-0.655-0.155-0.726-0.062-0.751-4e-3 -0.827 0.079-0.852 0.2-0.844 0.39-0.767 0.548-0.647 0.742-0.463 0.993-0.129 1.153 0.179 1.193 0.483 1.223 0.758 1.151 1.011 0.981 1.199 0.743 1.403 0.428 1.498 0.08 1.513-0.223 1.449-0.46 1.36-0.7 1.16-0.794 0.987-0.809 0.811-0.808 0.571-0.808 0.284-0.761 0.132-0.808-0.301-0.113-0.406 0.623-0.516 0.417-0.652 0.511-0.839 0.557-0.989 0.605-1.102 0.571-1.184 0.478-1.188 0.294-1.174 0.153-1.046-0.063-0.905-0.276-0.778-0.482-0.686-0.666-0.514-0.782-0.317-0.803-0.103-0.69 0.06-0.544 0.195-0.418 0.296-0.341 0.409-0.299 0.477-0.224 0.513-0.129 0.585-0.064 0.568-4e-3 0.5 0.034 0.381 0.081 0.135 0.044-0.059-0.068-0.016-0.095 0.017 0.101-0.083 0.325-0.211 0.484-0.36 0.564-0.535 0.62-0.658 0.628-0.729 0.553-0.67 0.453-0.673 0.278-0.571 0.163-0.479 1e-3 -0.429-0.089-0.256-0.118-0.249-0.21-0.162-0.239-0.12-0.317-0.129-0.322-0.085-0.219-0.115-0.158-0.071-0.292" __comx="139.424" __comy="588.823" __timestamp="0x1963b021411"/><path class="write-flat-pen" d="m146.5 587-0.111-0.289-0.11-0.327-0.177-0.479-0.295-0.58-0.277-0.509-0.271-0.446-0.496-0.419-0.868 0.089-0.288 0.741-0.143 0.672-0.052 0.997-0.049 1.211 0.049 1.39 0.095 1.345 0.175 1.255 0.307 1.034 0.413 0.855 0.565 0.619 0.732 0.356 0.846 0.056 0.723-0.314 0.61-0.413 0.594-0.617 0.491-0.682 0.432-0.73 0.34-0.61 0.327-0.49 0.225-0.274-0.052 0.04-0.366 5e-3 -0.155-0.119 0.126 0.208 0.227 0.558 0.299 0.748 0.419 0.822 0.537 0.719 0.68 0.492 0.76 0.188 1.109-0.149 0.048-0.98-0.814-0.243-0.134-0.235-0.17-0.311-0.263-0.504-0.335-0.639-0.266-0.664-0.291-0.714-0.392-0.641-0.673-0.541-1.024 5e-3 -0.666 0.512-0.433 0.527-0.427 0.64-0.367 0.662-0.368 0.635-0.356 0.497-0.349 0.373-0.287 0.198-0.124 0.061-1e-3 9e-3 -0.068-0.02-0.142-0.135-0.248-0.463-0.258-0.756-0.201-1.053-0.141-1.246-0.094-1.294-2e-3 -1.146-3e-3 -0.886 0.043-0.458-0.099 0.176-0.539 0.04-0.025-0.088 0.247 0.212 0.383 0.388 0.412 0.456 0.341 0.368 0.265 0.238 0.226 0.213" __comx="148.684" __comy="588.823" __timestamp="0x1963b02155f"/><path class="write-flat-pen" d="m163.4 586.4 0.147-0.209 0.17-0.242 0.04-0.375-0.04-0.519-0.246-0.556-0.397-0.508-0.489-0.434-0.624-0.309-0.713-0.191-0.833-0.073-0.931 0.013-1.03 0.248-0.97 0.546-0.75 0.888-0.495 1.109-0.272 1.265-0.145 1.308 0.04 1.359 0.233 1.229 0.492 1.165 0.96 0.833 1.204 0.408 1.29-0.092 1.208-0.506 1.073-0.835 0.851-1.116 0.709-1.249 0.525-1.376 0.337-1.406 0.179-1.367 0.055-1.333-0.05-1.26-0.15-1.181-0.219-1.143-0.276-1.099-0.352-1.059-0.384-0.929-0.424-0.79-0.585-0.713-1.292-0.391-0.691 1.192-0.034 0.982 0.126 1.192 0.216 1.583 0.31 1.907 0.405 2.219 0.504 2.263 0.634 2.193 0.748 1.917 0.855 1.532 0.929 1.087 1.452 1.213 1.113-1.189-1.196-1.265-0.625-0.939-0.699-1.294-0.667-1.709-0.591-2.045-0.482-2.164-0.395-2.162-0.304-1.862-0.209-1.526-0.107-1.02 0.012-0.337-0.362 0.625-0.82-0.249 0.073 0.087 0.284 0.529 0.323 0.768 0.306 0.917 0.245 0.973 0.203 1.025 0.132 1.031 0.046 1.095-0.041 1.165-0.15 1.177-0.274 1.185-0.418 1.121-0.563 1.01-0.61 0.817-0.667 0.53-0.678 0.294-0.593 0.051-0.493-0.157-0.359-0.299-0.262-0.579-0.189-0.89-0.056-1.089 0.091-1.093 0.2-0.997 0.305-0.728 0.379-0.48 0.491-0.301 0.62-0.177 0.67-0.034 0.625 0.023 0.466 0.091 0.366 0.113 0.311 0.18 0.31 0.246 0.225 0.245 0.193 0.282 0.136 0.143 0.074 0.133v0.241" __comx="161.815" __comy="588.823" __timestamp="0x1963b021798"/><path class="write-flat-pen" d="m186.5 588.2-5e-3 -0.324 2e-3 -0.311 3e-3 -0.433-0.039-0.584-0.036-0.528-0.038-0.582-0.067-0.557-0.041-0.524-0.054-0.497-0.042-0.352 0.02-0.207 0.033-0.183 0.027-0.141 0.026 0.403-0.365 0.213-1.124-0.582-0.014 0.105 8e-3 0.325 0.014 0.61-0.011 0.88-7e-3 1.131-6e-3 1.177-6e-3 1.174 0.044 1.099 0.124 0.924 0.196 0.768 0.345 0.606 0.61 0.508 0.863 0.011 0.613-0.42 0.328-0.439 0.253-0.467 0.164-0.435 0.143-0.37 0.174-0.446 0.148-0.464 0.163-0.464 0.154-0.454 0.189-0.42 0.132-0.291-0.084 0.13-0.696 0.153-0.266-0.267 0.135 0.264 0.257 0.517 0.238 0.609 0.257 0.712 0.299 0.758 0.368 0.742 0.421 0.668 0.587 0.553 0.823 0.374 0.856-0.097 0.723-0.375 0.601-0.532 0.495-0.604 0.456-0.635 0.35-0.627 0.317-0.537 0.23-0.458 0.149-0.239 0.106-0.106-0.219 0.145-0.509-0.101-0.1-0.113 0.127 0.205 0.183 0.449 0.26 0.624 0.397 0.706 0.538 0.69 0.74 0.611 0.906 0.383 1.036 0.059 0.917-0.246 0.776-0.456 0.541-0.545 0.614-0.963-0.776-0.728-0.822 0.567-0.448 0.163-0.496 0.155-0.448 0.037-0.425-0.034-0.319-0.135-0.343-0.283-0.309-0.396-0.264-0.47-0.211-0.508-0.239-0.587-0.298-0.5-0.475-0.538-0.98-0.194-0.644 0.427-0.412 0.412-0.322 0.515-0.241 0.482-0.294 0.499-0.307 0.552-0.347 0.494-0.352 0.432-0.293 0.268-0.173 0.097 0.056-1e-3 -0.024-4e-3 -0.167-0.154-0.24-0.368-0.29-0.577-0.268-0.653-0.261-0.702-0.28-0.71-0.308-0.612-0.287-0.537-0.691-0.692-1.121 0.249-0.413 0.648-0.197 0.413-0.236 0.523-0.175 0.536-0.166 0.476-0.137 0.433-0.155 0.401-0.14 0.384-0.118 0.319-0.122 0.24-0.05 0.079 0.142-0.091 0.391 0.011 0.141 0.13-0.08-0.099-0.133-0.41-0.112-0.724-0.052-0.974-6e-3 -1.134-6e-3 -1.177-7e-3 -1.131-0.011-0.91-0.033-0.662-0.039-0.428-0.061-0.177-1.124-0.582-0.461 0.259 0.026 0.546 0.027 0.141 0.033 0.242 0.069 0.357 0.145 0.402 0.136 0.444 0.148 0.512 0.169 0.529 0.148 0.548 0.154 0.508 0.15 0.545 0.096 0.417 0.097 0.3 0.074 0.31" __comx="193.554" __comy="588.823" __timestamp="0x1963b021bc2"/><path class="write-flat-pen" d="m203.2 587-0.269-0.135-0.171-0.051-0.141-0.052-0.329-0.051-0.35 0.163-0.237 0.245-0.253 0.296-0.209 0.487-0.061 0.562 0.089 0.644 0.507 0.599 0.683 0.282 0.771 0.116 0.823-0.198 0.746-0.391 0.668-0.573 0.547-0.645 0.451-0.659 0.37-0.672 0.222-0.683 0.074-0.706-0.113-0.644-0.299-0.611-0.532-0.446-0.555-0.227-0.59-0.125-0.641-0.04-0.705 0.113-0.812 0.254-0.809 0.454-0.816 0.639-0.737 0.746-0.67 0.928-0.484 1.038-0.332 1.115-0.016 1.236 0.362 1.181 0.685 1.053 0.971 0.888 1.153 0.596 1.34 0.308 1.343 0.082 1.356-0.129 1.333-0.236 1.243-0.358 1.247-0.378 1.713-0.697-0.226-1.016-1.847 0.094-1.297 0.187-1.205 0.207-1.211 0.143-1.141 0.107-1.012-0.06-0.922-0.21-0.684-0.347-0.584-0.524-0.398-0.595-0.205-0.609-0.016-0.65 0.186-0.722 0.319-0.752 0.459-0.673 0.535-0.572 0.596-0.49 0.512-0.3 0.507-0.171 0.377-0.077 0.302 0.01 0.304 0.062 0.152 0.056 0.033 0.025 0.03 0.049 0.03 0.157-0.022 0.284-0.107 0.354-0.241 0.457-0.35 0.52-0.396 0.484-0.415 0.37-0.386 0.22-0.307 0.084-0.265-0.023-0.164-0.05-0.011 0.034-0.053-0.064-0.061-0.239-0.019-0.218 0.029-0.222-2e-3 -0.134-0.068-0.026 0.096-0.051 0.141-0.052 0.111-0.051 0.243 1e-3" __comx="205.351" __comy="588.823" __timestamp="0x1963b021d63"/><path class="write-flat-pen" d="m226.1 587.5-0.082-0.247-0.116-0.281-0.191-0.464-0.207-0.582-0.218-0.622-0.122-0.561-0.075-0.47-0.036-0.408-0.043-0.362-0.022-0.335-0.026-0.295-0.016-0.278-0.029-0.185-0.022-0.275-0.16-0.207 0.016-0.046-1.414 1.032 0.015 0.119 0.124 0.282 0.174 0.471 0.304 0.828 0.355 1.057 0.388 1.255 0.42 1.396 0.449 1.383 0.432 1.276 0.43 1.089 0.466 0.887 0.469 0.737 0.538 0.571 0.648 0.395 0.731 0.082 0.671-0.197 0.526-0.457 0.353-0.552 0.307-0.557 0.444-0.63 0.473-0.763 0.56-0.838 0.663-0.948 0.64-1.019 0.637-0.992 0.605-0.939 0.521-0.841 0.384-0.672 0.298-0.502 0.189-0.303 0.123-0.104-1.388-0.864-0.104 0.047-0.198 0.215-0.258 0.336-0.29 0.55-0.32 0.644-0.34 0.866-0.363 1.03-0.471 1.22-0.614 1.515-0.734 1.785-0.832 2.03-0.881 2.227-0.857 2.296-0.829 2.271-0.721 2.091-0.515 1.888-0.298 1.614-0.08 1.342 0.267 1.113 0.752 0.914 1.184-0.033 1.442-0.962-0.725-1.304-1.133 0.47 0.241-0.082 0.141 0.114-0.064-0.392 0.063-0.919 0.266-1.402 0.475-1.738 0.693-2.008 0.819-2.249 0.84-2.274 0.86-2.2 0.818-2.022 0.725-1.795 0.611-1.544 0.472-1.277 0.344-1.043 0.272-0.782 0.244-0.582 0.182-0.439 0.117-0.229 0.038-0.114-0.054-2e-3 -1.388-0.864 0.027 0.178v0.311l-0.124 0.488-0.23 0.693-0.373 0.856-0.524 0.944-0.635 0.984-0.632 1.006-0.656 0.938-0.572 0.856-0.47 0.744-0.449 0.595-0.4 0.433-0.352 0.249-0.228 0.012-0.083-0.101-0.023-0.107-0.106-0.17-0.262-0.325-0.332-0.533-0.383-0.717-0.371-0.937-0.415-1.219-0.447-1.35-0.427-1.381-0.412-1.288-0.399-1.111-0.354-0.866-0.251-0.565-0.205-0.332-0.081-0.068-1.414 1.032 0.062 1e-3 -0.111-0.16 0.025-0.086 0.111 0.144 0.08 0.147 0.113 0.269 0.121 0.323 0.146 0.345 0.151 0.393 0.208 0.473 0.257 0.568 0.347 0.603 0.311 0.547 0.281 0.433 0.167 0.237 0.103 0.221" __comx="230.03" __comy="588.894" __timestamp="0x1963b025977"/><path class="write-flat-pen" d="m241.1 589.4 0.059-0.314 0.083-0.19 0.021-0.357-0.06-0.412-0.134-0.436-0.256-0.438-0.429-0.34-0.464-0.204-0.58-0.083-0.657 0.14-0.637 0.386-0.55 0.589-0.468 0.732-0.365 0.82-0.272 0.931-0.169 0.931-1e-3 0.952 0.222 0.915 0.422 0.788 0.643 0.685 0.81 0.423 0.835 0.263 0.937 6e-3 0.922-0.287 0.826-0.5 0.727-0.74 0.676-0.883 0.485-1.02 0.349-1.042 0.101-1.095-0.142-0.944-0.279-0.868-0.525-0.763-0.606-0.577-0.694-0.433-0.705-0.234-0.778-0.114-0.875 0.222-0.628 0.639-0.314 0.757-0.067 0.879 0.242 0.867 0.429 0.758 0.935 1.016 1.003-0.669-0.488-1.116-0.089-0.514 6e-3 -0.404 0.072-0.25 0.064-0.092-0.063 0.074-0.121 0.033 0.165 0.028 0.285 0.095 0.292 0.181 0.29 0.27 0.229 0.319 0.143 0.404 0.094 0.518-0.039 0.599-0.216 0.702-0.318 0.724-0.454 0.624-0.449 0.483-0.399 0.254-0.396 0.138-0.335 6e-3 -0.391-0.115-0.368-0.189-0.251-0.257-0.19-0.342-0.11-0.45-1e-3 -0.555 0.114-0.67 0.199-0.719 0.249-0.591 0.283-0.493 0.254-0.304 0.164-0.132 0.097-0.05 0.125-0.036 0.15-0.015 0.136-0.011 0.12 0.033 0.148 0.175 0.129 0.248 0.117 0.208 0.083 0.185 0.187 0.331" __comx="240.169" __comy="588.894" __timestamp="0x1963b025b4a"/><path class="write-flat-pen" d="m246.8 588-0.055-0.325 0.036-0.254-0.024-0.381-0.077-0.475-0.063-0.375-0.093-0.418-0.172-0.372-0.226-0.356-0.306-0.268-0.597-0.371-0.785 0.321-0.443 0.497-0.157 0.677-0.136 0.785-0.056 0.994 0.047 1.141 0.065 1.096 0.178 1.14 0.361 0.93 0.428 0.808 0.614 0.585 0.695 0.366 0.732 0.153 0.711-0.032 0.7-0.227 0.646-0.45 0.352-0.614 0.254-0.546 0.158-0.608 0.086-0.541 0.06-0.525 1e-3 -0.494-0.028-0.437-0.057-0.283-0.023-0.121-1.788-0.574-0.32 0.322-0.057 0.756 0.035 0.706 0.148 0.925 0.291 1.06 0.476 0.978 0.656 0.806 0.785 0.491 0.784 0.155 0.694-0.12 0.532-0.342 0.462-0.39 0.399-0.548 0.319-0.536 0.249-0.546 0.152-0.572 0.076-0.546 0.015-0.539 2e-3 -0.555-0.013-0.518-0.049-0.538-0.033-0.568-0.076-0.588-0.08-0.555-0.035-0.522-0.026-0.378-6e-3 -0.356-0.083-0.256-1.513 0.096-0.085 0.152-0.068 0.425 0.075 0.561 0.14 0.762 0.284 0.991 0.518 1.048 0.601 1.014 0.674 0.911 0.73 0.763 0.713 0.611 0.731 0.422 0.725 0.266 0.68 0.145 0.568 0.06 0.525 0.032 0.509-0.032 0.492-0.13 0.504-0.308 0.315-0.49 0.184-0.589-0.106-0.618-0.216-0.475-0.261-0.442-0.352-0.486-0.374-0.516-0.402-0.558-0.394-0.637-0.36-0.634-0.243-0.586-0.152-0.471-0.04-0.244 5e-3 -0.041-0.085 0.176-0.231 0.125 0.077-6e-3 0.366 0.031 0.544 0.109 0.662 0.116 0.711 0.076 0.76-0.062 1.546-0.214-0.096-1.513-1.475-0.022-0.559-0.108-0.561-0.113-0.61-0.12-0.632-0.127-0.624-0.062-0.677 0.041-0.749 0.407-0.32 0.694-0.088 0.617 0.1 0.699 0.226 0.708 0.322 0.779 0.441 0.778 0.453 0.731 0.447 0.618 0.38 0.521 0.306 0.411 0.164 0.263 0.067 0.139-0.012-0.1 0.044-0.118 0.079-0.115 0.126-0.072-0.026 0.012-0.198 0.015-0.369-0.015-0.422-0.036-0.449-0.091-0.454-0.156-0.445-0.239-0.512-0.425-0.589-0.602-0.551-0.739-0.528-0.869-0.425-0.836-0.234-0.752-0.142-0.649-0.068-0.288-0.021 2e-3 -0.036 9e-3 -1.513 0.096 0.057 0.026 0.09 0.162 0.16 0.376 0.201 0.514 0.249 0.527 0.209 0.497 0.154 0.515 0.14 0.498 0.081 0.472 0.051 0.528 0.015 0.497-0.067 0.49-0.13 0.511-0.222 0.49-0.292 0.5-0.355 0.488-0.385 0.318-0.411 0.129-0.342-0.169-0.252-0.363-0.251-0.496-0.287-0.608-0.231-0.719-0.178-0.824-0.087-0.722-0.014-0.473-7e-3 0.145-0.226 0.228-1.788-0.574 0.023 0.162 0.039 0.186 0.019 0.224 1e-3 0.307-0.036 0.371-0.054 0.399-0.078 0.335-0.125 0.302-0.071 0.14-0.015 0.021-0.147 0.055-0.185 0.015-0.208-0.036-0.202-0.103-0.186-0.169-0.23-0.418-0.253-0.625-0.151-0.839-0.078-0.977-0.046-1.025 0.037-0.796 0.1-0.629 0.032-0.17-0.16 0.168-0.456 0.178-0.265-0.182 0.07 0.014 0.103 0.069 0.16 0.146 0.189 0.24 0.219 0.286 0.252 0.372 0.212 0.28 0.179 0.217 0.245 0.282" __comx="252.759" __comy="588.894" __timestamp="0x1963b025ecf"/><path class="write-flat-pen" d="m275 577.9-0.016-0.456-0.011-0.549-0.055-0.833-0.072-1.07-0.07-0.978-0.057-0.843-0.015-0.731-0.021-0.563 0.039-0.388 0.033-0.282 0.037 0.033-0.086 0.232-0.446 0.484-0.55-0.235-0.084-0.035 0.043 0.2 0.115 0.68 0.144 1.155 0.151 1.592 0.224 2.044 0.201 2.346 0.23 2.484 0.279 2.524 0.333 2.273 0.461 1.957 0.494 1.611 0.502 1.196 0.47 0.91 0.494 0.683 0.501 0.476 0.544 0.283 0.79 0.157 0.766-0.442 0.407-0.541 0.247-0.621 0.16-0.663 0.165-0.696 0.2-0.777 0.291-0.874 0.316-0.902 0.335-0.796 0.371-0.627 0.301-0.38 0.036-0.024-0.207 1e-3 -0.056-0.029 0.145 0.209 0.237 0.565 0.247 0.83 0.314 0.943 0.364 1.04 0.545 0.976 0.69 0.806 0.776 0.559 0.774 0.337 0.773 0.087 0.713-0.088 1.082-0.399-0.072-0.91-1.007-0.234-0.417-0.181-0.359-0.196-0.355-0.231-0.403-0.335-0.392-0.466-0.348-0.625-0.296-0.846-0.297-0.894-0.272-0.91-0.377-0.896-0.559-0.78-0.856-0.5-1.057 1e-3 -0.857 0.59-0.595 0.75-0.522 0.881-0.419 0.994-0.344 0.981-0.32 0.962-0.225 0.874-0.164 0.715-0.122 0.515-0.082 0.226 0.029-0.023 0.294-0.159 0.272 0.064h-0.021l-0.157-0.138-0.309-0.399-0.377-0.691-0.438-1.019-0.449-1.451-0.435-1.809-0.325-2.154-0.286-2.471-0.241-2.461-0.224-2.363-0.247-2.054-0.178-1.609-0.185-1.25-0.217-0.874-0.286-0.647-0.413-0.364-0.739-0.328-0.492 0.531-0.132 0.325 0.037 0.315 0.033 0.282 0.039 0.462 0.118 0.613 0.127 0.73 0.179 0.851 0.213 0.955 0.211 1.049 0.18 0.815 0.128 0.536 0.126 0.445" __comx="281.434" __comy="588.894" __timestamp="0x1963b02621f"/><path class="write-flat-pen" d="m293.2 588.5 0.025-0.224 0.03-0.153 6e-3 -0.191 0.032-0.223 0.035-0.236 0.046-0.228 0.026-0.238 0.049-0.237 0.017-0.238 0.041-0.236 0.042-0.282 0.044-0.282 0.04-0.332 0.012-0.395-0.105-0.436-0.154-0.353-0.249-0.342-0.461-0.308-0.476-0.105-0.549-0.013-0.657 0.22-0.632 0.445-0.521 0.656-0.471 0.79-0.38 0.944-0.323 1.041-0.218 1.073-0.118 1.137 0.078 1.083 0.336 0.947 0.562 0.82 0.802 0.483 0.815 0.248 0.884 7e-3 0.825-0.258 0.816-0.434 0.69-0.652 0.565-0.793 0.37-0.816 0.273-0.81 0.172-0.809 0.057-0.782-0.026-0.804-0.178-0.7-0.216-0.592-0.283-0.467-0.814-0.949-1.416 1.015 0.079 0.958 0.173 0.662 0.295 0.885 0.467 0.91 0.548 0.991 0.734 0.897 0.787 0.756 0.865 0.605 0.894 0.374 0.845 0.21 0.791 0.012 0.731-0.154 0.654-0.325 0.367-0.612 0.214-0.848-0.494-0.291-0.548 0.446-0.291-0.048-0.242-0.043-0.398-0.058-0.434-0.084-0.52-0.165-0.567-0.237-0.549-0.384-0.578-0.562-0.538-0.657-0.442-0.799-0.38-0.74-0.223-0.669-0.11-0.421 0.033 0.394-1.087 0.779-0.531-0.62 0.095 0.147 0.112 0.302 0.104 0.382 0.021 0.468-0.036 0.536-0.111 0.559-0.199 0.601-0.241 0.549-0.331 0.478-0.346 0.337-0.41 0.227-0.351 0.118-0.294 7e-3 -0.314-0.081-0.234-0.131-0.192-0.263-0.182-0.465-0.065-0.66 0.071-0.888 0.158-0.904 0.245-0.891 0.278-0.75 0.329-0.578 0.28-0.38 0.218-0.166 0.143-0.062 0.109-0.013 0.042-0.012 0.011-0.026 0.034-0.011 0.082 0.069 0.084 0.128 0.058 0.172 0.04 0.28 0.044 0.282 0.042 0.282 0.041 0.282 0.064 0.234 0.049 0.234 0.075 0.233 0.046 0.194 0.035 0.236 0.032 0.249 0.052 0.187 0.03 0.13 0.025 0.224" __comx="294.705" __comy="586.028" __timestamp="0x1963b02780f"/><path class="write-flat-pen" d="m300.8 587-0.075-0.319-0.069-0.324-0.11-0.424-0.182-0.53-0.185-0.478-0.197-0.379-0.196-0.341-0.512-0.379-0.819 0.137-0.267 0.614-0.162 0.567 0.031 0.713 0.032 0.789 0.141 0.97 0.222 0.962 0.288 0.913 0.416 0.794 0.475 0.651 0.576 0.415 0.612 0.258 0.617 0.019 0.656-0.194 0.5-0.484 0.203-0.467 0.183-0.445 0.105-0.504 0.161-0.488 0.142-0.535 0.143-0.415 0.162-0.354-0.032 0.082-0.881 0.381-0.513-0.591 0.053 0.204 0.154 0.642 0.145 0.826 0.269 0.912 0.398 0.95 0.701 0.755 0.876 0.49 1.03 7e-3 1.449-0.551-0.36-1.393-1.217 0.139-0.242-0.136-0.207-0.168-0.242-0.282-0.213-0.511-0.203-0.689-0.137-0.774-0.175-0.726-0.183-0.689-0.796-0.92-1.21 0.52-0.317 0.647-0.213 0.495-0.186 0.574-0.141 0.547-0.17 0.548-0.082 0.437-0.099 0.262-0.033 0.098 0.122-0.106 0.091-8e-3 0.052 0.019-0.095-0.024-0.178-0.103-0.232-0.289-0.288-0.524-0.23-0.691-0.203-0.825-0.142-0.82-0.064-0.719-0.062-0.465 0.027-0.233-0.127 0.238-0.584 0.087-0.134-0.143 0.133 0.084 0.274 0.232 0.287 0.323 0.336 0.413 0.265 0.33 0.213 0.24 0.175 0.264" __comx="302.729" __comy="586.028" __timestamp="0x1963b02796c"/><path class="write-flat-pen" d="m311 587.9-0.114-0.191 5e-3 -0.117 0.011-0.16 0.032-0.162 0.1-0.119 0.12-0.196 0.135-0.292-0.019-0.436-0.157-0.465-0.473-0.438-0.561-0.226-0.569-0.11-0.67-0.049-0.736 0.147-0.793 0.287-0.735 0.617-0.512 0.892-0.321 0.961-0.142 1.088 0.025 1.025 0.132 0.989 0.294 0.943 0.535 0.828 0.657 0.631 0.814 0.36 0.885 0.159 0.892-0.237 0.804-0.51 0.652-0.842 0.479-1.005 0.401-1.216 0.231-1.321 0.176-1.355 0.078-1.391-0.072-1.326-0.121-1.318-0.192-1.345-0.264-1.396-0.31-1.5-0.331-1.494-0.327-1.42-0.228-1.205-0.133-0.93-0.038-0.538 1e-3 -0.29-2.076 0.331-5e-3 -0.012 0.051 0.359 0.09 0.869 0.141 1.395 0.21 1.869 0.26 2.208 0.354 2.43 0.429 2.531 0.506 2.363 0.594 2.132 0.756 1.718 0.873 1.26 1.053 0.817 1.122 0.252 1.791-0.108-0.131-1.86-1.435 0.119-0.339-0.219-0.455-0.455-0.586-0.859-0.612-1.391-0.535-1.92-0.483-2.253-0.418-2.461-0.353-2.375-0.258-2.173-0.215-1.851-0.141-1.384-0.097-0.921-0.091-0.582-0.052-0.155-2.076 0.331 1e-3 0.371 0.055 0.688 0.149 1.046 0.244 1.292 0.334 1.453 0.327 1.472 0.304 1.468 0.254 1.334 0.184 1.245 0.115 1.226 0.07 1.171-0.064 1.199-0.153 1.235-0.194 1.127-0.306 0.952-0.321 0.689-0.288 0.384-0.232 0.151-0.147 0.045-0.198-0.03-0.269-0.111-0.236-0.216-0.268-0.398-0.175-0.515-0.104-0.708-0.022-0.765 0.091-0.749 0.198-0.594 0.242-0.426 0.208-0.183 0.336-0.138 0.349-0.089 0.319-2e-3 0.325 0.032 0.147 0.01-1e-3 -0.062 0.03-0.087 0.077-0.013 0.086 0.086 0.073 0.229 0.054 0.303 0.174 0.31 0.151 0.169 0.148 0.119 0.219 0.149" __comx="311.165" __comy="586.028" __timestamp="0x1963b027b72"/><path class="write-flat-pen" d="m319.3 589.9-0.156-0.171-0.039-0.139-0.042-0.255-0.051-0.333 0.041-0.284 0.08-0.317 0.058-0.373 0.028-0.353 0.051-0.378-0.022-0.41-0.04-0.354-0.04-0.333-0.043-0.381-0.067-0.305-0.026-0.279-0.05-0.298-0.025-0.201-0.02-0.144 0.017-0.098 0.027-0.23 7e-3 -0.26 0.026-0.131 0.022-0.046 0.047-0.092 0.02-0.169 0.019-0.288-0.099-0.245-0.082-0.184-0.368-0.391-0.983-0.014-0.366 0.605-0.14 0.298-0.181 0.518-0.04 0.658-0.059 0.666-0.036 0.905-7e-3 1.027-5e-3 1.131-5e-3 1.171 0.098 1.167 0.128 1.05 0.248 0.951 0.354 0.771 0.414 0.596 0.545 0.433 0.6 0.259 0.688 0.057 0.613-0.218 0.488-0.374 0.259-0.429 0.148-0.284 0.096-0.284-0.211 0.64-1.031-0.204-0.051-0.044 0.312 0.287 0.491 0.415 0.622 0.453 0.801 0.389 0.836 0.235 0.873 0.127 0.886-0.087 0.811-0.241 0.782-0.416 0.652-0.609 0.466-0.642 0.385-0.751 0.203-0.856 5e-3 -0.859-0.159-0.878-0.397-0.833-0.488-0.745-0.544-0.604-0.519-0.519-0.462-0.352-0.415-0.308-0.523-0.19-0.314 0.014-1.047 1.335 0.126 0.418 0.46 0.345 0.375 0.221 0.598 0.163 0.661 0.053 1.163-0.08 0.146-0.818-0.974-0.462-0.375-0.276-0.202-0.215-0.096-0.154 0.131 0.062 0.079 0.229-1.047 1.335-0.079 0.014-0.147-0.05 0.15 0.117 0.339 0.259 0.377 0.377 0.396 0.433 0.316 0.48 0.214 0.437 0.077 0.393 5e-3 0.413-0.079 0.369-0.18 0.379-0.241 0.347-0.291 0.287-0.348 0.195-0.414 0.138-0.432 0.053-0.492-0.062-0.532-0.141-0.471-0.222-0.414-0.301-0.402-0.339-0.302-0.278-0.38-0.329-1.267-0.251-0.351 1.065-0.046 0.141-0.042 0.091-0.023 0.043 0.066-0.045 0.095-0.029 0.074 0.01-0.058-0.023-0.116-0.085-0.151-0.207-0.21-0.452-0.177-0.653-0.108-0.88-0.091-1.048-5e-3 -1.088-5e-3 -1.131-7e-3 -0.999 0.013-0.838 0.035-0.653 7e-3 -0.425 0.055-0.189 0.049-0.124-0.226 0.37-0.794-0.014-0.321-0.344-0.032-0.09-0.052-0.149 0.019-0.102 0.02-0.027v0.097l0.022 0.236 0.026 0.198 0.053 0.258 0.027 0.241 0.063 0.327 0.12 0.232 0.071 0.128 0.09 0.22 0.07 0.286 0.119 0.309 0.1 0.326 0.103 0.325 0.099 0.307 0.071 0.295 5e-3 0.329 0.028 0.355 0.012 0.334-0.013 0.341 0.041 0.377 0.135 0.372 0.101 0.263 0.103 0.192 0.208 0.193" __comx="322.52" __comy="586.028" __timestamp="0x1963b027fbd"/><path class="write-flat-pen" d="m331.7 589.9-0.136-0.154-0.046-0.128-0.097-0.241-0.111-0.333-0.11-0.368-0.131-0.392-0.102-0.379-0.079-0.271-0.018-0.154 0.013-0.234-0.086-0.156-0.043-0.166-0.124-0.123 0.029 2e-3 -1.027 0.279-0.059 0.169-0.018 0.268 0.012 0.396 0.052 0.545 0.034 0.624 0.061 0.808 0.138 0.909 0.16 0.908 0.281 0.886 0.39 0.757 0.402 0.605 0.379 0.433 0.34 0.34 0.403 0.2 0.727 0.177 0.477-0.601 0.212-0.466-0.039-0.507-0.08-0.438-0.143-0.518-0.249-0.514-0.288-0.543-0.311-0.564-0.354-0.607-0.363-0.604-0.336-0.61-0.396-0.594-0.283-0.512-0.253-0.456-0.096-0.229 5e-3 0.053-0.052 0.192-0.151 0.132 0.132-0.057 0.272-0.081 0.433-0.058 0.587-0.066 0.668-0.022 0.799-0.025 0.81-0.102 0.821-0.13 0.77-0.245 0.717-0.281 1.109-0.549-0.254-1.009-1.218 0.037-0.744 0.048-0.735 0.084-0.736 0.106-0.694 0.087-0.709 0.022-0.747 0.025-0.685 0.077-0.603 0.081-0.528 0.155-0.526 0.225-0.529 0.464-0.192 0.71 0.052 0.618 0.279 0.618 0.311 0.534 0.331 0.571 0.404 0.584 0.324 0.566 0.388 0.622 0.353 0.569 0.303 0.522 0.277 0.494 0.173 0.333 0.093 0.282 0.062 0.269 8e-3 -0.035 0.073-0.137 0.334-0.412 0.492 0.128-0.021 0.014-0.129-0.085-0.282-0.274-0.305-0.431-0.314-0.562-0.237-0.669-0.172-0.786-0.144-0.834-0.079-0.746-0.062-0.648-0.087-0.538-0.037-0.311-0.018-0.061-0.01-0.02-1.027 0.279 0.075 0.049 0.016-0.027 0.053 0.021 0.054-0.013 0.06 0.048 0.171 0.222 0.157 0.2 0.18 0.329 0.201 0.362 0.173 0.339 0.171 0.325 0.139 0.23 0.093 0.155 0.186 0.168" __comx="332.931" __comy="586.064" __timestamp="0x1963b0290fd"/><path class="write-flat-pen" d="m339.3 582.5-0.498-0.093-0.295 0.058-0.175 0.094-0.293 0.176-0.267 0.349-0.306 0.447-0.311 0.675-0.244 0.918-0.151 1.045-0.122 1.169-0.053 1.247 0.135 1.238 0.281 1.109 0.449 0.983 0.617 0.785 0.687 0.572 0.771 0.357 0.86 0.192 0.801-0.031 0.733-0.204 0.729-0.433 0.497-0.711 0.203-0.781 0.076-0.825-0.134-0.854-0.419-1.162-0.682 0.12-0.016 1.121-0.181 0.605-0.206 0.543-0.222 0.348-0.161 0.136-0.214 0.085-0.304 0.078-0.328 0.018-0.412-0.09-0.361-0.161-0.349-0.278-0.37-0.44-0.305-0.617-0.237-0.821-0.15-0.977-3e-3 -1.061 0.064-1.09 0.085-0.934 0.134-0.729 0.161-0.504 0.163-0.4 0.065-0.216 0.129-0.202 0.014-0.142-0.153-0.036 0.27-0.093" __comx="339.957" __comy="586.064" __timestamp="0x1963b029219"/><path class="write-flat-pen" d="m337.1 576.5-0.281-0.547-0.201-0.434-0.223-0.409-0.295-0.45-0.314-0.344-0.787-0.238-0.646 0.648-0.128 0.565v0.608l0.169 0.708 0.41 0.731 0.655 0.628 1.345 0.753 0.765-1.089-1.016-0.905-0.288-0.408-0.155-0.352-0.066-0.281v-0.192l-0.032 0.14-0.46 0.459-0.598-0.189 0.015-0.062 0.366 0.255 0.388 0.251 0.413 0.226 0.504 0.336" __comx="335.862" __comy="586.064" __timestamp="0x1963b0292c0"/><path class="write-flat-pen" d="m346.9 577.7 0.074-0.429 0.088-0.489 0.107-0.681 0.088-0.84 0.056-0.694 0.017-0.587-0.371-0.806-0.932 0.086-0.481 0.438-0.362 0.53-0.28 0.784-0.252 0.963-0.191 1.229-0.18 1.51-0.149 1.764-0.124 1.947-0.097 2.101-5e-3 2.105 0.047 1.999 0.167 1.803 0.302 1.537 0.519 1.229 0.667 0.941 0.764 0.655 0.838 0.422 0.935 0.183 0.894-0.171 0.791-0.358 0.738-0.604 0.496-0.752 0.33-0.824 0.065-0.916-0.217-0.896-0.427-0.788-0.582-0.698-0.746-0.638-0.836-0.531-0.886-0.458-0.849-0.404-0.789-0.365-0.702-0.266-0.481-0.197-0.318-0.158 0.249 0.116 1e-3 1.172-0.633 0.085 0.193 0.041 0.471 0.078 0.618 0.095 0.781 0.112 0.942-0.081 0.953-0.191 0.935-0.39 0.872-0.59 0.732-0.759 0.642-0.866 0.539-0.981 0.475-1.062 0.381-1.138 0.354-1.142 0.335-1.169 0.271-1.207 0.148-1.162 0.075-1.136-0.022-1.068-0.024-0.956-0.034-0.798-0.051-0.572-0.045-0.313-1.424-0.243-0.206 0.241-0.055 0.64-0.038 0.723-0.041 1.161-0.038 1.486-0.041 1.81-0.065 2.055-0.012 2.145 0.064 2.178 0.138 1.968 0.188 1.741 0.246 1.454 0.265 1.073 0.204 0.812 0.219 0.554 0.205 0.352 0.098 0.139 1.742-0.583 1e-3 -0.369-0.28-0.504-0.349-0.426-0.485-0.556-0.626-0.536-0.668-0.489-0.641-0.475-0.679-0.491-0.669-0.507-0.617-0.485-0.454-0.432-0.175-0.173 0.266 0.611-0.675 0.536h5e-3l0.476-0.019 0.591-0.022h0.721l0.81 0.067 0.844 0.069 0.792 0.113 0.796 0.121 0.755 0.042 0.732-0.063 0.656-0.219 0.521-0.309 0.278-0.362 0.192-0.236 0.12-0.285 0.137-0.418-0.352-0.244-0.143-0.13-0.282-0.103-0.486-0.057-0.368 0.413-0.188 0.574 0.242 0.488 0.361 0.437 0.591 0.191 0.59 0.043 0.665-0.088 0.649-0.26 0.609-0.329 0.578-0.433 0.464-0.429 0.383-0.431 0.322-0.501 0.159-0.516-0.051-0.625-0.4-0.5-0.43-0.201-0.458-0.163-0.622-7e-3 -0.557 0.123-0.58 0.201-0.641 0.366-0.613 0.452-0.596 0.65-0.393 0.762-0.233 0.842 0.032 0.913 0.291 0.904 0.564 0.886 0.827 0.712 0.865 0.603 0.945 0.5 0.911 0.363 0.893 0.271 0.872 0.088 0.832-0.052 0.737-0.241 0.624-0.414 0.362-0.627 0.244-0.793-0.418-0.255-0.529 0.475-0.392 0.077-0.365 0.011-0.438-5e-3 -0.535-0.052-0.587-0.101-0.662-0.201-0.739-0.295-0.749-0.397-0.689-0.48-0.541-0.464-0.283-0.435-0.134-0.414-0.014-0.359 0.096-0.381 0.175-0.37 0.297-0.34 0.377-0.299 0.395-0.248 0.313-0.128 0.246-0.066 0.129-7e-3 0.11 0.026-8e-3 -0.012-0.165-0.218-5e-3 -0.203 0.019 2e-3 -0.103 0.207-0.229 0.276-0.337 0.325-0.411 0.321-0.427 0.236-0.387 0.165-0.325 0.052-0.257-3e-3 -0.023 2e-3 -0.015 0.014 0.053 0.156-0.095 0.199-0.225 0.224-0.204-0.057 1e-3 -0.056-1e-3 -0.034-0.212-0.151 0.091-0.275-0.02 0.044h-0.093l-0.24 0.06-0.28-0.026-0.427-0.03-0.494-0.063-0.611-0.097-0.759-0.115-0.856-0.122-0.9-0.074-0.887-0.073h-0.834l-0.635 0.024-0.511 0.028-0.609 0.047-0.911 0.725 0.455 1.036 0.437 0.438 0.536 0.511 0.701 0.551 0.699 0.53 0.687 0.496 0.631 0.468 0.604 0.454 0.456 0.404 0.362 0.434 0.218 0.281-0.044-0.079 1e-3 -0.133 1.742-0.583-0.045-0.05-0.077-0.12-0.11-0.293-0.174-0.695-0.254-0.999-0.226-1.326-0.187-1.65-0.144-1.894-0.078-2.109-0.012-2.093 0.031-2.043 6e-3 -1.817 9e-3 -1.48 6e-3 -1.147 9e-3 -0.692-9e-3 -0.16-0.11 0.101-1.424-0.243 0.095 0.205 0.091 0.415 0.06 0.71 0.023 0.929 0.028 1.004-0.068 1.03-0.134 1.053-0.247 1.098-0.326 1.093-0.397 1.073-0.422 1.027-0.466 0.917-0.497 0.809-0.537 0.689-0.54 0.559-0.586 0.399-0.622 0.267-0.694 0.141-0.659 0.059-0.584-0.077-0.608-0.092-0.472-0.065-0.418-0.052-1.011 0.131 1e-3 1.312 0.674 0.305 0.34 0.171 0.558 0.228 0.663 0.252 0.719 0.343 0.799 0.396 0.761 0.436 0.625 0.459 0.479 0.495 0.312 0.478 0.187 0.437 0.066 0.376-0.028 0.31-0.141 0.352-0.211 0.331-0.298 0.246-0.338 0.16-0.284 0.062-0.29-0.05-0.387-0.192-0.412-0.335-0.416-0.564-0.377-0.846-0.263-1.24-0.162-1.637-0.049-1.91-5e-3 -2.04 0.092-2.044 0.112-1.915 0.133-1.72 0.149-1.459 0.141-1.126 0.17-0.827 0.145-0.535 0.109-0.224-0.059 0.016-0.6 0.037-0.135-0.381 0.111 0.26 0.103 0.627 0.088 0.808 0.061 0.684 0.088 0.5 0.074 0.429" __comx="354.069" __comy="586.064" __timestamp="0x1963b029912"/><path class="write-flat-pen" d="m364.8 585.2-0.071-0.284-0.017-0.289-0.092-0.417-0.16-0.469-0.212-0.411-0.247-0.261-0.508-0.27-0.717 0.446-0.033 0.55-0.026 0.383 0.025 0.679 0.079 0.897 0.125 1.102 0.153 1.15 0.178 1.12 0.195 0.979 0.187 0.843 0.294 0.718 0.503 0.561 0.576 0.295 0.626 0.095 0.614-0.088 0.602-0.318 0.416-0.447 0.326-0.457 0.314-0.453 0.333-0.487 0.311-0.389 0.297-0.282 0.283-0.148 0.153-0.044 0.093 0.021 0.231 0.154 0.305 0.354 0.34 0.561 0.358 0.638 0.491 0.638 0.704 0.433 1.137 0.162 0.344-0.934-0.69-0.51-0.099-0.32-0.214-0.445-0.303-0.634-0.46-0.758-0.589-0.682-0.759-0.506-0.944-0.215-0.836 0.239-0.707 0.37-0.596 0.565-0.443 0.554-0.374 0.549-0.298 0.443-0.241 0.343-0.102 0.118-9e-3 0.011 2e-3 5e-3 -0.035 1e-3 0.012 0.013-0.062-0.051-0.131-0.272-0.191-0.664-0.227-0.904-0.201-1.048-0.176-1.109-0.157-1.067-0.111-0.847-0.068-0.59-0.026-0.325-0.033 0.221-0.578 0.35-0.273-0.174 0.084-0.028 0.211 0.107 0.265 0.285 0.237 0.29 0.172 0.23 0.193 0.248" __comx="367.984" __comy="586.064" __timestamp="0x1963b029a6f"/><path class="write-flat-pen" d="m390.6 586.9 0.038-0.266 0.063-0.252 0.101-0.344 0.119-0.49 0.059-0.484-5e-3 -0.43-0.06-0.436-0.154-0.364-0.046-0.185-0.077-0.278-0.222-0.313-0.223-0.285-0.421-0.31-0.472-0.193-0.531-0.085-0.643-0.02-0.734 0.117-0.79 0.308-0.786 0.518-0.769 0.673-0.734 0.835-0.663 1.033-0.538 1.095-0.353 1.168-0.17 1.158 0.092 1.175 0.433 1.061 0.734 0.861 0.963 0.688 1.131 0.452 1.237 0.28 1.315 0.074 1.349-0.188 1.249-0.42 1.134-0.59 1.051-0.705 0.918-0.76 0.788-0.733 0.64-0.667 0.478-0.655 0.296-0.593 0.183-0.585 0.139-0.549 0.042-0.505-0.016-0.459-0.125-0.497-0.345-0.406-0.421-0.327-0.528-0.21-0.538-0.146-0.684 9e-3 -0.692 0.268-0.656 0.441-0.649 0.726-0.432 0.938-0.268 1.081 0.024 1.141 0.19 1.145 0.436 1.062 0.671 0.926 0.947 0.714 1.069 0.442 1.085 0.237 1.133 6e-3 1.051-0.221 0.991-0.362 0.911-0.558 0.765-0.722 0.522-0.807 0.301-0.925 0.041-0.917-0.192-0.883-0.378-0.831-0.568-0.727-0.658-0.634-0.728-0.567-0.764-0.464-0.78-0.361-0.817-0.248-0.908-0.033-0.867 0.314-0.645 0.625-0.219 0.991 0.332 0.897 0.666 0.66 1.264 0.854 0.772-0.905-0.91-1-0.137-0.425 0.049-0.09 0.017 0.141-0.08 0.107 0.076-0.015 0.221 0.013 0.409 0.13 0.539 0.25 0.555 0.336 0.544 0.422 0.474 0.449 0.325 0.405 0.186 0.391 0.093 0.389-8e-3 0.355-0.121 0.394-0.232 0.372-0.414 0.408-0.547 0.339-0.659 0.249-0.692 0.154-0.704 6e-3 -0.705-0.139-0.672-0.265-0.514-0.369-0.365-0.486-0.271-0.635-0.139-0.785-0.023-0.744 0.154-0.659 0.229-0.523 0.294-0.357 0.285-0.22 0.204-0.107 0.163-0.04 0.262-4e-3 0.273 0.026 0.193 0.049 0.124 0.019 0.111 0.067 0.126 0.248 0.089 0.342-3e-3 0.441-0.099 0.498-0.222 0.49-0.416 0.57-0.585 0.605-0.813 0.585-0.965 0.512-1.071 0.377-1.078 0.26-1.059 0.144-1.055 1e-3 -0.993-0.115-0.928-0.238-0.752-0.302-0.545-0.395-0.349-0.411-0.181-0.447-0.048-0.615 0.113-0.772 0.258-0.858 0.405-0.838 0.513-0.804 0.538-0.626 0.552-0.503 0.483-0.329 0.389-0.163 0.349-0.072 0.347-0.02 0.223 8e-3 0.093-4e-3 0.097 0.019 0.106 0.047 0.11 0.062 0.112 0.1 0.187 0.191 0.177 0.154 0.127 0.176 0.137 0.277 0.106 0.363 0.072 0.453 0.054 0.364 0.063 0.266 0.038 0.266" __comx="392.087" __comy="586.064" __timestamp="0x1963b029f32"/><path class="write-flat-pen" d="m402.3 588 0.071-0.272 0.062-0.294 0.052-0.326 0.11-0.444 0.062-0.45-0.021-0.419-0.018-0.425-0.043-0.415-0.045-0.344-0.017-0.247 9e-3 -0.205-0.022-0.197 0.026-0.024 0.027 0.025 0.03 0.742-1 0.027-0.201-0.126 2e-3 0.042 0.06 0.214 0.128 0.588 0.142 0.833 0.106 1.113 0.105 1.274 0.059 1.334 0.133 1.199 0.131 1.005 0.154 0.831 0.258 0.643 0.36 0.54 0.737 0.382 0.693-0.143 0.484-0.231 0.471-0.422 0.304-0.464 0.309-0.53 0.243-0.588 0.239-0.595 0.258-0.656 0.256-0.622 0.265-0.625 0.213-0.567 0.173-0.411 0.105-0.228 0.082-0.129-1.852-0.085-0.042-0.077 8e-3 0.071 0.083 0.394 0.112 0.475 0.215 0.585 0.369 0.665 0.577 0.493 0.611 0.305 0.784 0.176 0.761-0.166 0.653-0.288 0.573-0.461 0.44-0.529 0.364-0.492 0.297-0.445 0.206-0.309 0.096-0.117-0.248 0.186-0.47-0.04-0.172-0.132 0.066 0.097 0.138 0.297 0.154 0.509 0.249 0.622 0.229 0.607 0.325 0.643 0.537 0.617 0.802 0.381 0.86-0.039 0.722-0.273 0.635-0.433 1.396-0.909-1.243-1.57-1.068 1.041-0.402 0.085-0.314 9e-3 -0.083-0.039 0.048 3e-3 -0.075-0.088-0.146-0.3-0.196-0.522-0.223-0.557-0.175-0.574-0.287-0.596-0.356-0.517-0.597-0.461-0.988-0.086-0.623 0.468-0.329 0.401-0.265 0.398-0.268 0.402-0.296 0.402-0.264 0.32-0.181 0.151-0.197 0.088-0.086 0.023-0.063-0.013-0.143-0.071-0.084-0.072-0.102-0.184-0.114-0.309-0.077-0.325-0.057-0.267-0.039-0.351-0.138-0.266-1.852-0.085-0.154 0.247-0.177 0.386-0.202 0.482-0.212 0.565-0.253 0.598-0.262 0.65-0.26 0.663-0.233 0.583-0.179 0.449-0.209 0.363-0.121 0.196-0.047 0.05 0.012 4e-3 0.271-0.049 0.359 0.193 0.031 0.071-0.12-0.254-0.128-0.581-0.151-0.928-0.149-1.109-0.081-1.303-0.13-1.317-0.13-1.195-0.189-0.957-0.201-0.731-0.222-0.54-0.326-0.383-0.437-0.312-1.143 0.027 0.03 0.835 0.027 0.118 0.073 0.212 0.073 0.135 0.055 0.17 0.126 0.317 0.142 0.317 0.146 0.339 0.125 0.375 0.119 0.335 0.062 0.351 0.016 0.45 0.052 0.335 0.015 0.271-0.024 0.266" __comx="409.125" __comy="586.064" __timestamp="0x1963b02a286"/><path class="write-flat-pen" d="m416.8 586.9-9e-3 -0.278 4e-3 -0.241 9e-3 -0.379-5e-3 -0.49 0.045-0.46 0.051-0.437 0.073-0.272 0.091-0.141 0.078-0.118 0.066-0.857-1.693-0.049-0.037 0.953-0.02 0.259-0.019 0.502 0.054 0.655 0.053 0.808 0.111 0.956 0.155 1.02 0.139 1.032 0.193 0.994 0.199 0.817 0.24 0.733 0.395 0.603 0.459 0.373 0.639 0.296 0.78-0.165 0.519-0.4 0.356-0.488 0.223-0.564 0.193-0.546 0.125-0.554 0.132-0.481 0.155-0.501 0.177-0.488 0.149-0.402 0.177-0.377 0.136-0.318 0.074-0.148 0.027-0.04-0.583 0.511-0.733-0.588-0.046-0.081 0.09 0.235 0.148 0.381 0.141 0.491 0.215 0.566 0.234 0.518 0.262 0.527 0.415 0.456 0.432 0.302 0.602 0.242 0.769-0.095 0.532-0.444 0.217-0.391 0.144-0.266 0.145-0.217 0.138-0.184-0.126 0.116-0.94-0.165-0.144-0.333 0.164 0.327 0.195 0.453 0.265 0.665 0.469 0.748 0.636 0.635 0.796 0.449 0.979 0.222 1.064-0.093 1.816-0.568-0.391-1.691-1.712 0.248h-0.587l-0.386-0.107-0.286-0.162-0.261-0.261-0.238-0.382-0.204-0.513-0.23-0.536-0.165-0.33-0.287-0.662-1.223-0.214-0.786 0.731-0.285 0.381-0.233 0.348-0.185 0.345-0.019 0.034 0.25-0.209 0.393-0.049 0.13 0.052-0.039-0.027-0.057-0.062-0.113-0.227-0.191-0.422-0.161-0.423-0.144-0.499-0.181-0.466-0.145-0.379-0.232-0.41-0.969-0.777-0.961 0.843-0.256 0.382-0.162 0.324-0.146 0.343-0.199 0.423-0.182 0.492-0.199 0.548-0.174 0.582-0.153 0.556-0.108 0.482-0.139 0.397-0.106 0.283-0.02 0.03 0.094-0.068 0.355-0.072 0.217 0.107-0.013-2e-3 -0.076-0.105-0.138-0.397-0.177-0.691-0.183-0.889-0.146-0.994-0.174-1.005-0.125-0.881-0.087-0.793-0.088-0.57-0.019-0.394-0.02-0.259-0.037 0.766-1.647-0.049 0.066-0.764 0.078 0.118 0.091 0.188 0.119 0.292 0.1 0.413 0.091 0.48 0.135 0.499 0.105 0.375 0.097 0.231 0.079 0.261" __comx="422.541" __comy="586.064" __timestamp="0x1963b02a4f0"/><path class="write-flat-pen" d="m427.8 588.2-0.223 0.079-0.117 0.111-0.111 0.179-0.096 0.309 0.019 0.425 0.154 0.439 0.324 0.466 0.533 0.371 0.66 0.241 0.757 0.046 0.794-0.139 0.772-0.324 0.676-0.434 0.624-0.557 0.558-0.621 0.486-0.661 0.369-0.684 0.283-0.743-0.064-0.841-0.355-0.677-0.561-0.51-0.694-0.26-0.705-0.137-0.776 0.056-0.825 0.137-0.815 0.326-0.782 0.508-0.623 0.648-0.419 0.695-0.286 0.824 0.022 0.905 0.233 0.872 0.425 0.845 0.576 0.798 0.609 0.748 0.708 0.716 0.758 0.687 0.873 0.575 0.968 0.474 1.103 0.304 1.197 0.163 1.187-4e-3 1.142-0.146 1.08-0.298 0.963-0.427 0.827-0.539 0.716-0.624 0.539-0.688 0.321-0.691 0.209-0.63 0.041-0.631-0.103-0.589-0.206-0.544-0.25-0.516-0.275-0.519-0.288-0.514-0.364-0.542-0.325-0.451-0.298-0.368-0.323-0.33-0.724-0.232-0.62 0.476-0.253 0.492-0.168 0.587-0.124 0.765-0.06 0.886-0.06 1.026 0.072 1.024 0.166 0.949 0.426 0.904 0.721 0.576 0.771 0.269 0.76 0.046 0.752-0.166 0.617-0.288 0.59-0.4 0.498-0.497 0.415-0.497 0.299-0.514 0.287-0.479 0.176-0.5 0.139-0.413 0.092-0.431 5e-3 -0.046-0.387 0.65-0.753-0.125-0.022-0.015 0.188 0.188 0.337 0.405 0.462 0.513 0.563 0.536 0.702 0.532 0.776 0.403 0.822 0.284 0.759 0.141 0.727 0.06 0.68-0.097 0.657-0.22 0.605-0.418 0.456-0.527 0.381-0.581 0.316-0.704 0.237-0.769 0.296-0.821 0.31-1.002 0.287-1.054 0.29-1.111 0.22-1.198 0.169-1.305 0.124-1.37 0.074-1.499 0.091-1.582-0.021-1.595-0.064-1.488-0.09-1.242-0.123-0.927-0.129-0.709-0.165-0.289-1.611 0.265-0.103 0.34-0.06 0.776 0.04 1.077 0.082 1.46 0.144 1.77 0.215 1.965 0.224 2.111 0.301 2.128 0.354 2.032 0.386 1.863 0.461 1.642 0.474 1.372 0.519 1.118 0.528 0.834 0.474 0.529 0.362 0.364 0.297 0.209 0.163 0.078 1.168-1.612-0.139-0.138-0.296-0.229-0.459-0.292-0.611-0.35-0.756-0.384-0.886-0.443-1.022-0.488-1.079-0.532-1.095-0.559-1.042-0.556-0.926-0.522-0.777-0.4-0.518-0.292 0.346 0.203-0.299 1.195-0.286 0.069 0.666-0.057 1.056-0.161 1.371-0.249 1.654-0.275 1.866-0.279 1.937-0.256 1.882-0.21 1.702-0.154 1.534-0.236 2.393-0.197-0.336-2.216-2.319 0.517-1.479 0.14-1.692 0.128-1.931 0.215-1.975 0.262-1.901 0.286-1.691 0.29-1.362 0.27-0.969 0.171-0.699 0.083-0.994 0.211-0.346 1.382 0.911 0.535 0.564 0.319 0.777 0.401 0.914 0.515 1.077 0.574 1.117 0.573 1.09 0.551 1.004 0.502 0.857 0.451 0.702 0.37 0.521 0.311 0.341 0.227 0.126 0.1 0.05 0.051 1.168-1.612-0.026-0.018-0.032-0.024-0.202-0.203-0.326-0.364-0.368-0.581-0.421-0.905-0.422-1.219-0.433-1.516-0.368-1.763-0.354-1.97-0.311-2.063-0.248-2.083-0.256-1.944-0.185-1.714-0.108-1.413-0.053-0.949 0.034-0.496 0.037-0.178-1.611 0.265 0.024-6e-3 0.107 0.327 0.159 0.816 0.146 1.159 0.125 1.432 0.072 1.513-0.049 1.527-0.069 1.469-0.112 1.314-0.16 1.239-0.204 1.11-0.275 1.054-0.278 1.019-0.301 0.931-0.318 0.78-0.281 0.646-0.295 0.426-0.326 0.312-0.298 0.227-0.242 0.101-0.286 0.062-0.31 0.046-0.402-0.033-0.513-0.095-0.543-0.187-0.496-0.258-0.477-0.362-0.427-0.407-0.385-0.427-0.37-0.445-0.377-0.377-0.493-0.344-1.036-0.172-0.526 0.886-0.044 0.376-0.048 0.229-0.097 0.291-0.106 0.303-0.404 0.701-0.245 0.304-0.302 0.304-0.304 0.214-0.279 0.134-0.284 0.07-0.23-1e-3 -0.216-0.06-0.129-0.085-0.139-0.272-0.116-0.605-0.068-0.813 0.033-0.907 0.033-0.808 0.065-0.602 0.068-0.353-0.017-0.026-0.337 0.24-0.348-0.139 0.102-1e-3 0.314 0.199 0.383 0.3 0.437 0.401 0.372 0.382 0.336 0.421 0.268 0.427 0.172 0.446 0.083 0.447-0.052 0.451-0.216 0.453-0.383 0.438-0.547 0.348-0.696 0.272-0.773 0.215-0.827 0.185-0.9 0.126-0.93 0.09-0.932-4e-3 -0.922-0.119-0.783-0.214-0.68-0.326-0.634-0.415-0.608-0.539-0.61-0.602-0.524-0.617-0.46-0.616-0.282-0.52-0.143-0.447-0.024-0.32 0.09-0.305 0.195-0.341 0.317-0.341 0.444-0.293 0.457-0.192 0.54-0.098 0.45-0.04 0.332 0.052 0.249 0.069 0.097 0.058 0.069 0.074 0.029 0.102-0.092 0.293-0.245 0.494-0.361 0.515-0.432 0.511-0.459 0.43-0.454 0.32-0.5 0.244-0.478 0.144-0.422 0.046-0.376-0.041-0.314-0.101-0.241-0.148-0.177-0.172-0.12-0.186-0.05-0.163-0.017-0.104-0.021-0.031 0.118-0.092" __comx="445.421" __comy="586.064" __timestamp="0x1963b02abf5"/></g><a target="_top" xlink:href="mailto:blog@lehnert.dev"><rect x="121.3" y="570" width="342.3" height="39.52" fill-opacity="0" stroke-opacity="0"/></a></g></g></svg>
