<?xml version="1.0" encoding="UTF-8"?>
<svg width="95.54mm" height="10.68mm" version="1.1" viewBox="0 0 95.54 10.68" xmlns="http://www.w3.org/2000/svg" xmlns:xlink="http://www.w3.org/1999/xlink"><g transform="translate(-61.65 -94.19)"><g class="hyperref" transform="matrix(.2646 0 0 .2646 28.6 -37.9)" __timestamp="0x1963b074a11"><g fill="#00f" stroke-width="2.4"><path class="write-flat-pen" d="m134.1 510.1 0.155-0.235 0.208-0.192 0.321-0.298 0.43-0.44 0.425-0.449 0.403-0.533 0.367-0.551 0.367-0.583 0.315-0.586 0.331-0.614 0.24-0.689 0.166-0.705 0.052-0.774-0.141-0.8-0.347-0.79-0.705-0.673-0.889-0.41-1.01-0.222-1.184 0.018-1.228 0.214-1.263 0.465-1.186 0.715-1.037 0.954-0.897 1.168-0.668 1.387-0.442 1.406-0.269 1.503 0.085 1.483 0.367 1.29 0.638 1.248 0.931 1.143 1.077 1.053 1.201 1.03 1.215 0.932 1.136 0.904 0.985 0.825 0.807 0.741 0.609 0.635 0.348 0.478 0.144 0.313 8e-3 0.099-0.02 0.036-0.152 0.188-0.341 0.29-0.561 0.325-0.779 0.363-0.944 0.378-1.063 0.383-1.102 0.334-1.074 0.268-1.042 0.2-0.907 0.111-0.822 0.068-0.646 0.048-0.42 0.032 0.49-0.034 0.585 1.233-0.465 0.353 0.224-0.302 0.44-0.527 1.013-0.872-0.449-0.739-1.28 0.52-0.693 0.273-0.483 0.216-0.794 0.682 0.681 1.422 0.912-0.081 0.381-0.015 0.672-0.048 0.875-0.072 1.023-0.125 1.173-0.225 1.187-0.297 1.206-0.373 1.15-0.418 1.035-0.423 0.917-0.437 0.804-0.476 0.648-0.557 0.506-0.662 0.265-0.858-0.134-0.891-0.374-0.77-0.548-0.747-0.756-0.777-0.887-0.813-1.041-0.871-1.172-0.933-1.189-0.904-1.107-0.949-0.946-0.924-0.719-0.883-0.445-0.871-0.244-0.878-0.057-1.015 0.203-1.134 0.358-1.138 0.511-1.061 0.658-0.857 0.753-0.693 0.837-0.511 0.905-0.336 0.891-0.164 0.795-0.029 0.591 0.11 0.429 0.155 0.238 0.174 0.171 0.246 0.141 0.379 0.052 0.449-0.023 0.52-0.089 0.536-0.187 0.562-0.203 0.593-0.247 0.593-0.245 0.581-0.255 0.549-0.282 0.494-0.324 0.5-0.243 0.363-0.17 0.28-0.11 0.3" __comx="131.61" __comy="519.508" __timestamp="0x1963b01befd"/><path class="write-flat-pen" d="m136.4 520 0.15 0.251-0.069 0.085-0.051 0.135-0.029 0.238 9e-3 0.358 0.222 0.484 0.442 0.378 0.594 0.244 0.733 0.127 0.824-0.055 0.924-0.172 0.996-0.39 0.987-0.523 0.992-0.598 0.882-0.692 0.722-0.688 0.599-0.663 0.419-0.633 0.274-0.579 0.152-0.669-0.168-0.74-0.501-0.589-0.633-0.256-0.676-0.122-0.754 0.054-0.799 0.155-0.852 0.26-0.97 0.395-0.883 0.534-0.879 0.627-0.738 0.8-0.462 0.891-0.316 0.977v1.095l0.238 1.012 0.414 0.973 0.679 0.945 0.894 0.806 1.003 0.598 1.161 0.424 1.2 0.176 1.164 0.026 1.221-0.173 1.145-0.329 1.073-0.496 0.944-0.642 0.755-0.674 0.625-0.732 0.446-0.744 0.306-0.74 0.204-0.711 0.055-0.673-0.037-0.674-0.113-0.685-0.203-0.707-0.308-0.688-0.327-0.602-0.31-0.533-0.341-0.404-0.432-0.386-1.225-0.025-0.171 1.202 0.189 0.626 0.195 0.673 0.299 0.89 0.371 1.063 0.407 1.165 0.497 1.163 0.562 1.021 0.721 0.884 0.902 0.59 1.052 0.172 1.009-0.282 0.882-0.513 0.82-0.704 0.696-0.824 0.588-0.816 0.504-0.813 0.343-0.737 0.249-0.598 0.163-0.583 0.024-0.256-0.236 0.717h-1.457l-0.251-0.579 0.066 0.306 0.215 0.566 0.246 0.656 0.354 0.773 0.577 0.743 0.74 0.579 0.893 0.277 1.386 0.029 0.196-0.925-1.094-0.496-0.332-0.337-0.25-0.411-0.27-0.48-0.211-0.546-0.225-0.616-0.161-0.423-0.077-0.355-0.393-0.908h-1.504l-0.329 0.999-0.022 0.309-0.073 0.267-0.176 0.439-0.269 0.581-0.392 0.646-0.495 0.691-0.529 0.637-0.545 0.472-0.483 0.29-0.309 0.094-0.173-0.017-0.277-0.164-0.409-0.481-0.428-0.769-0.446-1.003-0.394-1.096-0.383-1.056-0.312-0.854-0.23-0.645-0.094-0.221-0.124 0.823-0.989-0.025-0.054-0.104 0.27 0.164 0.351 0.314 0.426 0.434 0.396 0.488 0.315 0.519 0.218 0.541 0.103 0.551-0.038 0.55-0.174 0.607-0.305 0.628-0.448 0.574-0.647 0.494-0.752 0.409-0.893 0.298-0.953 0.164-0.976 0.096-0.991 0.013-0.909-0.067-0.872-0.153-0.772-0.284-0.645-0.391-0.567-0.512-0.404-0.563-0.247-0.582-0.138-0.589v-0.506l0.156-0.484 0.246-0.475 0.392-0.426 0.628-0.456 0.671-0.409 0.724-0.31 0.655-0.212 0.569-0.127 0.375-0.042 0.218 0.021-0.019-0.02-0.126-0.167-0.026-0.172 9e-3 0.035-0.101 0.27-0.242 0.404-0.437 0.513-0.596 0.584-0.719 0.58-0.845 0.531-0.849 0.467-0.747 0.317-0.676 0.157-0.544 0.087-0.397-0.016-0.253-0.038-0.076 2e-3 -0.06 0.013-0.087-0.113-0.122-0.233-0.147-0.24-0.209-0.151-0.3-0.213" __comx="148.575" __comy="519.508" __timestamp="0x1963b01c1f9"/><path class="write-flat-pen" d="m171.5 518.3-0.195-0.323-0.082-0.265-0.251-0.405-0.365-0.461-0.412-0.482-0.481-0.533-0.577-0.546-0.633-0.561-0.777-0.533-0.915-0.46-1.042-0.311-1.204-0.082-1.198 0.259-1.108 0.623-0.892 1.04-0.58 1.268-0.286 1.395 0.081 1.468 0.466 1.412 0.897 1.227 1.264 0.916 1.485 0.521 1.561 0.143 1.624-0.218 1.502-0.57 1.354-0.839 1.123-1.061 0.898-1.271 0.629-1.384 0.349-1.477 0.182-1.518-0.021-1.528-0.147-1.53-0.298-1.542-0.417-1.624-0.555-1.651-0.572-1.575-0.554-1.443-0.461-1.078-0.524-1.1-0.639-0.179-1.36 0.835-0.121 0.611 0.083 1.191 0.146 1.629 0.337 2.06 0.477 2.412 0.579 2.497 0.725 2.467 0.81 2.207 0.944 1.889 1.158 1.529 1.26 1.166 1.896 1.19 0.858-1.135-1.548-1.411-0.906-1.095-0.868-1.344-0.799-1.644-0.744-2.031-0.687-2.338-0.553-2.402-0.463-2.344-0.323-1.945-0.137-1.526-0.057-0.881 0.066-0.329-1.36 0.835-0.307-0.086 0.087 0.172 0.433 0.994 0.532 1.383 0.558 1.534 0.528 1.551 0.383 1.484 0.269 1.38 0.136 1.343 0.025 1.298-0.147 1.259-0.265 1.163-0.453 1.017-0.656 0.941-0.81 0.776-1.001 0.623-1.088 0.419-1.155 0.157-1.076-0.09-0.963-0.329-0.762-0.543-0.518-0.705-0.288-0.85-0.059-0.934 0.185-0.913 0.36-0.804 0.476-0.56 0.539-0.32 0.639-0.163 0.729 0.011 0.699 0.161 0.688 0.294 0.634 0.361 0.592 0.428 0.601 0.444 0.556 0.41 0.528 0.365 0.482 0.292 0.364 0.207 0.247 0.113 0.342 0.207" __comx="168.977" __comy="519.508" __timestamp="0x1963b01c3dc"/><path class="write-flat-pen" d="m192.5 520.4-0.031-0.22 8e-3 -0.157 0.01-0.264-3e-3 -0.299 0.045-0.309 2e-3 -0.355-5e-3 -0.387-0.025-0.449-0.047-0.454-0.019-0.461-0.021-0.498-0.025-0.508-0.019-0.508-0.019-0.467 6e-3 -0.38-0.023-0.321-0.049-0.454-0.39-0.326-0.262-0.158-0.246-0.066-0.561-0.131-0.578 0.552-0.219 0.55-0.073 0.627-0.062 0.834-0.035 1.016-0.01 1.206 0.041 1.333 0.092 1.269 0.141 1.168 0.148 0.95 0.176 0.747 0.155 0.546 0.287 0.492 0.64 0.543 0.843-0.167 0.501-0.412 0.259-0.514 0.209-0.526 0.151-0.6 0.183-0.592 0.186-0.63 0.197-0.603 0.25-0.591 0.207-0.553 0.171-0.379 0.043-0.076-0.505 0.362-0.587-0.289 0.011 0.022 0.166 0.434 0.207 0.644 0.255 0.717 0.312 0.681 0.449 0.673 0.735 0.472 0.9 0.063 0.753-0.374 0.57-0.502 0.552-0.602 0.554-0.679 0.538-0.733 0.488-0.681 0.406-0.615 0.306-0.438 0.179-0.232-0.165 0.167-0.994 5e-3 -0.238-0.458 0.055 0.182 0.054 0.46 0.092 0.748 0.094 0.825 0.155 0.931 0.24 0.852 0.302 0.814 0.521 0.722 0.681 0.409 0.787 0.185 0.763-0.212 0.556-0.386 0.48-0.507 0.355-0.614 0.295-0.595 0.293-0.602 0.165-0.551 0.08-0.483 0.034-0.321 0.074-0.231 0.052-0.151 0.051-0.047-1.038-0.642-0.411 0.155-0.144 0.62 6e-3 0.464 0.153 0.558 0.373 0.623 0.624 0.528 0.803 0.292 0.851 0.071 0.846-0.15 0.807-0.316 0.707-0.559 0.497-0.672 0.379-0.715 0.234-0.681 0.168-0.696-0.025-0.684-0.147-0.605-0.301-0.488-0.4-0.409-0.507-0.263-0.554-0.166-0.687-0.108-0.824 0.108-0.769 0.355-0.715 0.606-0.571 0.848-0.411 1.041-0.225 1.149-0.031 1.294 0.258 1.239 0.521 1.196 0.908 0.938 1.086 0.591 1.2 0.304 1.268-0.01 1.227-0.252 1.26-0.359 1.98-0.721-0.367-1.373-2.03 0.35-1.191 0.159-1.034 0.08-0.851-0.01-0.683-0.167-0.562-0.306-0.413-0.427-0.279-0.641-0.164-0.787 0.015-0.871 0.15-0.784 0.25-0.654 0.276-0.423 0.275-0.244 0.22-0.114 0.212-0.034 0.256 0.034 0.247 0.07 0.058 0.02 0.022 0.013 0.031 0.03 0.04 0.102 0.024 0.21-0.068 0.341-0.144 0.451-0.232 0.461-0.256 0.364-0.283 0.241-0.369 0.155-0.426 0.086-0.374-0.022-0.28-0.087-0.176-0.13-0.145-0.178-0.083-0.149-0.043-0.054-0.095 0.337-0.317 0.109-1.038-0.642 0.051 0.047 0.052 0.084 0.028 0.194-0.013 0.291-0.062 0.364-0.118 0.392-0.225 0.434-0.366 0.348-0.399 0.233-0.367 0.104-0.291 0.039-0.037-0.023 0.033-4e-3 -0.027-0.016-0.091-0.126-0.17-0.458-0.185-0.655-0.128-0.763-0.095-0.779-0.094-0.757-0.088-0.672-0.181-0.522-0.428-0.836-1.18 5e-3 -0.543 0.545-0.292 0.379-0.352 0.505-0.395 0.608-0.455 0.637-0.498 0.681-0.482 0.592-0.438 0.48-0.278 0.251-1e-3 2e-3 0.192 0.017 0.077 0.05-0.118-0.177-0.206-0.448-0.214-0.602-0.218-0.675-0.258-0.651-0.411-0.683-1.059-0.525-0.834 0.597-0.335 0.536-0.254 0.564-0.215 0.576-0.268 0.635-0.227 0.715-0.189 0.642-0.195 0.633-0.132 0.53-0.12 0.321-0.023 0.051 0.219-0.176 0.607-0.118 0.357 0.307 5e-3 0.02-0.081-0.255-0.155-0.621-0.135-0.84-0.141-1.09-0.097-1.182-0.052-1.258-0.01-1.149 0.011-0.96 0.034-0.77 0.021-0.363-0.03 0.032-0.392 0.365-0.325-0.084 0.037-0.019-0.073-0.065-0.2-0.184-3e-3 -0.172 0.071 0.244 0.056 0.327 0.074 0.476 0.074 0.528 0.117 0.528 0.119 0.492 0.123 0.479 0.142 0.443 0.115 0.398 0.091 0.367 0.095 0.303 0.045 0.305 0.09 0.313 0.06 0.254 0.054 0.172 0.079 0.224" __comx="202.067" __comy="518.274" __timestamp="0x1963b01dbf5"/><path class="write-flat-pen" d="m231.9 518.8-0.175-0.288-0.14-0.253-0.208-0.365-0.293-0.402-0.178-0.263-0.19-0.247-0.574-0.188-0.593 0.516 0.013 0.534 5e-3 0.436 0.181 0.69 0.334 0.83 0.362 1.005 0.502 1.101 0.524 1.087 0.526 0.978 0.582 0.849 0.651 0.713 0.698 0.489 0.773 0.302 0.881 2e-3 0.757-0.371 0.708-0.511 0.688-0.735 0.684-0.874 0.763-0.964 0.721-1.057 0.648-1.08 0.538-1.039 0.436-0.967 0.386-0.818 0.308-0.693 0.141-0.689-0.393-1.025-1.035 0.171-0.599 0.435-0.562 0.636-0.596 0.887-0.664 1.036-0.773 1.26-0.745 1.529-0.747 1.669-0.768 1.833-0.743 1.904-0.713 1.973-0.67 1.936-0.554 1.893-0.459 1.691-0.294 1.472-0.179 1.259 0.07 1.125 0.585 1.024 1.088 0.353 1.078-0.381 0.934-0.729 1.197-1.438-0.691-0.747-1.436 0.997-0.714 0.354-0.287-2e-3 0.191 0.021 0.02-0.013-0.023-0.476 0.15-1.003 0.271-1.352 0.437-1.607 0.529-1.83 0.648-1.877 0.699-1.939 0.718-1.863 0.74-1.794 0.714-1.629 0.667-1.437 0.689-1.19 0.608-1.036 0.487-0.807 0.331-0.449 0.108-0.13-0.61 0.077-0.157-0.507 0.091 0.205-0.067 0.579-0.225 0.832-0.318 0.963-0.498 0.987-0.623 1.039-0.693 1.015-0.745 0.919-0.728 0.729-0.677 0.44-0.613 0.15-0.419 5e-3 -0.251-0.091-0.309-0.17-0.385-0.265-0.432-0.463-0.454-0.659-0.463-0.858-0.512-1.035-0.488-1.018-0.392-0.972-0.374-0.774-0.195-0.44-0.088-0.271-0.036 0.159-0.45 0.373-0.338-0.142 0.046-0.058 0.244 0.116 0.368 0.255 0.31 0.249 0.236 0.169 0.248 0.219" __comx="235.954" __comy="518.274" __timestamp="0x1963b01dec2"/><path class="write-flat-pen" d="m247.4 519.5-0.027-0.518-0.104-0.357-0.277-0.292-0.4-0.294-0.55-0.144-0.597-0.063-0.639 0.03-0.686 0.192-0.719 0.364-0.682 0.682-0.44 0.906-0.286 1.029-0.145 1.103 0.106 1.166 0.326 1.054 0.642 0.94 0.965 0.692 1.026 0.39 1.094 0.187 1.09-0.114 0.998-0.34 0.903-0.512 0.768-0.677 0.662-0.674 0.528-0.779 0.396-0.855 0.115-0.929-0.12-0.868-0.278-0.821-0.501-0.803-0.714-0.623-0.85-0.487-0.974-0.303-1.044-0.093-1.037 0.163-0.865 0.419-0.723 0.654-0.438 0.975 0.233 1.056 0.624 0.759 0.808 0.482 1.546 0.591 0.615-1.268-1.276-0.778-0.324-0.365-0.08-0.23 0.044 0.02-0.013 0.032 0.171-0.147 0.314-0.146 0.471-0.072 0.557 0.05 0.534 0.166 0.469 0.267 0.322 0.273 0.206 0.326 0.145 0.405 0.069 0.404-0.028 0.343-0.169 0.417-0.319 0.492-0.471 0.502-0.551 0.502-0.556 0.335-0.606 0.224-0.604 0.075-0.65-0.095-0.621-0.224-0.497-0.344-0.301-0.425-0.192-0.594-0.081-0.766 0.09-0.78 0.183-0.761 0.22-0.506 0.261-0.308 0.317-0.201 0.35-0.14 0.348-0.063 0.393-0.017 0.25-2e-3 0.214 0.035 0.145-0.01 0.085-0.074 0.18 0.323" __comx="246.663" __comy="518.274" __timestamp="0x1963b01e063"/><path class="write-flat-pen" d="m254.8 520.1 0.033-0.312 0.103-0.277 0.078-0.403 0.057-0.501-0.029-0.54-0.202-0.55-0.406-0.385-0.606-0.299-0.73 0.139-0.616 0.409-0.477 0.692-0.313 0.877-0.171 0.984-0.086 1.13 0.101 1.128 0.188 1.059 0.403 0.973 0.632 0.713 0.76 0.429 0.824 0.126 0.786-0.144 0.722-0.354 0.573-0.527 0.474-0.622 0.318-0.687 0.18-0.655 0.089-0.599 0.026-0.488 0.027-0.426v-0.313l-1e-3 -0.579-0.321-0.315-1.694 0.834 0.022 0.163 0.025 0.314 0.104 0.56 0.244 0.765 0.442 0.671 0.599 0.539 0.748 0.264 0.76 0.012 0.726-0.087 0.686-0.194 0.633-0.329 0.553-0.437 0.428-0.501 0.292-0.519 0.197-0.438 0.122-0.392 0.058-0.274 0.024 0.011-0.035 0.107-0.975 0.247-0.042-3e-3 0.048 0.1 0.203 0.328 0.297 0.502 0.373 0.606 0.487 0.636 0.582 0.597 0.621 0.499 0.718 0.369 0.725 0.236 0.731 0.13 0.705-0.052 0.656-0.093 0.587-0.303 0.436-0.466 0.222-0.516 0.063-0.609-0.157-0.63-0.317-0.576-0.482-0.551-0.608-0.53-0.682-0.537-0.713-0.551-0.754-0.565-0.7-0.536-0.595-0.464-0.357-0.343-0.123-0.157 0.087 0.236-0.15 0.301 0.065-0.052 0.407-0.188 0.702-0.231 0.857-0.192 1.014-0.136 1.095-0.175 2.027-0.316-0.206-1.72-2.051 0.172-1.117 0.107-1.105 0.146-1.029 0.23-0.899 0.287-0.722 0.331-0.596 0.466-0.433 0.868 0.323 0.847 0.395 0.503 0.537 0.504 0.677 0.526 0.714 0.547 0.754 0.564 0.699 0.532 0.636 0.499 0.478 0.413 0.269 0.296 0.108 0.178 0.032 0.077 0.016 2e-3 0.032-0.044 0.012 5e-3 -0.025 0.026-0.287 0.05-0.424 0.041-0.401-0.059-0.498-0.14-0.461-0.195-0.415-0.302-0.454-0.439-0.407-0.496-0.381-0.523-0.364-0.487-0.268-0.33-0.234-0.279-0.181-0.096-0.975 0.247-0.084 0.2 0.024 0.247 0.012 0.151-0.017 0.266-0.085 0.316-0.179 0.377-0.279 0.347-0.39 0.317-0.45 0.236-0.49 0.135-0.499 9e-3 -0.372-0.177-0.192-0.254-0.154-0.308-0.123-0.365-0.088-0.46-0.036-0.383-0.022-0.297-0.027-0.216-1.694 0.834-0.272-0.266-1e-3 -0.25v0.251l-0.023 0.374-0.02 0.409-0.051 0.388-0.102 0.381-0.154 0.349-0.233 0.321-0.228 0.227-0.221 0.117-0.203 0.045-0.163-0.017-0.183-0.089-0.215-0.23-0.211-0.486-0.141-0.777-0.088-0.898 0.057-0.896 0.111-0.76 0.158-0.535 0.135-0.251 0.044-0.063-0.119-1e-3 -0.041-0.064 0.066-9e-3 0.127 0.062 0.16 0.264 0.15 0.393 0.128 0.351 0.103 0.288 0.122 0.322" __comx="260.348" __comy="518.274" __timestamp="0x1963b01e351"/><path class="write-flat-pen" d="m290.3 513.4-0.036-0.487-0.031-0.61-6e-3 -0.89-5e-3 -1.172 0.045-1.054 0.036-1.041 0.019-0.944 0.056-0.879 0.01-0.835 0.028-0.758 8e-3 -0.71 0.026-0.64 0.052-0.624 0.044-0.565 0.093-0.44 0.137-0.325 0.151-0.269 0.024 0.011-0.503 0.338-0.592-0.382-3e-3 0.105 0.122 0.779 0.079 1.379 0.107 1.891 0.063 2.244 0.067 2.43 0.089 2.455 0.094 2.341 0.116 2.1 0.167 1.807 0.193 1.452 0.207 1.239 0.375 0.924 0.394 0.706 0.444 0.488 0.712 0.431 0.981-0.177 0.6-0.599 0.477-0.651 0.457-0.885 0.422-0.99 0.415-1.049 0.362-1.051 0.326-0.905 0.295-0.797 0.198-0.468-0.027 0.031-0.676 0.169-0.275-0.275 0.193 0.342 0.291 0.772 0.34 1.052 0.38 1.238 0.439 1.244 0.478 1.18 0.548 1.04 0.722 0.879 0.916 0.565 1.024 0.259 1.015-0.103 0.915-0.372 0.762-0.596 0.591-0.702 0.579-0.694 0.515-0.718 0.421-0.716 0.326-0.702 0.219-0.652 0.163-0.578 0.11-0.514 0.116-0.487 0.045-0.503-0.08-0.564-0.298-0.479-0.364-0.332-0.435-0.27-0.488-0.161-0.618-0.121-0.729 0.105-0.762 0.344-0.717 0.611-0.6 0.848-0.54 0.986-0.366 1.045-0.295 1.046-0.066 1.039 0.307 0.974 0.821 0.668 1.029 0.132 0.926-0.237 0.884-0.452 0.801-0.676 0.617-0.778 0.513-0.815 0.321-0.871 0.17-0.773 0.09-0.718-0.029-0.64-0.091-0.56-0.15-0.457-0.442-0.768-1.576 4e-3 -0.137 1.261 0.105 0.605 0.187 0.721 0.314 0.89 0.433 0.917 0.479 0.901 0.636 0.803 0.71 0.618 0.782 0.366 0.795 0.127 0.779-0.128 0.614-0.346 0.505-0.492 0.274-0.561 0.234-0.556 0.161-0.596 0.08-0.606v-0.593l-0.107-0.588-0.173-0.584-0.208-0.589-0.195-0.591-0.137-0.584-0.113-0.524-0.036-0.326-2e-3 -0.191-1.228-0.336-0.276 0.222-0.032 0.53-0.03 0.44 6e-3 0.697 0.109 0.891 0.162 0.93 0.243 0.942 0.333 0.823 0.379 0.755 0.535 0.55 0.586 0.346 0.688 0.111 0.7-0.191 0.551-0.402 0.359-0.498 0.327-0.59 0.213-0.609 0.193-0.505 0.206-0.411 0.156-0.232-0.753 0.149-0.267-0.356 0.152 0.274 0.179 0.6 0.259 0.894 0.309 1.045 0.327 1.033 0.415 0.943 0.519 0.791 0.636 0.581 0.785 0.189 0.847-0.327v-0.437l-0.579-0.327-0.108-0.28-0.164-0.362-0.235-0.624-0.292-0.798-0.284-0.947-0.305-1.028-0.259-0.896-0.243-0.811-0.32-0.576-0.55-0.731-1.225 0.242-0.691 0.993-0.313 0.626-0.232 0.625-0.165 0.477-0.191 0.35-0.11 0.163-0.017 0.02 0.042-2e-3 0.074 0.018-0.072-0.032-0.172-0.155-0.232-0.423-0.281-0.639-0.226-0.752-0.169-0.814-0.127-0.757-0.041-0.575-0.03-0.41-0.032 0.108-0.229 0.175-1.228-0.336 0.094 0.185 0.15 0.335 0.219 0.513 0.238 0.592 0.276 0.588 0.217 0.541 0.155 0.499 0.083 0.448v0.443l-0.063 0.479-0.121 0.44-0.237 0.384-0.244 0.239-0.295 0.072-0.279-0.015-0.258-0.081-0.29-0.155-0.347-0.199-0.373-0.325-0.401-0.516-0.371-0.7-0.368-0.78-0.25-0.711-0.142-0.551-0.037-0.242-0.09 0.836-1.433 4e-3 -0.253-0.439 0.037 0.111 0.052 0.287 0.018 0.35-0.05 0.458-0.112 0.545-0.197 0.544-0.337 0.551-0.419 0.541-0.471 0.407-0.481 0.255-0.346 0.092-0.1-8e-3 0.067 0.056-0.024-0.065 0.03-0.466 0.223-0.79 0.292-0.841 0.403-0.755 0.39-0.566 0.319-0.283 0.274-0.128 0.165-0.038 0.231 0.021 0.217 0.028 0.18 0.059 0.154 0.044 0.078-8e-3 0.109 0.096 0.092 0.251 0.023 0.407 0.014 0.476-0.07 0.505-0.159 0.573-0.285 0.616-0.38 0.649-0.475 0.647-0.553 0.578-0.632 0.335-0.652 0.111-0.593 6e-3 -0.492-0.103-0.434-0.166-0.356-0.236-0.361-0.439-0.395-0.75-0.419-1.035-0.408-1.157-0.374-1.213-0.367-1.114-0.367-0.971-0.418-0.741-0.793-0.793-1.244 0.312-0.592 0.785-0.32 0.755-0.316 0.853-0.335 0.931-0.346 1.021-0.385 0.977-0.379 0.893-0.344 0.669-0.276 0.386-0.011 0.013 0.463-0.082 0.241 0.149-0.074-0.079-0.217-0.376-0.239-0.584-0.169-0.973-0.185-1.374-0.162-1.727-0.12-2.045-0.096-2.322-0.097-2.443-0.076-2.422-0.076-2.277-0.129-1.925-0.11-1.494-0.206-1.058-0.335-0.789-0.921-0.618-0.879 0.574-0.261 0.479-0.178 0.484-0.146 0.571-0.047 0.69 0.044 0.66 0.052 0.648 0.072 0.679 0.101 0.702 0.074 0.749 0.106 0.815 0.056 0.862 0.065 0.942 0.036 1.032 0.045 1.065 0.088 1.183 0.09 0.9 0.108 0.616 0.092 0.482" __comx="304.051" __comy="518.274" __timestamp="0x1963b01e97f"/><path class="write-flat-pen" d="m325 519.1 0.05-0.263 0.047-0.204 0.062-0.269 0.048-0.425-0.01-0.414-0.028-0.413-0.034-0.469-0.147-0.525-0.246-0.591-0.465-0.519-0.617-0.339-0.747-0.212-0.812 0.137-0.722 0.347-0.656 0.654-0.533 0.877-0.353 0.977-0.257 1.024-0.159 0.984v0.928l0.129 0.799 0.418 0.763 0.667 0.454 0.718 0.195 0.738 6e-3 0.742-0.266 0.696-0.516 0.558-0.732 0.5-0.934 0.396-1.145 0.331-1.283 0.227-1.423 0.124-1.498 0.053-1.534-0.098-1.503-0.143-1.422-0.251-1.385-0.373-1.277-0.396-1.148-0.427-0.954-0.366-0.731-0.281-0.344-1.488-0.072-0.461 0.472 0.087 1.043 0.148 1.193 0.363 1.721 0.492 2.173 0.56 2.496 0.564 2.522 0.57 2.47 0.597 2.225 0.577 1.905 0.699 1.539 1.175 1.883 1.511-0.849-0.943-1.886-0.526-1.383-0.555-1.768-0.579-2.155-0.562-2.429-0.565-2.517-0.569-2.498-0.497-2.158-0.344-1.623-0.134-1.068-6e-3 -0.087-0.179 0.187-1.488-0.072 0.141 0.174 0.248 0.494 0.374 0.836 0.358 1.018 0.332 1.128 0.221 1.206 0.139 1.308 0.091 1.37-0.04 1.388-0.112 1.375-0.198 1.261-0.28 1.121-0.311 0.928-0.347 0.667-0.292 0.398-0.245 0.191-0.155 0.063-0.155 6e-3 -0.179-0.041-0.038-0.018-0.054-0.084-0.06-0.33v-0.626l0.123-0.76 0.215-0.859 0.259-0.72 0.317-0.535 0.284-0.289 0.221-0.124 0.177-0.052 0.196 0.024 0.23 0.086 0.146 0.092 0.179 0.258 0.182 0.322 0.155 0.378 0.208 0.388 0.177 0.293 0.253 0.578 0.094 0.172 0.05 0.24" __comx="324.073" __comy="518.274" __timestamp="0x1963b01eb52"/><path class="write-flat-pen" d="m333.6 519.1 0.017-0.21 4e-3 -0.133 0.014-0.161 3e-3 -0.257-0.052-0.265-0.037-0.227-0.022-0.295-0.108-0.275-0.06-0.222-0.04-0.234-0.035-0.179 0.027-0.142 0.037-0.14 0.037-0.205 0.053-0.135 0.076-0.16 0.074-0.227 0.078-0.148 0.065-0.275 0.03-0.169 0.026-0.394-0.243-0.262-1.349 0.426-0.032 0.119-0.08 0.321-0.086 0.606-0.055 0.762-0.054 0.902-0.051 1.081-5e-3 1.173v1.197l0.128 1.255 0.279 1.145 0.559 0.943 0.788 0.662 0.885 0.323 0.896-0.03 0.753-0.277 0.645-0.346 0.596-0.485 0.459-0.403 0.348-0.347 0.142-0.141-0.226 0.146-0.371-0.105 0.034 0.026 0.286 0.254 0.447 0.437 0.674 0.501 0.863 0.42 0.986 0.247 1.104 0.046 1.104-0.206 1.079-0.378 0.928-0.595 0.823-0.748 0.545-0.94 0.315-1.005 0.069-1.102-0.239-1.053-0.442-0.976-0.658-0.892-0.823-0.798-0.875-0.721-0.865-0.576-0.742-0.394-0.671-0.279-1.003 0.035-0.583 0.988 0.287 0.797 0.455 0.541 0.75 0.459 0.978 0.285 1.117 0.131 1.135 0.091 1.067 0.021 0.894-0.023 0.71-0.054 0.454-9e-3 0.356-0.034 0.258-0.037-0.341 0.297-0.431-0.531-0.026 0.092 0.044 0.575 0.084 0.783 0.162 0.95 0.221 1.089 0.315 1.007 0.391 0.891 0.54 0.731 0.572 0.371 0.427 0.249 0.69 0.175 0.827-0.478 0.123-0.751-0.07-0.448-0.112-0.565-0.29-0.678-0.375-0.677-0.374-0.687-0.417-0.754-0.411-0.764-0.416-0.81-0.377-0.753-0.253-0.652-0.163-0.531-0.034-0.164-0.109 0.311-0.373 0.22-0.113-0.016 0.332 0.136 0.503 0.301 0.634 0.429 0.696 0.48 0.739 0.474 0.74 0.377 0.733 0.246 0.637 0.117 1.08 0.178 0.375-1.076-0.939-0.527-0.492-0.308-0.539-0.319-0.579-0.377-0.675-0.419-0.67-0.463-0.685-0.465-0.676-0.406-0.705-0.289-0.82-0.109-0.841 0.502-0.298 0.875 0.155 0.779 0.212 0.694 0.312 0.806 0.424 0.847 0.434 0.84 0.436 0.791 0.43 0.753 0.38 0.678 0.333 0.595 0.181 0.405 0.075 0.332 0.026 0.117 0.077-0.422 0.591-0.335 0.266 0.079-0.184-0.079-0.278-0.147-0.261-0.305-0.313-0.617-0.299-0.829-0.251-0.983-0.213-0.887-0.152-0.724-0.098-0.461-0.026-0.426-0.571-0.721-0.484 0.393-0.071 0.103-0.209 0.155-0.346 0.13-0.658 0.088-0.846 0.024-1.005-0.072-1.033-0.238-0.909-0.387-0.623-0.423-0.287-0.342-0.017-0.166 0.148 0.279-0.396 0.706-0.531 0.035 0.179 0.096 0.577 0.314 0.689 0.46 0.726 0.597 0.638 0.616 0.425 0.566 0.265 0.578 0.136 0.548-0.025 0.548-0.157 0.549-0.256 0.472-0.449 0.431-0.58 0.394-0.711 0.28-0.732 0.173-0.686-1e-3 -0.615-0.131-0.551-0.238-0.455-0.302-0.403-0.363-0.372-0.31-0.345-0.256-0.699-0.198-0.601 0.382-0.282 0.282-0.313 0.314-0.388 0.351-0.44 0.362-0.391 0.219-0.376 0.148-0.283 0.017-0.291-0.102-0.344-0.278-0.288-0.472-0.192-0.785-0.108-1.054v-1.111l-5e-3 -1.135 0.045-1.038 0.04-0.888 0.038-0.699 0.056-0.477 0.06-0.29 0.017-0.164-1.349 0.426-0.196-0.216 0.026-0.254 0.03 0.067 0.019 0.054-0.018 0.137-0.019 0.291-0.02 0.215 6e-3 0.29 0.037 0.267 0.037 0.189 0.074 0.33 0.154 0.244 0.103 0.191 0.127 0.25 0.127 0.197 0.074 0.223 0.102 0.242 0.091 0.206 0.05 0.214 0.061 0.168 0.051 0.103 0.017 0.182" __comx="343.281" __comy="518.274" __timestamp="0x1963b01f046"/><path class="write-flat-pen" d="m356 517.2 0.07-0.273 0.106-0.141 0.071-0.298-0.068-0.329-0.107-0.312-0.318-0.452-0.997-0.037-0.23 0.72-0.079 0.5-0.027 0.701 0.122 0.845 0.121 0.883 0.227 0.937 0.213 0.835 0.259 0.766 0.317 0.646 0.428 0.432 0.616 0.381 0.82-0.266 0.448-0.521 0.148-0.577 0.099-0.591 0.014-0.715-0.02-0.779-0.107-0.908-0.225-1.059-0.327-1.135-0.421-1.306-0.466-1.455-0.47-1.599-0.516-1.714-0.468-1.73-0.419-1.632-0.277-1.445-0.168-1.138-0.13-0.797-0.046-0.499-0.201-0.632-0.427-0.143-0.973 0.531-0.064 0.254-0.029 0.474 0.091 0.687 0.252 0.761 0.416 0.725 0.573 0.648 0.754 0.414 0.792 0.057 0.783-0.219 0.721-0.475 0.633-0.658 0.57-0.723 0.455-0.768 0.352-0.79 0.245-0.739 0.167-0.658 0.104-0.412 0.082-0.179 0.055-0.031-1.386-0.049v0.124l0.08 0.239 0.095 0.505 0.154 0.909 0.201 1.18 0.176 1.473 0.155 1.746 0.165 2.026 0.104 2.155 0.137 2.161 0.186 2.054 0.217 1.786 0.265 1.491 0.301 1.281 0.391 1.094 0.469 0.964 0.501 0.817 0.534 0.696 0.469 0.494 0.469 0.471 1.074 0.403 0.799-0.995-0.062-0.768-0.132-0.565-0.238-0.659-0.355-0.748-0.454-0.82-0.469-0.829-0.516-0.94-0.514-0.993-0.527-1.039-0.441-0.991-0.396-0.923-0.267-0.688-0.121-0.395-1e-3 0.136-0.289 0.284-0.114 0.019 0.263 0.044 0.456 0.103 0.611 0.204 0.685 0.202 0.81 0.162 0.911 0.029 0.949-0.248 0.873-0.532 0.786-0.831 0.58-0.981 0.49-1.032 0.441-1.018 0.34-0.958 0.252-0.905 0.095-0.882-0.01-0.851-0.089-0.879-0.181-0.907-0.21-0.975-0.263-1.02-0.336-0.943-0.217-0.681-0.19-0.632-0.217-0.244-1.203 0.453-0.093 0.311-0.094 0.668-0.067 1.083-0.058 1.422-0.035 1.744 0.042 1.966 0.023 2.129 0.1 2.235 0.129 2.25 0.158 2.158 0.262 1.968 0.343 1.737 0.457 1.452 0.517 1.176 0.638 0.851 0.646 0.546 0.7 0.326 1.113-0.118 0.477-1.087-0.228-0.741-0.265-0.6-0.506-0.646-0.579-0.632-0.661-0.704-0.764-0.781-0.841-0.812-0.919-0.826-0.896-0.717-0.777-0.557-0.546-0.389-0.375-0.198-0.156-0.076-1.28 1.285 0.221 0.441 0.581 0.144 0.433 0.146 0.716 0.166 0.83 0.129 0.906 0.099 0.947 0.074 0.955 0.047 0.99 0.049 0.994-0.057 0.969-0.139 0.929-0.308 1.4-0.679-0.455-1.253-1.408 0.341-0.765 0.068-0.821 0.05-0.845 0.036-0.893-0.044-0.928-0.046-0.89-0.069-0.837-0.09-0.724-0.104-0.556-0.119-0.414-0.136 0.202 0.051 0.175 0.348-1.28 1.285 0.126 0.064 0.236 0.131 0.444 0.318 0.731 0.526 0.8 0.651 0.825 0.775 0.76 0.789 0.694 0.773 0.611 0.711 0.506 0.591 0.295 0.391 0.111 0.25-0.039-0.13 0.334-0.758 0.691-0.071 0.086 0.044-0.248-0.208-0.352-0.468-0.379-0.849-0.39-1.232-0.315-1.561-0.256-1.845-0.173-2.082-0.153-2.223-0.136-2.192-0.07-2.111-0.101-1.943-0.035-1.694-8e-3 -1.404-0.02-1.036-1e-3 -0.558 3e-3 -0.253-1.203 0.453 0.016-0.055 0.188 0.261 0.348 0.637 0.465 0.847 0.397 0.913 0.354 0.908 0.29 0.836 0.146 0.815 0.036 0.797-0.094 0.815-0.266 0.838-0.413 0.879-0.549 0.912-0.639 0.854-0.692 0.666-0.722 0.441-0.635 0.222-0.559 0.127-0.547-0.017-0.604-0.121-0.586-0.173-0.661-0.221-0.581-0.132-0.584-0.099-0.678 0.115-0.572 0.566-1e-3 0.794 0.208 0.69 0.298 0.771 0.404 0.963 0.455 1.032 0.509 1.083 0.476 1.03 0.474 0.992 0.424 0.865 0.393 0.784 0.259 0.617 0.138 0.47 0.057 0.331-0.016-0.157 0.61-0.759 0.698 0.263-0.143-0.143-0.381-0.4-0.406-0.529-0.396-0.644-0.378-0.777-0.317-0.885-0.264-1.12-0.253-1.382-0.208-1.701-0.19-1.998-0.146-2.123-0.132-2.179-0.213-2.072-0.221-1.784-0.249-1.543-0.271-1.222-0.221-0.931-0.187-0.671-0.155-0.279-0.046-0.018-1.386-0.049-0.041 0.205-0.011 0.385 0.011 0.438-0.022 0.614-0.084 0.673-0.216 0.718-0.346 0.693-0.513 0.642-0.546 0.567-0.548 0.325-0.489 0.063-0.34-0.179-0.282-0.339-0.274-0.481-0.245-0.547-0.171-0.511-0.052-0.395 0.017-0.186 0.032-0.121-0.973 0.531-0.287-0.097-0.058-0.21 0.093 0.398 0.202 0.804 0.254 1.123 0.337 1.475 0.428 1.666 0.475 1.754 0.52 1.726 0.47 1.603 0.43 1.464 0.333 1.285 0.191 1.079 0.104 0.966 0.033 0.786-0.02 0.682-0.033 0.557-0.088 0.399-0.041 0.127 0.119-0.143 0.395-0.126 0.238 0.148-0.091-0.089-0.152-0.294-0.213-0.599-0.212-0.769-0.245-0.853-0.161-0.811-0.16-0.71-0.027-0.478 0.014-0.3-0.134 0.391-0.668-0.037-0.083-0.17 0.128 0.113 0.121 0.093 0.118 0.081 0.106 0.095 0.07 0.273" __comx="362.842" __comy="518.274" __timestamp="0x1963b01f55a"/><path class="write-flat-pen" d="m372 517.4-0.403 0.1-0.235 0.137-0.247 0.267-0.074 0.553 0.441 0.477 0.413 0.229 0.494 0.143 0.598 0.086 0.707-0.071 0.751-0.199 0.766-0.276 0.747-0.38 0.661-0.425 0.545-0.494 0.402-0.54 0.204-0.487 0.16-0.543-0.153-0.53-0.199-0.463-0.427-0.35-0.502-0.293-0.632-0.147-0.695-0.031-0.739 0.085-0.793 0.233-0.777 0.397-0.708 0.64-0.576 0.818-0.355 0.963-0.203 1.067 0.03 1.104 0.288 1.075 0.52 1.015 0.774 0.889 0.924 0.699 1.055 0.528 1.106 0.304 1.057 0.087 1.019-0.103 1.004-0.227 0.855-0.536 0.733-0.835-0.212-0.343-0.978 0.225-0.746 0.032-0.786 6e-3 -0.818-0.054-0.779-0.102-0.778-0.214-0.735-0.368-0.631-0.477-0.498-0.572-0.33-0.633-0.18-0.668-0.02-0.686 0.129-0.723 0.209-0.591 0.317-0.454 0.374-0.349 0.402-0.215 0.479-0.143 0.44-0.058 0.388 0.015 0.215 0.043 0.159 0.082-5e-3 -0.018-0.01-0.041-0.01-0.059 0.018-0.025-0.078 0.22-0.163 0.261-0.305 0.306-0.469 0.329-0.572 0.327-0.599 0.242-0.57 0.176-0.422 0.072-0.345-0.01-0.306-0.043-0.152-7e-3 0.016 0.098-0.074 0.224-0.058-0.062-0.046-0.099 0.198-0.196" __comx="375.764" __comy="518.274" __timestamp="0x1963b01f6fb"/><path class="write-flat-pen" d="m382.3 516.4-0.151-0.276-0.11-0.31-0.196-0.443-0.251-0.511-0.204-0.409-0.37-0.415-0.849-0.053-0.29 0.756-0.089 0.528-0.043 0.702-0.012 0.924 0.097 1.035 0.12 1.068 0.236 1.007 0.351 0.851 0.406 0.683 0.481 0.503 0.493 0.328 0.621 0.173 0.632-0.142 0.495-0.286 0.474-0.392 0.433-0.502 0.396-0.548 0.337-0.548 0.324-0.466 0.315-0.39 0.264-0.235 0.19-0.092 0.055 4e-3 -0.063-9e-3 0.074 0.1 0.201 0.465 0.234 0.727 0.247 0.914 0.382 0.912 0.529 0.809 0.816 0.537 0.96 0.119 1.377-0.47-0.172-1.064-1.145-0.062-0.218-0.163-0.127-0.217-0.225-0.416-0.276-0.642-0.225-0.829-0.284-0.874-0.364-0.807-0.587-0.7-0.91-0.338-0.888 0.143-0.704 0.38-0.537 0.519-0.439 0.553-0.383 0.57-0.324 0.535-0.308 0.441-0.275 0.345-0.233 0.219-0.116 0.092 0.068-2e-3 0.054 0.033-0.119-0.05-0.226-0.202-0.252-0.4-0.263-0.61-0.186-0.783-0.116-0.958-0.092-0.942-0.012-0.82 4e-3 -0.616 7e-3 -0.322-0.15 0.334-0.66-0.053 5e-3 -0.086 0.268 0.202 0.409 0.385 0.369 0.311 0.266 0.208 0.253 0.208" __comx="385.475" __comy="518.274" __timestamp="0x1963b01f86d"/><path class="write-flat-pen" d="m416.9 518.1 0.164-0.275 0.199-0.303 0.272-0.473 0.346-0.68 0.368-0.678 0.351-0.662 0.311-0.56 0.257-0.406 0.183-0.377 0.07-0.628-0.421-0.489-0.481-0.245-0.621-0.027-0.672 0.129-0.763 0.239-0.85 0.444-0.878 0.652-0.87 0.891-0.739 1.082-0.674 1.268-0.494 1.399-0.307 1.406-0.155 1.398 0.056 1.322 0.333 1.164 0.615 0.985 1.036 0.662 1.227 0.195 1.332-0.21 1.369-0.545 1.306-0.74 1.279-0.911 1.124-0.921 0.92-0.897 0.7-0.856 0.409-0.762 0.229-0.661 0.086-0.627-0.142-0.649-0.422-0.469-0.541-0.274-0.664-0.132-0.689 0.03-0.715 0.154-0.736 0.358-0.718 0.595-0.51 0.806-0.353 0.92-0.184 1.042 0.119 1.132 0.407 1.037 0.737 0.9 1.036 0.646 1.179 0.379 1.271 0.116 1.361-0.102 1.292-0.311 1.246-0.474 1.09-0.644 0.904-0.755 0.647-0.842 0.455-0.9 0.124-1.014-0.307-0.931-0.563-0.781-0.788-0.572-0.9-0.452-1.026-0.326-1.045-0.208-1.051-0.107-0.958 0.063-0.792 0.203-0.835 0.488-0.267 1.262 0.905 0.648 0.82 0.157 1.062 3e-3 1.6-0.347 0.022-0.596-1.49-0.462-0.824-0.282-0.31-0.172 0.433 0.272-0.171 0.837-0.177 0.112 0.337-0.079 0.6-0.033 0.785 0.082 0.838 0.167 0.764 0.242 0.608 0.299 0.388 0.278 0.191 0.255 0.072 0.198-0.019 0.211-0.202 0.419-0.389 0.523-0.604 0.517-0.796 0.488-0.967 0.373-1.016 0.254-1.041 0.087-0.898-0.073-0.751-0.233-0.567-0.344-0.345-0.418-0.204-0.517-0.07-0.612 0.098-0.605 0.212-0.588 0.244-0.419 0.318-0.298 0.349-0.21 0.368-0.128 0.347-0.064 0.276 8e-3 0.119 0.011 2e-3 -0.047 0.044 0.011-7e-3 0.22-0.146 0.421-0.298 0.557-0.572 0.699-0.823 0.8-1.042 0.822-1.219 0.737-1.191 0.532-1.126 0.302-0.883 0.026-0.563-0.134-0.329-0.234-0.235-0.381-0.185-0.673-0.038-0.939 0.128-1.146 0.258-1.184 0.403-1.142 0.552-1.04 0.58-0.851 0.637-0.664 0.627-0.477 0.565-0.31 0.509-0.186 0.364-0.107 0.037-0.027-0.149-0.103-0.234-0.3 0.07-0.253 0.043 0.141-0.072 0.395-0.161 0.619-0.214 0.703-0.246 0.734-0.219 0.735-0.152 0.516-0.083 0.354-0.083 0.31" __comx="420.563" __comy="518.274" __timestamp="0x1963b01fd3e"/><path class="write-flat-pen" d="m432.6 518.6 0.024-0.222 0.037-0.141 0.041-0.268 0.022-0.319 0.022-0.342-1e-3 -0.387-0.032-0.377-0.116-0.376-0.132-0.363-0.124-0.319-0.113-0.321-0.138-0.316-0.091-0.174-0.124-0.233 0.177 0.073 0.013 0.401h-1.398l-0.019 0.118-0.02 0.216-0.05 0.456-0.054 0.693-0.045 0.874-0.048 1.019 0.029 1.067 0.032 1.063 0.143 0.983 0.204 0.85 0.268 0.71 0.412 0.573 0.512 0.374 0.739 0.159 0.62-0.296 0.433-0.416 0.265-0.587 0.186-0.565 0.212-0.649 0.127-0.703 0.147-0.647 0.098-0.63 0.08-0.437 0.131-0.394 0.054-0.216-0.248 0.501h-1.152l-0.178-0.36 0.179 0.281 0.221 0.392 0.295 0.43 0.372 0.497 0.522 0.41 0.573 0.267 0.699 0.125 0.636-0.113 0.622-0.196 0.614-0.374 0.488-0.453 0.394-0.447 0.361-0.437 0.332-0.459 0.312-0.453 0.161-0.342 0.163-0.225-0.166 0.288-0.759 4e-3 -0.284-0.245 0.02 0.066 0.097 0.492 0.114 0.706 0.124 0.838 0.253 0.875 0.421 0.864 0.659 0.659 0.787 0.393 0.858 0.044 0.784-0.233 0.608-0.422 0.446-0.565 0.256-0.654 0.234-0.643 0.264-0.585 0.218-0.593 0.141-0.543 0.079-0.496 0.044-0.478 6e-3 -0.463-0.043-0.497-0.039-0.48-0.047-0.48-2e-3 -0.441 0.013-0.228-0.096 0.579-0.849-0.16-0.107-0.082 0.111 0.304 0.111 0.46 0.105 0.697 0.187 0.891 0.099 0.944 0.109 0.984 0.139 0.925 0.145 0.832 0.247 0.769 0.438 0.615 0.726 0.494 0.878-0.122 0.576-0.322 0.5-0.429 0.437-0.558 0.307-0.555 0.283-0.558 0.247-0.566 0.222-0.508 0.262-0.5 0.192-0.456 0.22-0.44-0.284 0.284h-0.794l-0.272-0.407 0.071 0.212 0.197 0.42 0.18 0.47 0.24 0.589 0.339 0.592 0.368 0.521 0.495 0.467 0.494 0.265 0.478 0.161 0.504 0.039 0.382-0.029 0.34-0.026 0.362-0.053 0.228-0.032 0.253 0.016 0.351 0.039 0.425 0.09 0.578 0.092 0.644-0.037 0.616-0.179 0.58-0.323 0.575-0.427 0.569-0.543 0.588-0.587 0.593-0.645 0.518-0.705 0.398-0.712 0.255-0.687 0.117-0.781-0.225-0.833-0.519-0.644-0.654-0.483-0.786-0.315-0.843-0.187-0.934 0.033-0.904 0.3-0.771 0.516-0.691 0.724-0.498 0.931-0.27 1.016-0.059 1.117 0.2 1.138 0.44 1.086 0.728 1.002 0.986 0.739 1.123 0.444 1.201 0.2 1.22-0.054 1.18-0.186 1.135-0.304 1.057-0.419 0.937-0.492 0.803-0.557 0.691-0.617 0.468-0.579 0.356-0.487 0.242-0.421 0.065-0.384-0.094-0.349-0.253-0.32-0.305-0.285-0.33-0.292-0.317-0.33-0.339-0.338-0.291-0.342-0.2-0.273-0.243-0.346-0.242-0.12-0.963 0.611-0.064 0.208-0.059 0.447-0.019 0.671 0.01 0.859 0.013 0.962 0.063 1.027 0.145 0.957 0.286 0.895 0.458 0.68 0.601 0.448 0.703 0.217 0.623-0.032 0.57-0.137 0.53-0.275 0.425-0.332 0.351-0.318 0.323-0.322 0.309-0.358 0.292-0.397 0.225-0.336 0.257-0.32 0.265-0.332 0.107-0.119-0.035 0.021-0.332 0.036-0.139-0.087 0.082 0.063 0.099 0.169 0.27 0.383 0.448 0.349 0.61 0.204 0.708-0.154 0.53-0.287 0.504-0.387 0.458-0.549 0.422-0.561 0.407-0.701 0.39-0.806 0.366-0.877 0.38-0.966 0.34-1.084 0.311-1.178 0.313-1.274 0.262-1.381 0.282-1.408 0.281-1.383 0.279-1.275 0.299-1.144 0.292-0.904 0.283-0.598 0.216-0.249-0.077 0.052-0.204-0.029-0.016 0.03 0.138 0.391 0.222 0.821 0.236 1.172 0.219 1.453 0.22 1.719 0.172 1.831 0.203 1.842 0.284 1.79 0.344 1.575 0.428 1.375 0.538 1.152 0.536 0.943 0.539 0.772 0.54 0.669 0.502 0.533 0.39 0.376 0.277 0.259-0.104-0.202 0.324-0.871 0.411 0.026-0.402-0.091-0.715-0.217-0.938-0.366-1.124-0.444-1.185-0.489-1.247-0.559-1.182-0.579-1.095-0.562-0.889-0.476-0.619-0.34 0.328 0.176-0.496 1.034-0.05 0.026 0.72-0.08 1.074-0.089 1.333-0.142 1.6-0.188 1.797-0.189 1.951-0.282 2.752-0.475-0.258-1.633-2.744 0.395-1.911 0.236-1.783 0.189-1.601 0.188-1.307 0.141-1.092 0.1-0.741 0.109-0.85 0.119-0.589 1.223 1.082 0.598 0.653 0.321 0.901 0.464 1.117 0.571 1.222 0.597 1.297 0.573 1.216 0.501 1.138 0.449 0.992 0.388 0.792 0.255 0.634 0.191 1.022 0.026 0.42-1.153-0.436-0.627-0.288-0.399-0.41-0.427-0.438-0.454-0.449-0.556-0.45-0.643-0.454-0.797-0.452-0.967-0.372-1.169-0.317-1.44-0.281-1.694-0.219-1.785-0.206-1.845-0.252-1.765-0.253-1.515-0.282-1.276-0.296-0.969-0.331-0.738-0.534-0.537-0.818-0.215-0.781 0.381-0.538 0.694-0.377 0.86-0.319 1.029-0.315 1.21-0.286 1.315-0.283 1.396-0.283 1.418-0.256 1.349-0.301 1.223-0.3 1.13-0.32 0.989-0.374 0.871-0.388 0.771-0.411 0.655-0.393 0.525-0.378 0.426-0.342 0.347-0.25 0.177-0.177 0.089 0.05-0.012 0.185 0.062 0.026 0.02-0.062-0.089-0.23-0.396-0.436-0.359-0.518-0.323-0.754 0.083-0.553 0.35-0.318 0.352-0.299 0.375-0.308 0.384-0.247 0.371-0.226 0.31-0.209 0.253-0.241 0.242-0.263 0.249-0.233 0.186-0.177 0.1-0.183 0.052-0.131 0.015-0.097-0.018-0.106-0.07-0.154-0.213-0.186-0.52-0.137-0.738-0.079-0.905-0.034-0.922-0.037-0.838-0.019-0.601-0.013-0.353-0.017-0.167-0.963 0.611-0.099-0.074 0.086 0.03 0.318 0.245 0.416 0.318 0.461 0.274 0.437 0.237 0.424 0.177 0.306 0.14 0.172 0.152 0.049 0.122-0.031 0.18-0.18 0.287-0.398 0.313-0.568 0.268-0.77 0.23-0.844 0.243-0.902 0.262-0.966 0.242-0.987 0.214-0.986 0.143-0.899 0.04-0.778-0.129-0.667-0.264-0.522-0.391-0.401-0.552-0.267-0.658-0.129-0.698 0.034-0.673 0.155-0.585 0.256-0.48 0.346-0.362 0.358-0.238 0.368-0.122 0.385-0.013 0.429 0.095 0.393 0.156 0.24 0.175 0.095 0.11 8e-3 0.014-0.022 0.162-0.123 0.349-0.259 0.467-0.379 0.517-0.49 0.534-0.541 0.542-0.467 0.446-0.368 0.28-0.267 0.149-0.185 0.054-0.205 0.012-0.316-0.05-0.472-0.1-0.496-0.054-0.501-0.031-0.43 0.061-0.299 0.043-0.504 0.039-0.108-8e-3 -0.086-0.029-0.12-0.064-0.163-0.147-0.197-0.279-0.228-0.397-0.182-0.447-0.198-0.517-0.179-0.38-0.119-0.355-0.461-0.689h-1.076l-0.52 0.52-0.19 0.38-0.202 0.406-0.184 0.438-0.256 0.489-0.25 0.574-0.225 0.519-0.235 0.478-0.211 0.385-0.223 0.289-0.204 0.185-0.084 0.054 0.218-0.026 0.162 0.116-0.08-0.092-0.128-0.361-0.137-0.676-0.144-0.865-0.127-0.946-0.137-1.035-0.238-0.946-0.177-0.764-0.265-0.67-0.268-0.403-0.296-0.411-1.036-0.207-0.192 0.955 0.109 0.433 0.091 0.453 0.142 0.51 0.148 0.463 0.146 0.446 0.101 0.384 0.044 0.416-0.017 0.447-0.095 0.493-0.204 0.537-0.304 0.498-0.47 0.393-0.498 0.242-0.404 0.142-0.333 0.047-0.298 3e-3 -0.178-0.049-0.156-0.078-0.188-0.188-0.193-0.408-0.169-0.586-0.112-0.716-0.122-0.752-0.139-0.687-0.262-0.688-0.662-0.574-1.134 4e-3 -0.355 0.617-0.212 0.293-0.171 0.365-0.206 0.301-0.28 0.388-0.299 0.364-0.31 0.353-0.266 0.254-0.235 0.144-0.272 0.086-0.164 0.03-0.101-0.018-0.134-0.062-0.139-0.109-0.192-0.257-0.223-0.324-0.204-0.361-0.15-0.237-0.318-0.642h-1.294l-0.388 0.783-0.088 0.349-0.151 0.456-0.109 0.599-0.091 0.593-0.135 0.625-0.109 0.616-0.164 0.53-0.143 0.471-0.066 0.167 0.058-0.041 0.242-0.107 0.271 0.066 0.04 0.042-0.106-0.131-0.157-0.373-0.172-0.657-0.14-0.807-0.064-0.963-0.064-1.006-1e-3 -0.96 2e-3 -0.867-7e-3 -0.675-1e-3 -0.484-0.02-0.255-0.019-0.118h-1.398l0.013 0.447 0.27 0.119-0.031-0.091 0.098 0.108 0.144 0.202 0.169 0.29 0.208 0.295 0.197 0.295 0.166 0.238 0.107 0.235 0.095 0.32 0.069 0.316 0.069 0.296 0.041 0.25 0.037 0.141 0.024 0.222" __comx="458.181" __comy="518.274" __timestamp="0x1963b0206e3"/></g><a target="_top" xlink:href="mailto:blog@lehnert.dev"><rect x="124.9" y="499.3" width="361.1" height="40.35" fill-opacity="0" stroke-opacity="0"/></a></g></g></svg>
