<?xml version="1.0" encoding="UTF-8"?>
<svg width="90.69mm" height="9.57mm" version="1.1" viewBox="0 0 90.69 9.57" xmlns="http://www.w3.org/2000/svg" xmlns:xlink="http://www.w3.org/1999/xlink"><g transform="translate(-19.05 -114.8)"><g class="hyperref" transform="matrix(.2646 0 0 .2646 -12.99 -72.99)" __timestamp="0x1963b07b6cd"><g fill="#00f" stroke-width="2.4"><path class="write-flat-pen" d="m130.6 718.4 0.131-0.202 0.213-0.205 0.217-0.341 0.214-0.468 0.148-0.498 0.071-0.506 0.022-0.499-0.012-0.473-0.058-0.526-0.244-0.576-0.439-0.465-0.567-0.294-0.739-0.131-0.823 0.114-0.886 0.306-0.903 0.514-0.952 0.734-0.908 0.952-0.883 1.159-0.801 1.304-0.58 1.463-0.294 1.448 0.032 1.382 0.378 1.217 0.644 1.065 0.841 0.924 1.034 0.804 1.118 0.723 1.14 0.63 1.046 0.56 0.925 0.554 0.685 0.521 0.479 0.485 0.275 0.415 0.087 0.28-0.037 0.144-0.103 0.157-0.273 0.271-0.535 0.384-0.792 0.482-1.035 0.57-1.093 0.576-1.159 0.591-1.088 0.591-0.934 0.485-0.802 0.413-0.601 0.279-0.273 0.104 0.307-0.018 0.586 0.594-0.093 0.336 0.049-0.264 0.251-0.488 0.432-0.632 0.54-0.732 0.75-1.001-0.31-0.367-1.125 0.581-0.826 0.493-0.747 0.544-0.596 0.644-0.329 0.583-0.233 0.947 0.868 0.877 0.918-0.065 0.624-0.225 0.718-0.333 0.846-0.437 0.952-0.501 1.078-0.588 1.149-0.588 1.122-0.6 1.084-0.608 0.902-0.554 0.737-0.557 0.624-0.672 0.322-0.832 0.01-0.845-0.292-0.849-0.526-0.764-0.697-0.691-0.869-0.657-1.054-0.621-1.073-0.572-1.075-0.592-1.001-0.645-0.852-0.655-0.617-0.677-0.438-0.725-0.236-0.762-0.015-0.926 0.224-1.095 0.456-1.174 0.66-1.098 0.764-1.01 0.742-0.789 0.742-0.585 0.651-0.383 0.575-0.212 0.403-0.075 0.248 0.012 0.14 0.035 0.125 0.053 0.134 0.131 0.132 0.274 0.128 0.374 0.115 0.398 0.071 0.387 8e-3 0.399-0.068 0.426-0.065 0.32-0.119 0.263-0.058 0.277" __comx="127.076" __comy="728.821" __timestamp="0x1963b0310c0"/><path class="write-flat-pen" d="m129.3 730.3-0.193 0.348-0.144 0.164-0.118 0.321 0.061 0.508 0.299 0.445 0.517 0.403 0.677 0.265 0.723 0.16 0.926 0.098 0.995-0.068 1.066-0.219 1.123-0.427 1.15-0.662 1.152-0.763 1.136-0.83 1.005-0.891 0.813-0.828 0.603-0.742 0.39-0.661 0.255-0.647-0.074-0.94-0.749-0.505-0.657-0.147-0.711 0.067-0.721 0.162-0.78 0.258-0.885 0.354-0.97 0.471-0.975 0.666-0.826 0.881-0.617 0.998-0.456 1.094-0.302 1.084-0.114 1.102 0.056 1.075 0.315 1.021 0.605 0.883 0.875 0.642 1.075 0.369 1.214 0.138 1.273-0.026 1.263-0.208 1.161-0.367 1.053-0.501 0.876-0.653 1.228-1.105-0.754-1.035-1.362 0.782-0.818 0.337-0.879 0.299-0.958 0.245-0.999 0.171-0.988 0.02-0.858-0.098-0.572-0.196-0.35-0.254-0.243-0.342-0.156-0.483-0.037-0.668 0.073-0.781 0.216-0.802 0.344-0.836 0.422-0.698 0.54-0.578 0.672-0.466 0.773-0.377 0.763-0.307 0.635-0.211 0.505-0.12 0.279-0.029 1e-3 -4e-3 -0.324-0.223-0.027-0.422-0.027 0.107-0.224 0.422-0.433 0.577-0.692 0.726-0.881 0.806-1.029 0.771-1.062 0.745-0.969 0.609-0.856 0.374-0.817 0.204-0.749 0.075-0.722-0.044-0.549-0.075-0.406-0.111-0.237-0.115-0.079-0.026-0.079-0.01-0.071-0.104-0.097-0.119 0.036-0.34" __comx="136.361" __comy="728.821" __timestamp="0x1963b031250"/><path class="write-flat-pen" d="m143.4 724.1-0.177-0.137 0.026-0.088-0.025-0.125-0.039-0.112-0.689 0.323-0.08 0.147-0.032 0.294-0.013 0.378-0.034 0.602-1e-3 0.81-2e-3 0.955-0.024 1.028-0.02 1.107-0.02 1.03 0.084 0.933 0.147 0.747 0.238 0.617 0.504 0.529 0.799 0.262 0.63-0.268 0.522-0.355 0.431-0.58 0.358-0.648 0.38-0.653 0.39-0.698 0.335-0.644 0.268-0.504 0.253-0.308-0.042 0.059-0.659 0.073-0.226-0.28 0.114 0.345 0.22 0.638 0.198 0.827 0.318 0.92 0.463 0.831 0.633 0.677 1.047 0.454 0.432-0.559-0.548-0.778-0.214-0.548-0.197-0.676-0.2-0.777-0.178-0.867-0.251-0.727-0.215-0.645-0.604-0.751-1.084 0.12-0.417 0.531-0.359 0.445-0.346 0.672-0.323 0.628-0.363 0.67-0.374 0.665-0.302 0.574-0.18 0.27-0.138 0.116 0.112-0.032 0.188 0.072-0.014 0.011-0.091-0.183-0.135-0.525-0.105-0.764-0.02-0.946-0.02-1.107-0.024-1.044-0.049-0.975-0.051-0.793-0.034-0.62-0.06-0.376-0.032-0.13-0.033-0.042-0.689 0.323 0.057-0.066 0.115-0.029 0.122-0.042 0.252 6e-3" __comx="146.232" __comy="728.821" __timestamp="0x1963b031402"/><path class="write-flat-pen" d="m155.6 729.1 0.093-0.415 0.066-0.172 0.081-0.257-0.039-0.45-0.094-0.464-0.174-0.483-0.244-0.533-0.345-0.461-0.43-0.397-0.569-0.263-0.714-0.134-0.759 0.267-0.625 0.542-0.38 0.758-0.317 0.894-0.236 1.018-0.106 1.095 0.086 1.068 0.372 0.961 0.607 0.78 0.836 0.457 0.92 0.183 0.954-0.153 0.891-0.458 0.813-0.734 0.628-0.957 0.51-1.152 0.371-1.205 0.235-1.236 0.209-1.212 0.137-1.235 0.06-1.24 0.031-1.292-0.12-1.292-0.144-1.259-0.196-1.193-0.264-1.082-0.189-0.878-0.173-0.669-0.098-0.342-0.969 1.286-0.731 1e-3 -0.107-0.353 0.178 0.782 0.253 1.247 0.279 1.601 0.279 1.856 0.334 2.006 0.413 1.945 0.458 1.855 0.522 1.701 0.575 1.445 0.672 1.221 1.204 1.413 1.156-0.813-0.834-1.486-0.411-1.087-0.461-1.332-0.467-1.596-0.436-1.772-0.391-1.87-0.324-1.949-0.286-1.863-0.289-1.651-0.265-1.297-0.198-0.866-0.343-1.153-0.778 1e-3 -0.969 1.286 0.091 0.316 0.156 0.603 0.187 0.865 0.254 1.037 0.182 1.068 0.139 1.189 0.115 1.158-0.016 1.156-0.036 1.161-0.099 1.123-0.166 1.142-0.189 1.119-0.287 1.007-0.386 0.92-0.408 0.646-0.459 0.442-0.427 0.249-0.364 0.083-0.352-0.053-0.294-0.157-0.243-0.302-0.193-0.498-0.054-0.675 0.081-0.837 0.189-0.819 0.248-0.707 0.184-0.371 0.129-0.119 0.041-0.015 0.089 9e-3 0.182 0.066 0.184 0.121 0.22 0.2 0.228 0.314 0.201 0.318 0.141 0.289 0.104 0.258 0.081 0.212 0.113 0.16 0.093 0.361" __comx="156.309" __comy="728.821" __timestamp="0x1963b0315d4"/><path class="write-flat-pen" d="m180.4 727.3-0.097-0.232-0.023-0.197-0.026-0.335-0.068-0.419 0.01-0.443 0.043-0.455 0.069-0.495 0.086-0.479 0.079-0.441 0.062-0.367 0.033-0.257 0.032-0.165 0.027-0.095 0.017-0.14-0.015-0.094 0.013-0.107 0.161 0.29-0.572 0.607-0.566 0.021-0.193-0.114-0.051-0.025 0.042 0.172 0.144 0.622 0.145 0.801 0.13 1.017 0.151 1.096 0.107 1.114 0.171 1.116 0.28 1.013 0.321 0.867 0.391 0.677 0.375 0.527 0.315 0.317 0.431 0.328 0.867 0.149 0.608-0.594 0.277-0.438 0.284-0.543 0.275-0.683 0.299-0.676 0.358-0.757 0.317-0.75 0.28-0.676 0.237-0.536 0.217-0.394 0.09-0.135-0.126 0.115-0.48 0.056-0.304-0.203-1e-3 -1e-3 0.077 0.187 0.106 0.465 0.191 0.646 0.163 0.653 0.199 0.707 0.345 0.658 0.513 0.563 0.889 0.274 0.807-0.27 0.595-0.42 0.526-0.526 0.54-0.588 0.526-0.596 0.51-0.508 0.473-0.391 0.375-0.262 0.127-0.064-0.154 0.011-0.259-0.129-0.061-0.092 0.067 0.155 0.082 0.369 0.192 0.64 0.277 0.624 0.18 0.65 0.258 0.698 0.304 0.72 0.436 0.661 0.626 0.544 0.703 0.27 0.787 0.066 0.654-0.199 0.571-0.3 0.46-0.386 0.277-0.413 0.196-0.353 0.065-0.291-0.032 0.097-0.127 0.133-0.021 0.028 0.145-0.021 0.412-0.084 0.508-0.167 0.6-0.306 0.63-0.407 0.652-0.469 0.683-0.543 0.607-0.546 0.555-0.546 0.419-0.517 0.279-0.407 0.243-0.406 0.196-0.625-0.217-0.786-0.641-0.461-0.648-0.108-0.624 0.065-0.593 0.141-0.71 0.226-0.681 0.356-0.683 0.481-0.543 0.717-0.306 0.819-0.151 0.893-0.034 0.996 0.171 1.03 0.393 1.042 0.723 0.943 0.982 0.743 1.067 0.49 1.141 0.278 1.185 0.098 1.221-0.08 1.313-0.239 2.314-0.53-0.339-1.725-2.284 0.374-1.182 0.09-0.994 0.016-0.887-0.091-0.792-0.194-0.674-0.31-0.572-0.433-0.363-0.472-0.218-0.559-0.111-0.621 0.013-0.652 0.085-0.568 0.119-0.357 0.161-0.226 0.306-0.223 0.401-0.212 0.469-0.149 0.397-0.095 0.223-0.028-0.084-0.015-0.309-0.225-0.124-0.457 0.053-0.153-0.086 0.159-0.193 0.3-0.286 0.377-0.435 0.444-0.525 0.49-0.589 0.494-0.57 0.427-0.502 0.347-0.389 0.212-0.293 0.116-0.341 0.102-0.373 0.121-0.35 0.217-0.317 0.319-0.125 0.379-0.029 0.134-0.039 0.072-0.101 0.151-0.105 0.086-0.23 0.075-0.147-0.01-0.156-0.077-0.144-0.106-0.174-0.163-0.178-0.279-0.214-0.506-0.211-0.573-0.198-0.715-0.288-0.648-0.137-0.443-0.107-0.48-0.216-0.502-0.344-0.517-0.731-0.365-0.814 0.058-0.627 0.315-0.565 0.396-0.61 0.505-0.622 0.621-0.556 0.63-0.496 0.542-0.37 0.371-0.206 0.145 0.102-0.034 0.275 0.085 0.041 0.045-0.124-0.235-0.133-0.471-0.166-0.666-0.185-0.626-0.13-0.571-0.254-0.613-0.377-0.472-0.586-0.392-0.905 0.105-0.551 0.491-0.285 0.429-0.301 0.549-0.281 0.64-0.285 0.692-0.297 0.708-0.346 0.75-0.315 0.738-0.243 0.636-0.188 0.397-0.099 0.176 0.279-0.265 0.585 0.102 0.053 0.046-0.11-0.108-0.236-0.32-0.267-0.456-0.246-0.638-0.238-0.824-0.158-0.956-0.129-1.101-0.178-1.119-0.152-1.056-0.187-0.893-0.185-0.697-0.194-0.628-0.38-0.357-0.383-0.254-0.659 0.021-0.665 0.7 0.208 0.386 0.013-0.061 0.032 0.092 0.017-0.044 0.027 0.095 0.032 0.165 0.033 0.215 0.016 0.338 0.032 0.456 0.037 0.511 0.069 0.541 0.092 0.485 0.103 0.5 0.167 0.428 0.113 0.325 0.12 0.225 0.174 0.226" __comx="193.759" __comy="728.821" __timestamp="0x1963b031b8d"/><path class="write-flat-pen" d="m229.9 729.8-0.07-0.192-0.07-0.133-0.065-0.194-0.142-0.277-0.122-0.28-0.168-0.277-0.129-0.275-0.106-0.276-0.103-0.306-0.073-0.361-0.117-0.34-0.073-0.36-0.145-0.318-0.071-0.177-0.038-0.224-0.083-0.249-0.067-0.21-0.158-0.297-0.108-0.137-0.02-0.066v-0.055l7e-3 -0.054-0.06-0.259-0.129-0.158-1.172 0.84 0.026 0.142 0.115 0.242 0.141 0.374 0.272 0.648 0.294 0.799 0.338 0.963 0.389 1.062 0.395 1.108 0.409 1.089 0.422 0.979 0.432 0.789 0.403 0.647 0.379 0.442 0.395 0.291 0.815 0.398 0.562-0.723 0.16-0.459 0.112-0.582 0.154-0.725 0.239-0.761 0.274-0.811 0.342-0.776 0.386-0.743 0.485-0.681 0.487-0.645 0.464-0.557 0.412-0.464 0.355-0.299 0.21-0.148 0.164-0.037 0.117-0.023-1.214-1.045-0.117 0.074-0.23 0.262-0.298 0.489-0.422 0.676-0.527 0.952-0.537 1.117-0.619 1.239-0.693 1.421-0.693 1.492-0.721 1.584-0.625 1.634-0.603 1.605-0.483 1.548-0.386 1.401-0.294 1.25-0.173 1.056-0.073 0.789-4e-3 0.649 0.274 0.817 0.88 0.32 0.635-0.372 0.717-0.75-0.432-0.63-0.81 0.295 0.024-0.183 0.502 0.131 0.135 0.203 0.043-0.338 0.066-0.672 0.158-0.923 0.271-1.151 0.367-1.332 0.457-1.465 0.575-1.55 0.6-1.571 0.691-1.525 0.675-1.474 0.672-1.405 0.606-1.258 0.499-1.095 0.463-0.887 0.379-0.689 0.22-0.452 0.099-0.21 0.023-0.115-1.214-1.045 0.024 0.071-0.118 0.198-0.165 0.323-0.259 0.408-0.342 0.572-0.384 0.619-0.456 0.674-0.505 0.734-0.414 0.811-0.363 0.825-0.294 0.837-0.279 0.747-0.315 0.643-0.266 0.359-0.215 0.105 0.28-0.438 0.483 0.209-0.123-0.133-0.185-0.215-0.304-0.485-0.368-0.67-0.378-0.858-0.392-1.033-0.406-1.104-0.411-1.057-0.369-0.97-0.366-0.848-0.339-0.671-0.234-0.427-0.17-0.229-0.068-0.047-1.172 0.84-0.082-0.111-0.013-0.116 0.057 0.133 0.139 0.23 0.169 0.216 0.128 0.098 0.077 0.079 0.072 0.119 0.106 0.176 0.105 0.248 0.165 0.245 0.137 0.2 0.114 0.3 0.165 0.317 0.116 0.346 0.179 0.355 0.177 0.289 0.203 0.289 0.208 0.241 0.16 0.238 0.187 0.241 0.125 0.184 0.119 0.1 0.092 0.142" __comx="231.716" __comy="728.596" __timestamp="0x1963b0338bd"/><path class="write-flat-pen" d="m241.6 727.9-0.34-0.19-0.131-0.119-0.142-0.147-0.104-0.122-0.136-0.155-0.25-0.202-0.325-0.176-0.567-0.163-0.632 0.111-0.624 0.355-0.535 0.58-0.471 0.801-0.368 0.959-0.214 1.057-0.116 1.035 0.053 1.039 0.299 0.981 0.516 0.85 0.797 0.678 0.951 0.392 1.037 0.164 1.137-0.109 1.089-0.371 0.991-0.604 0.848-0.806 0.731-0.945 0.502-1.049 0.366-1.082 0.128-1.133-0.183-1.035-0.358-0.89-0.617-0.747-0.702-0.577-0.773-0.355-0.841-0.216-0.954-0.03-0.898 0.202-0.879 0.423-0.663 0.722-0.345 0.81-0.054 0.859 0.303 0.816 0.944 0.613 0.572-0.446-0.163-0.806 0.07-0.22 0.132-0.224 0.173-0.226 0.233-0.174 0.346-0.142 0.42-0.081 0.458 0.017 0.431 0.115 0.356 0.163 0.334 0.27 0.28 0.336 0.161 0.382 0.099 0.519-0.061 0.61-0.246 0.754-0.345 0.741-0.495 0.656-0.567 0.559-0.61 0.386-0.654 0.241-0.653 0.08-0.564-0.072-0.46-0.173-0.335-0.265-0.238-0.372-0.17-0.526-0.043-0.657 0.074-0.801 0.162-0.826 0.246-0.688 0.283-0.52 0.219-0.267 0.13-0.117-0.02-0.029 0.094-0.023 0.144 0.013 0.175 0.034 0.288 0.127 0.318 0.02 0.283-7e-3 0.198-0.073 0.35-0.01" __comx="241.354" __comy="728.596" __timestamp="0x1963b033a6f"/><path class="write-flat-pen" d="m248.8 730.9 0.047-0.237 0.036-0.18 0.058-0.273 0.068-0.425 0.071-0.412 0.097-0.408 0.105-0.404 0.083-0.356 0.084-0.274 0.083-0.388-0.064-0.397-0.058-0.29-0.164-0.402-0.251-0.296-0.171-0.208-0.281-0.226-0.396-0.195-0.206-0.02-0.387-0.095-0.652 0.416-0.237 0.448-0.153 0.393-0.177 0.522-0.109 0.589-0.156 0.714-0.139 0.844-0.069 0.983 0.075 1.009 0.207 0.956 0.31 0.878 0.466 0.732 0.589 0.599 0.747 0.325 0.766 0.126 0.822-0.134 0.747-0.299 0.647-0.471 0.526-0.589 0.39-0.676 0.246-0.699 0.141-0.673 0.083-0.626 0.029-0.593-0.027-0.567-0.097-0.544-0.135-0.404-0.194-0.443-1.001-0.999-0.978 0.983-0.178 0.618 0.046 0.602 0.148 0.647 0.254 0.758 0.375 0.747 0.433 0.776 0.593 0.71 0.713 0.515 0.773 0.261 0.816 0.034 0.724-0.265 0.603-0.433 0.438-0.532 0.328-0.603 0.26-0.57 0.159-0.521 0.184-0.512 0.064-0.467 5e-3 -0.411-0.053-0.373-0.059-0.28-0.061-0.225-0.035-0.134-1.257 0.249-0.033 0.142 3e-3 0.392 0.073 0.576 0.101 0.762 0.181 0.816 0.265 0.865 0.321 0.768 0.427 0.636 0.451 0.494 0.497 0.291 0.487 0.195 0.534 0.074 0.6-0.198 0.453-0.51 0.1-0.447 0.092-0.366 0.04-0.535-0.053-0.498-0.075-0.525-0.133-0.566-0.17-0.548-0.177-0.58-0.236-0.572-0.169-0.526-0.132-0.508-0.105-0.452-0.045-0.282 5e-3 2e-3 -0.038 0.071 0.016-6e-3 0.288-0.077 0.596-0.126 0.56-0.08 0.62 3e-3 0.559 0.02 0.518 0.09 0.687 0.073 1.581-1e-3 0.108-1.629-1.46-0.202-0.585-0.163-0.661-0.099-0.713-0.026-0.792 3e-3 -0.761 0.109-0.723 0.156-0.701 0.205-0.596 0.466-0.367 0.635-0.042 0.66 0.094 0.567 0.131 0.535 0.151 0.578 0.21 0.65 0.233 0.56 0.155 0.503 0.159 0.489 0.103 0.423 0.067 0.415 0.04 0.302-7e-3 0.219-0.05 0.248 7e-3 0.022 0.171-0.179 0.221-0.058 0.063 0.027-0.171-0.041-0.163-0.085-0.207-0.214-0.28-0.4-0.244-0.551-0.253-0.736-0.197-0.691-0.135-0.699-0.113-0.507-0.046-0.269-0.033-0.091-1.257 0.249 0.061 0.099 0.079 0.154 0.084 0.191 0.086 0.238 0.055 0.249 0.014 0.287-0.098 0.428-0.124 0.468-0.211 0.466-0.283 0.434-0.316 0.222-0.387 0.038-0.313-0.076-0.267-0.155-0.264-0.21-0.276-0.285-0.3-0.422-0.321-0.589-0.285-0.571-0.168-0.514-0.088-0.39-4e-3 -0.056-0.082 0.286-0.932 0.936-0.811-0.81-8e-3 -0.018 0.054 0.161 0.046 0.256 0.02 0.327-0.018 0.397-0.06 0.457-0.095 0.46-0.129 0.384-0.175 0.314-0.227 0.258-0.25 0.19-0.289 0.123-0.261 0.055-0.177-0.016-0.147-0.051-0.165-0.155-0.241-0.351-0.208-0.536-0.168-0.691-0.067-0.734 0.027-0.76 0.094-0.711 0.129-0.698 0.077-0.494 0.106-0.375 0.082-0.265-0.048 0.069-0.369 0.23-0.152-0.049 0.03-0.02-0.067-0.055 0.051 0.01 0.111 0.074 0.124 0.082 0.072 0.07 0.085 0.132 0.076 0.121 0.036 0.177 0.037 0.293 0.037 0.348 9e-3 0.397 4e-3 0.442 0.025 0.435 0.019 0.422 0.012 0.291 0.036 0.198 0.047 0.237" __comx="255.063" __comy="728.596" __timestamp="0x1963b033ebc"/><path class="write-flat-pen" d="m287.8 726.1 0.096-0.312 0.079-0.34 0.054-0.531 0.032-0.747-0.066-0.819-0.088-0.9-0.084-0.938-0.032-0.946 0.041-0.928 0.038-0.912 0.053-0.817 0.055-0.702 0.064-0.587 0.01-0.482 0.031-0.319 0.07-0.3 0.044-0.224 0.055-0.141 0.095-0.363 0.023 0.048-0.136 0.21-0.324 0.359-0.507-0.234-0.127-0.107-0.016 0.016 0.044 0.407 0.026 0.597-0.014 0.88-0.045 1.2-0.023 1.493-0.013 1.672-0.012 1.765-7e-3 1.787 0.063 1.67 0.14 1.508 0.2 1.367 0.34 1.114 0.384 0.866 0.475 0.687 0.564 0.396 0.623 0.199 0.656-0.043 0.598-0.287 0.466-0.457 0.345-0.574 0.257-0.638 0.228-0.672 0.245-0.793 0.232-0.784 0.269-0.784 0.255-0.659 0.255-0.49 0.21-0.315 8e-3 -9e-3 -0.38 0.129-0.455-0.171-0.036-0.048 0.175 0.369 0.186 0.579 0.227 0.794 0.233 0.913 0.276 1.014 0.402 0.965 0.499 0.88 0.712 0.708 0.851 0.424 0.859 0.143 0.864-0.119 0.759-0.379 0.682-0.536 0.583-0.694 0.499-0.74 0.489-0.75 0.451-0.748 0.408-0.647 0.37-0.609 0.251-0.527 0.221-0.414 0.139-0.379 0.082-0.273 0.088-0.252-0.011-0.426-0.305-0.386-0.256-0.142-0.222-0.13-0.475-0.033-0.421 0.107-0.408 0.185-0.527 0.361-0.479 0.499-0.488 0.669-0.463 0.803-0.36 0.941-0.228 0.986-0.04 0.987 0.227 0.908 0.52 0.801 0.806 0.489 0.898 0.231 0.92 7e-3 0.854-0.173 0.807-0.35 0.724-0.472 0.625-0.544 0.491-0.625 0.361-0.766 0.011-0.894-0.318-0.693-0.392-0.563-0.511-0.481-0.573-0.392-0.638-0.312-0.669-0.203-0.692-0.062-0.473 0.077-0.759 0.06-0.577 1.155 1.258 0.639 0.157-0.293-0.194 0.106 0.374 0.124 0.391 0.128 0.367 0.172 0.398 0.206 0.323 0.222 0.243 0.226 0.172 0.237 0.057 0.108h0.011l-0.061 0.177-0.217 0.315-0.364 0.352-0.452 0.328-0.465 0.215-0.465 0.11-0.494 7e-3 -0.421-0.098-0.23-0.122-0.14-0.189-0.102-0.364 6e-3 -0.567 0.151-0.711 0.251-0.707 0.337-0.609 0.359-0.51 0.275-0.302 0.276-0.204 0.157-0.097 0.051-0.036-0.052-0.033 0.013-0.037 0.026-0.046-0.116-0.196 0.035-0.143 0.041 0.123 0.036 0.245-4e-3 0.282-0.107 0.386-0.173 0.509-0.335 0.567-0.395 0.625-0.535 0.617-0.643 0.522-0.677 0.439-0.642 0.342-0.543 0.218-0.417 0.092-0.315 0.021-0.271-0.046-0.281-0.141-0.277-0.282-0.301-0.531-0.305-0.732-0.242-0.869-0.236-0.923-0.245-0.854-0.239-0.74-0.297-0.621-0.412-0.613-0.834-0.314-0.802 0.271-0.464 0.509-0.355 0.532-0.359 0.687-0.31 0.802-0.295 0.864-0.24 0.819-0.227 0.762-0.194 0.6-0.168 0.445-0.127 0.226-0.052 0.061 0.033-5e-3 0.091 4e-3 9e-3 0.01-0.047-0.026-0.185-0.256-0.274-0.595-0.274-0.863-0.176-1.177-0.142-1.412-0.079-1.581-7e-3 -1.747-0.012-1.765-0.013-1.672-0.023-1.476 5e-3 -1.201-0.014-0.957-0.07-0.721-0.096-0.489-0.112-0.502-0.409-0.39-0.696-0.327-0.463 0.502-0.278 0.397 0.072 0.284-1e-3 0.062-0.038 0.235-3e-3 0.294-0.026 0.36 0.031 0.435 0.057 0.458 0.018 0.545 8e-3 0.71 6e-3 0.833 0.038 0.925 0.041 0.955 0.107 0.984 0.151 0.948 0.148 0.89 0.123 0.781 0.032 0.711 7e-3 0.508-0.017 0.318-0.056 0.307" __comx="296.471" __comy="728.596" __timestamp="0x1963b03440d"/><path class="write-flat-pen" d="m306.7 728.8-0.083-0.191-0.096-0.092-0.069-0.116-0.14-0.179-0.156-0.164-0.131-0.179-0.136-0.187-0.125-0.203-0.052-0.141-0.1-0.238-0.045-0.127 3e-3 -0.155-0.025-0.245 0.018-0.19 0.038-0.263 0.046-0.282 0.043-0.259 0.041-0.218v-0.355l-0.116-0.301-0.128-0.216-0.291-0.263-0.167-0.075-0.1-0.091-0.325-0.084-0.429-0.018-0.556 0.529 0.067 0.629 0.117 0.418 0.187 0.577 0.254 0.758 0.261 0.924 0.325 1.111 0.398 1.11 0.534 1.071 0.694 0.891 0.773 0.686 0.798 0.444 0.777 0.231 0.712-2e-3 1.151-0.119 0.089-1.052-1.031-0.304-0.467-0.237-0.495-0.191-0.474-0.263-0.499-0.443-0.482-0.616-0.409-0.815-0.356-0.962-0.333-1.055-0.306-0.959-0.311-0.797-0.235-0.555-0.119-0.24 0.018 0.301-0.46 0.433-0.336-0.018-0.089-0.037 0.042 5e-3 0.116 0.018-8e-3 -0.027 0.012-0.027 0.027-0.019 0.046 0.07 0.041 0.157 0.043 0.259 0.046 0.282 0.038 0.302 0.065 0.282 0.117 0.274 0.096 0.223 0.144 0.155 0.136 0.184 0.088 0.141 0.16 0.222 0.147 0.191 0.151 0.197 0.173 0.165 0.142 0.153 0.12 0.117 0.093 0.051 0.074 0.125" __comx="307.138" __comy="728.596" __timestamp="0x1963b0346c9"/><path class="write-flat-pen" d="m312 725.5-0.154-0.204-0.074-0.184-0.139-0.267-0.207-0.267-0.102-0.189-0.191-0.174-0.207-0.1-0.311-0.047-0.301 0.245-0.183 0.255-0.081 0.336-0.081 0.368-0.057 0.493-0.032 0.644-0.051 0.788v0.86l0.034 0.922 0.115 0.871 0.194 0.753 0.195 0.657 0.359 0.56 0.428 0.398 0.575 0.211 0.628-0.042 0.581-0.29 0.466-0.488 0.265-0.571 0.246-0.56 0.198-0.688 0.118-0.584 0.163-0.546 0.111-0.467 0.088-0.249-0.053 0.086-0.795 0.098-0.245-0.246 0.13 0.182 0.174 0.383 0.222 0.645 0.285 0.782 0.283 0.798 0.444 0.823 0.619 0.677 0.78 0.42 0.881 0.124 0.86-0.154 0.744-0.347 0.666-0.475 0.592-0.563 0.469-0.626 0.379-0.582 0.32-0.608 0.214-0.565 0.145-0.503 0.098-0.551-0.116-0.595-0.157-0.354-0.171-0.37-0.355-0.389-0.366-0.184-0.514-0.198-0.71 0.153-0.569 0.395-0.504 0.627-0.38 0.866-0.263 0.995-0.185 1.086 0.027 1.16 0.228 0.975 0.391 0.842 0.645 0.616 0.778 0.301 0.831-0.025 0.75-0.334 0.676-0.493 0.575-0.702 0.494-0.827 0.429-0.937 0.342-1.028 0.259-1.091 0.18-1.168 0.127-1.199 0.074-1.298 4e-3 -1.404-0.098-1.499-0.195-1.593-0.378-1.566-0.516-1.475-0.476-1.241-0.387-0.991-0.285-0.651-0.137-0.324-1.649-0.318-0.315 0.315-0.176 0.921 0.054 1.048 0.097 1.471 0.219 1.817 0.36 2.109 0.428 2.191 0.481 2.189 0.588 2.008 0.701 1.773 0.814 1.423 0.983 1.055 1.612 1.019 0.92-1.237-1.273-1.126-0.618-0.828-0.601-1.167-0.618-1.571-0.542-1.854-0.462-2.098-0.419-2.143-0.348-2.036-0.206-1.713-0.092-1.402-0.04-0.789 0.013-0.069-0.126 0.126-1.649-0.318 0.145 0.337 0.28 0.618 0.367 0.942 0.464 1.207 0.474 1.351 0.329 1.357 0.181 1.42 0.091 1.374 4e-3 1.282-0.065 1.197-0.109 1.109-0.152 1.047-0.21 0.934-0.272 0.855-0.325 0.76-0.353 0.632-0.319 0.431-0.314 0.261-0.239 0.135-0.112 0.025-0.116-0.031-0.156-0.138-0.177-0.381-0.147-0.629-0.019-0.816 0.144-0.847 0.208-0.795 0.231-0.546 0.204-0.269 0.092-0.074-0.099 0.011 4e-3 -9e-3 0.059 5e-3 0.021-0.014 0.111 0.148 0.125 0.164 0.073 0.159 5e-3 0.249-0.045 0.391-0.115 0.424-0.248 0.475-0.325 0.503-0.38 0.503-0.444 0.38-0.51 0.23-0.481 0.078-0.412-0.061-0.295-0.158-0.21-0.192-0.231-0.313-0.26-0.496-0.235-0.663-0.282-0.772-0.247-0.72-0.297-0.653-0.341-0.476-0.574-0.578-1.173 0.144-0.571 0.936-0.194 0.551-0.124 0.522-0.166 0.583-0.118 0.595-0.131 0.488-0.179 0.43-0.11 0.276-5e-3 0.03 0.063-8e-3 0.156 7e-3 0.15 0.068 6e-3 0.022-0.112-0.147-0.134-0.379-0.184-0.615-0.121-0.683-0.06-0.818-0.046-0.791-4e-3 -0.766-0.032-0.628-0.011-0.401 0.012-0.339-0.032-0.135-0.09 0.069-0.208 0.149-0.264-0.047-0.018-0.053 0.045-0.032 0.133 0.047 0.264 0.158 0.19 0.155 0.161 0.148 0.228 0.172" __comx="318.352" __comy="728.596" __timestamp="0x1963b034a8f"/><path class="write-flat-pen" d="m331.6 728.4 0.015-0.202 0.018-0.153-2e-3 -0.184-0.025-0.283-0.052-0.245-0.055-0.198-0.074-0.186-0.018-0.074-0.02-0.104-0.015-0.113-0.039-0.172-0.023-0.195 5e-3 -0.125 0.017-0.14 0.054-0.091 0.035-0.206 0.054-0.211 0.02-0.203-0.01-0.245-0.025-0.223-0.112-0.256-0.15-0.17-0.057-0.074v-0.02l0.056 0.092 0.013-0.012-6e-3 -0.166 0.021-0.047 0.021-0.071 0.017-0.352-0.45-0.468-0.335-7e-3 -0.495-7e-3 -0.28 0.529-0.126 0.265-0.066 0.289-0.155 0.419-0.122 0.602-0.08 0.672-0.081 0.822-1e-3 0.909 0.048 0.908 0.078 0.874 0.193 0.831 0.269 0.671 0.438 0.632 0.646 0.389 0.619 0.196 0.662 0.018 0.62-0.176 0.521-0.306 0.405-0.435 0.266-0.483 0.145-0.452 0.062-0.372 0.016-0.138 0.013-0.041-0.246 0.708-0.895-0.177-0.038-0.028 0.207 0.209 0.362 0.431 0.47 0.528 0.574 0.59 0.7 0.47 0.777 0.329 0.878 0.147 0.845-0.08 0.845-0.253 0.765-0.525 0.541-0.693 0.398-0.77 0.284-0.861 0.069-0.908-0.095-0.948-0.371-0.846-0.524-0.745-0.619-0.584-0.702-0.461-0.7-0.331-0.635-0.172-0.821-0.123-0.969 0.774 0.273 0.921 0.361 0.462 0.488 0.538 0.683 0.429 0.732 0.361 0.713 0.288 0.736 0.135 0.681 0.048 0.662-0.093 0.541-0.176 0.426-0.282 0.292-0.389 0.058-0.389 0.046-0.231 0.021-0.077 0.025 0.049-1.312-0.544-0.359 0.338 0.167 0.639 0.104 0.327 0.214 0.491 0.285 0.624 0.358 0.645 0.385 0.697 0.402 0.589 0.394 0.539 0.382 0.397 0.291 0.215 0.345 0.238 0.332 0.025 0.888-1.32-0.047-0.157-0.127-0.271-0.195-0.313-0.248-0.383-0.272-0.373-0.237-0.333-0.231-0.357-0.234-0.406-0.208-0.407-0.228-0.512-0.23-0.465-0.126-0.414-0.096-0.402-0.031-0.192-0.033 0.154-0.117 0.118h-1e-3l0.143-0.025 0.246 0.012 0.378 0.103 0.463 0.16 0.552 0.252 0.565 0.199 0.579 0.14 0.549 0.011 0.545-0.052 0.527-0.142 0.478-0.195 0.384-0.194 0.343-0.175 0.269-0.271 0.151-0.192 0.17-0.179 0.136-0.273 0.044-0.157-0.992-0.402-0.117 0.058-0.174 0.192-0.219 0.333-0.207 0.582-0.124 0.721-0.113 0.891-0.038 1.023-0.037 1.05 0.065 1.013 0.127 0.868 0.279 0.765 0.39 0.525 0.426 0.404 0.826 0.182 0.675-0.464 0.217-0.47 0.184-0.531 1e-3 -0.681-0.022-0.673-0.103-0.769-0.151-0.833-0.222-0.837-0.238-0.878-0.259-0.904-0.23-0.964-0.23-1.037-0.21-1.135-0.222-1.201-0.239-1.229-0.167-1.188-0.12-1.071-0.048-0.838 0.064-0.563 0.108-0.382 0.117-0.211 0.188-0.198 0.199-0.193 0.215-0.138 0.338-0.147 0.438-0.247 0.421-0.251 0.492-0.282 0.528-0.352 0.503-0.353 0.453-0.378 0.415-0.356 0.326-0.349 0.219-0.218 0.204-0.226 0.107-0.107-1.366-0.306-0.018 0.077 2e-3 0.268 4e-3 0.624 0.022 1.052-2e-3 1.377-1e-3 1.688-0.02 1.943-0.041 2.038-0.064 2.011-0.087 1.852-0.081 1.753-0.029 1.568 0.048 1.391 0.152 1.167 0.189 0.92 0.266 0.677 0.222 0.413 0.358 0.504 0.505 0.143 1.239-0.722 0.083-0.324-0.133-0.571-0.291-0.532-0.404-0.527-0.489-0.546-0.648-0.598-0.687-0.591-0.741-0.631-0.702-0.609-0.539-0.553-0.359-0.51-0.175-0.368-0.019-0.111-0.03 0.057 0.126-0.102 0.485-0.233 0.709-0.32 0.864-0.361 0.937-0.472 0.936-0.518 0.922-0.589 0.853-0.72 0.704-0.814 0.561-0.908 0.443-0.965 0.336-1.002 0.221-0.937 0.197-0.857 0.126-0.807 0.075-0.674 0.078-0.636 1e-3 -0.518 0.024-0.354v-0.312l-1.787-0.126-0.032 0.227v0.44l-4e-3 0.636-0.012 1.029 0.029 1.379 0.029 1.651 0.048 1.865 0.059 1.879 0.038 1.822 0.094 1.736 0.094 1.566 0.171 1.365 0.167 1.076 0.121 0.77 0.094 0.492 6e-3 0.033 0.119-0.301 0.381-0.293 0.26 0.039-0.063-0.014-0.2-0.15-0.329-0.365-0.436-0.56-0.477-0.703-0.508-0.762-0.437-0.699-0.321-0.655-0.159-0.391-5e-3 -0.032-0.08 0.129 0.033-0.018 0.309-0.077 0.47-0.06 0.483-0.039h0.487l0.531 0.043 0.548 0.064 0.605 0.073 0.619 0.052 0.557-0.05 0.452-0.066 0.503-0.102 0.395-0.238 0.178-0.172 0.346-0.254v-0.394l-1.013-0.533-0.186 0.126-0.158 0.238-0.091 0.096-0.227 0.218-0.21 0.51 0.116 0.611 0.334 0.424 0.479 0.302 0.529 0.161 0.544 0.054 0.522-0.092 0.53-0.174 0.624-0.34 0.442-0.5 0.32-0.456 0.293-0.549 0.123-0.53 0.095-0.378 0.098-0.436 1e-3 -0.437-0.032-0.456-0.211-0.529-0.433-0.444-0.67-0.244-0.669-1e-3 -0.686 0.171-0.712 0.374-0.571 0.57-0.513 0.683-0.364 0.856-0.204 0.893-0.038 0.969 0.212 0.912 0.412 0.839 0.677 0.71 0.709 0.515 0.79 0.425 0.865 0.279 0.821 0.164 0.759 0.052 0.689-3e-3 0.623-0.109 0.551-0.25 0.995-0.606-0.511-1.147-1.002 0.283-0.709-0.031-0.536-0.049-0.606-0.041-0.591-0.118-0.596-0.192-0.528-0.283-0.47-0.332-0.359-0.372-0.199-0.386-0.12-0.453 0.012-0.539 0.125-0.568 0.2-0.509 0.288-0.4 0.278-0.28 0.274-0.144 0.257-0.065 0.131-1e-3 -9e-3 -9e-3 -0.104-0.112-0.022-0.061 0.014 0.111 1e-3 0.174-0.044 0.225-0.091 0.373-0.066 0.32-0.132 0.252-0.198 0.298-0.169 0.204-0.223 0.132-0.273 0.109-0.183 0.05-0.164 8e-3 -0.178-0.028-0.086-0.027 0.051 0.092 0.022 0.188-0.07 0.132 0.102-0.157 0.098-0.233-0.015 2e-3 -0.046 0.03-1.013-0.533v-0.298l0.207-0.161-0.104 0.017-0.077-0.049-0.251-0.056-0.444-0.019-0.432-4e-3 -0.464-0.041-0.571-0.07-0.584-0.075-0.645-0.053h-0.645l-0.6 0.057-0.613 0.08-0.634 0.159-0.674 0.361-0.455 0.74-5e-3 0.911 0.313 0.785 0.386 0.806 0.503 0.809 0.528 0.792 0.512 0.756 0.507 0.665 0.472 0.529 0.554 0.464 0.595 0.222 0.779 0.085 0.667-0.529 0.259-0.676-0.088-0.581-0.095-0.497-0.115-0.735-0.162-1.046-0.16-1.272-0.092-1.496-0.095-1.701-0.055-1.804-0.084-1.89-0.091-1.855-0.067-1.647-0.064-1.351-0.012-0.997-4e-3 -0.636v-0.313l0.014-0.102-1.787-0.126v0.253l-0.023 0.354 1e-3 0.469-0.065 0.542-0.065 0.644-0.109 0.701-0.181 0.791-0.201 0.853-0.279 0.834-0.357 0.778-0.429 0.693-0.519 0.6-0.655 0.552-0.775 0.494-0.854 0.472-0.853 0.422-0.831 0.347-0.752 0.338-0.694 0.334-0.628 0.509-0.359 0.81 0.124 0.879 0.344 0.761 0.534 0.762 0.686 0.719 0.759 0.663 0.718 0.641 0.632 0.585 0.531 0.534 0.358 0.443 0.256 0.367 0.084 0.175-0.037-0.149 0.037-0.135 1.239-0.722 0.173 0.049 0.122 0.172-0.107-0.199-0.159-0.406-0.14-0.681-0.131-1.001-0.045-1.246 0.017-1.494 0.059-1.731 0.056-1.87 0.03-2.038 5e-3 -2.06-0.02-1.966-0.048-1.703-0.049-1.402-0.071-1.067-0.043-0.648-0.048-0.392-0.065-0.159-1.366-0.306-0.033 0.082-0.127 0.15-0.203 0.207-0.288 0.312-0.339 0.302-0.394 0.329-0.437 0.308-0.462 0.306-0.451 0.236-0.426 0.22-0.363 0.178-0.369 0.135-0.446 0.238-0.366 0.279-0.423 0.366-0.355 0.589-0.221 0.701-0.125 0.852 0.045 1.045 0.116 1.144 0.162 1.26 0.232 1.268 0.203 1.2 0.215 1.173 0.239 1.082 0.241 1.015 0.259 0.932 0.233 0.865 0.203 0.764 0.131 0.721 0.086 0.643 0.025 0.553 1e-3 0.355-0.052 0.177 0.028-0.046 0.346-0.231 0.355 0.088 1e-3 0.029-0.175-0.183-0.146-0.364-0.106-0.64-0.078-0.873 9e-3 -0.973 9e-3 -0.957 0.076-0.805 0.065-0.597 0.076-0.358 0.063-0.185 0.015-0.091-0.024-0.038-0.992-0.402 0.044-0.015 0.043 0.01-0.019 0.103-0.084 0.137-0.107 0.107-0.175 0.061-0.277 0.039-0.322-0.099-0.369-0.142-0.396-0.148-0.348-0.129-0.362-0.143-0.424-0.179-0.58-0.266-0.62-0.215-0.658-0.179-0.694-0.034-0.661 0.115-0.566 0.282-0.539 0.542-0.176 0.812 0.112 0.658 0.14 0.539 0.203 0.622 0.288 0.571 0.243 0.524 0.261 0.49 0.284 0.487 0.289 0.443 0.278 0.374 0.249 0.335 0.221 0.324 0.137 0.205 0.059 0.105 0.049 0.079 0.888-1.32 0.189 0.025 0.11 0.096-0.132-0.067-0.185-0.167-0.311-0.404-0.352-0.494-0.368-0.622-0.349-0.58-0.28-0.552-0.211-0.405-0.086-0.191 0.074 0.31-0.312 0.292-1.312-0.544 0.025 0.192 0.068 0.063 0.046 4e-3 0.058 0.083 0.059 0.033-0.092 0.189-0.263 0.202-0.467 0.093-0.544-0.045-0.582-0.147-0.513-0.323-0.491-0.489-0.354-0.465-0.219-0.451-0.064-0.245 0.18 0.499-0.64 0.538-0.161 0.017 0.355 0.16 0.429 0.234 0.427 0.293 0.324 0.31 0.276 0.387 0.147 0.33 0.048 0.418-0.027 0.46-0.138 0.458-0.216 0.452-0.212 0.297-0.222 0.182-0.334 0.125-0.38 0.06-0.394-0.042-0.399-0.143-0.385-0.235-0.413-0.4-0.426-0.462-0.392-0.463-0.357-0.359-0.413-0.311-1.131-0.224-0.295 0.85-0.08 0.241-0.031 0.284-0.031 0.196-0.044 0.159-0.063 0.128-0.066 0.083-0.093 0.072-0.133 0.06-0.138 0.018-0.181-0.04-0.154-0.082-0.126-0.168-0.156-0.365-0.136-0.584-0.065-0.727-0.045-0.833-1e-3 -0.787 0.062-0.732 0.06-0.6 0.067-0.434 0.127-0.428 0.027-0.229 0.016-0.067-0.187 0.343-0.449-7e-3 -0.286-7e-3 -0.403-0.421 0.017-0.259 0.021 0.071 0.021 0.142 0.04 0.163 0.013 0.224 0.149 0.278 0.143 0.169 0.133 0.115 0.036 0.019-0.016-0.07 0.022 0.013 0.036 0.133 0.02 0.079 7e-3 0.214 0.035 0.17 7e-3 0.144 0.064 0.284 0.052 0.157 0.07 0.227 0.057 0.16 0.031 0.12 0.073 0.181 0.078 0.113 0.112 0.145 0.088 0.131 0.091 0.177 0.069 0.235 0.044 0.148 0.018 0.13 0.015 0.202" __comx="348.059" __comy="722.271" __timestamp="0x1963b035628"/><path class="write-flat-pen" d="m367.4 723.4-0.27-0.167-0.132-0.084-0.188-0.107-0.199-0.11-0.212-0.116-0.138-0.085-0.288-0.112-0.646 0.2-0.211 0.565-0.067 0.427-5e-3 0.563 2e-3 0.676 4e-3 0.834-0.011 0.94 0.017 1.013-6e-3 1.016 0.135 1.013 0.275 0.843 0.544 0.79 0.938 0.249 0.815-0.215 0.663-0.456 0.544-0.51 0.523-0.543 0.444-0.57 0.355-0.491 0.362-0.463 0.254-0.443 0.094-0.171-0.092 0.1-0.422 0.123-0.257-0.099 0.069 0.071 0.17 0.318 0.262 0.589 0.299 0.715 0.327 0.808 0.465 0.81 0.535 0.701 0.759 0.47 0.74 0.146 0.682-0.134 1.038-0.236-0.081-0.91-0.955-0.06-0.355-0.23-0.25-0.183-0.228-0.237-0.268-0.382-0.335-0.602-0.284-0.7-0.312-0.746-0.305-0.683-0.348-0.623-0.542-0.543-0.729-0.288-0.751 0.219-0.421 0.476-0.189 0.347-0.171 0.311-0.298 0.384-0.35 0.499-0.359 0.466-0.417 0.446-0.399 0.387-0.28 0.201-0.032 0.021 0.184 0.06-0.021-0.01-0.15-0.429-0.101-0.727-6e-3 -0.916-0.03-1.013-0.011-0.943-0.043-0.863-0.044-0.689-0.052-0.473-0.02-0.185-0.118 0.233-0.41 0.107-0.053-0.065 0.145-0.038 0.213-0.02 0.226-0.016 0.234-0.011 0.15-0.037 0.295-0.028" __comx="370.271" __comy="724.55" __timestamp="0x1963b0357e9"/><path class="write-flat-pen" d="m395.1 724.5 0.264-0.081 0.142-0.147 0.117-0.201 0.086-0.283-8e-3 -0.392-0.091-0.369-0.092-0.306-0.271-0.351-0.324-0.284-0.41-0.192-0.504-0.2-0.568-0.116-0.582-0.087-0.663 0.036-0.686 0.119-0.729 0.254-0.791 0.38-0.803 0.541-0.781 0.66-0.743 0.751-0.712 0.818-0.607 0.941-0.429 1.001-0.231 1.046-0.03 1.096 0.215 1.08 0.545 0.992 0.879 0.84 1.104 0.459 1.202 0.25 1.377-1e-3 1.457-0.253 1.468-0.427 1.372-0.637 1.141-0.788 0.923-0.795 0.779-0.726 0.635-0.574 0.428-0.529 0.319-0.445 0.099-0.476-0.096-0.457-0.3-0.371-0.412-0.278-0.473-0.207-0.53-0.102-0.591-0.073-0.628 0.058-0.708 0.256-0.586 0.536-0.409 0.698-0.276 0.832-0.153 0.95 0.017 1.034 0.26 1.09 0.568 0.961 0.877 0.795 1.12 0.505 1.228 0.152 1.227-0.076 1.217-0.259 1.082-0.422 0.991-0.539 0.819-0.665 0.611-0.756 0.399-0.785 0.188-0.898-0.113-0.88-0.387-0.744-0.598-0.639-0.824-0.496-0.946-0.296-0.979-0.163-1.038-0.052-0.998 0.149-0.88 0.301-0.799 0.603-0.407 0.994 0.273 1.05 0.794 0.615 0.945 0.294 1.8 0.149 0.218-1.34-1.566-0.398-0.42-0.27-6e-3 -0.092 0.084 0.203-0.031 0.147 0.098-0.057 0.391-0.121 0.603-0.087 0.705 0.041 0.715 0.12 0.562 0.175 0.355 0.212 0.202 0.208 0.085 0.149 0.027 0.156-0.048 0.281-0.166 0.344-0.329 0.422-0.499 0.418-0.706 0.404-0.801 0.332-0.905 0.21-0.892 0.067-0.751-0.084-0.574-0.249-0.442-0.381-0.282-0.454-0.162-0.604-0.029-0.663 0.083-0.651 0.146-0.533 0.156-0.339 0.122-0.171 0.189-0.122 0.265-0.082 0.398-0.026 0.364-9e-3 0.281 0.029 0.249 0.054 0.125 4e-3 0.09 0.014 0.053 0.136-0.153 0.309-0.373 0.461-0.59 0.508-0.869 0.499-1.056 0.431-1.167 0.434-1.265 0.353-1.312 0.28-1.227 0.169-1.024-1e-3 -0.824-0.172-0.593-0.248-0.393-0.385-0.256-0.466-0.114-0.57 0.017-0.694 0.144-0.695 0.278-0.696 0.43-0.706 0.56-0.69 0.622-0.664 0.633-0.563 0.609-0.448 0.577-0.327 0.494-0.218 0.446-0.117 0.42-0.057 0.408 6e-3 0.422 0.027 0.39 0.082 0.251 0.044 0.147 0.045 0.151 0.074 0.097 0.069 0.145 0.199 0.085 0.173 0.039 0.139 0.024 0.13 0.046 0.039-0.101 0.112" __comx="395.364" __comy="724.498" __timestamp="0x1963b035c75"/><path class="write-flat-pen" d="m408.7 727.8-0.044-0.173 0.017-0.104-8e-3 -0.235-0.058-0.306-0.081-0.302-0.107-0.316-0.168-0.307-0.198-0.264-0.184-0.278-0.226-0.213-0.179-0.174-0.14-0.132-0.092-0.094-3e-3 -0.039 0.043 7e-3 0.022-0.03 0.02-0.08 0.031-0.173 0.026-0.212 0.02-0.186 1e-3 -0.166 0.021-0.071 0.024-0.187-0.1-0.346-0.649-0.678-0.762 0.724-0.082 0.416-0.041 0.324-0.049 0.48-0.022 0.634-0.019 0.8-0.016 0.942-7e-3 1.036-6e-3 1.036-7e-3 0.967 0.04 0.894 0.101 0.704 0.139 0.573 0.215 0.495 0.211 0.272 0.248 0.277 0.991 0.344 0.534-0.771 0.133-0.321 0.123-0.387 0.1-0.499 0.16-0.541 0.17-0.692 0.175-0.635 0.226-0.652 0.24-0.695 0.177-0.555 0.141-0.335 0.122-0.199-0.104 0.137-0.599 0.151-0.512-0.343-0.025-0.066 0.103 0.311 0.064 0.541 0.158 0.686 0.18 0.664 0.235 0.678 0.38 0.623 0.532 0.53 0.765 0.332 0.868-0.113 0.64-0.422 0.424-0.424 0.384-0.433 0.386-0.457 0.351-0.476 0.341-0.47 0.296-0.51 0.185-0.351 0.167-0.228 0.145-0.145 0.094-0.068-0.116 0.048-0.532-0.228-0.083-0.127 0.091 0.183 0.081 0.326 0.091 0.52 0.143 0.692 0.142 0.733 0.18 0.849 0.282 0.816 0.407 0.78 0.704 0.621 0.88 0.289 0.834-0.056 0.7-0.279 0.579-0.442 0.35-0.513 0.258-0.426 0.239-0.477 0.122-0.426 0.046-0.281 0.02-0.286-0.02-0.211 0.012-0.137 0.047-0.241 0.038-0.267 0.052-0.308 0.07-0.391 0.104-0.361 0.124-0.366 0.13-0.381 0.097-0.384 0.101-0.39 0.033-0.434-0.032-0.395-0.075-0.325-0.157-0.301-0.127-0.177-0.013-0.052-0.018-0.05-1.462 0.953-0.019 0.092 0.035 0.162 0.06 0.286 0.093 0.504 0.075 0.656 0.039 0.801 0.067 0.9 0.097 0.885 0.16 0.805 0.238 0.743 0.302 0.541 0.382 0.481 0.714 0.36 0.759-0.161 0.425-0.276 0.458-0.375 0.343-0.541 0.249-0.449 0.287-0.516 0.237-0.55 0.216-0.527 0.227-0.557 0.147-0.459 0.208-0.377 0.15-0.268-0.17 0.072-1.418-0.644-0.021-0.063-9e-3 0.111v0.918l0.051 0.547 0.059 0.594 0.222 0.661 0.329 0.515 0.393 0.433 0.534 0.291 0.592 0.149 0.615-0.061 0.538-0.269 0.425-0.381 0.265-0.414 0.16-0.297 0.189-0.285 0.112-0.212-0.803 0.538-0.613-0.613 9e-3 0.016 0.074 0.238 0.164 0.601 0.306 0.611 0.411 0.653 0.679 0.519 0.691 0.254 0.789 0.132 0.827-0.063 0.819-0.199 0.861-0.305 0.877-0.477 0.839-0.515 0.868-0.57 0.865-0.661 0.735-0.658 0.65-0.65 0.547-0.598 0.425-0.568 0.364-0.638 0.072-0.858-0.457-0.769-0.646-0.377-0.679-0.179-0.698-0.06-0.777 0.027-0.842 0.113-0.863 0.258-0.794 0.37-0.737 0.47-0.638 0.612-0.471 0.739-0.276 0.832-0.039 0.899 0.255 0.831 0.426 0.747 0.724 0.654 0.871 0.451 0.941 0.329 1.054 0.215 0.988 0.078 0.959 0.025 0.929-0.088 0.792-0.173 0.672-0.27 0.557-0.311 0.452-0.424 0.323-0.491 0.219-0.49 0.16-0.439 0.114-0.445 0.029-0.408v-0.37l-0.026-0.433-0.068-0.411-0.054-0.461-0.142-0.485-0.162-0.392-0.098-0.311-0.189-0.349-0.614-0.652-0.847 0.565-0.212 0.5-0.011 0.424-8e-3 0.424-0.01 0.534 0.018 0.72 0.1 0.775 0.18 0.764 0.272 0.713 0.443 0.595 0.538 0.383 0.501 0.168 0.548 0.091 0.547-0.119 0.454-0.165 0.499-0.299 0.436-0.468 0.261-0.481 0.212-0.45 0.185-0.47 0.15-0.429 0.162-0.321 0.184-0.286 0.057-0.089-0.689 0.461-0.592-0.592-2e-3 -3e-3 0.061 0.5 0.141 0.66 0.096 0.738 0.189 0.798 0.261 0.78 0.408 0.677 0.575 0.536 0.74 0.323 0.806-0.047 0.665-0.258 0.594-0.393 0.542-0.542 0.472-0.639 0.426-0.726 0.349-0.773 0.349-0.772 0.327-0.825 0.356-0.858 0.354-0.925 0.421-1.058 0.479-1.226 0.483-1.423 0.477-1.573 0.47-1.604 0.492-1.639 0.488-1.534 0.485-1.384 0.454-1.159 0.41-0.887 0.246-0.516-0.179 0.259-1.14-0.223-0.049-0.34 0.037 0.619-1e-3 0.996-0.033 1.343-0.012 1.563-0.017 1.748 0.011 1.861-9e-3 1.854-5e-3 1.851 0.048 1.757 0.121 1.621 0.23 1.45 0.383 1.282 0.584 1.025 0.691 0.747 0.817 0.51 0.823 0.199 0.914-0.158 0.717-1.01-0.51-0.913-0.503-0.418-0.66-0.338-0.722-0.23-0.845-0.253-1.045-0.297-1.164-0.344-1.245-0.413-1.251-0.464-1.127-0.437-0.921-0.405-0.702-0.363-0.342-0.181 0.191 0.164 5e-3 0.792-0.261 0.159 0.362-0.166 0.597-0.201 0.852-0.21 1.102-0.196 1.387-0.254 3.281-0.586 1.821-0.281 1.75-0.272 1.703-0.248 1.98-0.703-0.109-0.919-2.094-0.218-1.738 0.177-1.783 0.246-1.852 0.284-1.731 0.309-1.581 0.284-1.393 0.265-1.16 0.229-0.985 0.259-0.768 0.27-0.535 0.259-0.733 0.441 5e-3 1.121 0.616 0.542 0.552 0.288 0.759 0.391 1.012 0.445 1.179 0.456 1.293 0.479 1.299 0.434 1.191 0.364 1.027 0.315 0.805 0.265 0.55 0.195 0.33 0.18 0.062 0.054-0.274-0.491 0.482-0.681 0.3-0.062-0.117-0.036-0.315-0.197-0.346-0.382-0.356-0.626-0.277-0.93-0.195-1.234-0.112-1.49-0.048-1.681-5e-3 -1.823-9e-3 -1.866-0.036-1.861-0.017-1.736-0.012-1.546 0.013-1.343-1e-3 -1.077-0.056-0.746-0.145-1.047-1.373-0.269-0.604 0.87-0.318 0.662-0.44 0.949-0.486 1.243-0.505 1.442-0.501 1.574-0.498 1.659-0.47 1.601-0.466 1.535-0.46 1.354-0.461 1.178-0.429 1.061-0.35 0.912-0.351 0.836-0.334 0.779-0.356 0.733-0.311 0.688-0.327 0.546-0.328 0.444-0.305 0.305-0.256 0.175-0.182 0.071-0.041-1e-3 -0.014-6e-3 -0.133-0.125-0.157-0.263-0.164-0.492-0.14-0.616-0.093-0.721-0.141-0.659-0.079-0.585-0.191-0.615-0.874-0.874-0.971 0.65-0.275 0.429-0.238 0.372-0.263 0.526-0.179 0.514-0.147 0.377-0.163 0.35-0.114 0.226-0.082 0.097-0.115 0.079-0.157 0.071-0.066 0.021-0.063-2e-3 -0.11-0.022-0.076-0.039-0.122-0.158-0.153-0.373-0.149-0.555-0.089-0.59-0.028-0.599-0.01-0.503-8e-3 -0.424-0.011-0.094-0.116 0.264-0.707 0.469-0.425-0.463 0.094 0.076 0.138 0.207 0.214 0.315 0.14 0.266 0.088 0.342 0.075 0.34 0.02 0.32v0.29l-0.018 0.25-0.075 0.262-0.122 0.269-0.206 0.217-0.242 0.12-0.256 0.048-0.386 0.064-0.504 0.108-0.573 0.063-0.721 0.052-0.784-0.022-0.802-0.064-0.783-0.16-0.66-0.236-0.494-0.256-0.265-0.24-0.138-0.243-0.077-0.252 0.011-0.233 0.099-0.297 0.189-0.297 0.302-0.285 0.442-0.281 0.524-0.244 0.551-0.164 0.57-0.076 0.542-0.019 0.385 0.033 0.218 0.057-0.082-0.049-0.174-0.298 0.025-0.293-0.061 0.115-0.279 0.375-0.443 0.485-0.575 0.575-0.63 0.564-0.739 0.565-0.78 0.513-0.762 0.474-0.678 0.37-0.6 0.213-0.546 0.133-0.398 0.031-0.341-0.057-0.205-0.075-0.121-0.093-0.153-0.243-0.165-0.33-0.119-0.435-0.161-0.516-0.273-0.456-0.802-0.802-1.086 0.727-0.313 0.589-0.186 0.28-0.169 0.314-0.066 0.104 3e-3 -2e-3 0.067-0.033 0.143-0.014 0.027 7e-3 0.016 9e-3 -0.032-0.035-0.093-0.146-0.063-0.186-0.034-0.349-0.042-0.443v-0.73l0.037-0.454-0.114-0.346-1.418-0.644-0.502 0.212-0.508 0.91-0.31 0.563-0.185 0.577-0.195 0.479-0.208 0.509-0.188 0.44-0.231 0.427-0.219 0.398-0.129 0.213-0.106 0.096v7e-3l0.334-0.068 0.339 0.174 3e-3 0.01-0.12-0.213-0.141-0.436-0.122-0.607-0.092-0.765-0.073-0.841-0.054-0.849-0.114-0.802-0.142-0.629-0.129-0.418-0.105-0.216-0.068-0.048-1.462 0.953 0.031-4e-3 0.033-5e-3 0.062 0.012 0.03-0.018 0.068 0.05 0.108 0.17 0.083 0.226 0.051 0.318 0.05 0.37 0.037 0.372 0.028 0.385 0.011 0.392 0.024 0.409 5e-3 0.306-9e-3 0.251-0.049 0.23-0.035 0.145-0.067 0.165-0.123 0.139-0.189 0.094-0.3 0.188-0.375 0.18-0.447 0.235-0.357 0.241-0.268 0.076-0.243 0.05-0.156-9e-3 -0.11-0.04-0.097-0.086-0.157-0.303-0.189-0.549-0.149-0.705-0.141-0.728-0.14-0.673-0.098-0.562-0.155-0.617-0.238-0.477-0.319-0.503-0.864-0.371-0.916 0.38-0.424 0.307-0.373 0.373-0.351 0.479-0.237 0.449-0.222 0.384-0.274 0.379-0.307 0.418-0.322 0.39-0.323 0.367-0.234 0.236-0.068 0.05 0.161-0.02 0.107 0.049-0.082-0.081-0.138-0.227-0.14-0.405-0.152-0.558-0.125-0.54-0.076-0.638-0.179-0.536-0.214-0.584-0.794-0.532-0.977 0.247-0.386 0.513-0.253 0.412-0.237 0.562-0.198 0.621-0.232 0.673-0.246 0.713-0.2 0.73-0.159 0.676-0.171 0.588-0.089 0.491-0.063 0.225-0.01 0.057 0.441-0.631 0.849 0.297 0.108 0.134-0.024-0.01-0.067-0.116-0.096-0.321-0.089-0.522-0.054-0.756-7e-3 -0.917-6e-3 -1.036-7e-3 -1.036-0.016-0.942-0.019-0.8-0.022-0.592-2e-3 -0.417 6e-3 -0.24-0.035 0.133-0.666 0.631-0.603-0.632-0.054-0.206 0.024-0.044 0.021 0.165 0.048 0.163 0.02 0.096 0.026 0.212 0.031 0.252 0.067 0.249 0.118 0.253 0.183 0.197 0.186 0.1 0.144 0.049 0.142 0.057 0.196 0.109 0.199 0.116 0.195 0.193 0.224 0.207 0.164 0.211 0.126 0.248 0.108 0.262 0.085 0.259 0.038 0.19 0.017 0.132 0.083 0.207" __comx="434.796" __comy="721.721" __timestamp="0x1963b03680e"/></g><a target="_top" xlink:href="mailto:blog@lehnert.dev"><rect x="121.1" y="709.9" width="342.8" height="36.17" fill-opacity="0" stroke-opacity="0"/></a></g></g></svg>
