<?xml version="1.0" encoding="UTF-8"?>
<svg width="91.92mm" height="11.42mm" version="1.1" viewBox="0 0 91.92 11.42" xmlns="http://www.w3.org/2000/svg" xmlns:xlink="http://www.w3.org/1999/xlink"><g transform="translate(-18.52 -114)"><g class="hyperref" transform="matrix(.2646 0 0 .2646 -14.32 -91.29)" __timestamp="0x1963b07d844"><g fill="#00f" stroke-width="2.4"><path class="write-flat-pen" d="m130.1 790.9 0.202-0.265 0.292-0.304 0.427-0.536 0.58-0.706 0.565-0.778 0.541-0.836 0.488-0.81 0.441-0.796 0.325-0.751 0.218-0.764-0.117-0.738-0.536-0.648-0.767-0.304-0.892-0.133-0.96 0.018-1.054 0.19-1.072 0.389-1.026 0.539-0.926 0.778-0.753 1.035-0.459 1.148-0.262 1.21-0.139 1.24 0.138 1.21 0.32 1.107 0.615 1.009 0.822 0.889 0.86 0.797 0.946 0.83 0.917 0.835 0.806 0.808 0.681 0.82 0.505 0.739 0.283 0.698 0.163 0.662 0.015 0.533-0.128 0.47-0.234 0.443-0.392 0.444-0.563 0.503-0.628 0.445-0.723 0.358-0.78 0.319-0.756 0.232-0.661 0.127-0.502 0.045-0.338-0.054-0.231-0.086-0.155-0.116-0.129-0.172-0.089-0.158-0.014-0.201 0.212-0.411 0.501-0.551 0.693-0.592 0.811-0.527 0.808-0.405 0.749-0.259 0.602-0.097 0.506 0.025 0.494 0.118 0.526 0.232 0.574 0.346 0.733 0.353 0.827 0.291 0.887 0.162 1.011 0.02 0.962-0.194 0.954-0.376 0.896-0.6 0.731-0.759 0.564-0.791 0.467-0.794 0.311-0.744 0.218-0.706 0.095-0.765-0.198-0.712-0.397-0.66-0.679-0.484-0.806-0.208-0.831-0.116-1.022 0.142-0.967 0.272-1.007 0.482-0.829 0.785-0.653 0.913-0.344 1.178-0.072 1.329 0.284 1.357 0.617 1.31 0.889 1.198 1.132 0.965 1.154 0.757 1.249 0.54 1.294 0.299 1.308 0.129 1.323-0.175 1.344-0.351 1.284-0.595 1.226-0.777 1.072-0.923 1.064-1.192-0.394-0.451-1.272 0.85-1.165 0.547-1.189 0.518-1.129 0.347-1.13 0.18-1.031 0.062-0.988-0.107-1.002-0.232-0.93-0.402-0.909-0.597-0.869-0.741-0.643-0.865-0.441-0.924-0.185-0.881 0.045-0.85 0.188-0.648 0.348-0.499 0.466-0.452 0.583-0.282 0.681-0.201 0.626-0.094 0.464 0.062 0.373 0.087 0.085 0.047 0.073 0.104 0.039 0.111-0.021 0.239-0.134 0.47-0.22 0.551-0.355 0.621-0.44 0.621-0.503 0.536-0.577 0.4-0.636 0.272-0.628 0.159-0.696 0.02-0.644-0.075-0.647-0.179-0.62-0.236-0.602-0.301-0.711-0.296-0.743-0.177-0.789-0.037-0.872 0.14-0.957 0.331-0.957 0.479-0.957 0.59-0.839 0.645-0.736 0.628-0.61 0.764-0.251 0.92 0.147 0.901 0.46 0.77 0.668 0.531 0.712 0.267 0.782 0.125 0.851-0.075 0.87-0.167 0.951-0.295 0.927-0.39 0.926-0.464 0.845-0.613 0.732-0.675 0.609-0.735 0.413-0.852 0.225-0.942-0.043-0.999-0.248-0.987-0.423-1.008-0.674-0.968-0.792-0.948-0.9-0.899-0.967-0.871-0.938-0.822-0.788-0.731-0.648-0.7-0.389-0.639-0.208-0.719-0.099-0.85 0.098-0.939 0.207-0.969 0.309-0.795 0.484-0.671 0.602-0.517 0.742-0.404 0.813-0.317 0.769-0.163 0.688-0.044 0.581 0.045 0.234 0.049 0.053-1e-3 0.058 0.029-0.015 0.411-0.148 0.664-0.264 0.79-0.334 0.842-0.401 0.87-0.439 0.812-0.479 0.764-0.337 0.585-0.24 0.344-0.177 0.3" __comx="136.355" __comy="798.715" __timestamp="0x1963b047ca8"/><path class="write-flat-pen" d="m147.4 793.6-0.299-0.216-0.325-0.168-0.385-0.169-0.528-0.176-0.544-0.095-0.449 0.077-0.457 0.246-0.311 0.493-0.154 0.544-0.107 0.62-0.101 0.736-0.038 0.951-4e-3 1.166 0.124 1.235 0.194 1.27 0.297 1.161 0.403 0.997 0.416 0.748 0.468 0.657 0.721 0.462 0.823 0.241 0.869-0.078 0.893-0.354 0.813-0.612 0.596-0.727 0.556-0.781 0.475-0.874 0.315-0.846 0.302-0.744 0.186-0.53 0.254-0.456-1.392 0.337-0.294-0.195-0.017-0.161 0.061 0.584 0.129 0.834 0.237 0.948 0.408 0.9 0.594 0.772 0.888 0.371 0.865 0.1 0.779-0.194 0.784-0.246 0.772-0.369 0.734-0.403 0.741-0.359 0.709-0.366 0.598-0.425 0.527-0.392 0.406-0.41 0.244-0.483 0.142-0.519-0.099-0.514-0.21-0.503-0.351-0.434-0.411-0.405-0.473-0.314-0.592-0.282-0.758-0.02-0.725 0.376-0.507 0.714-0.309 0.926-0.116 1.13 0.094 1.163 0.266 1.16 0.533 1.03 0.836 0.722 1.051 0.448 1.216-0.033 1.127-0.356 1.067-0.649 0.84-1.006 0.72-1.164 0.582-1.371 0.441-1.495 0.315-1.509 0.191-1.452 0.068-1.391 0.069-1.284 9e-3 -1.279-0.049-1.348-0.142-1.339-0.173-1.324-0.165-1.049-0.1-0.678-0.022-0.174-1.953-0.019-0.078 0.396-0.033 0.936-0.03 1.37-3e-3 1.762 0.059 2.13 0.181 2.258 0.304 2.304 0.472 2.128 0.658 1.826 0.841 1.376 1.381 1.404 1.126-0.97-1.059-1.428-0.516-1.157-0.517-1.587-0.412-1.936-0.286-2.171-0.172-2.155-0.057-2.05-3e-3 -1.713 0.028-1.337 0.026-0.774 0.042-0.252-1.953-0.019 0.037 0.178 0.133 0.679 0.191 1.011 0.18 1.267 0.153 1.252 0.068 1.242 9e-3 1.195-0.047 1.245-0.052 1.319-0.162 1.314-0.275 1.376-0.381 1.332-0.48 1.161-0.575 0.953-0.572 0.703-0.64 0.409-0.699 0.233-0.611 0.025-0.477-0.2-0.401-0.337-0.293-0.56-0.203-0.841-0.084-0.899 0.063-0.813 0.16-0.544 0.141-0.228 0.043-0.038 0.065-0.02 0.234 0.074 0.291 0.156 0.294 0.243 0.238 0.213 0.143 0.203 0.079 0.134 0.022 0.187-0.051 0.285-0.18 0.295-0.416 0.372-0.523 0.4-0.644 0.34-0.733 0.347-0.736 0.303-0.701 0.162-0.686-0.01-0.516-0.078-0.372-0.195-0.232-0.218-0.17-0.287-0.239-0.57-0.174-0.7-0.107-0.698-0.056-0.536-0.079-0.75-0.469-0.312-1.392 0.337-0.335 0.603-0.226 0.648-0.287 0.729-0.274 0.744-0.347 0.655-0.448 0.635-0.405 0.507-0.424 0.33-0.403 0.177-0.248 0.038-0.236-0.053-0.222-0.123-0.238-0.286-0.352-0.547-0.361-0.771-0.292-0.957-0.217-1.146-0.17-1.119-0.062-1.071-0.038-0.875 0.015-0.676 0.01-0.558 0.024-0.337 0.042-0.154 0.074-0.107 0.137-0.101 0.34-0.036 0.473 0.06 0.382 0.067 0.322 0.065 0.328 0.101" __comx="155.604" __comy="798.715" __timestamp="0x1963b047fba"/><path class="write-flat-pen" d="m182 795.7-0.025-0.228 0.022-0.162 0.02-0.3-9e-3 -0.396 5e-3 -0.406 0.03-0.356 0.053-0.367 0.013-0.239 0.039-0.082 0.031-0.06-1.222 0.195-0.08 0.097 0.023 0.199 0.062 0.398 0.063 0.685 0.039 0.974 0.038 1.201 0.038 1.323 0.041 1.387 0.046 1.238 0.111 1.076 0.115 0.856 0.168 0.699 0.171 0.426 0.206 0.49 0.838 0.504 0.771-0.375 0.38-0.37 0.33-0.467 0.362-0.563 0.476-0.705 0.527-0.834 0.523-0.975 0.471-0.911 0.422-0.785 0.352-0.554 0.326-0.372 0.184-0.161-0.151 0.091-0.558-0.162-0.089-0.14 0.134 0.309 0.124 0.638 0.175 0.85 0.176 0.932 0.219 0.89 0.255 0.771 0.458 0.719 0.793 0.464 0.856 1e-3 0.82-0.3 0.692-0.419 0.629-0.559 0.564-0.596 0.45-0.573 0.39-0.517 0.304-0.505 0.182-0.332 0.012-0.02-0.745 0.57-0.622-0.622 0.06 0.127 0.171 0.392 0.202 0.662 0.318 0.797 0.381 0.834 0.599 0.786 0.687 0.613 0.843 0.385 0.903 0.164 0.943-0.073 0.926-0.264 0.837-0.472 0.713-0.672 0.601-0.78 0.402-0.911 0.28-0.93 0.134-0.903 0.068-0.788 0.04-0.808-0.176-0.796-0.359-0.729-0.608-0.649-0.756-0.493-0.794-0.38-0.956-0.205-1.08 0.089-0.955 0.501-0.813 0.813-0.515 1.147-0.252 1.281v1.414l0.28 1.441 0.652 1.374 0.986 1.133 1.275 0.85 1.401 0.547 1.448 0.297 1.543 0.124 1.574-0.084 1.622-0.236 1.714-0.413 2.436-0.752-0.32-1.374-2.471 0.39-1.644 0.176-1.497 0.117-1.369 0.032-1.284-0.109-1.143-0.235-1.014-0.396-0.842-0.561-0.604-0.693-0.41-0.863-0.189-0.972v-1.001l0.16-0.837 0.253-0.563 0.304-0.304 0.282-0.147 0.332-0.027 0.401 0.086 0.44 0.21 0.423 0.274 0.218 0.231 0.11 0.213 0.061 0.266-0.018 0.488-0.052 0.682-0.099 0.687-0.193 0.66-0.245 0.562-0.341 0.454-0.404 0.391-0.4 0.234-0.489 0.148-0.469 0.043-0.392-0.069-0.336-0.146-0.314-0.271-0.343-0.447-0.266-0.581-0.268-0.673-0.212-0.695-0.24-0.547-0.235-0.463-0.858-0.858-0.978 0.748-0.225 0.391-0.171 0.316-0.227 0.379-0.316 0.421-0.375 0.489-0.437 0.463-0.43 0.383-0.367 0.229-0.301 0.112 0.034 1e-3 0.084 0.053-0.069-0.107-0.16-0.463-0.192-0.762-0.177-0.891-0.178-0.856-0.17-0.836-0.277-0.634-0.384-0.61-0.969-0.282-0.74 0.444-0.405 0.37-0.5 0.57-0.47 0.741-0.462 0.863-0.471 0.915-0.478 0.906-0.474 0.756-0.466 0.71-0.344 0.554-0.201 0.301-0.031 0.041 0.418-0.2 0.543 0.329 0.028 0.078-0.124-0.283-0.127-0.476-0.118-0.734-0.125-0.987-0.07-1.174-0.079-1.382-0.078-1.326-0.078-1.212-0.081-1.027-0.112-0.789-0.117-0.486-0.093-0.271-0.138-0.081-1.222 0.195 0.031 0.06 0.039 0.151 0.071 0.234 0.053 0.339 0.088 0.408 0.121 0.42 0.111 0.368 0.078 0.289 0.08 0.191 0.124 0.227" __comx="195.391" __comy="798.715" __timestamp="0x1963b0484ad"/><path class="write-flat-pen" d="m229.6 794.2 0.031-0.178 0.051-0.029 0.06-0.097 0.029-0.072 0.064 0.053 0.062-0.031 0.054-0.557-0.586-0.074-0.06-0.037-0.058-0.028-0.029-0.03-0.663 0.914-0.031 0.224 0.158 0.291 0.159 0.274 0.226 0.478 0.31 0.581 0.306 0.824 0.366 1.226 0.495 1.458 0.555 1.674 0.638 1.583 0.676 1.426 0.721 1.193 0.686 0.947 0.745 0.712 0.895 0.454 0.946-0.136 0.703-0.577 0.466-0.777 0.55-1.03-0.222-0.165-0.793 0.782-0.651 0.282-0.417 0.012-0.113-0.136-0.222-0.194-0.434-0.467-0.551-0.76-0.633-1.044-0.619-1.285-0.599-1.477-0.562-1.623-0.509-1.427-0.398-1.248-0.4-0.999-0.396-0.655-0.305-0.523-0.252-0.316-0.078-0.062-0.089 0.046-0.663 0.914 0.029-0.03 0.058-0.028 0.06-0.037-0.47-0.074 0.054-0.499 0.062 0.031 0.064 0.111 0.087 0.045 0.06-0.039 0.051 0.029 0.031 0.178" __comx="233.37" __comy="798.715" __timestamp="0x1963b048726"/><path class="write-flat-pen" d="m241.6 798.4 0.073-0.352 0.103-0.324 0.121-0.324 0.11-0.299 0.118-0.075-1.104-0.589-0.174 0.092-0.3 0.276-0.506 0.622-0.642 0.969-0.654 1.101-0.711 1.272-0.739 1.414-0.763 1.499-0.79 1.641-0.734 1.745-0.662 1.813-0.653 1.793-0.616 1.698-0.594 1.532-0.481 1.357-0.338 1.12-0.212 0.988 0.058 1.021 0.69 0.779 1.012 0.053 0.846-0.511 1.091-1.155-0.711-0.813-1.137 0.793-0.329 0.02 0.186-0.064 0.221 0.19-4e-3 -0.157 0.144-0.66 0.309-1.001 0.458-1.292 0.585-1.528 0.621-1.718 0.643-1.798 0.634-1.778 0.678-1.671 0.742-1.597 0.71-1.503 0.672-1.413 0.643-1.257 0.582-1.078 0.537-0.916 0.378-0.557 0.17-0.252 0.063-0.144-1.104-0.589 0.059 0.22 0.11 0.407 0.121 0.324 0.103 0.324 0.073 0.352" __comx="236.786" __comy="798.715" __timestamp="0x1963b048810"/><path class="write-flat-pen" d="m247.5 799.2-0.011-0.325 0.052-0.223-0.209-0.334-0.384-0.224-0.368-0.105-0.43-0.058-0.371 0.033-0.409 0.043-0.506 0.225-0.515 0.311-0.632 0.442-0.706 0.647-0.682 0.792-0.645 0.891-0.548 0.972-0.354 1.081 0.085 1.095 0.487 0.984 0.773 0.645 0.97 0.454 1.038 0.221 1.05 0.04 1.133-0.096 1.12-0.344 1.01-0.511 0.905-0.687 0.76-0.818 0.526-0.917 0.313-0.959 0.054-1.01-0.333-0.937-0.496-0.813-0.691-0.695-0.736-0.562-0.837-0.456-0.847-0.319-0.864-0.177-0.832-0.042-0.84 0.286-0.587 0.808 0.126 0.928 0.427 0.68 0.61 0.563 0.813 0.447 0.873 0.185 1.131 0.149 0.184-0.534-0.935-0.563-0.542-0.463-0.421-0.437-0.216-0.379-0.042-0.204 0.064 0.222-0.234 0.338-0.13 0.05 0.285 0.016 0.551 0.118 0.565 0.213 0.575 0.308 0.501 0.38 0.429 0.422 0.268 0.424 0.136 0.358-5e-3 0.343-0.156 0.515-0.299 0.553-0.477 0.538-0.623 0.488-0.699 0.373-0.762 0.245-0.813 0.079-0.773-0.019-0.672-0.132-0.558-0.251-0.289-0.239-0.161-0.312-0.031-0.375 0.177-0.57 0.395-0.735 0.531-0.757 0.555-0.678 0.531-0.532 0.485-0.384 0.37-0.275 0.2-0.131 0.181-0.073 0.218-0.084 0.217-0.058 0.163-0.046 0.086-0.049 0.028-0.097 0.111-0.045 0.186 0.268" __comx="245.867" __comy="798.715" __timestamp="0x1963b0489d1"/><path class="write-flat-pen" d="m252.8 798.9 0.053-0.312 0.1-0.244 0.214-0.365 0.229-0.469 0.216-0.332 0.269-0.451-0.071-0.529-0.256-0.497-0.685-0.124-0.679 0.091-0.579 0.504-0.614 0.696-0.547 1.076-0.457 1.238-0.316 1.317-0.196 1.25v1.142l0.242 0.993 0.531 0.771 0.756 0.426 0.767 0.184 0.741-0.075 0.614-0.148 0.613-0.28 0.537-0.419 0.473-0.466 0.347-0.576 0.25-0.531 0.274-0.546 0.235-0.56 0.277-0.552 0.269-0.511 0.263-0.394 0.154-0.22-0.269 0.269-0.731-0.181-0.077-0.123 0.187 0.402 0.323 0.646 0.344 0.747 0.37 0.833 0.49 0.847 0.523 0.725 0.604 0.677 0.717 0.49 0.753 0.346 0.73 0.153 0.713 0.084 0.742-0.144 0.556-0.326 0.472-0.513 0.252-0.58 0.122-0.533 0.078-0.572-0.033-0.647-0.104-0.621-0.214-0.676-0.284-0.643-0.329-0.721-0.374-0.775-0.306-0.751-0.281-0.759-0.154-0.482v-0.147l-0.035 0.068 0.021-0.019 0.274-0.103 0.473-0.095 0.686-0.081 0.797-0.028 0.98-0.018 1.111-0.106 1.168-0.147 2.052-0.205-0.061-1.41-2.069-0.028-1.186-0.027-1.068 0.011-0.963-0.018-0.91 0.03-0.845 0.098-0.706 0.142-0.668 0.25-0.627 0.45-0.388 0.774v0.915l0.26 0.814 0.305 0.831 0.342 0.839 0.393 0.812 0.319 0.694 0.243 0.532 0.142 0.444 0.071 0.38 0.025 0.353-0.039 0.312-0.057 0.289-0.043 0.129-0.056 0.073-0.033 0.027-0.142 0.034-0.346-0.032-0.449-0.084-0.423-0.185-0.404-0.274-0.396-0.443-0.419-0.571-0.394-0.681-0.336-0.756-0.362-0.785-0.325-0.649-0.224-0.482-0.372-0.592-0.968-0.239-0.564 0.563-0.257 0.366-0.327 0.49-0.321 0.61-0.312 0.623-0.235 0.56-0.257 0.512-0.22 0.469-0.184 0.308-0.233 0.239-0.289 0.228-0.267 0.131-0.328 0.089-0.321 0.042-0.234-0.049-0.186-0.105-0.117-0.171-0.111-0.478v-0.801l0.157-1.049 0.273-1.154 0.369-1.058 0.395-0.808 0.387-0.483 0.127-0.144-0.031-0.026-0.215-0.066-0.136-0.319 0.046-0.118 0.032 0.138-0.076 0.432-0.066 0.532-0.081 0.461 0.038 0.345 0.053 0.333" __comx="259.368" __comy="798.715" __timestamp="0x1963b048c29"/><path class="write-flat-pen" d="m286.5 788.4 0.072-0.523 0.048-0.619 0.051-0.858-0.015-0.982 0.016-0.694-0.012-0.495 0.014-0.326 0.018-0.125 0.043-0.053 0.05 0.039-1.378 0.384v0.056l0.034 0.261 0.151 0.791 0.155 1.268 0.099 1.708 0.104 1.986 0.046 2.175 0.111 2.292 0.168 2.144 0.204 1.961 0.303 1.631 0.324 1.202 0.436 0.921 0.528 0.626 0.701 0.414 0.853 7e-3 0.761-0.315 0.668-0.497 0.667-0.726 0.664-0.953 0.569-1.092 0.565-1.158 0.551-1.126 0.385-1.002 0.342-0.712 0.355-0.574 9e-3 -0.012-0.547 0.106-0.213-0.163 0.16 0.305 0.278 0.714 0.268 0.985 0.257 1.173 0.262 1.295 0.274 1.255 0.363 1.187 0.521 1.002 0.706 0.748 0.912 0.458 1.088 0.061 0.975-0.343 0.888-0.577 0.782-0.732 0.748-0.809 0.702-0.832 0.602-0.873 0.565-0.832 0.505-0.784 0.378-0.655 0.303-0.559 0.175-0.539 0.057-0.543-0.155-0.553-0.398-0.393-0.487-0.226-0.476-0.031-0.357-0.019-0.555 0.028-0.622 0.193-0.647 0.33-0.706 0.549-0.644 0.769-0.587 0.952-0.414 1.079-0.246 1.048-1e-3 1.022 0.291 0.919 0.675 0.679 0.849 0.284 0.879 0.083 0.936-0.145 0.942-0.319 0.928-0.55 0.812-0.803 0.569-0.879 0.438-0.928 0.313-0.89 0.151-0.871 5e-3 -0.874-0.261-0.755-0.303-0.522-0.327-0.375-0.211-0.171-1.511 0.263-0.165 0.279-0.169 0.671 0.081 0.826 0.165 1.015 0.342 1.081 0.512 1.059 0.647 0.897 0.784 0.652 0.846 0.291 0.721 0.083 1.181-0.189v-1.204l-0.965-0.189-0.337-0.212-0.391-0.237-0.333-0.348-0.415-0.577-0.369-0.767-0.248-0.804-0.13-0.808-0.039-0.411 0.01-0.035 0.014-0.016-1.511 0.263 0.08 0.065 0.088 0.095 0.108 0.184 0.092 0.246 5e-3 0.363-0.086 0.544-0.215 0.638-0.329 0.72-0.373 0.595-0.483 0.493-0.542 0.334-0.589 0.209-0.534 0.091-0.42-0.033-0.21-0.069-0.03-0.031-0.062-0.198-1e-3 -0.51 0.165-0.716 0.291-0.805 0.414-0.696 0.418-0.526 0.411-0.335 0.354-0.201 0.262-0.098 0.27-0.034 0.291-0.019 0.172-0.031-0.018-0.047-0.045-0.099 0.023-0.084 0.057 0.163-4e-3 0.345-0.108 0.5-0.211 0.643-0.437 0.744-0.553 0.816-0.577 0.837-0.652 0.757-0.784 0.603-0.808 0.385-0.76 0.19-0.556 0.01-0.382-0.117-0.267-0.189-0.294-0.311-0.305-0.587-0.285-0.931-0.254-1.161-0.269-1.295-0.274-1.239-0.318-1.136-0.37-0.935-0.429-0.753-0.803-0.636-1.194 0.226-0.464 0.752-0.41 0.663-0.422 0.878-0.382 0.999-0.508 1.053-0.552 1.138-0.494 0.967-0.511 0.753-0.454 0.512-0.333 0.271-0.182 0.096 0.03 7e-3 -9e-3 3e-3 -0.178-0.2-0.27-0.553-0.266-0.974-0.286-1.49-0.207-1.867-0.185-2.094-0.126-2.242-0.07-2.18-0.132-2.02-0.138-1.767-0.198-1.381-0.202-0.857-0.141-0.503-0.178-0.239-1.378 0.384 0.05 0.097 0.101 0.242 0.076 0.053 0.075 0.201 0.104 0.448 0.075 0.659 0.102 0.961 0.051 0.852 0.109 0.615 0.072 0.509" __comx="297.683" __comy="798.715" __timestamp="0x1963b04910c"/><path class="write-flat-pen" d="m311.5 794.3 0.023-0.438-1e-3 -0.309-0.024-0.276-0.129-0.409-0.104-0.199-1.081 0.112-0.181 0.174-0.134 0.477-0.024 0.557-0.02 0.779 6e-3 0.986 0.098 1.194 0.161 1.361 0.228 1.349 0.298 1.239 0.322 1.021 0.384 0.742 0.568 0.629 0.765 0.264 0.792-0.043 0.728-0.395 0.591-0.585 0.489-0.779 0.367-0.857 0.35-0.954 0.241-0.936 0.246-0.793 0.291-0.726 0.167-0.503 0.173-0.243-8e-3 8e-3 -0.595 0.103-0.339-0.255 0.039 0.098 0.122 0.586 0.128 0.865 0.211 1.046 0.309 1.044 0.46 0.974 0.689 0.751 0.763 0.454 0.846 0.159 0.906-0.028 1.056-0.071 1.111-0.275 1.088-0.432 0.975-0.589 0.818-0.741 0.676-0.773 0.531-0.74 0.366-0.671 0.278-0.612 0.029-0.612-0.316-0.614-0.618-0.298-0.508-0.074-0.518-0.061-0.709 0.059-0.808 0.266-0.816 0.565-0.767 0.867-0.554 1.07-0.392 1.145-0.229 1.055-0.07 0.958 0.203 0.952 0.737 0.73 0.972 0.205 1.025-0.128 0.95-0.502 0.885-0.758 0.759-1.126 0.634-1.319 0.622-1.506 0.5-1.637 0.343-1.568 0.219-1.432 0.068-1.379-0.029-1.249-0.122-1.234-0.251-1.243-0.348-1.144-0.395-0.986-0.334-0.834-0.394-0.413-1.466 0.056-0.372 0.429-0.132 0.996-0.097 1.243 0.094 1.587 0.175 1.876 0.207 2.084 0.302 2.136 0.427 2.16 0.569 1.926 0.74 1.631 0.949 1.213 1.507 1.249 0.998-1.034-1.175-1.339-0.583-1.024-0.556-1.371-0.49-1.727-0.399-2.02-0.288-2.041-0.204-2.038-0.178-1.835-0.085-1.414 0.081-1.053 0.046-0.357-0.019 0.015-1.466 0.056 0.133 0.119 0.197 0.462 0.369 0.899 0.299 0.973 0.222 1.056 0.114 1.062 0.029 1.105-0.052 1.211-0.192 1.275-0.305 1.437-0.442 1.481-0.557 1.379-0.541 1.155-0.536 0.816-0.531 0.479-0.462 0.262-0.387 0.05-0.149-0.032 0.031 0.024-0.033-0.168 0.05-0.57 0.182-0.829 0.314-0.917 0.389-0.753 0.47-0.548 0.421-0.316 0.367-0.148 0.353-0.058 0.363-3e-3 0.26-0.016-0.029-0.061-0.022-0.144 0.087 0.035-0.017 0.392-0.165 0.624-0.353 0.73-0.5 0.817-0.656 0.79-0.851 0.648-1.03 0.448-1.069 0.256-1.003-0.013-0.743-0.264-0.449-0.427-0.299-0.488-0.253-0.603-0.188-0.736-0.161-0.899-0.142-0.955-0.108-0.9-0.173-0.829-0.314-0.786-0.809-0.608-0.951 0.165-0.536 0.594-0.416 0.583-0.244 0.734-0.298 0.744-0.285 0.917-0.228 0.887-0.297 0.814-0.28 0.671-0.278 0.458-0.231 0.241-0.098 0.074 0.028 0.016 0.059 0.031-0.08-0.077-0.206-0.378-0.267-0.805-0.292-1.115-0.242-1.242-0.192-1.288-0.138-1.102-0.052-0.898-0.02-0.753-0.024-0.386-0.017-0.051-0.065-4e-3 -1.081 0.112 0.075-0.021 0.165 0.118 0.15 0.139 0.178 0.161 0.176 0.338" __comx="320.486" __comy="798.715" __timestamp="0x1963b04942b"/><path class="write-flat-pen" d="m332.5 800.6-0.096-0.11 0.01-0.016 0.02-0.121-9e-3 -0.236 0.019-0.254 0.018-0.28 0.05-0.219 0.056-0.263 0.048-0.208 0.072-0.205 0.041-0.277 0.035-0.108 0.073-0.176-0.087-0.32-0.047-0.149-0.025-0.104 9e-3 -0.055 1e-3 -0.092-7e-3 -0.132-9e-3 -0.158-8e-3 -0.226 0.015-0.188-0.013-0.207 0.017-0.224 0.014-0.176 0.019-0.236 0.02-0.176 0.024-0.134 0.052-0.233 0.02-0.079 0.049-0.116 0.019 0.581-0.979 0.046-0.354-0.318-0.044-0.129 7e-3 0.159-0.058 0.33-0.073 0.63-0.042 0.825-0.037 1.057 0.02 1.272 0.141 1.236 0.181 1.234 0.415 1.058 0.499 0.791 0.554 0.594 0.652 0.393 0.615 0.182 0.623 0.054 0.655-0.154 0.531-0.34 0.396-0.497 0.193-0.51 0.107-0.412 0.051-0.199 0.057-0.139-0.06 0.26-0.731 0.356-0.407-0.16 0.097 0.092 0.342 0.317 0.489 0.462 0.628 0.443 0.74 0.28 0.732 0.166 0.673 0.019 0.74-0.081 0.703-0.434 0.416-0.58 0.245-0.659 0.089-0.683 5e-3 -0.668-0.063-0.786-0.166-0.844-0.259-0.88-0.293-0.788-0.325-0.682-0.35-0.631-0.407-0.323-0.18-0.068-1.571 0.256 0.029 0.087 0.415 1.23 0.251-0.023 0.538-0.231 0.762-0.13 0.057-0.347-0.644-0.362-0.168-0.41 0.014-0.14 0.415 1.23 0.087-0.029-1.571 0.256 0.115 0.226 0.124 0.146 0.12 0.253 0.265 0.555 0.238 0.624 0.211 0.709 0.129 0.626 0.053 0.571 5e-3 0.449-0.028 0.317-0.049 0.167 5e-3 0.01 0.055-0.023-0.145 0.035-0.328 0.019-0.389-0.071-0.377-0.131-0.314-0.205-0.395-0.36-0.363-0.331-0.372-0.322-0.702-0.276-0.851 0.414-0.118 0.497-0.06 0.156-0.069 0.329-0.068 0.297-0.044 0.138-0.015 0.031v0.013l-0.051 0.024-0.141-4e-3 -0.211-0.055-0.232-0.138-0.268-0.287-0.327-0.504-0.29-0.71-0.172-1.004-0.154-1.118-0.038-1.14 0.021-1.006 0.016-0.765 0.047-0.546 0.059-0.496-0.051-0.43-0.103-0.423-0.474-0.434-1.096 0.046 0.019 0.697-0.01 0.121 0.02 0.158-0.01 0.236 0.024 0.219 0.02 0.176 0.019 0.236 0.014 0.176 0.017 0.307 0.049 0.204 0.015 0.165 0.05 0.306 0.049 0.195 0.052 0.163 0.059 0.141 0.071 0.123 0.091 0.132 0.07 0.084 0.033 0.033 0.012 2e-3 -0.023 0.186-0.017 0.255-0.044 0.206-0.011 0.261-6e-3 0.269-8e-3 0.251 0.018 0.309 0.019 0.277 0.049 0.233 0.02 0.173 0.071 0.104 0.141 0.126" __comx="336.553" __comy="796.021" __timestamp="0x1963b04a221"/><path class="write-flat-pen" d="m342.7 797.5 0.25-0.149 0.177 0.014 0.181 0.017 0.094 0.082-0.753 0.083-0.071-0.496-0.028 0.148-0.067 0.302 0.041 0.707 0.178 0.763 0.316 0.864 0.432 0.839 0.417 0.73 0.478 0.596 0.425 0.429 0.516 0.334 0.487 0.156 0.368 0.065 0.858 0.018 0.451-1.339-0.487-0.493-0.085-0.114-0.061-0.114-0.218-0.312-0.306-0.308-0.213-0.236-0.296-0.409-0.346-0.455-0.271-0.486-0.196-0.554-0.17-0.528-0.043-0.286-1e-3 0.01-0.083 0.125-0.047 0.028 0.106-0.025h0.172l0.245 0.087 0.384 0.214 0.47 0.256 0.476 0.253 0.579 0.293 0.67 0.175 0.642 0.151 0.632 0.061 0.512 0.054h0.484l0.357-0.205 0.265-0.225 0.125-0.284 0.13-0.205 0.049-0.295-0.016-0.195-1.13-0.189-0.222 0.218-0.123 0.449-0.135 0.538-0.031 0.748-0.026 0.815 0.076 0.803 0.104 0.805 0.184 0.692 0.187 0.578 0.157 0.396 0.164 0.368 0.271 0.368 0.113 0.063 0.188 0.19 0.401 4e-3 0.75-1.402-0.026-0.038-8e-3 -0.01-0.052-0.154-0.072-0.382-0.113-0.608-0.143-0.862-0.236-1.131-0.264-1.336-0.356-1.544-0.381-1.638-0.321-1.529-0.226-1.41-0.083-1.218 0.076-1.064 0.184-0.983 0.285-0.896 0.318-0.727 0.335-0.564 0.332-0.403 0.39-0.365 0.437-0.399 0.464-0.404 0.507-0.456 0.497-0.534 0.454-0.52 0.369-0.595 0.309-0.601 0.172-0.534 0.169-0.395 0.109-0.233 0.028 2e-3 -0.087 0.098-0.297 0.124-0.336-0.106 7e-3 0.06 0.102 0.663 0.202 1.305 0.089 1.802 0.093 2.289 0.093 2.601 0.011 2.732 0.073 2.762 0.147 2.534 0.209 2.234 0.307 1.754 0.304 1.191 0.221 0.818 0.218 0.582 0.171 0.308 0.048 0.096 1.583 0.261 0.458-0.459-0.313-0.947-0.39-0.439-0.476-0.483-0.714-0.539-0.793-0.484-0.774-0.513-0.721-0.498-0.644-0.539-0.495-0.562-0.397-0.61-0.245-0.539-0.047-0.3 0.047-0.169 0.214-0.251 0.492-0.374 0.787-0.45 0.978-0.612 1.027-0.716 1.027-0.876 0.991-0.96 0.933-1.056 0.842-1.126 0.75-1.229 0.663-1.393 0.49-1.481 0.421-1.385 0.34-1.313 0.215-1.124 0.151-0.874 0.103-0.666 2e-3 -0.376 0.022-0.1-1.877-0.154-1e-3 0.089-4e-3 0.382-1e-3 0.795-1e-3 1.295-6e-3 1.737-0.015 2.001-0.012 2.155 0.018 2.193 0.051 2.171 0.117 2.049 0.114 1.903 0.155 1.579 0.245 1.128 0.138 0.773 0.191 0.392 0.044 0.111 1.142-1.384-0.064-0.016-0.123-0.046-0.326-0.146-0.445-0.228-0.548-0.338-0.627-0.355-0.651-0.393-0.662-0.437-0.715-0.548-0.652-0.565-0.558-0.576-0.291-0.363 0.059 0.182-0.307 0.484-0.141 0.037 0.319-0.019 0.5 0.087 0.717 0.231 0.768 0.329 0.886 0.414 0.835 0.354 0.737 0.21 0.751 0.111 0.707-0.041 0.661-0.189 0.522-0.347 0.393-0.329 0.313-0.261 0.231-0.153 0.283-0.117 0.304-0.139 0.249-0.091 0.345-0.093 0.416-0.174 0.467-0.2 0.538-0.308 0.517-0.438 0.393-0.474 0.274-0.545 0.135-0.53 0.044-0.444 5e-3 -0.65-0.386-0.629-0.582-0.453-0.734-0.164-0.694-1e-3 -0.728 0.079-0.795 0.338-0.76 0.55-0.583 0.836-0.377 1.067-0.116 1.185 0.251 1.229 0.417 1.08 0.64 1.012 0.897 0.732 1.038 0.399 1.086 0.111 1.052-0.107 0.981-0.327 0.769-0.555 0.584-0.726 0.427-0.862 0.237-0.833 0.24-0.81 0.187-0.756 0.124-0.68 0.091-0.611 0.062-0.526 0.047-0.48 0.024-0.404-0.096-0.385-0.086-0.182-1.18-0.122-0.192 0.167-0.247 0.463-0.103 0.621-0.084 0.816 0.05 0.949 0.137 1.051 0.178 1.05 0.318 0.992 0.331 0.756 0.41 0.65 0.797 0.498 0.803-0.18 0.452-0.324 0.365-0.35 0.328-0.349 0.325-0.322 0.257-0.196 0.184-0.088-0.058 0.018-0.109-0.032 0.106 0.09 0.214 0.318 0.304 0.555 0.352 0.576 0.438 0.544 1.071 0.83 1.062-1.167-0.744-0.822-0.148-0.395-0.296-0.545-0.343-0.624-0.433-0.621-0.603-0.499-0.815-0.268-0.706 0.196-0.521 0.264-0.507 0.39-0.443 0.446-0.32 0.357-0.225 0.239-0.017 0.029 0.33-0.063 0.211 0.145-0.121-0.172-0.259-0.539-0.271-0.776-0.175-0.893-0.157-0.951-0.066-0.757 0.033-0.657 0.017-0.321-0.014-6e-3 -0.014-0.011-1.18-0.122 0.03-4e-3 0.024-0.033 0.024 0.124-0.015 0.404-0.054 0.475-0.083 0.568-0.112 0.616-0.166 0.656-0.291 0.721-0.294 0.64-0.395 0.492-0.417 0.333-0.41 0.21-0.55 0.146-0.655 0.068-0.621-0.064-0.494-0.191-0.399-0.327-0.36-0.578-0.289-0.747-0.163-0.772 0.062-0.641 0.212-0.581 0.239-0.339 0.302-0.218 0.322-0.132 0.33-0.041 0.368-1e-3 0.088 0.014-0.051-0.042-0.091-0.156 5e-3 -2e-3 -0.014 0.204-0.043 0.176-0.079 0.161-0.138 0.174-0.247 0.21-0.287 0.165-0.356 0.153-0.289 0.121-0.302 0.082-0.398 0.145-0.343 0.156-0.426 0.177-0.475 0.316-0.393 0.329-0.312 0.261-0.184 0.122-0.165 0.048-0.294 0.017-0.428-0.063-0.5-0.143-0.693-0.294-0.882-0.412-0.88-0.377-0.931-0.3-0.854-0.149-0.743 0.043-0.788 0.212-0.602 0.957 0.353 1.005 0.535 0.696 0.679 0.719 0.76 0.672 0.817 0.63 0.75 0.505 0.706 0.43 0.607 0.354 0.573 0.368 0.556 0.3 0.438 0.207 0.35 0.132 0.231 0.042 1.142-1.384-0.076-0.183-0.103-0.198-0.095-0.522-0.228-1.048-0.14-1.426-0.119-1.863-0.119-2.015-0.069-2.126-0.04-2.165-0.012-2.142-0.015-2.001-6e-3 -1.737-1e-3 -1.295-1e-3 -0.795-4e-3 -0.382-1e-3 -0.089-1.877-0.154-0.037 0.253 2e-3 0.391-0.072 0.509-0.143 0.836-0.2 1.052-0.308 1.219-0.401 1.322-0.452 1.346-0.574 1.198-0.662 1.066-0.747 0.995-0.835 0.945-0.894 0.866-0.916 0.772-0.916 0.637-0.907 0.567-0.861 0.492-0.745 0.564-0.609 0.691-0.306 0.952 0.127 0.995 0.403 0.931 0.546 0.863 0.684 0.791 0.829 0.698 0.808 0.561 0.816 0.549 0.739 0.455 0.523 0.403 0.346 0.343 0.082 0.092-0.196-0.594 0.4-0.401 1.583 0.261-0.069-0.14-0.124-0.223-0.135-0.357-0.194-0.713-0.282-1.105-0.282-1.604-0.206-2.121-0.148-2.472-0.102-2.714-0.047-2.744-0.143-2.638-0.144-2.302-0.144-1.905-0.271-1.405-0.193-0.868-0.405-0.82-0.809-0.284-0.472 0.183-0.382 0.334-0.15 0.413-0.066 0.298-0.126 0.431-0.123 0.467-0.222 0.457-0.279 0.464-0.368 0.422-0.445 0.467-0.436 0.37-0.478 0.302-0.506 0.307-0.552 0.34-0.611 0.539-0.546 0.789-0.449 0.925-0.363 1.105-0.227 1.193-0.102 1.293 0.095 1.43 0.244 1.534 0.327 1.593 0.386 1.658 0.35 1.516 0.267 1.316 0.233 1.107 0.151 0.844 0.123 0.629 0.103 0.499 0.126 0.377 0.108 0.227 0.091 0.136 0.75-1.402 0.343 4e-3 0.13 0.132-4e-3 4e-3 0.093 0.132-0.073-0.159-0.134-0.313-0.169-0.481-0.169-0.545-0.129-0.665-0.102-0.67-0.026-0.717-0.031-0.606 0.043-0.404-7e-3 -0.14-0.044-0.015-1.13-0.189 0.042-0.02 0.049-0.117 0.01 0.089 9e-3 0.128 0.029 0.012-0.054 0.031h-0.163l-0.372-0.124-0.427-0.234-0.417-0.381-0.45-0.352-0.363-0.355-0.466-0.394-0.53-0.334-0.558-0.317-0.755-0.266h-0.77l-0.658 0.154-0.636 0.381-0.436 0.652-0.118 0.778 0.132 0.773 0.241 0.709 0.276 0.742 0.434 0.751 0.418 0.546 0.352 0.475 0.319 0.35 0.225 0.223 0.077 0.1 0.113 0.181 0.268 0.301-0.309-0.318 0.393-1.16 0.68 0.018-0.101 4e-3 -0.102-0.019-0.131-0.077-0.223-0.219-0.348-0.404-0.347-0.565-0.394-0.693-0.273-0.667-0.175-0.532-0.075-0.41-9e-3 -0.346-0.086-0.208-0.071-0.671-0.869 0.083-0.259 0.318-0.055 0.192-0.059 0.192-0.171 0.266" __comx="360.98" __comy="796.021" __timestamp="0x1963b04a9f3"/><path class="write-flat-pen" d="m399.5 794.6 0.07-0.25 0.087-0.176 0.076-0.217 0.099-0.263 0.125-0.174 0.119-0.121 0.231-0.292-0.14-0.659-0.53-0.375-0.634-0.096-0.725 0.171-0.669 0.397-0.688 0.631-0.666 0.84-0.662 0.985-0.713 1.217-0.497 1.415-0.296 1.525 0.038 1.47 0.433 1.392 0.708 1.11 0.986 0.825 1.139 0.421 1.199 0.07 1.175-0.298 1.117-0.549 0.914-0.81 0.828-0.981 0.848-0.992 0.715-1.047 0.493-0.979 0.358-0.821 0.245-0.66 0.024-0.582-0.117-0.503-0.443-0.388-0.586-0.149-0.565-0.018-0.601 0.152-0.617 0.302-0.549 0.626-0.412 0.763-0.357 0.991-0.212 1.158-0.113 1.214 0.056 1.184 0.285 1.086 0.604 0.936 0.957 0.537 1.081 0.248 1.111-0.061 1.118-0.293 1.081-0.413 1.072-0.572 1.01-0.675 0.895-0.779 0.718-0.937 0.389-1.059 0.167-1.007-0.122-1.011-0.5-0.965-0.856-0.577-0.966-0.35-1.093-0.138-1.103-0.056-1.11 0.156-1.038 0.317-0.905 0.564-0.565 0.806-0.103 0.939 0.851 0.696 0.588-0.373 0.066-0.54 0.133 0.113 0.257-0.136 0.449-0.2 0.672-0.152 0.774-0.081 0.839 0.06 0.791 0.099 0.504 0.181 0.203 0.129 0.09 0.152 0.056 0.343-0.069 0.525-0.2 0.589-0.399 0.537-0.637 0.575-0.817 0.562-0.871 0.486-0.862 0.351-0.825 0.238-0.654 0.056-0.567-0.105-0.338-0.168-0.222-0.301-0.184-0.62-0.064-0.876 0.065-1.024 0.141-0.963 0.232-0.773 0.235-0.532 0.215-0.316 0.208-0.171 0.28-0.143 0.26-0.076 0.236-0.029 0.089-0.035 0.12 0.086 0.14 0.357-0.05 0.577-0.231 0.827-0.446 0.964-0.7 1.016-0.859 0.95-0.94 0.783-0.97 0.427-1 0.157-0.888-0.061-0.744-0.224-0.626-0.344-0.546-0.47-0.409-0.658-0.273-0.904-0.023-1 0.236-1.185 0.387-1.118 0.583-1.021 0.575-0.896 0.509-0.691 0.432-0.428 0.274-0.192 0.155-0.065-0.045-0.038-0.235-0.196-0.082-0.485 0.115-0.056 3e-3 0.29 5e-3 0.299 0.04 0.385 0.076 0.252 0.087 0.176 0.07 0.25" __comx="402.676" __comy="796.021" __timestamp="0x1963b04ad33"/><path class="write-flat-pen" d="m411.6 796.9 0.024-0.281 0.014-0.238 0.052-0.356v-0.456l0.029-0.438 0.026-0.372 0.05-0.337 0.048-0.194 0.084-0.134 0.069-0.093 0.036 0.016 0.1-0.093-8e-3 0.08-0.199 0.184-0.155 0.02-0.226 0.015-0.262-0.231-0.018 5e-3 0.056 0.305 0.093 0.564 0.092 0.696 0.064 0.919 0.1 1.129 0.042 1.224 0.075 1.244-7e-3 1.161 0.095 1.031 0.198 0.783 0.217 0.654 0.501 0.575 0.754 0.329 0.71-0.256 0.525-0.355 0.436-0.558 0.35-0.619 0.328-0.688 0.261-0.703 0.256-0.765 0.165-0.707 0.114-0.561 0.136-0.459 0.025-0.245-9e-3 0.025-0.435 0.878-1.181-0.573-0.049-0.114 0.184 0.37 0.184 0.394 0.197 0.525 0.335 0.544 0.368 0.408 0.455 0.398 0.846 0.234 0.699-0.23 0.531-0.369 0.389-0.472 0.31-0.463 0.332-0.451 0.277-0.442 0.233-0.277 0.208-0.19 0.156-0.099 0.168-0.061-0.16 0.04-0.286-0.124-0.032-0.033 0.119 0.339 0.26 0.72 0.227 0.713 0.254 0.824 0.314 0.695 0.259 0.613 0.34 0.57 0.37 0.451 0.454 0.375 0.634 0.195 0.612-0.035 1.226-0.431-0.381-1.508-0.988 0.128-0.035-0.093-0.014-0.041-0.018-0.036-0.161-0.197-0.188-0.314-0.214-0.504-0.272-0.6-0.219-0.708-0.242-0.76-0.271-0.75-0.234-0.662-0.505-0.623-0.814-0.36-0.632 0.157-0.48 0.176-0.492 0.312-0.439 0.4-0.414 0.491-0.313 0.5-0.316 0.43-0.276 0.421-0.143 0.175-0.059 0.042 0.168-0.052 0.198 0.055-0.015-0.013-0.163-0.182-0.135-0.22-0.156-0.417-0.23-0.49-0.169-0.336-0.224-0.525-1.301-0.632-0.493 0.994-0.126 0.32-0.033 0.344-0.1 0.364-0.123 0.617-0.13 0.589-0.214 0.646-0.212 0.592-0.258 0.549-0.239 0.44-0.154 0.21-0.064 0.056 0.241-0.081 0.34 0.155 0.032 0.044-0.078-0.227-0.155-0.574-0.083-0.792-7e-3 -1.134-0.1-1.288-0.078-1.25-0.133-1.167-0.114-0.965-0.145-0.774-0.14-0.614-0.123-0.459-0.192-0.41-0.44-0.406-0.404 0.015-0.33 0.02-0.435 0.359-0.067 0.2-0.078 0.201-0.022 0.191 0.011 0.143-0.033 0.277 0.048 0.337 0.05 0.369 0.084 0.392 0.087 0.446 0.116 0.428 0.052 0.349 0.075 0.232 0.024 0.262" __comx="418.243" __comy="796.021" __timestamp="0x1963b04b0d9"/><path class="write-flat-pen" d="m425.9 796.4-0.066-0.279 0.053-0.189 0.035-0.216-0.03-0.25 0.026-0.139-0.018-0.16 0.031-0.053-0.696 0.959-0.176 0.044-0.178-0.079 0.033 0.101 0.106 0.398 0.082 0.652 0.015 0.879 0.142 1.108 0.143 1.04 0.144 0.951 0.11 0.699 0.076 0.579 0.329 0.676 0.843 0.373 0.694-0.226 0.567-0.317 0.49-0.525 0.412-0.665 0.326-0.747 0.348-0.841 0.285-0.911 0.242-0.89 0.229-0.773 0.201-0.631 0.152-0.455 0.179-0.348 0.133-0.264-0.393 0.664-1.189-0.58-0.032-0.271 0.027 0.5 0.027 0.71-3e-3 0.775v1.843l0.139 0.881 0.187 0.781 0.363 0.677 0.613 0.489 0.648 0.183 0.62 1e-3 0.558-0.078 0.498-0.15 0.527-0.211 0.387-0.389 0.266-0.234 0.303-0.301 0.248-0.27 0.238-0.151 0.298-0.216 0.189-0.103 0.279-0.094 0.213-0.076 0.15-0.013h0.621l0.47-0.045 0.632-0.188 0.467-0.467 0.364-0.483 0.281-0.564 0.207-0.435 0.31-0.45 0.311-0.585 0.265-0.605 0.141-0.68-0.049-0.764-0.294-0.65-0.341-0.475-0.443-0.443-0.524-0.312-0.48-0.202-0.639-0.173-0.788 0.18-0.641 0.376-0.548 0.64-0.408 0.818-0.214 0.965-0.131 1.052 0.063 1.198 0.164 1.193 0.373 1.154 0.482 1.001 0.624 0.857 0.772 0.555 0.808 0.316 0.9 0.044 0.858-0.195 0.714-0.273 0.703-0.317 0.672-0.352 0.631-0.379 0.64-0.417 0.626-0.491 0.561-0.612 0.45-0.634 0.433-0.666 0.386-0.665 0.359-0.595 0.367-0.549 0.328-0.5 0.158-0.318 0.069-0.118-1.517 0.191-0.252-0.253v-0.267l-0.029 0.33-0.031 0.661v0.741l-0.029 0.84-0.029 0.941-0.03 0.934 0.066 0.894 0.152 0.851 0.372 0.79 0.589 0.536 0.587 0.245 0.626 0.138 0.659-0.24 0.382-0.318 0.241-0.304 0.185-0.369 0.114-0.301 0.084-0.257 0.063-0.158-0.024 0.034 0.069-0.047 0.086-0.043-0.174 0.044-0.247-0.098 7e-3 0.015 0.199 0.274 0.218 0.383 0.239 0.379 0.451 0.379 0.654 0.248 0.638-0.13 0.569-0.205 0.54-0.486 0.344-0.559 0.237-0.541 0.224-0.541 0.192-0.578 0.164-0.548 0.255-0.595 0.261-0.731 0.337-0.767 0.379-0.873 0.455-0.968 0.541-1.03 0.641-1.138 0.708-1.267 0.814-1.448 0.791-1.736 0.744-1.882 0.737-1.919 0.737-1.914 0.663-1.73 0.712-1.48 0.628-1.2 0.387-0.655-0.261 0.248-0.776-0.548 0.024 0.221 0.054 1.106-0.029 1.611-0.064 2.087-0.073 2.357-0.071 2.443-0.064 2.373 0.028 2.178 0.056 1.997 0.121 1.905 0.24 1.824 0.207 1.722 0.237 1.484 0.175 1.164 0.063 0.663 8e-3 0.05 0.146-0.116-0.095 0.025-0.509-0.061-0.73-0.177-0.83-0.337-0.918-0.481-0.977-0.652-0.936-0.773-0.786-0.884-0.628-0.989-0.37-0.856-0.1-0.605 0.044-0.238 0.177-0.175 0.691-0.377 1.242-0.483 1.699-0.567 1.995-0.602 2.144-0.547 2.176-0.494 1.988-0.413 2.833-0.469-0.29-1.882-2.876 0.41-2.072 0.351-2.241 0.51-2.214 0.571-2.065 0.635-1.776 0.609-1.406 0.579-1.078 0.623-0.765 0.884-0.13 1.116 0.195 1.105 0.51 1.203 0.787 1.248 0.979 1.117 1.126 0.933 1.14 0.763 1.087 0.578 1.051 0.427 0.98 0.237 0.961 0.114 0.905-0.212 0.736-0.643 0.186-0.951-0.057-0.985-0.178-1.251-0.232-1.459-0.204-1.694-0.233-1.767-0.115-1.803-0.061-1.947-0.03-2.123 0.052-2.335 0.048-2.443 0.043-2.354 0.053-2.094 0.03-1.686-0.063-1.248-0.15-1.132-1.191-0.843-1.083 1.012-0.555 0.935-0.667 1.274-0.761 1.58-0.691 1.803-0.737 1.913-0.733 1.909-0.729 1.825-0.738 1.618-0.776 1.379-0.707 1.265-0.654 1.158-0.576 1.091-0.487 1.033-0.388 0.892-0.369 0.823-0.266 0.742-0.276 0.641-0.189 0.627-0.161 0.485-0.19 0.46-0.175 0.401-0.126 0.206-0.049 0.045-0.079 0.028 0.049-0.01 0.184 0.069 0.036 0.026-0.056-0.09-0.252-0.443-0.274-0.374-0.346-0.454-0.837-0.335-0.644 0.16-0.384 0.193-0.462 0.306-0.319 0.445-0.174 0.432-0.091 0.274-0.064 0.169-0.051 0.104 8e-3 -9e-3 0.029-0.023 0.186-0.065 0.095 0.022-0.119-0.049-0.058-0.053-0.097-0.21-0.084-0.503-0.051-0.696 0.028-0.834 0.029-0.94 0.029-0.87v-0.729l0.027-0.576 0.033-0.376v-0.62l-0.314-0.315-1.517 0.191-0.106 0.177-0.137 0.271-0.262 0.384-0.397 0.568-0.409 0.642-0.379 0.63-0.393 0.571-0.372 0.483-0.382 0.392-0.433 0.331-0.539 0.347-0.548 0.33-0.565 0.296-0.593 0.268-0.519 0.2-0.437 0.1-0.279-0.014-0.251-0.099-0.29-0.209-0.318-0.438-0.34-0.706-0.275-0.847-0.13-0.928-0.053-0.924 0.101-0.771 0.139-0.624 0.181-0.361 0.157-0.182 0.068-0.039-0.024 6e-3 9e-3 2e-3 0.225 0.093 0.182 0.102 0.146 0.143 0.131 0.173 0.059 0.118 9e-3 0.117-0.037 0.204-0.146 0.337-0.22 0.415-0.338 0.492-0.262 0.566-0.188 0.378-0.167 0.223-6e-3 6e-3 0.046-0.014-0.178 0.017h-0.616l-0.498 0.045-0.435 0.157-0.426 0.143-0.459 0.25-0.353 0.256-0.409 0.26-0.4 0.436-0.225 0.23-0.265 0.235-0.141 0.142-0.062 0.025-0.27 0.083-0.265 0.042-0.206 1e-3 1e-3 4e-3 0.024 0.02-0.048-0.091-0.108-0.453-0.097-0.651v-1.69l-3e-3 -0.815-0.031-0.764-0.031-0.559-0.09-0.861-1.426-0.697-0.567 0.959-0.162 0.325-0.236 0.475-0.201 0.603-0.21 0.664-0.24 0.817-0.231 0.878-0.246 0.796-0.3 0.749-0.26 0.607-0.235 0.397-0.158 0.181-0.142 0.095 0.166-0.048 0.428 0.195 0.096 0.206-0.044-0.305-0.123-0.716-0.151-0.93-0.152-1.023-0.153-1.009-0.044-0.889-0.154-0.879-0.247-0.719-0.378-0.547-0.534-0.316-0.292 0.044-0.696 0.959 0.09 0.125 0.102 0.076 0.084 0.094 0.207 0.223 0.151 0.137 0.228 0.164 0.278 0.178" __comx="448.044" __comy="796.021" __timestamp="0x1963b04b77d"/></g><a target="_top" xlink:href="mailto:blog@lehnert.dev"><rect x="124.1" y="776" width="347.4" height="43.17" fill-opacity="0" stroke-opacity="0"/></a></g></g></svg>
